<?xml version="1.0" encoding="UTF-8" standalone="no"?>
<!DOCTYPE svg PUBLIC "-//W3C//DTD SVG 1.1//EN"
 "http://www.w3.org/Graphics/SVG/1.1/DTD/svg11.dtd">
<!-- Generated by graphviz version 2.40.1 (20161225.0304)
 -->
<!-- Title: dependencies Pages: 1 -->
<svg width="887pt" height="284pt"
 viewBox="0.00 0.00 887.00 284.00" xmlns="http://www.w3.org/2000/svg" xmlns:xlink="http://www.w3.org/1999/xlink">
<g id="graph0" class="graph" transform="scale(1 1) rotate(0) translate(4 280)">
<title>dependencies</title>
<polygon fill="#ffffff" stroke="transparent" points="-4,4 -4,-280 883,-280 883,4 -4,4"/>
<text text-anchor="start" x="418.5091" y="-42.4" font-family="sans-serif" font-weight="bold" font-size="14.00" fill="#000000">Legend</text>
<polygon fill="#ffffb3" stroke="transparent" points="205.5,-10 205.5,-30 225.5,-30 225.5,-10 205.5,-10"/>
<text text-anchor="start" x="229.129" y="-15.4" font-family="sans-serif" font-size="14.00" fill="#000000"> &#160;Declarations</text>
<polygon fill="#8dd3c7" stroke="transparent" points="318.5,-10 318.5,-30 338.5,-30 338.5,-10 318.5,-10"/>
<text text-anchor="start" x="342.2251" y="-15.4" font-family="sans-serif" font-size="14.00" fill="#000000"> &#160;Module</text>
<polygon fill="#80b1d3" stroke="transparent" points="404.5,-10 404.5,-30 424.5,-30 424.5,-10 404.5,-10"/>
<text text-anchor="start" x="428.2812" y="-15.4" font-family="sans-serif" font-size="14.00" fill="#000000"> &#160;Bootstrap</text>
<polygon fill="#fdb462" stroke="transparent" points="501.5,-10 501.5,-30 521.5,-30 521.5,-10 501.5,-10"/>
<text text-anchor="start" x="525.1732" y="-15.4" font-family="sans-serif" font-size="14.00" fill="#000000"> &#160;Providers</text>
<polygon fill="#fb8072" stroke="transparent" points="597.5,-10 597.5,-30 617.5,-30 617.5,-10 597.5,-10"/>
<text text-anchor="start" x="621.2258" y="-15.4" font-family="sans-serif" font-size="14.00" fill="#000000"> &#160;Exports</text>
<g id="clust1" class="cluster">
<title>cluster_TipoDescuentoModule</title>
<polygon fill="none" stroke="#000000" stroke-dasharray="1,5" points="8,-70 8,-268 871,-268 871,-70 8,-70"/>
</g>
<g id="clust3" class="cluster">
<title>cluster_TipoDescuentoModule_imports</title>
<polygon fill="none" stroke="#000000" points="425,-78 425,-130 863,-130 863,-78 425,-78"/>
</g>
<g id="clust4" class="cluster">
<title>cluster_TipoDescuentoModule_exports</title>
<polygon fill="none" stroke="#000000" points="375,-208 375,-260 589,-260 589,-208 375,-208"/>
</g>
<g id="clust6" class="cluster">
<title>cluster_TipoDescuentoModule_providers</title>
<polygon fill="none" stroke="#000000" points="16,-78 16,-130 417,-130 417,-78 16,-78"/>
</g>
<!-- ThemeModule -->
<g id="node1" class="node">
<title>ThemeModule</title>
<polygon fill="#8dd3c7" stroke="#000000" points="855.4231,-122 852.4231,-126 831.4231,-126 828.4231,-122 756.5769,-122 756.5769,-86 855.4231,-86 855.4231,-122"/>
<text text-anchor="middle" x="806" y="-99.8" font-family="Times,serif" font-size="14.00" fill="#000000">ThemeModule</text>
</g>
<!-- TipoDescuentoModule -->
<g id="node4" class="node">
<title>TipoDescuentoModule</title>
<polygon fill="#8dd3c7" stroke="#000000" points="554.5786,-187 551.5786,-191 530.5786,-191 527.5786,-187 409.4214,-187 409.4214,-151 554.5786,-151 554.5786,-187"/>
<text text-anchor="middle" x="482" y="-164.8" font-family="Times,serif" font-size="14.00" fill="#000000">TipoDescuentoModule</text>
</g>
<!-- ThemeModule&#45;&gt;TipoDescuentoModule -->
<g id="edge1" class="edge">
<title>ThemeModule&#45;&gt;TipoDescuentoModule</title>
<path fill="none" stroke="#000000" d="M806,-122.1061C806,-141.3391 806,-169 806,-169 806,-169 564.7119,-169 564.7119,-169"/>
<polygon fill="#000000" stroke="#000000" points="564.712,-165.5001 554.7119,-169 564.7119,-172.5001 564.712,-165.5001"/>
</g>
<!-- TipoDescuentoRoutingModule -->
<g id="node2" class="node">
<title>TipoDescuentoRoutingModule</title>
<polygon fill="#8dd3c7" stroke="#000000" points="739.1965,-122 736.1965,-126 715.1965,-126 712.1965,-122 548.8035,-122 548.8035,-86 739.1965,-86 739.1965,-122"/>
<text text-anchor="middle" x="644" y="-99.8" font-family="Times,serif" font-size="14.00" fill="#000000">TipoDescuentoRoutingModule</text>
</g>
<!-- TipoDescuentoRoutingModule&#45;&gt;TipoDescuentoModule -->
<g id="edge2" class="edge">
<title>TipoDescuentoRoutingModule&#45;&gt;TipoDescuentoModule</title>
<path fill="none" stroke="#000000" d="M548.5626,-104C543.2682,-104 540.0565,-104 540.0565,-104 540.0565,-104 540.0565,-140.8939 540.0565,-140.8939"/>
<polygon fill="#000000" stroke="#000000" points="536.5565,-140.8938 540.0565,-150.8939 543.5565,-140.8939 536.5565,-140.8938"/>
</g>
<!-- SharedModule -->
<g id="node3" class="node">
<title>SharedModule</title>
<polygon fill="#8dd3c7" stroke="#000000" points="531.4231,-122 528.4231,-126 507.4231,-126 504.4231,-122 432.5769,-122 432.5769,-86 531.4231,-86 531.4231,-122"/>
<text text-anchor="middle" x="482" y="-99.8" font-family="Times,serif" font-size="14.00" fill="#000000">SharedModule</text>
</g>
<!-- SharedModule&#45;&gt;TipoDescuentoModule -->
<g id="edge3" class="edge">
<title>SharedModule&#45;&gt;TipoDescuentoModule</title>
<path fill="none" stroke="#000000" d="M482,-122.1061C482,-122.1061 482,-140.991 482,-140.991"/>
<polygon fill="#000000" stroke="#000000" points="478.5001,-140.9909 482,-150.991 485.5001,-140.991 478.5001,-140.9909"/>
</g>
<!-- CrudTipoDescuentoComponent  -->
<g id="node5" class="node">
<title>CrudTipoDescuentoComponent </title>
<polygon fill="#fb8072" stroke="#000000" points="581.3587,-252 382.6413,-252 382.6413,-216 581.3587,-216 581.3587,-252"/>
<text text-anchor="middle" x="482" y="-229.8" font-family="Times,serif" font-size="14.00" fill="#000000">CrudTipoDescuentoComponent </text>
</g>
<!-- TipoDescuentoModule&#45;&gt;CrudTipoDescuentoComponent  -->
<g id="edge4" class="edge">
<title>TipoDescuentoModule&#45;&gt;CrudTipoDescuentoComponent </title>
<path fill="none" stroke="#000000" stroke-dasharray="5,2" d="M482,-187.1061C482,-187.1061 482,-205.991 482,-205.991"/>
<polygon fill="#000000" stroke="#000000" points="478.5001,-205.9909 482,-215.991 485.5001,-205.991 478.5001,-205.9909"/>
</g>
<!-- CoreService -->
<g id="node6" class="node">
<title>CoreService</title>
<ellipse fill="#fdb462" stroke="#000000" cx="350" cy="-104" rx="58.5251" ry="18"/>
<text text-anchor="middle" x="350" y="-99.8" font-family="Times,serif" font-size="14.00" fill="#000000">CoreService</text>
</g>
<!-- CoreService&#45;&gt;TipoDescuentoModule -->
<g id="edge5" class="edge">
<title>CoreService&#45;&gt;TipoDescuentoModule</title>
<path fill="none" stroke="#000000" d="M409.0594,-104C416.253,-104 421.1248,-104 421.1248,-104 421.1248,-104 421.1248,-140.8939 421.1248,-140.8939"/>
<polygon fill="#000000" stroke="#000000" points="417.6249,-140.8938 421.1248,-150.8939 424.6249,-140.8939 417.6249,-140.8938"/>
</g>
<!-- DescuentoAcademicoService -->
<g id="node7" class="node">
<title>DescuentoAcademicoService</title>
<ellipse fill="#fdb462" stroke="#000000" cx="149" cy="-104" rx="124.9384" ry="18"/>
<text text-anchor="middle" x="149" y="-99.8" font-family="Times,serif" font-size="14.00" fill="#000000">DescuentoAcademicoService</text>
</g>
<!-- DescuentoAcademicoService&#45;&gt;TipoDescuentoModule -->
<g id="edge6" class="edge">
<title>DescuentoAcademicoService&#45;&gt;TipoDescuentoModule</title>
<path fill="none" stroke="#000000" d="M149,-122.1061C149,-141.3391 149,-169 149,-169 149,-169 399.3332,-169 399.3332,-169"/>
<polygon fill="#000000" stroke="#000000" points="399.3333,-172.5001 409.3332,-169 399.3332,-165.5001 399.3333,-172.5001"/>
</g>
</g>
</svg>
