<?xml version="1.0" encoding="UTF-8" standalone="no"?>
<!DOCTYPE svg PUBLIC "-//W3C//DTD SVG 1.1//EN"
 "http://www.w3.org/Graphics/SVG/1.1/DTD/svg11.dtd">
<!-- Generated by graphviz version 2.40.1 (20161225.0304)
 -->
<!-- Title: dependencies Pages: 1 -->
<svg width="752pt" height="284pt"
 viewBox="0.00 0.00 752.00 284.00" xmlns="http://www.w3.org/2000/svg" xmlns:xlink="http://www.w3.org/1999/xlink">
<g id="graph0" class="graph" transform="scale(1 1) rotate(0) translate(4 280)">
<title>dependencies</title>
<polygon fill="#ffffff" stroke="transparent" points="-4,4 -4,-280 748,-280 748,4 -4,4"/>
<text text-anchor="start" x="351.0091" y="-42.4" font-family="sans-serif" font-weight="bold" font-size="14.00" fill="#000000">Legend</text>
<polygon fill="#ffffb3" stroke="transparent" points="138,-10 138,-30 158,-30 158,-10 138,-10"/>
<text text-anchor="start" x="161.629" y="-15.4" font-family="sans-serif" font-size="14.00" fill="#000000"> &#160;Declarations</text>
<polygon fill="#8dd3c7" stroke="transparent" points="251,-10 251,-30 271,-30 271,-10 251,-10"/>
<text text-anchor="start" x="274.7251" y="-15.4" font-family="sans-serif" font-size="14.00" fill="#000000"> &#160;Module</text>
<polygon fill="#80b1d3" stroke="transparent" points="337,-10 337,-30 357,-30 357,-10 337,-10"/>
<text text-anchor="start" x="360.7812" y="-15.4" font-family="sans-serif" font-size="14.00" fill="#000000"> &#160;Bootstrap</text>
<polygon fill="#fdb462" stroke="transparent" points="434,-10 434,-30 454,-30 454,-10 434,-10"/>
<text text-anchor="start" x="457.6732" y="-15.4" font-family="sans-serif" font-size="14.00" fill="#000000"> &#160;Providers</text>
<polygon fill="#fb8072" stroke="transparent" points="530,-10 530,-30 550,-30 550,-10 530,-10"/>
<text text-anchor="start" x="553.7258" y="-15.4" font-family="sans-serif" font-size="14.00" fill="#000000"> &#160;Exports</text>
<g id="clust1" class="cluster">
<title>cluster_TipoDescuentoModule</title>
<polygon fill="none" stroke="#000000" stroke-dasharray="1,5" points="8,-70 8,-268 736,-268 736,-70 8,-70"/>
</g>
<g id="clust3" class="cluster">
<title>cluster_TipoDescuentoModule_imports</title>
<polygon fill="none" stroke="#000000" points="290,-78 290,-130 728,-130 728,-78 290,-78"/>
</g>
<g id="clust4" class="cluster">
<title>cluster_TipoDescuentoModule_exports</title>
<polygon fill="none" stroke="#000000" points="321,-208 321,-260 535,-260 535,-208 321,-208"/>
</g>
<g id="clust6" class="cluster">
<title>cluster_TipoDescuentoModule_providers</title>
<polygon fill="none" stroke="#000000" points="16,-78 16,-130 282,-130 282,-78 16,-78"/>
</g>
<!-- ThemeModule -->
<g id="node1" class="node">
<title>ThemeModule</title>
<polygon fill="#8dd3c7" stroke="#000000" points="720.4231,-122 717.4231,-126 696.4231,-126 693.4231,-122 621.5769,-122 621.5769,-86 720.4231,-86 720.4231,-122"/>
<text text-anchor="middle" x="671" y="-99.8" font-family="Times,serif" font-size="14.00" fill="#000000">ThemeModule</text>
</g>
<!-- TipoDescuentoModule -->
<g id="node4" class="node">
<title>TipoDescuentoModule</title>
<polygon fill="#8dd3c7" stroke="#000000" points="500.5786,-187 497.5786,-191 476.5786,-191 473.5786,-187 355.4214,-187 355.4214,-151 500.5786,-151 500.5786,-187"/>
<text text-anchor="middle" x="428" y="-164.8" font-family="Times,serif" font-size="14.00" fill="#000000">TipoDescuentoModule</text>
</g>
<!-- ThemeModule&#45;&gt;TipoDescuentoModule -->
<g id="edge1" class="edge">
<title>ThemeModule&#45;&gt;TipoDescuentoModule</title>
<path fill="none" stroke="#000000" d="M671,-122.1061C671,-141.3391 671,-169 671,-169 671,-169 510.5789,-169 510.5789,-169"/>
<polygon fill="#000000" stroke="#000000" points="510.5789,-165.5001 500.5789,-169 510.5788,-172.5001 510.5789,-165.5001"/>
</g>
<!-- TipoDescuentoRoutingModule -->
<g id="node2" class="node">
<title>TipoDescuentoRoutingModule</title>
<polygon fill="#8dd3c7" stroke="#000000" points="604.1965,-122 601.1965,-126 580.1965,-126 577.1965,-122 413.8035,-122 413.8035,-86 604.1965,-86 604.1965,-122"/>
<text text-anchor="middle" x="509" y="-99.8" font-family="Times,serif" font-size="14.00" fill="#000000">TipoDescuentoRoutingModule</text>
</g>
<!-- TipoDescuentoRoutingModule&#45;&gt;TipoDescuentoModule -->
<g id="edge2" class="edge">
<title>TipoDescuentoRoutingModule&#45;&gt;TipoDescuentoModule</title>
<path fill="none" stroke="#000000" d="M457.2206,-122.1061C457.2206,-122.1061 457.2206,-140.991 457.2206,-140.991"/>
<polygon fill="#000000" stroke="#000000" points="453.7206,-140.9909 457.2206,-150.991 460.7206,-140.991 453.7206,-140.9909"/>
</g>
<!-- SharedModule -->
<g id="node3" class="node">
<title>SharedModule</title>
<polygon fill="#8dd3c7" stroke="#000000" points="396.4231,-122 393.4231,-126 372.4231,-126 369.4231,-122 297.5769,-122 297.5769,-86 396.4231,-86 396.4231,-122"/>
<text text-anchor="middle" x="347" y="-99.8" font-family="Times,serif" font-size="14.00" fill="#000000">SharedModule</text>
</g>
<!-- SharedModule&#45;&gt;TipoDescuentoModule -->
<g id="edge3" class="edge">
<title>SharedModule&#45;&gt;TipoDescuentoModule</title>
<path fill="none" stroke="#000000" d="M375.8359,-122.1061C375.8359,-122.1061 375.8359,-140.991 375.8359,-140.991"/>
<polygon fill="#000000" stroke="#000000" points="372.336,-140.9909 375.8359,-150.991 379.336,-140.991 372.336,-140.9909"/>
</g>
<!-- CrudTipoDescuentoComponent  -->
<g id="node5" class="node">
<title>CrudTipoDescuentoComponent </title>
<polygon fill="#fb8072" stroke="#000000" points="527.3587,-252 328.6413,-252 328.6413,-216 527.3587,-216 527.3587,-252"/>
<text text-anchor="middle" x="428" y="-229.8" font-family="Times,serif" font-size="14.00" fill="#000000">CrudTipoDescuentoComponent </text>
</g>
<!-- TipoDescuentoModule&#45;&gt;CrudTipoDescuentoComponent  -->
<g id="edge4" class="edge">
<title>TipoDescuentoModule&#45;&gt;CrudTipoDescuentoComponent </title>
<path fill="none" stroke="#000000" stroke-dasharray="5,2" d="M428,-187.1061C428,-187.1061 428,-205.991 428,-205.991"/>
<polygon fill="#000000" stroke="#000000" points="424.5001,-205.9909 428,-215.991 431.5001,-205.991 424.5001,-205.9909"/>
</g>
<!-- DescuentoAcademicoService -->
<g id="node6" class="node">
<title>DescuentoAcademicoService</title>
<ellipse fill="#fdb462" stroke="#000000" cx="149" cy="-104" rx="124.9384" ry="18"/>
<text text-anchor="middle" x="149" y="-99.8" font-family="Times,serif" font-size="14.00" fill="#000000">DescuentoAcademicoService</text>
</g>
<!-- DescuentoAcademicoService&#45;&gt;TipoDescuentoModule -->
<g id="edge5" class="edge">
<title>DescuentoAcademicoService&#45;&gt;TipoDescuentoModule</title>
<path fill="none" stroke="#000000" d="M149,-122.1061C149,-141.3391 149,-169 149,-169 149,-169 345.4244,-169 345.4244,-169"/>
<polygon fill="#000000" stroke="#000000" points="345.4244,-172.5001 355.4244,-169 345.4243,-165.5001 345.4244,-172.5001"/>
</g>
</g>
</svg>
