<?xml version="1.0" encoding="UTF-8" standalone="no"?>
<!DOCTYPE svg PUBLIC "-//W3C//DTD SVG 1.1//EN"
 "http://www.w3.org/Graphics/SVG/1.1/DTD/svg11.dtd">
<!-- Generated by graphviz version 2.40.1 (20161225.0304)
 -->
<!-- Title: dependencies Pages: 1 -->
<svg width="670pt" height="284pt"
 viewBox="0.00 0.00 670.00 284.00" xmlns="http://www.w3.org/2000/svg" xmlns:xlink="http://www.w3.org/1999/xlink">
<g id="graph0" class="graph" transform="scale(1 1) rotate(0) translate(4 280)">
<title>dependencies</title>
<polygon fill="#ffffff" stroke="transparent" points="-4,4 -4,-280 666,-280 666,4 -4,4"/>
<text text-anchor="start" x="310.0091" y="-42.4" font-family="sans-serif" font-weight="bold" font-size="14.00" fill="#000000">Legend</text>
<polygon fill="#ffffb3" stroke="transparent" points="97,-10 97,-30 117,-30 117,-10 97,-10"/>
<text text-anchor="start" x="120.629" y="-15.4" font-family="sans-serif" font-size="14.00" fill="#000000"> &#160;Declarations</text>
<polygon fill="#8dd3c7" stroke="transparent" points="210,-10 210,-30 230,-30 230,-10 210,-10"/>
<text text-anchor="start" x="233.7251" y="-15.4" font-family="sans-serif" font-size="14.00" fill="#000000"> &#160;Module</text>
<polygon fill="#80b1d3" stroke="transparent" points="296,-10 296,-30 316,-30 316,-10 296,-10"/>
<text text-anchor="start" x="319.7812" y="-15.4" font-family="sans-serif" font-size="14.00" fill="#000000"> &#160;Bootstrap</text>
<polygon fill="#fdb462" stroke="transparent" points="393,-10 393,-30 413,-30 413,-10 393,-10"/>
<text text-anchor="start" x="416.6732" y="-15.4" font-family="sans-serif" font-size="14.00" fill="#000000"> &#160;Providers</text>
<polygon fill="#fb8072" stroke="transparent" points="489,-10 489,-30 509,-30 509,-10 489,-10"/>
<text text-anchor="start" x="512.7258" y="-15.4" font-family="sans-serif" font-size="14.00" fill="#000000"> &#160;Exports</text>
<g id="clust1" class="cluster">
<title>cluster_RolEncargadoEventoModule</title>
<polygon fill="none" stroke="#000000" stroke-dasharray="1,5" points="8,-70 8,-268 654,-268 654,-70 8,-70"/>
</g>
<g id="clust3" class="cluster">
<title>cluster_RolEncargadoEventoModule_imports</title>
<polygon fill="none" stroke="#000000" points="174,-78 174,-130 646,-130 646,-78 174,-78"/>
</g>
<g id="clust4" class="cluster">
<title>cluster_RolEncargadoEventoModule_exports</title>
<polygon fill="none" stroke="#000000" points="196,-208 196,-260 444,-260 444,-208 196,-208"/>
</g>
<g id="clust6" class="cluster">
<title>cluster_RolEncargadoEventoModule_providers</title>
<polygon fill="none" stroke="#000000" points="16,-78 16,-130 166,-130 166,-78 16,-78"/>
</g>
<!-- ThemeModule -->
<g id="node1" class="node">
<title>ThemeModule</title>
<polygon fill="#8dd3c7" stroke="#000000" points="638.4231,-122 635.4231,-126 614.4231,-126 611.4231,-122 539.5769,-122 539.5769,-86 638.4231,-86 638.4231,-122"/>
<text text-anchor="middle" x="589" y="-99.8" font-family="Times,serif" font-size="14.00" fill="#000000">ThemeModule</text>
</g>
<!-- RolEncargadoEventoModule -->
<g id="node4" class="node">
<title>RolEncargadoEventoModule</title>
<polygon fill="#8dd3c7" stroke="#000000" points="409.792,-187 406.792,-191 385.792,-191 382.792,-187 230.208,-187 230.208,-151 409.792,-151 409.792,-187"/>
<text text-anchor="middle" x="320" y="-164.8" font-family="Times,serif" font-size="14.00" fill="#000000">RolEncargadoEventoModule</text>
</g>
<!-- ThemeModule&#45;&gt;RolEncargadoEventoModule -->
<g id="edge1" class="edge">
<title>ThemeModule&#45;&gt;RolEncargadoEventoModule</title>
<path fill="none" stroke="#000000" d="M589,-122.1061C589,-141.3391 589,-169 589,-169 589,-169 419.9471,-169 419.9471,-169"/>
<polygon fill="#000000" stroke="#000000" points="419.9471,-165.5001 409.9471,-169 419.9471,-172.5001 419.9471,-165.5001"/>
</g>
<!-- RolEncargadoEventoRoutingModule -->
<g id="node2" class="node">
<title>RolEncargadoEventoRoutingModule</title>
<polygon fill="#8dd3c7" stroke="#000000" points="522.41,-122 519.41,-126 498.41,-126 495.41,-122 297.59,-122 297.59,-86 522.41,-86 522.41,-122"/>
<text text-anchor="middle" x="410" y="-99.8" font-family="Times,serif" font-size="14.00" fill="#000000">RolEncargadoEventoRoutingModule</text>
</g>
<!-- RolEncargadoEventoRoutingModule&#45;&gt;RolEncargadoEventoModule -->
<g id="edge2" class="edge">
<title>RolEncargadoEventoRoutingModule&#45;&gt;RolEncargadoEventoModule</title>
<path fill="none" stroke="#000000" d="M353.7206,-122.1061C353.7206,-122.1061 353.7206,-140.991 353.7206,-140.991"/>
<polygon fill="#000000" stroke="#000000" points="350.2206,-140.9909 353.7206,-150.991 357.2206,-140.991 350.2206,-140.9909"/>
</g>
<!-- SharedModule -->
<g id="node3" class="node">
<title>SharedModule</title>
<polygon fill="#8dd3c7" stroke="#000000" points="280.4231,-122 277.4231,-126 256.4231,-126 253.4231,-122 181.5769,-122 181.5769,-86 280.4231,-86 280.4231,-122"/>
<text text-anchor="middle" x="231" y="-99.8" font-family="Times,serif" font-size="14.00" fill="#000000">SharedModule</text>
</g>
<!-- SharedModule&#45;&gt;RolEncargadoEventoModule -->
<g id="edge3" class="edge">
<title>SharedModule&#45;&gt;RolEncargadoEventoModule</title>
<path fill="none" stroke="#000000" d="M255.2826,-122.1061C255.2826,-122.1061 255.2826,-140.991 255.2826,-140.991"/>
<polygon fill="#000000" stroke="#000000" points="251.7827,-140.9909 255.2826,-150.991 258.7827,-140.991 251.7827,-140.9909"/>
</g>
<!-- CrudRolEncargadoEventoComponent  -->
<g id="node5" class="node">
<title>CrudRolEncargadoEventoComponent </title>
<polygon fill="#fb8072" stroke="#000000" points="436.072,-252 203.928,-252 203.928,-216 436.072,-216 436.072,-252"/>
<text text-anchor="middle" x="320" y="-229.8" font-family="Times,serif" font-size="14.00" fill="#000000">CrudRolEncargadoEventoComponent </text>
</g>
<!-- RolEncargadoEventoModule&#45;&gt;CrudRolEncargadoEventoComponent  -->
<g id="edge4" class="edge">
<title>RolEncargadoEventoModule&#45;&gt;CrudRolEncargadoEventoComponent </title>
<path fill="none" stroke="#000000" stroke-dasharray="5,2" d="M320,-187.1061C320,-187.1061 320,-205.991 320,-205.991"/>
<polygon fill="#000000" stroke="#000000" points="316.5001,-205.9909 320,-215.991 323.5001,-205.991 316.5001,-205.9909"/>
</g>
<!-- EventoService -->
<g id="node6" class="node">
<title>EventoService</title>
<ellipse fill="#fdb462" stroke="#000000" cx="91" cy="-104" rx="67.1946" ry="18"/>
<text text-anchor="middle" x="91" y="-99.8" font-family="Times,serif" font-size="14.00" fill="#000000">EventoService</text>
</g>
<!-- EventoService&#45;&gt;RolEncargadoEventoModule -->
<g id="edge5" class="edge">
<title>EventoService&#45;&gt;RolEncargadoEventoModule</title>
<path fill="none" stroke="#000000" d="M91,-122.1061C91,-141.3391 91,-169 91,-169 91,-169 220.1504,-169 220.1504,-169"/>
<polygon fill="#000000" stroke="#000000" points="220.1504,-172.5001 230.1504,-169 220.1504,-165.5001 220.1504,-172.5001"/>
</g>
</g>
</svg>
