<?xml version="1.0" encoding="UTF-8" standalone="no"?>
<!DOCTYPE svg PUBLIC "-//W3C//DTD SVG 1.1//EN"
 "http://www.w3.org/Graphics/SVG/1.1/DTD/svg11.dtd">
<!-- Generated by graphviz version 2.40.1 (20161225.0304)
 -->
<!-- Title: dependencies Pages: 1 -->
<svg width="680pt" height="284pt"
 viewBox="0.00 0.00 680.00 284.00" xmlns="http://www.w3.org/2000/svg" xmlns:xlink="http://www.w3.org/1999/xlink">
<g id="graph0" class="graph" transform="scale(1 1) rotate(0) translate(4 280)">
<title>dependencies</title>
<polygon fill="#ffffff" stroke="transparent" points="-4,4 -4,-280 676,-280 676,4 -4,4"/>
<text text-anchor="start" x="315.0091" y="-42.4" font-family="sans-serif" font-weight="bold" font-size="14.00" fill="#000000">Legend</text>
<polygon fill="#ffffb3" stroke="transparent" points="102,-10 102,-30 122,-30 122,-10 102,-10"/>
<text text-anchor="start" x="125.629" y="-15.4" font-family="sans-serif" font-size="14.00" fill="#000000"> &#160;Declarations</text>
<polygon fill="#8dd3c7" stroke="transparent" points="215,-10 215,-30 235,-30 235,-10 215,-10"/>
<text text-anchor="start" x="238.7251" y="-15.4" font-family="sans-serif" font-size="14.00" fill="#000000"> &#160;Module</text>
<polygon fill="#80b1d3" stroke="transparent" points="301,-10 301,-30 321,-30 321,-10 301,-10"/>
<text text-anchor="start" x="324.7812" y="-15.4" font-family="sans-serif" font-size="14.00" fill="#000000"> &#160;Bootstrap</text>
<polygon fill="#fdb462" stroke="transparent" points="398,-10 398,-30 418,-30 418,-10 398,-10"/>
<text text-anchor="start" x="421.6732" y="-15.4" font-family="sans-serif" font-size="14.00" fill="#000000"> &#160;Providers</text>
<polygon fill="#fb8072" stroke="transparent" points="494,-10 494,-30 514,-30 514,-10 494,-10"/>
<text text-anchor="start" x="517.7258" y="-15.4" font-family="sans-serif" font-size="14.00" fill="#000000"> &#160;Exports</text>
<g id="clust1" class="cluster">
<title>cluster_TipoDedicacionModule</title>
<polygon fill="none" stroke="#000000" stroke-dasharray="1,5" points="8,-70 8,-268 664,-268 664,-70 8,-70"/>
</g>
<g id="clust3" class="cluster">
<title>cluster_TipoDedicacionModule_imports</title>
<polygon fill="none" stroke="#000000" points="212,-78 212,-130 656,-130 656,-78 212,-78"/>
</g>
<g id="clust4" class="cluster">
<title>cluster_TipoDedicacionModule_exports</title>
<polygon fill="none" stroke="#000000" points="241,-208 241,-260 461,-260 461,-208 241,-208"/>
</g>
<g id="clust6" class="cluster">
<title>cluster_TipoDedicacionModule_providers</title>
<polygon fill="none" stroke="#000000" points="16,-78 16,-130 204,-130 204,-78 16,-78"/>
</g>
<!-- ThemeModule -->
<g id="node1" class="node">
<title>ThemeModule</title>
<polygon fill="#8dd3c7" stroke="#000000" points="648.4231,-122 645.4231,-126 624.4231,-126 621.4231,-122 549.5769,-122 549.5769,-86 648.4231,-86 648.4231,-122"/>
<text text-anchor="middle" x="599" y="-99.8" font-family="Times,serif" font-size="14.00" fill="#000000">ThemeModule</text>
</g>
<!-- TipoDedicacionModule -->
<g id="node4" class="node">
<title>TipoDedicacionModule</title>
<polygon fill="#8dd3c7" stroke="#000000" points="425.7394,-187 422.7394,-191 401.7394,-191 398.7394,-187 276.2606,-187 276.2606,-151 425.7394,-151 425.7394,-187"/>
<text text-anchor="middle" x="351" y="-164.8" font-family="Times,serif" font-size="14.00" fill="#000000">TipoDedicacionModule</text>
</g>
<!-- ThemeModule&#45;&gt;TipoDedicacionModule -->
<g id="edge1" class="edge">
<title>ThemeModule&#45;&gt;TipoDedicacionModule</title>
<path fill="none" stroke="#000000" d="M599,-122.1061C599,-141.3391 599,-169 599,-169 599,-169 435.7445,-169 435.7445,-169"/>
<polygon fill="#000000" stroke="#000000" points="435.7445,-165.5001 425.7445,-169 435.7445,-172.5001 435.7445,-165.5001"/>
</g>
<!-- TipoDedicacionRoutingModule -->
<g id="node2" class="node">
<title>TipoDedicacionRoutingModule</title>
<polygon fill="#8dd3c7" stroke="#000000" points="531.3571,-122 528.3571,-126 507.3571,-126 504.3571,-122 336.6429,-122 336.6429,-86 531.3571,-86 531.3571,-122"/>
<text text-anchor="middle" x="434" y="-99.8" font-family="Times,serif" font-size="14.00" fill="#000000">TipoDedicacionRoutingModule</text>
</g>
<!-- TipoDedicacionRoutingModule&#45;&gt;TipoDedicacionModule -->
<g id="edge2" class="edge">
<title>TipoDedicacionRoutingModule&#45;&gt;TipoDedicacionModule</title>
<path fill="none" stroke="#000000" d="M381.2206,-122.1061C381.2206,-122.1061 381.2206,-140.991 381.2206,-140.991"/>
<polygon fill="#000000" stroke="#000000" points="377.7206,-140.9909 381.2206,-150.991 384.7206,-140.991 377.7206,-140.9909"/>
</g>
<!-- SharedModule -->
<g id="node3" class="node">
<title>SharedModule</title>
<polygon fill="#8dd3c7" stroke="#000000" points="318.4231,-122 315.4231,-126 294.4231,-126 291.4231,-122 219.5769,-122 219.5769,-86 318.4231,-86 318.4231,-122"/>
<text text-anchor="middle" x="269" y="-99.8" font-family="Times,serif" font-size="14.00" fill="#000000">SharedModule</text>
</g>
<!-- SharedModule&#45;&gt;TipoDedicacionModule -->
<g id="edge3" class="edge">
<title>SharedModule&#45;&gt;TipoDedicacionModule</title>
<path fill="none" stroke="#000000" d="M297.1708,-122.1061C297.1708,-122.1061 297.1708,-140.991 297.1708,-140.991"/>
<polygon fill="#000000" stroke="#000000" points="293.6708,-140.9909 297.1708,-150.991 300.6708,-140.991 293.6708,-140.9909"/>
</g>
<!-- CrudTipoDedicacionComponent  -->
<g id="node5" class="node">
<title>CrudTipoDedicacionComponent </title>
<polygon fill="#fb8072" stroke="#000000" points="452.519,-252 249.481,-252 249.481,-216 452.519,-216 452.519,-252"/>
<text text-anchor="middle" x="351" y="-229.8" font-family="Times,serif" font-size="14.00" fill="#000000">CrudTipoDedicacionComponent </text>
</g>
<!-- TipoDedicacionModule&#45;&gt;CrudTipoDedicacionComponent  -->
<g id="edge4" class="edge">
<title>TipoDedicacionModule&#45;&gt;CrudTipoDedicacionComponent </title>
<path fill="none" stroke="#000000" stroke-dasharray="5,2" d="M351,-187.1061C351,-187.1061 351,-205.991 351,-205.991"/>
<polygon fill="#000000" stroke="#000000" points="347.5001,-205.9909 351,-215.991 354.5001,-205.991 347.5001,-205.9909"/>
</g>
<!-- ExperienciaService -->
<g id="node6" class="node">
<title>ExperienciaService</title>
<ellipse fill="#fdb462" stroke="#000000" cx="110" cy="-104" rx="86.2116" ry="18"/>
<text text-anchor="middle" x="110" y="-99.8" font-family="Times,serif" font-size="14.00" fill="#000000">ExperienciaService</text>
</g>
<!-- ExperienciaService&#45;&gt;TipoDedicacionModule -->
<g id="edge5" class="edge">
<title>ExperienciaService&#45;&gt;TipoDedicacionModule</title>
<path fill="none" stroke="#000000" d="M110,-122.1061C110,-141.3391 110,-169 110,-169 110,-169 266.0672,-169 266.0672,-169"/>
<polygon fill="#000000" stroke="#000000" points="266.0672,-172.5001 276.0672,-169 266.0671,-165.5001 266.0672,-172.5001"/>
</g>
</g>
</svg>
