<?xml version="1.0" encoding="UTF-8" standalone="no"?>
<!DOCTYPE svg PUBLIC "-//W3C//DTD SVG 1.1//EN"
 "http://www.w3.org/Graphics/SVG/1.1/DTD/svg11.dtd">
<!-- Generated by graphviz version 2.40.1 (20161225.0304)
 -->
<!-- Title: dependencies Pages: 1 -->
<svg width="690pt" height="284pt"
 viewBox="0.00 0.00 690.00 284.00" xmlns="http://www.w3.org/2000/svg" xmlns:xlink="http://www.w3.org/1999/xlink">
<g id="graph0" class="graph" transform="scale(1 1) rotate(0) translate(4 280)">
<title>dependencies</title>
<polygon fill="#ffffff" stroke="transparent" points="-4,4 -4,-280 686,-280 686,4 -4,4"/>
<text text-anchor="start" x="320.0091" y="-42.4" font-family="sans-serif" font-weight="bold" font-size="14.00" fill="#000000">Legend</text>
<polygon fill="#ffffb3" stroke="transparent" points="107,-10 107,-30 127,-30 127,-10 107,-10"/>
<text text-anchor="start" x="130.629" y="-15.4" font-family="sans-serif" font-size="14.00" fill="#000000"> &#160;Declarations</text>
<polygon fill="#8dd3c7" stroke="transparent" points="220,-10 220,-30 240,-30 240,-10 220,-10"/>
<text text-anchor="start" x="243.7251" y="-15.4" font-family="sans-serif" font-size="14.00" fill="#000000"> &#160;Module</text>
<polygon fill="#80b1d3" stroke="transparent" points="306,-10 306,-30 326,-30 326,-10 306,-10"/>
<text text-anchor="start" x="329.7812" y="-15.4" font-family="sans-serif" font-size="14.00" fill="#000000"> &#160;Bootstrap</text>
<polygon fill="#fdb462" stroke="transparent" points="403,-10 403,-30 423,-30 423,-10 403,-10"/>
<text text-anchor="start" x="426.6732" y="-15.4" font-family="sans-serif" font-size="14.00" fill="#000000"> &#160;Providers</text>
<polygon fill="#fb8072" stroke="transparent" points="499,-10 499,-30 519,-30 519,-10 499,-10"/>
<text text-anchor="start" x="522.7258" y="-15.4" font-family="sans-serif" font-size="14.00" fill="#000000"> &#160;Exports</text>
<g id="clust1" class="cluster">
<title>cluster_ValorAtributoLugarModule</title>
<polygon fill="none" stroke="#000000" stroke-dasharray="1,5" points="8,-70 8,-268 674,-268 674,-70 8,-70"/>
</g>
<g id="clust3" class="cluster">
<title>cluster_ValorAtributoLugarModule_imports</title>
<polygon fill="none" stroke="#000000" points="200,-78 200,-130 666,-130 666,-78 200,-78"/>
</g>
<g id="clust4" class="cluster">
<title>cluster_ValorAtributoLugarModule_exports</title>
<polygon fill="none" stroke="#000000" points="224,-208 224,-260 466,-260 466,-208 224,-208"/>
</g>
<g id="clust6" class="cluster">
<title>cluster_ValorAtributoLugarModule_providers</title>
<polygon fill="none" stroke="#000000" points="16,-78 16,-130 192,-130 192,-78 16,-78"/>
</g>
<!-- ThemeModule -->
<g id="node1" class="node">
<title>ThemeModule</title>
<polygon fill="#8dd3c7" stroke="#000000" points="658.4231,-122 655.4231,-126 634.4231,-126 631.4231,-122 559.5769,-122 559.5769,-86 658.4231,-86 658.4231,-122"/>
<text text-anchor="middle" x="609" y="-99.8" font-family="Times,serif" font-size="14.00" fill="#000000">ThemeModule</text>
</g>
<!-- ValorAtributoLugarModule -->
<g id="node4" class="node">
<title>ValorAtributoLugarModule</title>
<polygon fill="#8dd3c7" stroke="#000000" points="431.2892,-187 428.2892,-191 407.2892,-191 404.2892,-187 258.7108,-187 258.7108,-151 431.2892,-151 431.2892,-187"/>
<text text-anchor="middle" x="345" y="-164.8" font-family="Times,serif" font-size="14.00" fill="#000000">ValorAtributoLugarModule</text>
</g>
<!-- ThemeModule&#45;&gt;ValorAtributoLugarModule -->
<g id="edge1" class="edge">
<title>ThemeModule&#45;&gt;ValorAtributoLugarModule</title>
<path fill="none" stroke="#000000" d="M609,-122.1061C609,-141.3391 609,-169 609,-169 609,-169 441.4435,-169 441.4435,-169"/>
<polygon fill="#000000" stroke="#000000" points="441.4435,-165.5001 431.4435,-169 441.4434,-172.5001 441.4435,-165.5001"/>
</g>
<!-- ValorAtributoLugarRoutingModule -->
<g id="node2" class="node">
<title>ValorAtributoLugarRoutingModule</title>
<polygon fill="#8dd3c7" stroke="#000000" points="541.9072,-122 538.9072,-126 517.9072,-126 514.9072,-122 324.0928,-122 324.0928,-86 541.9072,-86 541.9072,-122"/>
<text text-anchor="middle" x="433" y="-99.8" font-family="Times,serif" font-size="14.00" fill="#000000">ValorAtributoLugarRoutingModule</text>
</g>
<!-- ValorAtributoLugarRoutingModule&#45;&gt;ValorAtributoLugarModule -->
<g id="edge2" class="edge">
<title>ValorAtributoLugarRoutingModule&#45;&gt;ValorAtributoLugarModule</title>
<path fill="none" stroke="#000000" d="M377.7206,-122.1061C377.7206,-122.1061 377.7206,-140.991 377.7206,-140.991"/>
<polygon fill="#000000" stroke="#000000" points="374.2206,-140.9909 377.7206,-150.991 381.2206,-140.991 374.2206,-140.9909"/>
</g>
<!-- SharedModule -->
<g id="node3" class="node">
<title>SharedModule</title>
<polygon fill="#8dd3c7" stroke="#000000" points="306.4231,-122 303.4231,-126 282.4231,-126 279.4231,-122 207.5769,-122 207.5769,-86 306.4231,-86 306.4231,-122"/>
<text text-anchor="middle" x="257" y="-99.8" font-family="Times,serif" font-size="14.00" fill="#000000">SharedModule</text>
</g>
<!-- SharedModule&#45;&gt;ValorAtributoLugarModule -->
<g id="edge3" class="edge">
<title>SharedModule&#45;&gt;ValorAtributoLugarModule</title>
<path fill="none" stroke="#000000" d="M282.5333,-122.1061C282.5333,-122.1061 282.5333,-140.991 282.5333,-140.991"/>
<polygon fill="#000000" stroke="#000000" points="279.0334,-140.9909 282.5333,-150.991 286.0334,-140.991 279.0334,-140.9909"/>
</g>
<!-- CrudValorAtributoLugarComponent  -->
<g id="node5" class="node">
<title>CrudValorAtributoLugarComponent </title>
<polygon fill="#fb8072" stroke="#000000" points="457.5692,-252 232.4308,-252 232.4308,-216 457.5692,-216 457.5692,-252"/>
<text text-anchor="middle" x="345" y="-229.8" font-family="Times,serif" font-size="14.00" fill="#000000">CrudValorAtributoLugarComponent </text>
</g>
<!-- ValorAtributoLugarModule&#45;&gt;CrudValorAtributoLugarComponent  -->
<g id="edge4" class="edge">
<title>ValorAtributoLugarModule&#45;&gt;CrudValorAtributoLugarComponent </title>
<path fill="none" stroke="#000000" stroke-dasharray="5,2" d="M345,-187.1061C345,-187.1061 345,-205.991 345,-205.991"/>
<polygon fill="#000000" stroke="#000000" points="341.5001,-205.9909 345,-215.991 348.5001,-205.991 341.5001,-205.9909"/>
</g>
<!-- UbicacionService -->
<g id="node6" class="node">
<title>UbicacionService</title>
<ellipse fill="#fdb462" stroke="#000000" cx="104" cy="-104" rx="79.8527" ry="18"/>
<text text-anchor="middle" x="104" y="-99.8" font-family="Times,serif" font-size="14.00" fill="#000000">UbicacionService</text>
</g>
<!-- UbicacionService&#45;&gt;ValorAtributoLugarModule -->
<g id="edge5" class="edge">
<title>UbicacionService&#45;&gt;ValorAtributoLugarModule</title>
<path fill="none" stroke="#000000" d="M104,-122.1061C104,-141.3391 104,-169 104,-169 104,-169 248.6742,-169 248.6742,-169"/>
<polygon fill="#000000" stroke="#000000" points="248.6742,-172.5001 258.6742,-169 248.6741,-165.5001 248.6742,-172.5001"/>
</g>
</g>
</svg>
