<?xml version="1.0" encoding="UTF-8" standalone="no"?>
<!DOCTYPE svg PUBLIC "-//W3C//DTD SVG 1.1//EN"
 "http://www.w3.org/Graphics/SVG/1.1/DTD/svg11.dtd">
<!-- Generated by graphviz version 2.40.1 (20161225.0304)
 -->
<!-- Title: dependencies Pages: 1 -->
<svg width="806pt" height="284pt"
 viewBox="0.00 0.00 806.00 284.00" xmlns="http://www.w3.org/2000/svg" xmlns:xlink="http://www.w3.org/1999/xlink">
<g id="graph0" class="graph" transform="scale(1 1) rotate(0) translate(4 280)">
<title>dependencies</title>
<polygon fill="#ffffff" stroke="transparent" points="-4,4 -4,-280 802,-280 802,4 -4,4"/>
<text text-anchor="start" x="378.0091" y="-42.4" font-family="sans-serif" font-weight="bold" font-size="14.00" fill="#000000">Legend</text>
<polygon fill="#ffffb3" stroke="transparent" points="165,-10 165,-30 185,-30 185,-10 165,-10"/>
<text text-anchor="start" x="188.629" y="-15.4" font-family="sans-serif" font-size="14.00" fill="#000000"> &#160;Declarations</text>
<polygon fill="#8dd3c7" stroke="transparent" points="278,-10 278,-30 298,-30 298,-10 278,-10"/>
<text text-anchor="start" x="301.7251" y="-15.4" font-family="sans-serif" font-size="14.00" fill="#000000"> &#160;Module</text>
<polygon fill="#80b1d3" stroke="transparent" points="364,-10 364,-30 384,-30 384,-10 364,-10"/>
<text text-anchor="start" x="387.7812" y="-15.4" font-family="sans-serif" font-size="14.00" fill="#000000"> &#160;Bootstrap</text>
<polygon fill="#fdb462" stroke="transparent" points="461,-10 461,-30 481,-30 481,-10 461,-10"/>
<text text-anchor="start" x="484.6732" y="-15.4" font-family="sans-serif" font-size="14.00" fill="#000000"> &#160;Providers</text>
<polygon fill="#fb8072" stroke="transparent" points="557,-10 557,-30 577,-30 577,-10 557,-10"/>
<text text-anchor="start" x="580.7258" y="-15.4" font-family="sans-serif" font-size="14.00" fill="#000000"> &#160;Exports</text>
<g id="clust1" class="cluster">
<title>cluster_RequisitoTipoDescuentoModule</title>
<polygon fill="none" stroke="#000000" stroke-dasharray="1,5" points="8,-70 8,-268 790,-268 790,-70 8,-70"/>
</g>
<g id="clust3" class="cluster">
<title>cluster_RequisitoTipoDescuentoModule_imports</title>
<polygon fill="none" stroke="#000000" points="290,-78 290,-130 782,-130 782,-78 290,-78"/>
</g>
<g id="clust4" class="cluster">
<title>cluster_RequisitoTipoDescuentoModule_exports</title>
<polygon fill="none" stroke="#000000" points="307,-208 307,-260 575,-260 575,-208 307,-208"/>
</g>
<g id="clust6" class="cluster">
<title>cluster_RequisitoTipoDescuentoModule_providers</title>
<polygon fill="none" stroke="#000000" points="16,-78 16,-130 282,-130 282,-78 16,-78"/>
</g>
<!-- ThemeModule -->
<g id="node1" class="node">
<title>ThemeModule</title>
<polygon fill="#8dd3c7" stroke="#000000" points="774.4231,-122 771.4231,-126 750.4231,-126 747.4231,-122 675.5769,-122 675.5769,-86 774.4231,-86 774.4231,-122"/>
<text text-anchor="middle" x="725" y="-99.8" font-family="Times,serif" font-size="14.00" fill="#000000">ThemeModule</text>
</g>
<!-- RequisitoTipoDescuentoModule -->
<g id="node4" class="node">
<title>RequisitoTipoDescuentoModule</title>
<polygon fill="#8dd3c7" stroke="#000000" points="540.2464,-187 537.2464,-191 516.2464,-191 513.2464,-187 341.7536,-187 341.7536,-151 540.2464,-151 540.2464,-187"/>
<text text-anchor="middle" x="441" y="-164.8" font-family="Times,serif" font-size="14.00" fill="#000000">RequisitoTipoDescuentoModule</text>
</g>
<!-- ThemeModule&#45;&gt;RequisitoTipoDescuentoModule -->
<g id="edge1" class="edge">
<title>ThemeModule&#45;&gt;RequisitoTipoDescuentoModule</title>
<path fill="none" stroke="#000000" d="M725,-122.1061C725,-141.3391 725,-169 725,-169 725,-169 550.3294,-169 550.3294,-169"/>
<polygon fill="#000000" stroke="#000000" points="550.3295,-165.5001 540.3294,-169 550.3294,-172.5001 550.3295,-165.5001"/>
</g>
<!-- RequisitoTipoDescuentoRoutingModule -->
<g id="node2" class="node">
<title>RequisitoTipoDescuentoRoutingModule</title>
<polygon fill="#8dd3c7" stroke="#000000" points="657.864,-122 654.864,-126 633.864,-126 630.864,-122 414.136,-122 414.136,-86 657.864,-86 657.864,-122"/>
<text text-anchor="middle" x="536" y="-99.8" font-family="Times,serif" font-size="14.00" fill="#000000">RequisitoTipoDescuentoRoutingModule</text>
</g>
<!-- RequisitoTipoDescuentoRoutingModule&#45;&gt;RequisitoTipoDescuentoModule -->
<g id="edge2" class="edge">
<title>RequisitoTipoDescuentoRoutingModule&#45;&gt;RequisitoTipoDescuentoModule</title>
<path fill="none" stroke="#000000" d="M477.2206,-122.1061C477.2206,-122.1061 477.2206,-140.991 477.2206,-140.991"/>
<polygon fill="#000000" stroke="#000000" points="473.7206,-140.9909 477.2206,-150.991 480.7206,-140.991 473.7206,-140.9909"/>
</g>
<!-- SharedModule -->
<g id="node3" class="node">
<title>SharedModule</title>
<polygon fill="#8dd3c7" stroke="#000000" points="396.4231,-122 393.4231,-126 372.4231,-126 369.4231,-122 297.5769,-122 297.5769,-86 396.4231,-86 396.4231,-122"/>
<text text-anchor="middle" x="347" y="-99.8" font-family="Times,serif" font-size="14.00" fill="#000000">SharedModule</text>
</g>
<!-- SharedModule&#45;&gt;RequisitoTipoDescuentoModule -->
<g id="edge3" class="edge">
<title>SharedModule&#45;&gt;RequisitoTipoDescuentoModule</title>
<path fill="none" stroke="#000000" d="M368.919,-122.1061C368.919,-122.1061 368.919,-140.991 368.919,-140.991"/>
<polygon fill="#000000" stroke="#000000" points="365.4191,-140.9909 368.919,-150.991 372.4191,-140.991 365.4191,-140.9909"/>
</g>
<!-- CrudRequisitoTipoDescuentoComponent  -->
<g id="node5" class="node">
<title>CrudRequisitoTipoDescuentoComponent </title>
<polygon fill="#fb8072" stroke="#000000" points="567.026,-252 314.974,-252 314.974,-216 567.026,-216 567.026,-252"/>
<text text-anchor="middle" x="441" y="-229.8" font-family="Times,serif" font-size="14.00" fill="#000000">CrudRequisitoTipoDescuentoComponent </text>
</g>
<!-- RequisitoTipoDescuentoModule&#45;&gt;CrudRequisitoTipoDescuentoComponent  -->
<g id="edge4" class="edge">
<title>RequisitoTipoDescuentoModule&#45;&gt;CrudRequisitoTipoDescuentoComponent </title>
<path fill="none" stroke="#000000" stroke-dasharray="5,2" d="M441,-187.1061C441,-187.1061 441,-205.991 441,-205.991"/>
<polygon fill="#000000" stroke="#000000" points="437.5001,-205.9909 441,-215.991 444.5001,-205.991 437.5001,-205.9909"/>
</g>
<!-- DescuentoAcademicoService -->
<g id="node6" class="node">
<title>DescuentoAcademicoService</title>
<ellipse fill="#fdb462" stroke="#000000" cx="149" cy="-104" rx="124.9384" ry="18"/>
<text text-anchor="middle" x="149" y="-99.8" font-family="Times,serif" font-size="14.00" fill="#000000">DescuentoAcademicoService</text>
</g>
<!-- DescuentoAcademicoService&#45;&gt;RequisitoTipoDescuentoModule -->
<g id="edge5" class="edge">
<title>DescuentoAcademicoService&#45;&gt;RequisitoTipoDescuentoModule</title>
<path fill="none" stroke="#000000" d="M149,-122.1061C149,-141.3391 149,-169 149,-169 149,-169 331.7347,-169 331.7347,-169"/>
<polygon fill="#000000" stroke="#000000" points="331.7347,-172.5001 341.7347,-169 331.7346,-165.5001 331.7347,-172.5001"/>
</g>
</g>
</svg>
