<?xml version="1.0" encoding="UTF-8" standalone="no"?>
<!DOCTYPE svg PUBLIC "-//W3C//DTD SVG 1.1//EN"
 "http://www.w3.org/Graphics/SVG/1.1/DTD/svg11.dtd">
<!-- Generated by graphviz version 2.40.1 (20161225.0304)
 -->
<!-- Title: dependencies Pages: 1 -->
<svg width="724pt" height="284pt"
 viewBox="0.00 0.00 724.00 284.00" xmlns="http://www.w3.org/2000/svg" xmlns:xlink="http://www.w3.org/1999/xlink">
<g id="graph0" class="graph" transform="scale(1 1) rotate(0) translate(4 280)">
<title>dependencies</title>
<polygon fill="#ffffff" stroke="transparent" points="-4,4 -4,-280 720,-280 720,4 -4,4"/>
<text text-anchor="start" x="337.0091" y="-42.4" font-family="sans-serif" font-weight="bold" font-size="14.00" fill="#000000">Legend</text>
<polygon fill="#ffffb3" stroke="transparent" points="124,-10 124,-30 144,-30 144,-10 124,-10"/>
<text text-anchor="start" x="147.629" y="-15.4" font-family="sans-serif" font-size="14.00" fill="#000000"> &#160;Declarations</text>
<polygon fill="#8dd3c7" stroke="transparent" points="237,-10 237,-30 257,-30 257,-10 237,-10"/>
<text text-anchor="start" x="260.7251" y="-15.4" font-family="sans-serif" font-size="14.00" fill="#000000"> &#160;Module</text>
<polygon fill="#80b1d3" stroke="transparent" points="323,-10 323,-30 343,-30 343,-10 323,-10"/>
<text text-anchor="start" x="346.7812" y="-15.4" font-family="sans-serif" font-size="14.00" fill="#000000"> &#160;Bootstrap</text>
<polygon fill="#fdb462" stroke="transparent" points="420,-10 420,-30 440,-30 440,-10 420,-10"/>
<text text-anchor="start" x="443.6732" y="-15.4" font-family="sans-serif" font-size="14.00" fill="#000000"> &#160;Providers</text>
<polygon fill="#fb8072" stroke="transparent" points="516,-10 516,-30 536,-30 536,-10 516,-10"/>
<text text-anchor="start" x="539.7258" y="-15.4" font-family="sans-serif" font-size="14.00" fill="#000000"> &#160;Exports</text>
<g id="clust1" class="cluster">
<title>cluster_DependenciaPadreModule</title>
<polygon fill="none" stroke="#000000" stroke-dasharray="1,5" points="8,-70 8,-268 708,-268 708,-70 8,-70"/>
</g>
<g id="clust3" class="cluster">
<title>cluster_DependenciaPadreModule_imports</title>
<polygon fill="none" stroke="#000000" points="242,-78 242,-130 700,-130 700,-78 242,-78"/>
</g>
<g id="clust4" class="cluster">
<title>cluster_DependenciaPadreModule_exports</title>
<polygon fill="none" stroke="#000000" points="268,-208 268,-260 502,-260 502,-208 268,-208"/>
</g>
<g id="clust6" class="cluster">
<title>cluster_DependenciaPadreModule_providers</title>
<polygon fill="none" stroke="#000000" points="16,-78 16,-130 234,-130 234,-78 16,-78"/>
</g>
<!-- ThemeModule -->
<g id="node1" class="node">
<title>ThemeModule</title>
<polygon fill="#8dd3c7" stroke="#000000" points="692.4231,-122 689.4231,-126 668.4231,-126 665.4231,-122 593.5769,-122 593.5769,-86 692.4231,-86 692.4231,-122"/>
<text text-anchor="middle" x="643" y="-99.8" font-family="Times,serif" font-size="14.00" fill="#000000">ThemeModule</text>
</g>
<!-- DependenciaPadreModule -->
<g id="node4" class="node">
<title>DependenciaPadreModule</title>
<polygon fill="#8dd3c7" stroke="#000000" points="467.4931,-187 464.4931,-191 443.4931,-191 440.4931,-187 302.5069,-187 302.5069,-151 467.4931,-151 467.4931,-187"/>
<text text-anchor="middle" x="385" y="-164.8" font-family="Times,serif" font-size="14.00" fill="#000000">DependenciaPadreModule</text>
</g>
<!-- ThemeModule&#45;&gt;DependenciaPadreModule -->
<g id="edge1" class="edge">
<title>ThemeModule&#45;&gt;DependenciaPadreModule</title>
<path fill="none" stroke="#000000" d="M643,-122.1061C643,-141.3391 643,-169 643,-169 643,-169 477.3422,-169 477.3422,-169"/>
<polygon fill="#000000" stroke="#000000" points="477.3422,-165.5001 467.3422,-169 477.3421,-172.5001 477.3422,-165.5001"/>
</g>
<!-- DependenciaPadreRoutingModule -->
<g id="node2" class="node">
<title>DependenciaPadreRoutingModule</title>
<polygon fill="#8dd3c7" stroke="#000000" points="575.6106,-122 572.6106,-126 551.6106,-126 548.6106,-122 366.3894,-122 366.3894,-86 575.6106,-86 575.6106,-122"/>
<text text-anchor="middle" x="471" y="-99.8" font-family="Times,serif" font-size="14.00" fill="#000000">DependenciaPadreRoutingModule</text>
</g>
<!-- DependenciaPadreRoutingModule&#45;&gt;DependenciaPadreModule -->
<g id="edge2" class="edge">
<title>DependenciaPadreRoutingModule&#45;&gt;DependenciaPadreModule</title>
<path fill="none" stroke="#000000" d="M416.7206,-122.1061C416.7206,-122.1061 416.7206,-140.991 416.7206,-140.991"/>
<polygon fill="#000000" stroke="#000000" points="413.2206,-140.9909 416.7206,-150.991 420.2206,-140.991 413.2206,-140.9909"/>
</g>
<!-- SharedModule -->
<g id="node3" class="node">
<title>SharedModule</title>
<polygon fill="#8dd3c7" stroke="#000000" points="348.4231,-122 345.4231,-126 324.4231,-126 321.4231,-122 249.5769,-122 249.5769,-86 348.4231,-86 348.4231,-122"/>
<text text-anchor="middle" x="299" y="-99.8" font-family="Times,serif" font-size="14.00" fill="#000000">SharedModule</text>
</g>
<!-- SharedModule&#45;&gt;DependenciaPadreModule -->
<g id="edge3" class="edge">
<title>SharedModule&#45;&gt;DependenciaPadreModule</title>
<path fill="none" stroke="#000000" d="M325.4824,-122.1061C325.4824,-122.1061 325.4824,-140.991 325.4824,-140.991"/>
<polygon fill="#000000" stroke="#000000" points="321.9825,-140.9909 325.4824,-150.991 328.9825,-140.991 321.9825,-140.9909"/>
</g>
<!-- CrudDependenciaPadreComponent  -->
<g id="node5" class="node">
<title>CrudDependenciaPadreComponent </title>
<polygon fill="#fb8072" stroke="#000000" points="493.7723,-252 276.2277,-252 276.2277,-216 493.7723,-216 493.7723,-252"/>
<text text-anchor="middle" x="385" y="-229.8" font-family="Times,serif" font-size="14.00" fill="#000000">CrudDependenciaPadreComponent </text>
</g>
<!-- DependenciaPadreModule&#45;&gt;CrudDependenciaPadreComponent  -->
<g id="edge4" class="edge">
<title>DependenciaPadreModule&#45;&gt;CrudDependenciaPadreComponent </title>
<path fill="none" stroke="#000000" stroke-dasharray="5,2" d="M385,-187.1061C385,-187.1061 385,-205.991 385,-205.991"/>
<polygon fill="#000000" stroke="#000000" points="381.5001,-205.9909 385,-215.991 388.5001,-205.991 381.5001,-205.9909"/>
</g>
<!-- ProgramaOikosService -->
<g id="node6" class="node">
<title>ProgramaOikosService</title>
<ellipse fill="#fdb462" stroke="#000000" cx="125" cy="-104" rx="100.6998" ry="18"/>
<text text-anchor="middle" x="125" y="-99.8" font-family="Times,serif" font-size="14.00" fill="#000000">ProgramaOikosService</text>
</g>
<!-- ProgramaOikosService&#45;&gt;DependenciaPadreModule -->
<g id="edge5" class="edge">
<title>ProgramaOikosService&#45;&gt;DependenciaPadreModule</title>
<path fill="none" stroke="#000000" d="M125,-122.1061C125,-141.3391 125,-169 125,-169 125,-169 292.7344,-169 292.7344,-169"/>
<polygon fill="#000000" stroke="#000000" points="292.7344,-172.5001 302.7344,-169 292.7343,-165.5001 292.7344,-172.5001"/>
</g>
</g>
</svg>
