<?xml version="1.0" encoding="UTF-8" standalone="no"?>
<!DOCTYPE svg PUBLIC "-//W3C//DTD SVG 1.1//EN"
 "http://www.w3.org/Graphics/SVG/1.1/DTD/svg11.dtd">
<!-- Generated by graphviz version 2.40.1 (20161225.0304)
 -->
<!-- Title: dependencies Pages: 1 -->
<svg width="788pt" height="284pt"
 viewBox="0.00 0.00 788.00 284.00" xmlns="http://www.w3.org/2000/svg" xmlns:xlink="http://www.w3.org/1999/xlink">
<g id="graph0" class="graph" transform="scale(1 1) rotate(0) translate(4 280)">
<title>dependencies</title>
<polygon fill="#ffffff" stroke="transparent" points="-4,4 -4,-280 784,-280 784,4 -4,4"/>
<text text-anchor="start" x="369.0091" y="-42.4" font-family="sans-serif" font-weight="bold" font-size="14.00" fill="#000000">Legend</text>
<polygon fill="#ffffb3" stroke="transparent" points="156,-10 156,-30 176,-30 176,-10 156,-10"/>
<text text-anchor="start" x="179.629" y="-15.4" font-family="sans-serif" font-size="14.00" fill="#000000"> &#160;Declarations</text>
<polygon fill="#8dd3c7" stroke="transparent" points="269,-10 269,-30 289,-30 289,-10 269,-10"/>
<text text-anchor="start" x="292.7251" y="-15.4" font-family="sans-serif" font-size="14.00" fill="#000000"> &#160;Module</text>
<polygon fill="#80b1d3" stroke="transparent" points="355,-10 355,-30 375,-30 375,-10 355,-10"/>
<text text-anchor="start" x="378.7812" y="-15.4" font-family="sans-serif" font-size="14.00" fill="#000000"> &#160;Bootstrap</text>
<polygon fill="#fdb462" stroke="transparent" points="452,-10 452,-30 472,-30 472,-10 452,-10"/>
<text text-anchor="start" x="475.6732" y="-15.4" font-family="sans-serif" font-size="14.00" fill="#000000"> &#160;Providers</text>
<polygon fill="#fb8072" stroke="transparent" points="548,-10 548,-30 568,-30 568,-10 548,-10"/>
<text text-anchor="start" x="571.7258" y="-15.4" font-family="sans-serif" font-size="14.00" fill="#000000"> &#160;Exports</text>
<g id="clust1" class="cluster">
<title>cluster_CalendarioEventoModule</title>
<polygon fill="none" stroke="#000000" stroke-dasharray="1,5" points="8,-70 8,-268 772,-268 772,-70 8,-70"/>
</g>
<g id="clust3" class="cluster">
<title>cluster_CalendarioEventoModule_imports</title>
<polygon fill="none" stroke="#000000" points="310,-78 310,-130 764,-130 764,-78 310,-78"/>
</g>
<g id="clust4" class="cluster">
<title>cluster_CalendarioEventoModule_exports</title>
<polygon fill="none" stroke="#000000" points="252,-208 252,-260 482,-260 482,-208 252,-208"/>
</g>
<g id="clust6" class="cluster">
<title>cluster_CalendarioEventoModule_providers</title>
<polygon fill="none" stroke="#000000" points="16,-78 16,-130 302,-130 302,-78 16,-78"/>
</g>
<!-- ThemeModule -->
<g id="node1" class="node">
<title>ThemeModule</title>
<polygon fill="#8dd3c7" stroke="#000000" points="756.4231,-122 753.4231,-126 732.4231,-126 729.4231,-122 657.5769,-122 657.5769,-86 756.4231,-86 756.4231,-122"/>
<text text-anchor="middle" x="707" y="-99.8" font-family="Times,serif" font-size="14.00" fill="#000000">ThemeModule</text>
</g>
<!-- CalendarioEventoModule -->
<g id="node4" class="node">
<title>CalendarioEventoModule</title>
<polygon fill="#8dd3c7" stroke="#000000" points="447.1302,-187 444.1302,-191 423.1302,-191 420.1302,-187 286.8698,-187 286.8698,-151 447.1302,-151 447.1302,-187"/>
<text text-anchor="middle" x="367" y="-164.8" font-family="Times,serif" font-size="14.00" fill="#000000">CalendarioEventoModule</text>
</g>
<!-- ThemeModule&#45;&gt;CalendarioEventoModule -->
<g id="edge1" class="edge">
<title>ThemeModule&#45;&gt;CalendarioEventoModule</title>
<path fill="none" stroke="#000000" d="M707,-122.1061C707,-141.3391 707,-169 707,-169 707,-169 457.1447,-169 457.1447,-169"/>
<polygon fill="#000000" stroke="#000000" points="457.1447,-165.5001 447.1447,-169 457.1447,-172.5001 457.1447,-165.5001"/>
</g>
<!-- CalendarioEventoRoutingModule -->
<g id="node2" class="node">
<title>CalendarioEventoRoutingModule</title>
<polygon fill="#8dd3c7" stroke="#000000" points="639.7478,-122 636.7478,-126 615.7478,-126 612.7478,-122 434.2522,-122 434.2522,-86 639.7478,-86 639.7478,-122"/>
<text text-anchor="middle" x="537" y="-99.8" font-family="Times,serif" font-size="14.00" fill="#000000">CalendarioEventoRoutingModule</text>
</g>
<!-- CalendarioEventoRoutingModule&#45;&gt;CalendarioEventoModule -->
<g id="edge2" class="edge">
<title>CalendarioEventoRoutingModule&#45;&gt;CalendarioEventoModule</title>
<path fill="none" stroke="#000000" d="M440.7206,-122.1061C440.7206,-122.1061 440.7206,-140.991 440.7206,-140.991"/>
<polygon fill="#000000" stroke="#000000" points="437.2206,-140.9909 440.7206,-150.991 444.2206,-140.991 437.2206,-140.9909"/>
</g>
<!-- SharedModule -->
<g id="node3" class="node">
<title>SharedModule</title>
<polygon fill="#8dd3c7" stroke="#000000" points="416.4231,-122 413.4231,-126 392.4231,-126 389.4231,-122 317.5769,-122 317.5769,-86 416.4231,-86 416.4231,-122"/>
<text text-anchor="middle" x="367" y="-99.8" font-family="Times,serif" font-size="14.00" fill="#000000">SharedModule</text>
</g>
<!-- SharedModule&#45;&gt;CalendarioEventoModule -->
<g id="edge3" class="edge">
<title>SharedModule&#45;&gt;CalendarioEventoModule</title>
<path fill="none" stroke="#000000" d="M367,-122.1061C367,-122.1061 367,-140.991 367,-140.991"/>
<polygon fill="#000000" stroke="#000000" points="363.5001,-140.9909 367,-150.991 370.5001,-140.991 363.5001,-140.9909"/>
</g>
<!-- CrudCalendarioEventoComponent  -->
<g id="node5" class="node">
<title>CrudCalendarioEventoComponent </title>
<polygon fill="#fb8072" stroke="#000000" points="473.9096,-252 260.0904,-252 260.0904,-216 473.9096,-216 473.9096,-252"/>
<text text-anchor="middle" x="367" y="-229.8" font-family="Times,serif" font-size="14.00" fill="#000000">CrudCalendarioEventoComponent </text>
</g>
<!-- CalendarioEventoModule&#45;&gt;CrudCalendarioEventoComponent  -->
<g id="edge4" class="edge">
<title>CalendarioEventoModule&#45;&gt;CrudCalendarioEventoComponent </title>
<path fill="none" stroke="#000000" stroke-dasharray="5,2" d="M367,-187.1061C367,-187.1061 367,-205.991 367,-205.991"/>
<polygon fill="#000000" stroke="#000000" points="363.5001,-205.9909 367,-215.991 370.5001,-205.991 363.5001,-205.9909"/>
</g>
<!-- CoreService -->
<g id="node6" class="node">
<title>CoreService</title>
<ellipse fill="#fdb462" stroke="#000000" cx="235" cy="-104" rx="58.5251" ry="18"/>
<text text-anchor="middle" x="235" y="-99.8" font-family="Times,serif" font-size="14.00" fill="#000000">CoreService</text>
</g>
<!-- CoreService&#45;&gt;CalendarioEventoModule -->
<g id="edge5" class="edge">
<title>CoreService&#45;&gt;CalendarioEventoModule</title>
<path fill="none" stroke="#000000" d="M290.2236,-110.4701C290.2236,-110.4701 290.2236,-140.7831 290.2236,-140.7831"/>
<polygon fill="#000000" stroke="#000000" points="286.7237,-140.7831 290.2236,-150.7831 293.7237,-140.7831 286.7237,-140.7831"/>
</g>
<!-- EventoService -->
<g id="node7" class="node">
<title>EventoService</title>
<ellipse fill="#fdb462" stroke="#000000" cx="91" cy="-104" rx="67.1946" ry="18"/>
<text text-anchor="middle" x="91" y="-99.8" font-family="Times,serif" font-size="14.00" fill="#000000">EventoService</text>
</g>
<!-- EventoService&#45;&gt;CalendarioEventoModule -->
<g id="edge6" class="edge">
<title>EventoService&#45;&gt;CalendarioEventoModule</title>
<path fill="none" stroke="#000000" d="M91,-122.1061C91,-141.3391 91,-169 91,-169 91,-169 276.7986,-169 276.7986,-169"/>
<polygon fill="#000000" stroke="#000000" points="276.7987,-172.5001 286.7986,-169 276.7986,-165.5001 276.7987,-172.5001"/>
</g>
</g>
</svg>
