<?xml version="1.0" encoding="UTF-8" standalone="no"?>
<!DOCTYPE svg PUBLIC "-//W3C//DTD SVG 1.1//EN"
 "http://www.w3.org/Graphics/SVG/1.1/DTD/svg11.dtd">
<!-- Generated by graphviz version 2.40.1 (20161225.0304)
 -->
<!-- Title: dependencies Pages: 1 -->
<svg width="610pt" height="284pt"
 viewBox="0.00 0.00 610.00 284.00" xmlns="http://www.w3.org/2000/svg" xmlns:xlink="http://www.w3.org/1999/xlink">
<g id="graph0" class="graph" transform="scale(1 1) rotate(0) translate(4 280)">
<title>dependencies</title>
<polygon fill="#ffffff" stroke="transparent" points="-4,4 -4,-280 606,-280 606,4 -4,4"/>
<text text-anchor="start" x="280.0091" y="-42.4" font-family="sans-serif" font-weight="bold" font-size="14.00" fill="#000000">Legend</text>
<polygon fill="#ffffb3" stroke="transparent" points="67,-10 67,-30 87,-30 87,-10 67,-10"/>
<text text-anchor="start" x="90.629" y="-15.4" font-family="sans-serif" font-size="14.00" fill="#000000"> &#160;Declarations</text>
<polygon fill="#8dd3c7" stroke="transparent" points="180,-10 180,-30 200,-30 200,-10 180,-10"/>
<text text-anchor="start" x="203.7251" y="-15.4" font-family="sans-serif" font-size="14.00" fill="#000000"> &#160;Module</text>
<polygon fill="#80b1d3" stroke="transparent" points="266,-10 266,-30 286,-30 286,-10 266,-10"/>
<text text-anchor="start" x="289.7812" y="-15.4" font-family="sans-serif" font-size="14.00" fill="#000000"> &#160;Bootstrap</text>
<polygon fill="#fdb462" stroke="transparent" points="363,-10 363,-30 383,-30 383,-10 363,-10"/>
<text text-anchor="start" x="386.6732" y="-15.4" font-family="sans-serif" font-size="14.00" fill="#000000"> &#160;Providers</text>
<polygon fill="#fb8072" stroke="transparent" points="459,-10 459,-30 479,-30 479,-10 459,-10"/>
<text text-anchor="start" x="482.7258" y="-15.4" font-family="sans-serif" font-size="14.00" fill="#000000"> &#160;Exports</text>
<g id="clust1" class="cluster">
<title>cluster_LugarModule</title>
<polygon fill="none" stroke="#000000" stroke-dasharray="1,5" points="8,-70 8,-268 594,-268 594,-70 8,-70"/>
</g>
<g id="clust3" class="cluster">
<title>cluster_LugarModule_imports</title>
<polygon fill="none" stroke="#000000" points="200,-78 200,-130 586,-130 586,-78 200,-78"/>
</g>
<g id="clust4" class="cluster">
<title>cluster_LugarModule_exports</title>
<polygon fill="none" stroke="#000000" points="244,-208 244,-260 406,-260 406,-208 244,-208"/>
</g>
<g id="clust6" class="cluster">
<title>cluster_LugarModule_providers</title>
<polygon fill="none" stroke="#000000" points="16,-78 16,-130 192,-130 192,-78 16,-78"/>
</g>
<!-- ThemeModule -->
<g id="node1" class="node">
<title>ThemeModule</title>
<polygon fill="#8dd3c7" stroke="#000000" points="578.4231,-122 575.4231,-126 554.4231,-126 551.4231,-122 479.5769,-122 479.5769,-86 578.4231,-86 578.4231,-122"/>
<text text-anchor="middle" x="529" y="-99.8" font-family="Times,serif" font-size="14.00" fill="#000000">ThemeModule</text>
</g>
<!-- LugarModule -->
<g id="node4" class="node">
<title>LugarModule</title>
<polygon fill="#8dd3c7" stroke="#000000" points="371.4776,-187 368.4776,-191 347.4776,-191 344.4776,-187 278.5224,-187 278.5224,-151 371.4776,-151 371.4776,-187"/>
<text text-anchor="middle" x="325" y="-164.8" font-family="Times,serif" font-size="14.00" fill="#000000">LugarModule</text>
</g>
<!-- ThemeModule&#45;&gt;LugarModule -->
<g id="edge1" class="edge">
<title>ThemeModule&#45;&gt;LugarModule</title>
<path fill="none" stroke="#000000" d="M529,-122.1061C529,-141.3391 529,-169 529,-169 529,-169 381.546,-169 381.546,-169"/>
<polygon fill="#000000" stroke="#000000" points="381.5461,-165.5001 371.546,-169 381.546,-172.5001 381.5461,-165.5001"/>
</g>
<!-- LugarRoutingModule -->
<g id="node2" class="node">
<title>LugarRoutingModule</title>
<polygon fill="#8dd3c7" stroke="#000000" points="462.0954,-122 459.0954,-126 438.0954,-126 435.0954,-122 323.9046,-122 323.9046,-86 462.0954,-86 462.0954,-122"/>
<text text-anchor="middle" x="393" y="-99.8" font-family="Times,serif" font-size="14.00" fill="#000000">LugarRoutingModule</text>
</g>
<!-- LugarRoutingModule&#45;&gt;LugarModule -->
<g id="edge2" class="edge">
<title>LugarRoutingModule&#45;&gt;LugarModule</title>
<path fill="none" stroke="#000000" d="M347.7206,-122.1061C347.7206,-122.1061 347.7206,-140.991 347.7206,-140.991"/>
<polygon fill="#000000" stroke="#000000" points="344.2206,-140.9909 347.7206,-150.991 351.2206,-140.991 344.2206,-140.9909"/>
</g>
<!-- SharedModule -->
<g id="node3" class="node">
<title>SharedModule</title>
<polygon fill="#8dd3c7" stroke="#000000" points="306.4231,-122 303.4231,-126 282.4231,-126 279.4231,-122 207.5769,-122 207.5769,-86 306.4231,-86 306.4231,-122"/>
<text text-anchor="middle" x="257" y="-99.8" font-family="Times,serif" font-size="14.00" fill="#000000">SharedModule</text>
</g>
<!-- SharedModule&#45;&gt;LugarModule -->
<g id="edge3" class="edge">
<title>SharedModule&#45;&gt;LugarModule</title>
<path fill="none" stroke="#000000" d="M292.3612,-122.1061C292.3612,-122.1061 292.3612,-140.991 292.3612,-140.991"/>
<polygon fill="#000000" stroke="#000000" points="288.8612,-140.9909 292.3612,-150.991 295.8612,-140.991 288.8612,-140.9909"/>
</g>
<!-- CrudLugarComponent  -->
<g id="node5" class="node">
<title>CrudLugarComponent </title>
<polygon fill="#fb8072" stroke="#000000" points="398.2576,-252 251.7424,-252 251.7424,-216 398.2576,-216 398.2576,-252"/>
<text text-anchor="middle" x="325" y="-229.8" font-family="Times,serif" font-size="14.00" fill="#000000">CrudLugarComponent </text>
</g>
<!-- LugarModule&#45;&gt;CrudLugarComponent  -->
<g id="edge4" class="edge">
<title>LugarModule&#45;&gt;CrudLugarComponent </title>
<path fill="none" stroke="#000000" stroke-dasharray="5,2" d="M325,-187.1061C325,-187.1061 325,-205.991 325,-205.991"/>
<polygon fill="#000000" stroke="#000000" points="321.5001,-205.9909 325,-215.991 328.5001,-205.991 321.5001,-205.9909"/>
</g>
<!-- UbicacionService -->
<g id="node6" class="node">
<title>UbicacionService</title>
<ellipse fill="#fdb462" stroke="#000000" cx="104" cy="-104" rx="79.8527" ry="18"/>
<text text-anchor="middle" x="104" y="-99.8" font-family="Times,serif" font-size="14.00" fill="#000000">UbicacionService</text>
</g>
<!-- UbicacionService&#45;&gt;LugarModule -->
<g id="edge5" class="edge">
<title>UbicacionService&#45;&gt;LugarModule</title>
<path fill="none" stroke="#000000" d="M104,-122.1061C104,-141.3391 104,-169 104,-169 104,-169 268.4016,-169 268.4016,-169"/>
<polygon fill="#000000" stroke="#000000" points="268.4017,-172.5001 278.4016,-169 268.4016,-165.5001 268.4017,-172.5001"/>
</g>
</g>
</svg>
