<?xml version="1.0" encoding="UTF-8" standalone="no"?>
<!DOCTYPE svg PUBLIC "-//W3C//DTD SVG 1.1//EN"
 "http://www.w3.org/Graphics/SVG/1.1/DTD/svg11.dtd">
<!-- Generated by graphviz version 2.40.1 (20161225.0304)
 -->
<!-- Title: dependencies Pages: 1 -->
<svg width="1045pt" height="284pt"
 viewBox="0.00 0.00 1045.00 284.00" xmlns="http://www.w3.org/2000/svg" xmlns:xlink="http://www.w3.org/1999/xlink">
<g id="graph0" class="graph" transform="scale(1 1) rotate(0) translate(4 280)">
<title>dependencies</title>
<polygon fill="#ffffff" stroke="transparent" points="-4,4 -4,-280 1041,-280 1041,4 -4,4"/>
<text text-anchor="start" x="497.5091" y="-42.4" font-family="sans-serif" font-weight="bold" font-size="14.00" fill="#000000">Legend</text>
<polygon fill="#ffffb3" stroke="transparent" points="284.5,-10 284.5,-30 304.5,-30 304.5,-10 284.5,-10"/>
<text text-anchor="start" x="308.129" y="-15.4" font-family="sans-serif" font-size="14.00" fill="#000000"> &#160;Declarations</text>
<polygon fill="#8dd3c7" stroke="transparent" points="397.5,-10 397.5,-30 417.5,-30 417.5,-10 397.5,-10"/>
<text text-anchor="start" x="421.2251" y="-15.4" font-family="sans-serif" font-size="14.00" fill="#000000"> &#160;Module</text>
<polygon fill="#80b1d3" stroke="transparent" points="483.5,-10 483.5,-30 503.5,-30 503.5,-10 483.5,-10"/>
<text text-anchor="start" x="507.2812" y="-15.4" font-family="sans-serif" font-size="14.00" fill="#000000"> &#160;Bootstrap</text>
<polygon fill="#fdb462" stroke="transparent" points="580.5,-10 580.5,-30 600.5,-30 600.5,-10 580.5,-10"/>
<text text-anchor="start" x="604.1732" y="-15.4" font-family="sans-serif" font-size="14.00" fill="#000000"> &#160;Providers</text>
<polygon fill="#fb8072" stroke="transparent" points="676.5,-10 676.5,-30 696.5,-30 696.5,-10 676.5,-10"/>
<text text-anchor="start" x="700.2258" y="-15.4" font-family="sans-serif" font-size="14.00" fill="#000000"> &#160;Exports</text>
<g id="clust1" class="cluster">
<title>cluster_TipoDependenciaDescuentoModule</title>
<polygon fill="none" stroke="#000000" stroke-dasharray="1,5" points="8,-70 8,-268 1029,-268 1029,-70 8,-70"/>
</g>
<g id="clust3" class="cluster">
<title>cluster_TipoDependenciaDescuentoModule_imports</title>
<polygon fill="none" stroke="#000000" points="509,-78 509,-130 1021,-130 1021,-78 509,-78"/>
</g>
<g id="clust4" class="cluster">
<title>cluster_TipoDependenciaDescuentoModule_exports</title>
<polygon fill="none" stroke="#000000" points="422,-208 422,-260 710,-260 710,-208 422,-208"/>
</g>
<g id="clust6" class="cluster">
<title>cluster_TipoDependenciaDescuentoModule_providers</title>
<polygon fill="none" stroke="#000000" points="16,-78 16,-130 501,-130 501,-78 16,-78"/>
</g>
<!-- ThemeModule -->
<g id="node1" class="node">
<title>ThemeModule</title>
<polygon fill="#8dd3c7" stroke="#000000" points="1013.4231,-122 1010.4231,-126 989.4231,-126 986.4231,-122 914.5769,-122 914.5769,-86 1013.4231,-86 1013.4231,-122"/>
<text text-anchor="middle" x="964" y="-99.8" font-family="Times,serif" font-size="14.00" fill="#000000">ThemeModule</text>
</g>
<!-- TipoDependenciaDescuentoModule -->
<g id="node4" class="node">
<title>TipoDependenciaDescuentoModule</title>
<polygon fill="#8dd3c7" stroke="#000000" points="675.1489,-187 672.1489,-191 651.1489,-191 648.1489,-187 456.8511,-187 456.8511,-151 675.1489,-151 675.1489,-187"/>
<text text-anchor="middle" x="566" y="-164.8" font-family="Times,serif" font-size="14.00" fill="#000000">TipoDependenciaDescuentoModule</text>
</g>
<!-- ThemeModule&#45;&gt;TipoDependenciaDescuentoModule -->
<g id="edge1" class="edge">
<title>ThemeModule&#45;&gt;TipoDependenciaDescuentoModule</title>
<path fill="none" stroke="#000000" d="M964,-122.1061C964,-141.3391 964,-169 964,-169 964,-169 685.2817,-169 685.2817,-169"/>
<polygon fill="#000000" stroke="#000000" points="685.2817,-165.5001 675.2817,-169 685.2816,-172.5001 685.2817,-165.5001"/>
</g>
<!-- TipoDependenciaDescuentoRoutingModule -->
<g id="node2" class="node">
<title>TipoDependenciaDescuentoRoutingModule</title>
<polygon fill="#8dd3c7" stroke="#000000" points="896.7667,-122 893.7667,-126 872.7667,-126 869.7667,-122 633.2333,-122 633.2333,-86 896.7667,-86 896.7667,-122"/>
<text text-anchor="middle" x="765" y="-99.8" font-family="Times,serif" font-size="14.00" fill="#000000">TipoDependenciaDescuentoRoutingModule</text>
</g>
<!-- TipoDependenciaDescuentoRoutingModule&#45;&gt;TipoDependenciaDescuentoModule -->
<g id="edge2" class="edge">
<title>TipoDependenciaDescuentoRoutingModule&#45;&gt;TipoDependenciaDescuentoModule</title>
<path fill="none" stroke="#000000" d="M654.2206,-122.1061C654.2206,-122.1061 654.2206,-140.991 654.2206,-140.991"/>
<polygon fill="#000000" stroke="#000000" points="650.7206,-140.9909 654.2206,-150.991 657.7206,-140.991 650.7206,-140.9909"/>
</g>
<!-- SharedModule -->
<g id="node3" class="node">
<title>SharedModule</title>
<polygon fill="#8dd3c7" stroke="#000000" points="615.4231,-122 612.4231,-126 591.4231,-126 588.4231,-122 516.5769,-122 516.5769,-86 615.4231,-86 615.4231,-122"/>
<text text-anchor="middle" x="566" y="-99.8" font-family="Times,serif" font-size="14.00" fill="#000000">SharedModule</text>
</g>
<!-- SharedModule&#45;&gt;TipoDependenciaDescuentoModule -->
<g id="edge3" class="edge">
<title>SharedModule&#45;&gt;TipoDependenciaDescuentoModule</title>
<path fill="none" stroke="#000000" d="M566,-122.1061C566,-122.1061 566,-140.991 566,-140.991"/>
<polygon fill="#000000" stroke="#000000" points="562.5001,-140.9909 566,-150.991 569.5001,-140.991 562.5001,-140.9909"/>
</g>
<!-- CrudTipoDependenciaDescuentoComponent  -->
<g id="node5" class="node">
<title>CrudTipoDependenciaDescuentoComponent </title>
<polygon fill="#fb8072" stroke="#000000" points="701.9289,-252 430.0711,-252 430.0711,-216 701.9289,-216 701.9289,-252"/>
<text text-anchor="middle" x="566" y="-229.8" font-family="Times,serif" font-size="14.00" fill="#000000">CrudTipoDependenciaDescuentoComponent </text>
</g>
<!-- TipoDependenciaDescuentoModule&#45;&gt;CrudTipoDependenciaDescuentoComponent  -->
<g id="edge4" class="edge">
<title>TipoDependenciaDescuentoModule&#45;&gt;CrudTipoDependenciaDescuentoComponent </title>
<path fill="none" stroke="#000000" stroke-dasharray="5,2" d="M566,-187.1061C566,-187.1061 566,-205.991 566,-205.991"/>
<polygon fill="#000000" stroke="#000000" points="562.5001,-205.9909 566,-215.991 569.5001,-205.991 562.5001,-205.9909"/>
</g>
<!-- DescuentoAcademicoService -->
<g id="node6" class="node">
<title>DescuentoAcademicoService</title>
<ellipse fill="#fdb462" stroke="#000000" cx="368" cy="-104" rx="124.9384" ry="18"/>
<text text-anchor="middle" x="368" y="-99.8" font-family="Times,serif" font-size="14.00" fill="#000000">DescuentoAcademicoService</text>
</g>
<!-- DescuentoAcademicoService&#45;&gt;TipoDependenciaDescuentoModule -->
<g id="edge5" class="edge">
<title>DescuentoAcademicoService&#45;&gt;TipoDependenciaDescuentoModule</title>
<path fill="none" stroke="#000000" d="M474.8223,-113.3129C474.8223,-113.3129 474.8223,-140.852 474.8223,-140.852"/>
<polygon fill="#000000" stroke="#000000" points="471.3224,-140.852 474.8223,-150.852 478.3224,-140.8521 471.3224,-140.852"/>
</g>
<!-- ProgramaOikosService -->
<g id="node7" class="node">
<title>ProgramaOikosService</title>
<ellipse fill="#fdb462" stroke="#000000" cx="125" cy="-104" rx="100.6998" ry="18"/>
<text text-anchor="middle" x="125" y="-99.8" font-family="Times,serif" font-size="14.00" fill="#000000">ProgramaOikosService</text>
</g>
<!-- ProgramaOikosService&#45;&gt;TipoDependenciaDescuentoModule -->
<g id="edge6" class="edge">
<title>ProgramaOikosService&#45;&gt;TipoDependenciaDescuentoModule</title>
<path fill="none" stroke="#000000" d="M125,-122.1061C125,-141.3391 125,-169 125,-169 125,-169 446.7055,-169 446.7055,-169"/>
<polygon fill="#000000" stroke="#000000" points="446.7056,-172.5001 456.7055,-169 446.7055,-165.5001 446.7056,-172.5001"/>
</g>
</g>
</svg>
