<?xml version="1.0" encoding="UTF-8" standalone="no"?>
<!DOCTYPE svg PUBLIC "-//W3C//DTD SVG 1.1//EN"
 "http://www.w3.org/Graphics/SVG/1.1/DTD/svg11.dtd">
<!-- Generated by graphviz version 2.40.1 (20161225.0304)
 -->
<!-- Title: dependencies Pages: 1 -->
<svg width="792pt" height="284pt"
 viewBox="0.00 0.00 792.00 284.00" xmlns="http://www.w3.org/2000/svg" xmlns:xlink="http://www.w3.org/1999/xlink">
<g id="graph0" class="graph" transform="scale(1 1) rotate(0) translate(4 280)">
<title>dependencies</title>
<polygon fill="#ffffff" stroke="transparent" points="-4,4 -4,-280 788,-280 788,4 -4,4"/>
<text text-anchor="start" x="371.0091" y="-42.4" font-family="sans-serif" font-weight="bold" font-size="14.00" fill="#000000">Legend</text>
<polygon fill="#ffffb3" stroke="transparent" points="158,-10 158,-30 178,-30 178,-10 158,-10"/>
<text text-anchor="start" x="181.629" y="-15.4" font-family="sans-serif" font-size="14.00" fill="#000000"> &#160;Declarations</text>
<polygon fill="#8dd3c7" stroke="transparent" points="271,-10 271,-30 291,-30 291,-10 271,-10"/>
<text text-anchor="start" x="294.7251" y="-15.4" font-family="sans-serif" font-size="14.00" fill="#000000"> &#160;Module</text>
<polygon fill="#80b1d3" stroke="transparent" points="357,-10 357,-30 377,-30 377,-10 357,-10"/>
<text text-anchor="start" x="380.7812" y="-15.4" font-family="sans-serif" font-size="14.00" fill="#000000"> &#160;Bootstrap</text>
<polygon fill="#fdb462" stroke="transparent" points="454,-10 454,-30 474,-30 474,-10 454,-10"/>
<text text-anchor="start" x="477.6732" y="-15.4" font-family="sans-serif" font-size="14.00" fill="#000000"> &#160;Providers</text>
<polygon fill="#fb8072" stroke="transparent" points="550,-10 550,-30 570,-30 570,-10 550,-10"/>
<text text-anchor="start" x="573.7258" y="-15.4" font-family="sans-serif" font-size="14.00" fill="#000000"> &#160;Exports</text>
<g id="clust1" class="cluster">
<title>cluster_DependenciaTipoDependenciaModule</title>
<polygon fill="none" stroke="#000000" stroke-dasharray="1,5" points="8,-70 8,-268 776,-268 776,-70 8,-70"/>
</g>
<g id="clust3" class="cluster">
<title>cluster_DependenciaTipoDependenciaModule_imports</title>
<polygon fill="none" stroke="#000000" points="242,-78 242,-130 768,-130 768,-78 242,-78"/>
</g>
<g id="clust4" class="cluster">
<title>cluster_DependenciaTipoDependenciaModule_exports</title>
<polygon fill="none" stroke="#000000" points="251,-208 251,-260 553,-260 553,-208 251,-208"/>
</g>
<g id="clust6" class="cluster">
<title>cluster_DependenciaTipoDependenciaModule_providers</title>
<polygon fill="none" stroke="#000000" points="16,-78 16,-130 234,-130 234,-78 16,-78"/>
</g>
<!-- ThemeModule -->
<g id="node1" class="node">
<title>ThemeModule</title>
<polygon fill="#8dd3c7" stroke="#000000" points="760.4231,-122 757.4231,-126 736.4231,-126 733.4231,-122 661.5769,-122 661.5769,-86 760.4231,-86 760.4231,-122"/>
<text text-anchor="middle" x="711" y="-99.8" font-family="Times,serif" font-size="14.00" fill="#000000">ThemeModule</text>
</g>
<!-- DependenciaTipoDependenciaModule -->
<g id="node4" class="node">
<title>DependenciaTipoDependenciaModule</title>
<polygon fill="#8dd3c7" stroke="#000000" points="518.1334,-187 515.1334,-191 494.1334,-191 491.1334,-187 285.8666,-187 285.8666,-151 518.1334,-151 518.1334,-187"/>
<text text-anchor="middle" x="402" y="-164.8" font-family="Times,serif" font-size="14.00" fill="#000000">DependenciaTipoDependenciaModule</text>
</g>
<!-- ThemeModule&#45;&gt;DependenciaTipoDependenciaModule -->
<g id="edge1" class="edge">
<title>ThemeModule&#45;&gt;DependenciaTipoDependenciaModule</title>
<path fill="none" stroke="#000000" d="M711,-122.1061C711,-141.3391 711,-169 711,-169 711,-169 528.3793,-169 528.3793,-169"/>
<polygon fill="#000000" stroke="#000000" points="528.3794,-165.5001 518.3793,-169 528.3793,-172.5001 528.3794,-165.5001"/>
</g>
<!-- DependenciaTipoDependenciaRoutingModule -->
<g id="node2" class="node">
<title>DependenciaTipoDependenciaRoutingModule</title>
<polygon fill="#8dd3c7" stroke="#000000" points="643.7513,-122 640.7513,-126 619.7513,-126 616.7513,-122 366.2487,-122 366.2487,-86 643.7513,-86 643.7513,-122"/>
<text text-anchor="middle" x="505" y="-99.8" font-family="Times,serif" font-size="14.00" fill="#000000">DependenciaTipoDependenciaRoutingModule</text>
</g>
<!-- DependenciaTipoDependenciaRoutingModule&#45;&gt;DependenciaTipoDependenciaModule -->
<g id="edge2" class="edge">
<title>DependenciaTipoDependenciaRoutingModule&#45;&gt;DependenciaTipoDependenciaModule</title>
<path fill="none" stroke="#000000" d="M442.2206,-122.1061C442.2206,-122.1061 442.2206,-140.991 442.2206,-140.991"/>
<polygon fill="#000000" stroke="#000000" points="438.7206,-140.9909 442.2206,-150.991 445.7206,-140.991 438.7206,-140.9909"/>
</g>
<!-- SharedModule -->
<g id="node3" class="node">
<title>SharedModule</title>
<polygon fill="#8dd3c7" stroke="#000000" points="348.4231,-122 345.4231,-126 324.4231,-126 321.4231,-122 249.5769,-122 249.5769,-86 348.4231,-86 348.4231,-122"/>
<text text-anchor="middle" x="299" y="-99.8" font-family="Times,serif" font-size="14.00" fill="#000000">SharedModule</text>
</g>
<!-- SharedModule&#45;&gt;DependenciaTipoDependenciaModule -->
<g id="edge3" class="edge">
<title>SharedModule&#45;&gt;DependenciaTipoDependenciaModule</title>
<path fill="none" stroke="#000000" d="M317.0722,-122.1061C317.0722,-122.1061 317.0722,-140.991 317.0722,-140.991"/>
<polygon fill="#000000" stroke="#000000" points="313.5723,-140.9909 317.0722,-150.991 320.5723,-140.991 313.5723,-140.9909"/>
</g>
<!-- CrudDependenciaTipoDependenciaComponent  -->
<g id="node5" class="node">
<title>CrudDependenciaTipoDependenciaComponent </title>
<polygon fill="#fb8072" stroke="#000000" points="544.9135,-252 259.0865,-252 259.0865,-216 544.9135,-216 544.9135,-252"/>
<text text-anchor="middle" x="402" y="-229.8" font-family="Times,serif" font-size="14.00" fill="#000000">CrudDependenciaTipoDependenciaComponent </text>
</g>
<!-- DependenciaTipoDependenciaModule&#45;&gt;CrudDependenciaTipoDependenciaComponent  -->
<g id="edge4" class="edge">
<title>DependenciaTipoDependenciaModule&#45;&gt;CrudDependenciaTipoDependenciaComponent </title>
<path fill="none" stroke="#000000" stroke-dasharray="5,2" d="M402,-187.1061C402,-187.1061 402,-205.991 402,-205.991"/>
<polygon fill="#000000" stroke="#000000" points="398.5001,-205.9909 402,-215.991 405.5001,-205.991 398.5001,-205.9909"/>
</g>
<!-- ProgramaOikosService -->
<g id="node6" class="node">
<title>ProgramaOikosService</title>
<ellipse fill="#fdb462" stroke="#000000" cx="125" cy="-104" rx="100.6998" ry="18"/>
<text text-anchor="middle" x="125" y="-99.8" font-family="Times,serif" font-size="14.00" fill="#000000">ProgramaOikosService</text>
</g>
<!-- ProgramaOikosService&#45;&gt;DependenciaTipoDependenciaModule -->
<g id="edge5" class="edge">
<title>ProgramaOikosService&#45;&gt;DependenciaTipoDependenciaModule</title>
<path fill="none" stroke="#000000" d="M125,-122.1061C125,-141.3391 125,-169 125,-169 125,-169 275.7311,-169 275.7311,-169"/>
<polygon fill="#000000" stroke="#000000" points="275.7311,-172.5001 285.7311,-169 275.731,-165.5001 275.7311,-172.5001"/>
</g>
</g>
</svg>
