<?xml version="1.0" encoding="UTF-8" standalone="no"?>
<!DOCTYPE svg PUBLIC "-//W3C//DTD SVG 1.1//EN"
 "http://www.w3.org/Graphics/SVG/1.1/DTD/svg11.dtd">
<!-- Generated by graphviz version 2.40.1 (20161225.0304)
 -->
<!-- Title: dependencies Pages: 1 -->
<svg width="624pt" height="284pt"
 viewBox="0.00 0.00 624.00 284.00" xmlns="http://www.w3.org/2000/svg" xmlns:xlink="http://www.w3.org/1999/xlink">
<g id="graph0" class="graph" transform="scale(1 1) rotate(0) translate(4 280)">
<title>dependencies</title>
<polygon fill="#ffffff" stroke="transparent" points="-4,4 -4,-280 620,-280 620,4 -4,4"/>
<text text-anchor="start" x="287.0091" y="-42.4" font-family="sans-serif" font-weight="bold" font-size="14.00" fill="#000000">Legend</text>
<polygon fill="#ffffb3" stroke="transparent" points="74,-10 74,-30 94,-30 94,-10 74,-10"/>
<text text-anchor="start" x="97.629" y="-15.4" font-family="sans-serif" font-size="14.00" fill="#000000"> &#160;Declarations</text>
<polygon fill="#8dd3c7" stroke="transparent" points="187,-10 187,-30 207,-30 207,-10 187,-10"/>
<text text-anchor="start" x="210.7251" y="-15.4" font-family="sans-serif" font-size="14.00" fill="#000000"> &#160;Module</text>
<polygon fill="#80b1d3" stroke="transparent" points="273,-10 273,-30 293,-30 293,-10 273,-10"/>
<text text-anchor="start" x="296.7812" y="-15.4" font-family="sans-serif" font-size="14.00" fill="#000000"> &#160;Bootstrap</text>
<polygon fill="#fdb462" stroke="transparent" points="370,-10 370,-30 390,-30 390,-10 370,-10"/>
<text text-anchor="start" x="393.6732" y="-15.4" font-family="sans-serif" font-size="14.00" fill="#000000"> &#160;Providers</text>
<polygon fill="#fb8072" stroke="transparent" points="466,-10 466,-30 486,-30 486,-10 466,-10"/>
<text text-anchor="start" x="489.7258" y="-15.4" font-family="sans-serif" font-size="14.00" fill="#000000"> &#160;Exports</text>
<g id="clust1" class="cluster">
<title>cluster_CargoModule</title>
<polygon fill="none" stroke="#000000" stroke-dasharray="1,5" points="8,-70 8,-268 608,-268 608,-70 8,-70"/>
</g>
<g id="clust3" class="cluster">
<title>cluster_CargoModule_imports</title>
<polygon fill="none" stroke="#000000" points="212,-78 212,-130 600,-130 600,-78 212,-78"/>
</g>
<g id="clust4" class="cluster">
<title>cluster_CargoModule_exports</title>
<polygon fill="none" stroke="#000000" points="255,-208 255,-260 419,-260 419,-208 255,-208"/>
</g>
<g id="clust6" class="cluster">
<title>cluster_CargoModule_providers</title>
<polygon fill="none" stroke="#000000" points="16,-78 16,-130 204,-130 204,-78 16,-78"/>
</g>
<!-- ThemeModule -->
<g id="node1" class="node">
<title>ThemeModule</title>
<polygon fill="#8dd3c7" stroke="#000000" points="592.4231,-122 589.4231,-126 568.4231,-126 565.4231,-122 493.5769,-122 493.5769,-86 592.4231,-86 592.4231,-122"/>
<text text-anchor="middle" x="543" y="-99.8" font-family="Times,serif" font-size="14.00" fill="#000000">ThemeModule</text>
</g>
<!-- CargoModule -->
<g id="node4" class="node">
<title>CargoModule</title>
<polygon fill="#8dd3c7" stroke="#000000" points="383.7619,-187 380.7619,-191 359.7619,-191 356.7619,-187 290.2381,-187 290.2381,-151 383.7619,-151 383.7619,-187"/>
<text text-anchor="middle" x="337" y="-164.8" font-family="Times,serif" font-size="14.00" fill="#000000">CargoModule</text>
</g>
<!-- ThemeModule&#45;&gt;CargoModule -->
<g id="edge1" class="edge">
<title>ThemeModule&#45;&gt;CargoModule</title>
<path fill="none" stroke="#000000" d="M543,-122.1061C543,-141.3391 543,-169 543,-169 543,-169 394.0024,-169 394.0024,-169"/>
<polygon fill="#000000" stroke="#000000" points="394.0024,-165.5001 384.0024,-169 394.0023,-172.5001 394.0024,-165.5001"/>
</g>
<!-- CargoRoutingModule -->
<g id="node2" class="node">
<title>CargoRoutingModule</title>
<polygon fill="#8dd3c7" stroke="#000000" points="475.3795,-122 472.3795,-126 451.3795,-126 448.3795,-122 336.6205,-122 336.6205,-86 475.3795,-86 475.3795,-122"/>
<text text-anchor="middle" x="406" y="-99.8" font-family="Times,serif" font-size="14.00" fill="#000000">CargoRoutingModule</text>
</g>
<!-- CargoRoutingModule&#45;&gt;CargoModule -->
<g id="edge2" class="edge">
<title>CargoRoutingModule&#45;&gt;CargoModule</title>
<path fill="none" stroke="#000000" d="M360.2206,-122.1061C360.2206,-122.1061 360.2206,-140.991 360.2206,-140.991"/>
<polygon fill="#000000" stroke="#000000" points="356.7206,-140.9909 360.2206,-150.991 363.7206,-140.991 356.7206,-140.9909"/>
</g>
<!-- SharedModule -->
<g id="node3" class="node">
<title>SharedModule</title>
<polygon fill="#8dd3c7" stroke="#000000" points="318.4231,-122 315.4231,-126 294.4231,-126 291.4231,-122 219.5769,-122 219.5769,-86 318.4231,-86 318.4231,-122"/>
<text text-anchor="middle" x="269" y="-99.8" font-family="Times,serif" font-size="14.00" fill="#000000">SharedModule</text>
</g>
<!-- SharedModule&#45;&gt;CargoModule -->
<g id="edge3" class="edge">
<title>SharedModule&#45;&gt;CargoModule</title>
<path fill="none" stroke="#000000" d="M304.1652,-122.1061C304.1652,-122.1061 304.1652,-140.991 304.1652,-140.991"/>
<polygon fill="#000000" stroke="#000000" points="300.6652,-140.9909 304.1652,-150.991 307.6652,-140.991 300.6652,-140.9909"/>
</g>
<!-- CrudCargoComponent  -->
<g id="node5" class="node">
<title>CrudCargoComponent </title>
<polygon fill="#fb8072" stroke="#000000" points="410.5414,-252 263.4586,-252 263.4586,-216 410.5414,-216 410.5414,-252"/>
<text text-anchor="middle" x="337" y="-229.8" font-family="Times,serif" font-size="14.00" fill="#000000">CrudCargoComponent </text>
</g>
<!-- CargoModule&#45;&gt;CrudCargoComponent  -->
<g id="edge4" class="edge">
<title>CargoModule&#45;&gt;CrudCargoComponent </title>
<path fill="none" stroke="#000000" stroke-dasharray="5,2" d="M337,-187.1061C337,-187.1061 337,-205.991 337,-205.991"/>
<polygon fill="#000000" stroke="#000000" points="333.5001,-205.9909 337,-215.991 340.5001,-205.991 333.5001,-205.9909"/>
</g>
<!-- ExperienciaService -->
<g id="node6" class="node">
<title>ExperienciaService</title>
<ellipse fill="#fdb462" stroke="#000000" cx="110" cy="-104" rx="86.2116" ry="18"/>
<text text-anchor="middle" x="110" y="-99.8" font-family="Times,serif" font-size="14.00" fill="#000000">ExperienciaService</text>
</g>
<!-- ExperienciaService&#45;&gt;CargoModule -->
<g id="edge5" class="edge">
<title>ExperienciaService&#45;&gt;CargoModule</title>
<path fill="none" stroke="#000000" d="M110,-122.1061C110,-141.3391 110,-169 110,-169 110,-169 279.9655,-169 279.9655,-169"/>
<polygon fill="#000000" stroke="#000000" points="279.9655,-172.5001 289.9655,-169 279.9654,-165.5001 279.9655,-172.5001"/>
</g>
</g>
</svg>
