<?xml version="1.0" encoding="UTF-8" standalone="no"?>
<!DOCTYPE svg PUBLIC "-//W3C//DTD SVG 1.1//EN"
 "http://www.w3.org/Graphics/SVG/1.1/DTD/svg11.dtd">
<!-- Generated by graphviz version 2.40.1 (20161225.0304)
 -->
<!-- Title: dependencies Pages: 1 -->
<svg width="686pt" height="284pt"
 viewBox="0.00 0.00 686.00 284.00" xmlns="http://www.w3.org/2000/svg" xmlns:xlink="http://www.w3.org/1999/xlink">
<g id="graph0" class="graph" transform="scale(1 1) rotate(0) translate(4 280)">
<title>dependencies</title>
<polygon fill="#ffffff" stroke="transparent" points="-4,4 -4,-280 682,-280 682,4 -4,4"/>
<text text-anchor="start" x="318.0091" y="-42.4" font-family="sans-serif" font-weight="bold" font-size="14.00" fill="#000000">Legend</text>
<polygon fill="#ffffb3" stroke="transparent" points="105,-10 105,-30 125,-30 125,-10 105,-10"/>
<text text-anchor="start" x="128.629" y="-15.4" font-family="sans-serif" font-size="14.00" fill="#000000"> &#160;Declarations</text>
<polygon fill="#8dd3c7" stroke="transparent" points="218,-10 218,-30 238,-30 238,-10 218,-10"/>
<text text-anchor="start" x="241.7251" y="-15.4" font-family="sans-serif" font-size="14.00" fill="#000000"> &#160;Module</text>
<polygon fill="#80b1d3" stroke="transparent" points="304,-10 304,-30 324,-30 324,-10 304,-10"/>
<text text-anchor="start" x="327.7812" y="-15.4" font-family="sans-serif" font-size="14.00" fill="#000000"> &#160;Bootstrap</text>
<polygon fill="#fdb462" stroke="transparent" points="401,-10 401,-30 421,-30 421,-10 401,-10"/>
<text text-anchor="start" x="424.6732" y="-15.4" font-family="sans-serif" font-size="14.00" fill="#000000"> &#160;Providers</text>
<polygon fill="#fb8072" stroke="transparent" points="497,-10 497,-30 517,-30 517,-10 497,-10"/>
<text text-anchor="start" x="520.7258" y="-15.4" font-family="sans-serif" font-size="14.00" fill="#000000"> &#160;Exports</text>
<g id="clust1" class="cluster">
<title>cluster_TipoRelacionPersonasModule</title>
<polygon fill="none" stroke="#000000" stroke-dasharray="1,5" points="8,-70 8,-268 670,-268 670,-70 8,-70"/>
</g>
<g id="clust3" class="cluster">
<title>cluster_TipoRelacionPersonasModule_imports</title>
<polygon fill="none" stroke="#000000" points="182,-78 182,-130 662,-130 662,-78 182,-78"/>
</g>
<g id="clust4" class="cluster">
<title>cluster_TipoRelacionPersonasModule_exports</title>
<polygon fill="none" stroke="#000000" points="203,-208 203,-260 457,-260 457,-208 203,-208"/>
</g>
<g id="clust6" class="cluster">
<title>cluster_TipoRelacionPersonasModule_providers</title>
<polygon fill="none" stroke="#000000" points="16,-78 16,-130 174,-130 174,-78 16,-78"/>
</g>
<!-- ThemeModule -->
<g id="node1" class="node">
<title>ThemeModule</title>
<polygon fill="#8dd3c7" stroke="#000000" points="654.4231,-122 651.4231,-126 630.4231,-126 627.4231,-122 555.5769,-122 555.5769,-86 654.4231,-86 654.4231,-122"/>
<text text-anchor="middle" x="605" y="-99.8" font-family="Times,serif" font-size="14.00" fill="#000000">ThemeModule</text>
</g>
<!-- TipoRelacionPersonasModule -->
<g id="node4" class="node">
<title>TipoRelacionPersonasModule</title>
<polygon fill="#8dd3c7" stroke="#000000" points="422.5168,-187 419.5168,-191 398.5168,-191 395.5168,-187 237.4832,-187 237.4832,-151 422.5168,-151 422.5168,-187"/>
<text text-anchor="middle" x="330" y="-164.8" font-family="Times,serif" font-size="14.00" fill="#000000">TipoRelacionPersonasModule</text>
</g>
<!-- ThemeModule&#45;&gt;TipoRelacionPersonasModule -->
<g id="edge1" class="edge">
<title>ThemeModule&#45;&gt;TipoRelacionPersonasModule</title>
<path fill="none" stroke="#000000" d="M605,-122.1061C605,-141.3391 605,-169 605,-169 605,-169 432.7191,-169 432.7191,-169"/>
<polygon fill="#000000" stroke="#000000" points="432.7191,-165.5001 422.7191,-169 432.719,-172.5001 432.7191,-165.5001"/>
</g>
<!-- TipoRelacionPersonasRoutingModule -->
<g id="node2" class="node">
<title>TipoRelacionPersonasRoutingModule</title>
<polygon fill="#8dd3c7" stroke="#000000" points="537.1343,-122 534.1343,-126 513.1343,-126 510.1343,-122 306.8657,-122 306.8657,-86 537.1343,-86 537.1343,-122"/>
<text text-anchor="middle" x="422" y="-99.8" font-family="Times,serif" font-size="14.00" fill="#000000">TipoRelacionPersonasRoutingModule</text>
</g>
<!-- TipoRelacionPersonasRoutingModule&#45;&gt;TipoRelacionPersonasModule -->
<g id="edge2" class="edge">
<title>TipoRelacionPersonasRoutingModule&#45;&gt;TipoRelacionPersonasModule</title>
<path fill="none" stroke="#000000" d="M364.7206,-122.1061C364.7206,-122.1061 364.7206,-140.991 364.7206,-140.991"/>
<polygon fill="#000000" stroke="#000000" points="361.2206,-140.9909 364.7206,-150.991 368.2206,-140.991 361.2206,-140.9909"/>
</g>
<!-- SharedModule -->
<g id="node3" class="node">
<title>SharedModule</title>
<polygon fill="#8dd3c7" stroke="#000000" points="288.4231,-122 285.4231,-126 264.4231,-126 261.4231,-122 189.5769,-122 189.5769,-86 288.4231,-86 288.4231,-122"/>
<text text-anchor="middle" x="239" y="-99.8" font-family="Times,serif" font-size="14.00" fill="#000000">SharedModule</text>
</g>
<!-- SharedModule&#45;&gt;TipoRelacionPersonasModule -->
<g id="edge3" class="edge">
<title>SharedModule&#45;&gt;TipoRelacionPersonasModule</title>
<path fill="none" stroke="#000000" d="M262.7265,-122.1061C262.7265,-122.1061 262.7265,-140.991 262.7265,-140.991"/>
<polygon fill="#000000" stroke="#000000" points="259.2266,-140.9909 262.7265,-150.991 266.2266,-140.991 259.2266,-140.9909"/>
</g>
<!-- CrudTipoRelacionPersonasComponent  -->
<g id="node5" class="node">
<title>CrudTipoRelacionPersonasComponent </title>
<polygon fill="#fb8072" stroke="#000000" points="449.2961,-252 210.7039,-252 210.7039,-216 449.2961,-216 449.2961,-252"/>
<text text-anchor="middle" x="330" y="-229.8" font-family="Times,serif" font-size="14.00" fill="#000000">CrudTipoRelacionPersonasComponent </text>
</g>
<!-- TipoRelacionPersonasModule&#45;&gt;CrudTipoRelacionPersonasComponent  -->
<g id="edge4" class="edge">
<title>TipoRelacionPersonasModule&#45;&gt;CrudTipoRelacionPersonasComponent </title>
<path fill="none" stroke="#000000" stroke-dasharray="5,2" d="M330,-187.1061C330,-187.1061 330,-205.991 330,-205.991"/>
<polygon fill="#000000" stroke="#000000" points="326.5001,-205.9909 330,-215.991 333.5001,-205.991 326.5001,-205.9909"/>
</g>
<!-- PersonaService -->
<g id="node6" class="node">
<title>PersonaService</title>
<ellipse fill="#fdb462" stroke="#000000" cx="95" cy="-104" rx="70.622" ry="18"/>
<text text-anchor="middle" x="95" y="-99.8" font-family="Times,serif" font-size="14.00" fill="#000000">PersonaService</text>
</g>
<!-- PersonaService&#45;&gt;TipoRelacionPersonasModule -->
<g id="edge5" class="edge">
<title>PersonaService&#45;&gt;TipoRelacionPersonasModule</title>
<path fill="none" stroke="#000000" d="M95,-122.1061C95,-141.3391 95,-169 95,-169 95,-169 227.4591,-169 227.4591,-169"/>
<polygon fill="#000000" stroke="#000000" points="227.4591,-172.5001 237.4591,-169 227.4591,-165.5001 227.4591,-172.5001"/>
</g>
</g>
</svg>
