<?xml version="1.0" encoding="UTF-8" standalone="no"?>
<!DOCTYPE svg PUBLIC "-//W3C//DTD SVG 1.1//EN"
 "http://www.w3.org/Graphics/SVG/1.1/DTD/svg11.dtd">
<!-- Generated by graphviz version 2.40.1 (20161225.0304)
 -->
<!-- Title: dependencies Pages: 1 -->
<svg width="690pt" height="284pt"
 viewBox="0.00 0.00 690.00 284.00" xmlns="http://www.w3.org/2000/svg" xmlns:xlink="http://www.w3.org/1999/xlink">
<g id="graph0" class="graph" transform="scale(1 1) rotate(0) translate(4 280)">
<title>dependencies</title>
<polygon fill="#ffffff" stroke="transparent" points="-4,4 -4,-280 686,-280 686,4 -4,4"/>
<text text-anchor="start" x="320.0091" y="-42.4" font-family="sans-serif" font-weight="bold" font-size="14.00" fill="#000000">Legend</text>
<polygon fill="#ffffb3" stroke="transparent" points="107,-10 107,-30 127,-30 127,-10 107,-10"/>
<text text-anchor="start" x="130.629" y="-15.4" font-family="sans-serif" font-size="14.00" fill="#000000"> &#160;Declarations</text>
<polygon fill="#8dd3c7" stroke="transparent" points="220,-10 220,-30 240,-30 240,-10 220,-10"/>
<text text-anchor="start" x="243.7251" y="-15.4" font-family="sans-serif" font-size="14.00" fill="#000000"> &#160;Module</text>
<polygon fill="#80b1d3" stroke="transparent" points="306,-10 306,-30 326,-30 326,-10 306,-10"/>
<text text-anchor="start" x="329.7812" y="-15.4" font-family="sans-serif" font-size="14.00" fill="#000000"> &#160;Bootstrap</text>
<polygon fill="#fdb462" stroke="transparent" points="403,-10 403,-30 423,-30 423,-10 403,-10"/>
<text text-anchor="start" x="426.6732" y="-15.4" font-family="sans-serif" font-size="14.00" fill="#000000"> &#160;Providers</text>
<polygon fill="#fb8072" stroke="transparent" points="499,-10 499,-30 519,-30 519,-10 499,-10"/>
<text text-anchor="start" x="522.7258" y="-15.4" font-family="sans-serif" font-size="14.00" fill="#000000"> &#160;Exports</text>
<g id="clust1" class="cluster">
<title>cluster_LineaInvestigacionModule</title>
<polygon fill="none" stroke="#000000" stroke-dasharray="1,5" points="8,-70 8,-268 674,-268 674,-70 8,-70"/>
</g>
<g id="clust3" class="cluster">
<title>cluster_LineaInvestigacionModule_imports</title>
<polygon fill="none" stroke="#000000" points="206,-78 206,-130 666,-130 666,-78 206,-78"/>
</g>
<g id="clust4" class="cluster">
<title>cluster_LineaInvestigacionModule_exports</title>
<polygon fill="none" stroke="#000000" points="231,-208 231,-260 467,-260 467,-208 231,-208"/>
</g>
<g id="clust6" class="cluster">
<title>cluster_LineaInvestigacionModule_providers</title>
<polygon fill="none" stroke="#000000" points="16,-78 16,-130 198,-130 198,-78 16,-78"/>
</g>
<!-- ThemeModule -->
<g id="node1" class="node">
<title>ThemeModule</title>
<polygon fill="#8dd3c7" stroke="#000000" points="658.4231,-122 655.4231,-126 634.4231,-126 631.4231,-122 559.5769,-122 559.5769,-86 658.4231,-86 658.4231,-122"/>
<text text-anchor="middle" x="609" y="-99.8" font-family="Times,serif" font-size="14.00" fill="#000000">ThemeModule</text>
</g>
<!-- LineaInvestigacionModule -->
<g id="node4" class="node">
<title>LineaInvestigacionModule</title>
<polygon fill="#8dd3c7" stroke="#000000" points="432.3431,-187 429.3431,-191 408.3431,-191 405.3431,-187 265.6569,-187 265.6569,-151 432.3431,-151 432.3431,-187"/>
<text text-anchor="middle" x="349" y="-164.8" font-family="Times,serif" font-size="14.00" fill="#000000">LineaInvestigacionModule</text>
</g>
<!-- ThemeModule&#45;&gt;LineaInvestigacionModule -->
<g id="edge1" class="edge">
<title>ThemeModule&#45;&gt;LineaInvestigacionModule</title>
<path fill="none" stroke="#000000" d="M609,-122.1061C609,-141.3391 609,-169 609,-169 609,-169 442.6968,-169 442.6968,-169"/>
<polygon fill="#000000" stroke="#000000" points="442.6968,-165.5001 432.6968,-169 442.6968,-172.5001 442.6968,-165.5001"/>
</g>
<!-- LineaInvestigacionRoutingModule -->
<g id="node2" class="node">
<title>LineaInvestigacionRoutingModule</title>
<polygon fill="#8dd3c7" stroke="#000000" points="541.9608,-122 538.9608,-126 517.9608,-126 514.9608,-122 330.0392,-122 330.0392,-86 541.9608,-86 541.9608,-122"/>
<text text-anchor="middle" x="436" y="-99.8" font-family="Times,serif" font-size="14.00" fill="#000000">LineaInvestigacionRoutingModule</text>
</g>
<!-- LineaInvestigacionRoutingModule&#45;&gt;LineaInvestigacionModule -->
<g id="edge2" class="edge">
<title>LineaInvestigacionRoutingModule&#45;&gt;LineaInvestigacionModule</title>
<path fill="none" stroke="#000000" d="M381.2206,-122.1061C381.2206,-122.1061 381.2206,-140.991 381.2206,-140.991"/>
<polygon fill="#000000" stroke="#000000" points="377.7206,-140.9909 381.2206,-150.991 384.7206,-140.991 377.7206,-140.9909"/>
</g>
<!-- SharedModule -->
<g id="node3" class="node">
<title>SharedModule</title>
<polygon fill="#8dd3c7" stroke="#000000" points="312.4231,-122 309.4231,-126 288.4231,-126 285.4231,-122 213.5769,-122 213.5769,-86 312.4231,-86 312.4231,-122"/>
<text text-anchor="middle" x="263" y="-99.8" font-family="Times,serif" font-size="14.00" fill="#000000">SharedModule</text>
</g>
<!-- SharedModule&#45;&gt;LineaInvestigacionModule -->
<g id="edge3" class="edge">
<title>SharedModule&#45;&gt;LineaInvestigacionModule</title>
<path fill="none" stroke="#000000" d="M288.8948,-122.1061C288.8948,-122.1061 288.8948,-140.991 288.8948,-140.991"/>
<polygon fill="#000000" stroke="#000000" points="285.3949,-140.9909 288.8948,-150.991 292.3949,-140.991 285.3949,-140.9909"/>
</g>
<!-- CrudLineaInvestigacionComponent  -->
<g id="node5" class="node">
<title>CrudLineaInvestigacionComponent </title>
<polygon fill="#fb8072" stroke="#000000" points="459.1228,-252 238.8772,-252 238.8772,-216 459.1228,-216 459.1228,-252"/>
<text text-anchor="middle" x="349" y="-229.8" font-family="Times,serif" font-size="14.00" fill="#000000">CrudLineaInvestigacionComponent </text>
</g>
<!-- LineaInvestigacionModule&#45;&gt;CrudLineaInvestigacionComponent  -->
<g id="edge4" class="edge">
<title>LineaInvestigacionModule&#45;&gt;CrudLineaInvestigacionComponent </title>
<path fill="none" stroke="#000000" stroke-dasharray="5,2" d="M349,-187.1061C349,-187.1061 349,-205.991 349,-205.991"/>
<polygon fill="#000000" stroke="#000000" points="345.5001,-205.9909 349,-215.991 352.5001,-205.991 345.5001,-205.9909"/>
</g>
<!-- InscripcionService -->
<g id="node6" class="node">
<title>InscripcionService</title>
<ellipse fill="#fdb462" stroke="#000000" cx="107" cy="-104" rx="83.3635" ry="18"/>
<text text-anchor="middle" x="107" y="-99.8" font-family="Times,serif" font-size="14.00" fill="#000000">InscripcionService</text>
</g>
<!-- InscripcionService&#45;&gt;LineaInvestigacionModule -->
<g id="edge5" class="edge">
<title>InscripcionService&#45;&gt;LineaInvestigacionModule</title>
<path fill="none" stroke="#000000" d="M107,-122.1061C107,-141.3391 107,-169 107,-169 107,-169 255.3785,-169 255.3785,-169"/>
<polygon fill="#000000" stroke="#000000" points="255.3785,-172.5001 265.3785,-169 255.3784,-165.5001 255.3785,-172.5001"/>
</g>
</g>
</svg>
