<?xml version="1.0" encoding="UTF-8" standalone="no"?>
<!DOCTYPE svg PUBLIC "-//W3C//DTD SVG 1.1//EN"
 "http://www.w3.org/Graphics/SVG/1.1/DTD/svg11.dtd">
<!-- Generated by graphviz version 2.40.1 (20161225.0304)
 -->
<!-- Title: dependencies Pages: 1 -->
<svg width="1762pt" height="211pt"
 viewBox="0.00 0.00 1762.00 211.00" xmlns="http://www.w3.org/2000/svg" xmlns:xlink="http://www.w3.org/1999/xlink">
<g id="graph0" class="graph" transform="scale(1 1) rotate(0) translate(4 207)">
<title>dependencies</title>
<polygon fill="#ffffff" stroke="transparent" points="-4,4 -4,-207 1758,-207 1758,4 -4,4"/>
<text text-anchor="start" x="856.0091" y="-42.4" font-family="sans-serif" font-weight="bold" font-size="14.00" fill="#000000">Legend</text>
<polygon fill="#ffffb3" stroke="transparent" points="643,-10 643,-30 663,-30 663,-10 643,-10"/>
<text text-anchor="start" x="666.629" y="-15.4" font-family="sans-serif" font-size="14.00" fill="#000000"> &#160;Declarations</text>
<polygon fill="#8dd3c7" stroke="transparent" points="756,-10 756,-30 776,-30 776,-10 756,-10"/>
<text text-anchor="start" x="779.7251" y="-15.4" font-family="sans-serif" font-size="14.00" fill="#000000"> &#160;Module</text>
<polygon fill="#80b1d3" stroke="transparent" points="842,-10 842,-30 862,-30 862,-10 842,-10"/>
<text text-anchor="start" x="865.7812" y="-15.4" font-family="sans-serif" font-size="14.00" fill="#000000"> &#160;Bootstrap</text>
<polygon fill="#fdb462" stroke="transparent" points="939,-10 939,-30 959,-30 959,-10 939,-10"/>
<text text-anchor="start" x="962.6732" y="-15.4" font-family="sans-serif" font-size="14.00" fill="#000000"> &#160;Providers</text>
<polygon fill="#fb8072" stroke="transparent" points="1035,-10 1035,-30 1055,-30 1055,-10 1035,-10"/>
<text text-anchor="start" x="1058.7258" y="-15.4" font-family="sans-serif" font-size="14.00" fill="#000000"> &#160;Exports</text>
<g id="clust1" class="cluster">
<title>cluster_DetalleInscripcionModule</title>
<polygon fill="none" stroke="#000000" stroke-dasharray="1,5" points="8,-70 8,-195 1746,-195 1746,-70 8,-70"/>
</g>
<g id="clust3" class="cluster">
<title>cluster_DetalleInscripcionModule_imports</title>
<polygon fill="none" stroke="#000000" points="1282,-78 1282,-130 1738,-130 1738,-78 1282,-78"/>
</g>
<g id="clust6" class="cluster">
<title>cluster_DetalleInscripcionModule_providers</title>
<polygon fill="none" stroke="#000000" points="16,-78 16,-130 1274,-130 1274,-78 16,-78"/>
</g>
<!-- ThemeModule -->
<g id="node1" class="node">
<title>ThemeModule</title>
<polygon fill="#8dd3c7" stroke="#000000" points="1730.4231,-122 1727.4231,-126 1706.4231,-126 1703.4231,-122 1631.5769,-122 1631.5769,-86 1730.4231,-86 1730.4231,-122"/>
<text text-anchor="middle" x="1681" y="-99.8" font-family="Times,serif" font-size="14.00" fill="#000000">ThemeModule</text>
</g>
<!-- DetalleInscripcionModule -->
<g id="node4" class="node">
<title>DetalleInscripcionModule</title>
<polygon fill="#8dd3c7" stroke="#000000" points="979.4482,-187 976.4482,-191 955.4482,-191 952.4482,-187 816.5518,-187 816.5518,-151 979.4482,-151 979.4482,-187"/>
<text text-anchor="middle" x="898" y="-164.8" font-family="Times,serif" font-size="14.00" fill="#000000">DetalleInscripcionModule</text>
</g>
<!-- ThemeModule&#45;&gt;DetalleInscripcionModule -->
<g id="edge1" class="edge">
<title>ThemeModule&#45;&gt;DetalleInscripcionModule</title>
<path fill="none" stroke="#000000" d="M1681,-122.0109C1681,-144.4852 1681,-180 1681,-180 1681,-180 989.5789,-180 989.5789,-180"/>
<polygon fill="#000000" stroke="#000000" points="989.5789,-176.5001 979.5789,-180 989.5788,-183.5001 989.5789,-176.5001"/>
</g>
<!-- DetalleInscripcionRoutingModule -->
<g id="node2" class="node">
<title>DetalleInscripcionRoutingModule</title>
<polygon fill="#8dd3c7" stroke="#000000" points="1614.066,-122 1611.066,-126 1590.066,-126 1587.066,-122 1405.934,-122 1405.934,-86 1614.066,-86 1614.066,-122"/>
<text text-anchor="middle" x="1510" y="-99.8" font-family="Times,serif" font-size="14.00" fill="#000000">DetalleInscripcionRoutingModule</text>
</g>
<!-- DetalleInscripcionRoutingModule&#45;&gt;DetalleInscripcionModule -->
<g id="edge2" class="edge">
<title>DetalleInscripcionRoutingModule&#45;&gt;DetalleInscripcionModule</title>
<path fill="none" stroke="#000000" d="M1510,-122.1289C1510,-142.5724 1510,-173 1510,-173 1510,-173 989.5852,-173 989.5852,-173"/>
<polygon fill="#000000" stroke="#000000" points="989.5852,-169.5001 979.5852,-173 989.5852,-176.5001 989.5852,-169.5001"/>
</g>
<!-- SharedModule -->
<g id="node3" class="node">
<title>SharedModule</title>
<polygon fill="#8dd3c7" stroke="#000000" points="1388.4231,-122 1385.4231,-126 1364.4231,-126 1361.4231,-122 1289.5769,-122 1289.5769,-86 1388.4231,-86 1388.4231,-122"/>
<text text-anchor="middle" x="1339" y="-99.8" font-family="Times,serif" font-size="14.00" fill="#000000">SharedModule</text>
</g>
<!-- SharedModule&#45;&gt;DetalleInscripcionModule -->
<g id="edge3" class="edge">
<title>SharedModule&#45;&gt;DetalleInscripcionModule</title>
<path fill="none" stroke="#000000" d="M1339,-122.2667C1339,-140.5552 1339,-166 1339,-166 1339,-166 989.6575,-166 989.6575,-166"/>
<polygon fill="#000000" stroke="#000000" points="989.6576,-162.5001 979.6575,-166 989.6575,-169.5001 989.6576,-162.5001"/>
</g>
<!-- InscripcionService -->
<g id="node5" class="node">
<title>InscripcionService</title>
<ellipse fill="#fdb462" stroke="#000000" cx="1183" cy="-104" rx="83.3635" ry="18"/>
<text text-anchor="middle" x="1183" y="-99.8" font-family="Times,serif" font-size="14.00" fill="#000000">InscripcionService</text>
</g>
<!-- InscripcionService&#45;&gt;DetalleInscripcionModule -->
<g id="edge4" class="edge">
<title>InscripcionService&#45;&gt;DetalleInscripcionModule</title>
<path fill="none" stroke="#000000" d="M1183,-122.0091C1183,-138.0494 1183,-159 1183,-159 1183,-159 989.6696,-159 989.6696,-159"/>
<polygon fill="#000000" stroke="#000000" points="989.6696,-155.5001 979.6696,-159 989.6695,-162.5001 989.6696,-155.5001"/>
</g>
<!-- CampusMidService -->
<g id="node6" class="node">
<title>CampusMidService</title>
<ellipse fill="#fdb462" stroke="#000000" cx="994" cy="-104" rx="87.98" ry="18"/>
<text text-anchor="middle" x="994" y="-99.8" font-family="Times,serif" font-size="14.00" fill="#000000">CampusMidService</text>
</g>
<!-- CampusMidService&#45;&gt;DetalleInscripcionModule -->
<g id="edge5" class="edge">
<title>CampusMidService&#45;&gt;DetalleInscripcionModule</title>
<path fill="none" stroke="#000000" d="M942.8672,-118.7495C942.8672,-118.7495 942.8672,-140.5882 942.8672,-140.5882"/>
<polygon fill="#000000" stroke="#000000" points="939.3673,-140.5881 942.8672,-150.5882 946.3673,-140.5882 939.3673,-140.5881"/>
</g>
<!-- ExperienciaService -->
<g id="node7" class="node">
<title>ExperienciaService</title>
<ellipse fill="#fdb462" stroke="#000000" cx="802" cy="-104" rx="86.2116" ry="18"/>
<text text-anchor="middle" x="802" y="-99.8" font-family="Times,serif" font-size="14.00" fill="#000000">ExperienciaService</text>
</g>
<!-- ExperienciaService&#45;&gt;DetalleInscripcionModule -->
<g id="edge6" class="edge">
<title>ExperienciaService&#45;&gt;DetalleInscripcionModule</title>
<path fill="none" stroke="#000000" d="M852.3158,-118.7495C852.3158,-118.7495 852.3158,-140.5882 852.3158,-140.5882"/>
<polygon fill="#000000" stroke="#000000" points="848.8159,-140.5881 852.3158,-150.5882 855.8159,-140.5882 848.8159,-140.5881"/>
</g>
<!-- OrganizacionService -->
<g id="node8" class="node">
<title>OrganizacionService</title>
<ellipse fill="#fdb462" stroke="#000000" cx="606" cy="-104" rx="92.0123" ry="18"/>
<text text-anchor="middle" x="606" y="-99.8" font-family="Times,serif" font-size="14.00" fill="#000000">OrganizacionService</text>
</g>
<!-- OrganizacionService&#45;&gt;DetalleInscripcionModule -->
<g id="edge7" class="edge">
<title>OrganizacionService&#45;&gt;DetalleInscripcionModule</title>
<path fill="none" stroke="#000000" d="M606,-122.0091C606,-138.0494 606,-159 606,-159 606,-159 806.2734,-159 806.2734,-159"/>
<polygon fill="#000000" stroke="#000000" points="806.2735,-162.5001 816.2734,-159 806.2734,-155.5001 806.2735,-162.5001"/>
</g>
<!-- IdiomaService -->
<g id="node9" class="node">
<title>IdiomaService</title>
<ellipse fill="#fdb462" stroke="#000000" cx="429" cy="-104" rx="67.1927" ry="18"/>
<text text-anchor="middle" x="429" y="-99.8" font-family="Times,serif" font-size="14.00" fill="#000000">IdiomaService</text>
</g>
<!-- IdiomaService&#45;&gt;DetalleInscripcionModule -->
<g id="edge8" class="edge">
<title>IdiomaService&#45;&gt;DetalleInscripcionModule</title>
<path fill="none" stroke="#000000" d="M429,-122.2667C429,-140.5552 429,-166 429,-166 429,-166 806.3064,-166 806.3064,-166"/>
<polygon fill="#000000" stroke="#000000" points="806.3065,-169.5001 816.3064,-166 806.3064,-162.5001 806.3065,-169.5001"/>
</g>
<!-- DocumentoService -->
<g id="node10" class="node">
<title>DocumentoService</title>
<ellipse fill="#fdb462" stroke="#000000" cx="259" cy="-104" rx="85.0928" ry="18"/>
<text text-anchor="middle" x="259" y="-99.8" font-family="Times,serif" font-size="14.00" fill="#000000">DocumentoService</text>
</g>
<!-- DocumentoService&#45;&gt;DetalleInscripcionModule -->
<g id="edge9" class="edge">
<title>DocumentoService&#45;&gt;DetalleInscripcionModule</title>
<path fill="none" stroke="#000000" d="M259,-122.1289C259,-142.5724 259,-173 259,-173 259,-173 806.4212,-173 806.4212,-173"/>
<polygon fill="#000000" stroke="#000000" points="806.4212,-176.5001 816.4212,-173 806.4211,-169.5001 806.4212,-176.5001"/>
</g>
<!-- NuxeoService -->
<g id="node11" class="node">
<title>NuxeoService</title>
<ellipse fill="#fdb462" stroke="#000000" cx="90" cy="-104" rx="65.9716" ry="18"/>
<text text-anchor="middle" x="90" y="-99.8" font-family="Times,serif" font-size="14.00" fill="#000000">NuxeoService</text>
</g>
<!-- NuxeoService&#45;&gt;DetalleInscripcionModule -->
<g id="edge10" class="edge">
<title>NuxeoService&#45;&gt;DetalleInscripcionModule</title>
<path fill="none" stroke="#000000" d="M90,-122.0109C90,-144.4852 90,-180 90,-180 90,-180 806.4526,-180 806.4526,-180"/>
<polygon fill="#000000" stroke="#000000" points="806.4526,-183.5001 816.4526,-180 806.4526,-176.5001 806.4526,-183.5001"/>
</g>
</g>
</svg>
