<?xml version="1.0" encoding="UTF-8" standalone="no"?>
<!DOCTYPE svg PUBLIC "-//W3C//DTD SVG 1.1//EN"
 "http://www.w3.org/Graphics/SVG/1.1/DTD/svg11.dtd">
<!-- Generated by graphviz version 2.40.1 (20161225.0304)
 -->
<!-- Title: dependencies Pages: 1 -->
<svg width="684pt" height="284pt"
 viewBox="0.00 0.00 684.00 284.00" xmlns="http://www.w3.org/2000/svg" xmlns:xlink="http://www.w3.org/1999/xlink">
<g id="graph0" class="graph" transform="scale(1 1) rotate(0) translate(4 280)">
<title>dependencies</title>
<polygon fill="#ffffff" stroke="transparent" points="-4,4 -4,-280 680,-280 680,4 -4,4"/>
<text text-anchor="start" x="317.0091" y="-42.4" font-family="sans-serif" font-weight="bold" font-size="14.00" fill="#000000">Legend</text>
<polygon fill="#ffffb3" stroke="transparent" points="104,-10 104,-30 124,-30 124,-10 104,-10"/>
<text text-anchor="start" x="127.629" y="-15.4" font-family="sans-serif" font-size="14.00" fill="#000000"> &#160;Declarations</text>
<polygon fill="#8dd3c7" stroke="transparent" points="217,-10 217,-30 237,-30 237,-10 217,-10"/>
<text text-anchor="start" x="240.7251" y="-15.4" font-family="sans-serif" font-size="14.00" fill="#000000"> &#160;Module</text>
<polygon fill="#80b1d3" stroke="transparent" points="303,-10 303,-30 323,-30 323,-10 303,-10"/>
<text text-anchor="start" x="326.7812" y="-15.4" font-family="sans-serif" font-size="14.00" fill="#000000"> &#160;Bootstrap</text>
<polygon fill="#fdb462" stroke="transparent" points="400,-10 400,-30 420,-30 420,-10 400,-10"/>
<text text-anchor="start" x="423.6732" y="-15.4" font-family="sans-serif" font-size="14.00" fill="#000000"> &#160;Providers</text>
<polygon fill="#fb8072" stroke="transparent" points="496,-10 496,-30 516,-30 516,-10 496,-10"/>
<text text-anchor="start" x="519.7258" y="-15.4" font-family="sans-serif" font-size="14.00" fill="#000000"> &#160;Exports</text>
<g id="clust1" class="cluster">
<title>cluster_TipoVinculacionModule</title>
<polygon fill="none" stroke="#000000" stroke-dasharray="1,5" points="8,-70 8,-268 668,-268 668,-70 8,-70"/>
</g>
<g id="clust3" class="cluster">
<title>cluster_TipoVinculacionModule_imports</title>
<polygon fill="none" stroke="#000000" points="212,-78 212,-130 660,-130 660,-78 212,-78"/>
</g>
<g id="clust4" class="cluster">
<title>cluster_TipoVinculacionModule_exports</title>
<polygon fill="none" stroke="#000000" points="240,-208 240,-260 464,-260 464,-208 240,-208"/>
</g>
<g id="clust6" class="cluster">
<title>cluster_TipoVinculacionModule_providers</title>
<polygon fill="none" stroke="#000000" points="16,-78 16,-130 204,-130 204,-78 16,-78"/>
</g>
<!-- ThemeModule -->
<g id="node1" class="node">
<title>ThemeModule</title>
<polygon fill="#8dd3c7" stroke="#000000" points="652.4231,-122 649.4231,-126 628.4231,-126 625.4231,-122 553.5769,-122 553.5769,-86 652.4231,-86 652.4231,-122"/>
<text text-anchor="middle" x="603" y="-99.8" font-family="Times,serif" font-size="14.00" fill="#000000">ThemeModule</text>
</g>
<!-- TipoVinculacionModule -->
<g id="node4" class="node">
<title>TipoVinculacionModule</title>
<polygon fill="#8dd3c7" stroke="#000000" points="429.4158,-187 426.4158,-191 405.4158,-191 402.4158,-187 274.5842,-187 274.5842,-151 429.4158,-151 429.4158,-187"/>
<text text-anchor="middle" x="352" y="-164.8" font-family="Times,serif" font-size="14.00" fill="#000000">TipoVinculacionModule</text>
</g>
<!-- ThemeModule&#45;&gt;TipoVinculacionModule -->
<g id="edge1" class="edge">
<title>ThemeModule&#45;&gt;TipoVinculacionModule</title>
<path fill="none" stroke="#000000" d="M603,-122.1061C603,-141.3391 603,-169 603,-169 603,-169 439.3564,-169 439.3564,-169"/>
<polygon fill="#000000" stroke="#000000" points="439.3564,-165.5001 429.3564,-169 439.3563,-172.5001 439.3564,-165.5001"/>
</g>
<!-- TipoVinculacionRoutingModule -->
<g id="node2" class="node">
<title>TipoVinculacionRoutingModule</title>
<polygon fill="#8dd3c7" stroke="#000000" points="535.5335,-122 532.5335,-126 511.5335,-126 508.5335,-122 336.4665,-122 336.4665,-86 535.5335,-86 535.5335,-122"/>
<text text-anchor="middle" x="436" y="-99.8" font-family="Times,serif" font-size="14.00" fill="#000000">TipoVinculacionRoutingModule</text>
</g>
<!-- TipoVinculacionRoutingModule&#45;&gt;TipoVinculacionModule -->
<g id="edge2" class="edge">
<title>TipoVinculacionRoutingModule&#45;&gt;TipoVinculacionModule</title>
<path fill="none" stroke="#000000" d="M382.7206,-122.1061C382.7206,-122.1061 382.7206,-140.991 382.7206,-140.991"/>
<polygon fill="#000000" stroke="#000000" points="379.2206,-140.9909 382.7206,-150.991 386.2206,-140.991 379.2206,-140.9909"/>
</g>
<!-- SharedModule -->
<g id="node3" class="node">
<title>SharedModule</title>
<polygon fill="#8dd3c7" stroke="#000000" points="318.4231,-122 315.4231,-126 294.4231,-126 291.4231,-122 219.5769,-122 219.5769,-86 318.4231,-86 318.4231,-122"/>
<text text-anchor="middle" x="269" y="-99.8" font-family="Times,serif" font-size="14.00" fill="#000000">SharedModule</text>
</g>
<!-- SharedModule&#45;&gt;TipoVinculacionModule -->
<g id="edge3" class="edge">
<title>SharedModule&#45;&gt;TipoVinculacionModule</title>
<path fill="none" stroke="#000000" d="M296.5018,-122.1061C296.5018,-122.1061 296.5018,-140.991 296.5018,-140.991"/>
<polygon fill="#000000" stroke="#000000" points="293.0018,-140.9909 296.5018,-150.991 300.0018,-140.991 293.0018,-140.9909"/>
</g>
<!-- CrudTipoVinculacionComponent  -->
<g id="node5" class="node">
<title>CrudTipoVinculacionComponent </title>
<polygon fill="#fb8072" stroke="#000000" points="455.6952,-252 248.3048,-252 248.3048,-216 455.6952,-216 455.6952,-252"/>
<text text-anchor="middle" x="352" y="-229.8" font-family="Times,serif" font-size="14.00" fill="#000000">CrudTipoVinculacionComponent </text>
</g>
<!-- TipoVinculacionModule&#45;&gt;CrudTipoVinculacionComponent  -->
<g id="edge4" class="edge">
<title>TipoVinculacionModule&#45;&gt;CrudTipoVinculacionComponent </title>
<path fill="none" stroke="#000000" stroke-dasharray="5,2" d="M352,-187.1061C352,-187.1061 352,-205.991 352,-205.991"/>
<polygon fill="#000000" stroke="#000000" points="348.5001,-205.9909 352,-215.991 355.5001,-205.991 348.5001,-205.9909"/>
</g>
<!-- ExperienciaService -->
<g id="node6" class="node">
<title>ExperienciaService</title>
<ellipse fill="#fdb462" stroke="#000000" cx="110" cy="-104" rx="86.2116" ry="18"/>
<text text-anchor="middle" x="110" y="-99.8" font-family="Times,serif" font-size="14.00" fill="#000000">ExperienciaService</text>
</g>
<!-- ExperienciaService&#45;&gt;TipoVinculacionModule -->
<g id="edge5" class="edge">
<title>ExperienciaService&#45;&gt;TipoVinculacionModule</title>
<path fill="none" stroke="#000000" d="M110,-122.1061C110,-141.3391 110,-169 110,-169 110,-169 264.7643,-169 264.7643,-169"/>
<polygon fill="#000000" stroke="#000000" points="264.7644,-172.5001 274.7643,-169 264.7643,-165.5001 264.7644,-172.5001"/>
</g>
</g>
</svg>
