<?xml version="1.0" encoding="UTF-8" standalone="no"?>
<!DOCTYPE svg PUBLIC "-//W3C//DTD SVG 1.1//EN"
 "http://www.w3.org/Graphics/SVG/1.1/DTD/svg11.dtd">
<!-- Generated by graphviz version 2.40.1 (20161225.0304)
 -->
<!-- Title: dependencies Pages: 1 -->
<svg width="780pt" height="284pt"
 viewBox="0.00 0.00 780.00 284.00" xmlns="http://www.w3.org/2000/svg" xmlns:xlink="http://www.w3.org/1999/xlink">
<g id="graph0" class="graph" transform="scale(1 1) rotate(0) translate(4 280)">
<title>dependencies</title>
<polygon fill="#ffffff" stroke="transparent" points="-4,4 -4,-280 776,-280 776,4 -4,4"/>
<text text-anchor="start" x="365.0091" y="-42.4" font-family="sans-serif" font-weight="bold" font-size="14.00" fill="#000000">Legend</text>
<polygon fill="#ffffb3" stroke="transparent" points="152,-10 152,-30 172,-30 172,-10 152,-10"/>
<text text-anchor="start" x="175.629" y="-15.4" font-family="sans-serif" font-size="14.00" fill="#000000"> &#160;Declarations</text>
<polygon fill="#8dd3c7" stroke="transparent" points="265,-10 265,-30 285,-30 285,-10 265,-10"/>
<text text-anchor="start" x="288.7251" y="-15.4" font-family="sans-serif" font-size="14.00" fill="#000000"> &#160;Module</text>
<polygon fill="#80b1d3" stroke="transparent" points="351,-10 351,-30 371,-30 371,-10 351,-10"/>
<text text-anchor="start" x="374.7812" y="-15.4" font-family="sans-serif" font-size="14.00" fill="#000000"> &#160;Bootstrap</text>
<polygon fill="#fdb462" stroke="transparent" points="448,-10 448,-30 468,-30 468,-10 448,-10"/>
<text text-anchor="start" x="471.6732" y="-15.4" font-family="sans-serif" font-size="14.00" fill="#000000"> &#160;Providers</text>
<polygon fill="#fb8072" stroke="transparent" points="544,-10 544,-30 564,-30 564,-10 544,-10"/>
<text text-anchor="start" x="567.7258" y="-15.4" font-family="sans-serif" font-size="14.00" fill="#000000"> &#160;Exports</text>
<g id="clust1" class="cluster">
<title>cluster_ProgramaAcademicoModule</title>
<polygon fill="none" stroke="#000000" stroke-dasharray="1,5" points="8,-70 8,-268 764,-268 764,-70 8,-70"/>
</g>
<g id="clust3" class="cluster">
<title>cluster_ProgramaAcademicoModule_imports</title>
<polygon fill="none" stroke="#000000" points="284,-78 284,-130 756,-130 756,-78 284,-78"/>
</g>
<g id="clust4" class="cluster">
<title>cluster_ProgramaAcademicoModule_exports</title>
<polygon fill="none" stroke="#000000" points="307,-208 307,-260 553,-260 553,-208 307,-208"/>
</g>
<g id="clust6" class="cluster">
<title>cluster_ProgramaAcademicoModule_providers</title>
<polygon fill="none" stroke="#000000" points="16,-78 16,-130 276,-130 276,-78 16,-78"/>
</g>
<!-- ThemeModule -->
<g id="node1" class="node">
<title>ThemeModule</title>
<polygon fill="#8dd3c7" stroke="#000000" points="748.4231,-122 745.4231,-126 724.4231,-126 721.4231,-122 649.5769,-122 649.5769,-86 748.4231,-86 748.4231,-122"/>
<text text-anchor="middle" x="699" y="-99.8" font-family="Times,serif" font-size="14.00" fill="#000000">ThemeModule</text>
</g>
<!-- ProgramaAcademicoModule -->
<g id="node4" class="node">
<title>ProgramaAcademicoModule</title>
<polygon fill="#8dd3c7" stroke="#000000" points="518.7198,-187 515.7198,-191 494.7198,-191 491.7198,-187 341.2802,-187 341.2802,-151 518.7198,-151 518.7198,-187"/>
<text text-anchor="middle" x="430" y="-164.8" font-family="Times,serif" font-size="14.00" fill="#000000">ProgramaAcademicoModule</text>
</g>
<!-- ThemeModule&#45;&gt;ProgramaAcademicoModule -->
<g id="edge1" class="edge">
<title>ThemeModule&#45;&gt;ProgramaAcademicoModule</title>
<path fill="none" stroke="#000000" d="M699,-122.1061C699,-141.3391 699,-169 699,-169 699,-169 528.8262,-169 528.8262,-169"/>
<polygon fill="#000000" stroke="#000000" points="528.8262,-165.5001 518.8262,-169 528.8261,-172.5001 528.8262,-165.5001"/>
</g>
<!-- ProgramaAcademicoRoutingModule -->
<g id="node2" class="node">
<title>ProgramaAcademicoRoutingModule</title>
<polygon fill="#8dd3c7" stroke="#000000" points="631.3375,-122 628.3375,-126 607.3375,-126 604.3375,-122 408.6625,-122 408.6625,-86 631.3375,-86 631.3375,-122"/>
<text text-anchor="middle" x="520" y="-99.8" font-family="Times,serif" font-size="14.00" fill="#000000">ProgramaAcademicoRoutingModule</text>
</g>
<!-- ProgramaAcademicoRoutingModule&#45;&gt;ProgramaAcademicoModule -->
<g id="edge2" class="edge">
<title>ProgramaAcademicoRoutingModule&#45;&gt;ProgramaAcademicoModule</title>
<path fill="none" stroke="#000000" d="M463.7206,-122.1061C463.7206,-122.1061 463.7206,-140.991 463.7206,-140.991"/>
<polygon fill="#000000" stroke="#000000" points="460.2206,-140.9909 463.7206,-150.991 467.2206,-140.991 460.2206,-140.9909"/>
</g>
<!-- SharedModule -->
<g id="node3" class="node">
<title>SharedModule</title>
<polygon fill="#8dd3c7" stroke="#000000" points="390.4231,-122 387.4231,-126 366.4231,-126 363.4231,-122 291.5769,-122 291.5769,-86 390.4231,-86 390.4231,-122"/>
<text text-anchor="middle" x="341" y="-99.8" font-family="Times,serif" font-size="14.00" fill="#000000">SharedModule</text>
</g>
<!-- SharedModule&#45;&gt;ProgramaAcademicoModule -->
<g id="edge3" class="edge">
<title>SharedModule&#45;&gt;ProgramaAcademicoModule</title>
<path fill="none" stroke="#000000" d="M365.6757,-122.1061C365.6757,-122.1061 365.6757,-140.991 365.6757,-140.991"/>
<polygon fill="#000000" stroke="#000000" points="362.1757,-140.9909 365.6757,-150.991 369.1757,-140.991 362.1757,-140.9909"/>
</g>
<!-- CrudProgramaAcademicoComponent  -->
<g id="node5" class="node">
<title>CrudProgramaAcademicoComponent </title>
<polygon fill="#fb8072" stroke="#000000" points="545.4994,-252 314.5006,-252 314.5006,-216 545.4994,-216 545.4994,-252"/>
<text text-anchor="middle" x="430" y="-229.8" font-family="Times,serif" font-size="14.00" fill="#000000">CrudProgramaAcademicoComponent </text>
</g>
<!-- ProgramaAcademicoModule&#45;&gt;CrudProgramaAcademicoComponent  -->
<g id="edge4" class="edge">
<title>ProgramaAcademicoModule&#45;&gt;CrudProgramaAcademicoComponent </title>
<path fill="none" stroke="#000000" stroke-dasharray="5,2" d="M430,-187.1061C430,-187.1061 430,-205.991 430,-205.991"/>
<polygon fill="#000000" stroke="#000000" points="426.5001,-205.9909 430,-215.991 433.5001,-205.991 426.5001,-205.9909"/>
</g>
<!-- ProgramaAcademicoService -->
<g id="node6" class="node">
<title>ProgramaAcademicoService</title>
<ellipse fill="#fdb462" stroke="#000000" cx="146" cy="-104" rx="121.5065" ry="18"/>
<text text-anchor="middle" x="146" y="-99.8" font-family="Times,serif" font-size="14.00" fill="#000000">ProgramaAcademicoService</text>
</g>
<!-- ProgramaAcademicoService&#45;&gt;ProgramaAcademicoModule -->
<g id="edge5" class="edge">
<title>ProgramaAcademicoService&#45;&gt;ProgramaAcademicoModule</title>
<path fill="none" stroke="#000000" d="M146,-122.1061C146,-141.3391 146,-169 146,-169 146,-169 330.9198,-169 330.9198,-169"/>
<polygon fill="#000000" stroke="#000000" points="330.9199,-172.5001 340.9198,-169 330.9198,-165.5001 330.9199,-172.5001"/>
</g>
</g>
</svg>
