<?xml version="1.0" encoding="UTF-8" standalone="no"?>
<!DOCTYPE svg PUBLIC "-//W3C//DTD SVG 1.1//EN"
 "http://www.w3.org/Graphics/SVG/1.1/DTD/svg11.dtd">
<!-- Generated by graphviz version 2.40.1 (20161225.0304)
 -->
<!-- Title: dependencies Pages: 1 -->
<svg width="642pt" height="284pt"
 viewBox="0.00 0.00 642.00 284.00" xmlns="http://www.w3.org/2000/svg" xmlns:xlink="http://www.w3.org/1999/xlink">
<g id="graph0" class="graph" transform="scale(1 1) rotate(0) translate(4 280)">
<title>dependencies</title>
<polygon fill="#ffffff" stroke="transparent" points="-4,4 -4,-280 638,-280 638,4 -4,4"/>
<text text-anchor="start" x="296.0091" y="-42.4" font-family="sans-serif" font-weight="bold" font-size="14.00" fill="#000000">Legend</text>
<polygon fill="#ffffb3" stroke="transparent" points="83,-10 83,-30 103,-30 103,-10 83,-10"/>
<text text-anchor="start" x="106.629" y="-15.4" font-family="sans-serif" font-size="14.00" fill="#000000"> &#160;Declarations</text>
<polygon fill="#8dd3c7" stroke="transparent" points="196,-10 196,-30 216,-30 216,-10 196,-10"/>
<text text-anchor="start" x="219.7251" y="-15.4" font-family="sans-serif" font-size="14.00" fill="#000000"> &#160;Module</text>
<polygon fill="#80b1d3" stroke="transparent" points="282,-10 282,-30 302,-30 302,-10 282,-10"/>
<text text-anchor="start" x="305.7812" y="-15.4" font-family="sans-serif" font-size="14.00" fill="#000000"> &#160;Bootstrap</text>
<polygon fill="#fdb462" stroke="transparent" points="379,-10 379,-30 399,-30 399,-10 379,-10"/>
<text text-anchor="start" x="402.6732" y="-15.4" font-family="sans-serif" font-size="14.00" fill="#000000"> &#160;Providers</text>
<polygon fill="#fb8072" stroke="transparent" points="475,-10 475,-30 495,-30 495,-10 475,-10"/>
<text text-anchor="start" x="498.7258" y="-15.4" font-family="sans-serif" font-size="14.00" fill="#000000"> &#160;Exports</text>
<g id="clust1" class="cluster">
<title>cluster_AreaConocimientoModule</title>
<polygon fill="none" stroke="#000000" stroke-dasharray="1,5" points="8,-70 8,-268 626,-268 626,-70 8,-70"/>
</g>
<g id="clust3" class="cluster">
<title>cluster_AreaConocimientoModule_imports</title>
<polygon fill="none" stroke="#000000" points="158,-78 158,-130 618,-130 618,-78 158,-78"/>
</g>
<g id="clust4" class="cluster">
<title>cluster_AreaConocimientoModule_exports</title>
<polygon fill="none" stroke="#000000" points="183,-208 183,-260 419,-260 419,-208 183,-208"/>
</g>
<g id="clust6" class="cluster">
<title>cluster_AreaConocimientoModule_providers</title>
<polygon fill="none" stroke="#000000" points="16,-78 16,-130 150,-130 150,-78 16,-78"/>
</g>
<!-- ThemeModule -->
<g id="node1" class="node">
<title>ThemeModule</title>
<polygon fill="#8dd3c7" stroke="#000000" points="610.4231,-122 607.4231,-126 586.4231,-126 583.4231,-122 511.5769,-122 511.5769,-86 610.4231,-86 610.4231,-122"/>
<text text-anchor="middle" x="561" y="-99.8" font-family="Times,serif" font-size="14.00" fill="#000000">ThemeModule</text>
</g>
<!-- AreaConocimientoModule -->
<g id="node4" class="node">
<title>AreaConocimientoModule</title>
<polygon fill="#8dd3c7" stroke="#000000" points="384.0744,-187 381.0744,-191 360.0744,-191 357.0744,-187 217.9256,-187 217.9256,-151 384.0744,-151 384.0744,-187"/>
<text text-anchor="middle" x="301" y="-164.8" font-family="Times,serif" font-size="14.00" fill="#000000">AreaConocimientoModule</text>
</g>
<!-- ThemeModule&#45;&gt;AreaConocimientoModule -->
<g id="edge1" class="edge">
<title>ThemeModule&#45;&gt;AreaConocimientoModule</title>
<path fill="none" stroke="#000000" d="M561,-122.1061C561,-141.3391 561,-169 561,-169 561,-169 394.3385,-169 394.3385,-169"/>
<polygon fill="#000000" stroke="#000000" points="394.3385,-165.5001 384.3385,-169 394.3384,-172.5001 394.3385,-165.5001"/>
</g>
<!-- AreaConocimientoRoutingModule -->
<g id="node2" class="node">
<title>AreaConocimientoRoutingModule</title>
<polygon fill="#8dd3c7" stroke="#000000" points="493.6923,-122 490.6923,-126 469.6923,-126 466.6923,-122 282.3077,-122 282.3077,-86 493.6923,-86 493.6923,-122"/>
<text text-anchor="middle" x="388" y="-99.8" font-family="Times,serif" font-size="14.00" fill="#000000">AreaConocimientoRoutingModule</text>
</g>
<!-- AreaConocimientoRoutingModule&#45;&gt;AreaConocimientoModule -->
<g id="edge2" class="edge">
<title>AreaConocimientoRoutingModule&#45;&gt;AreaConocimientoModule</title>
<path fill="none" stroke="#000000" d="M333.2206,-122.1061C333.2206,-122.1061 333.2206,-140.991 333.2206,-140.991"/>
<polygon fill="#000000" stroke="#000000" points="329.7206,-140.9909 333.2206,-150.991 336.7206,-140.991 329.7206,-140.9909"/>
</g>
<!-- SharedModule -->
<g id="node3" class="node">
<title>SharedModule</title>
<polygon fill="#8dd3c7" stroke="#000000" points="264.4231,-122 261.4231,-126 240.4231,-126 237.4231,-122 165.5769,-122 165.5769,-86 264.4231,-86 264.4231,-122"/>
<text text-anchor="middle" x="215" y="-99.8" font-family="Times,serif" font-size="14.00" fill="#000000">SharedModule</text>
</g>
<!-- SharedModule&#45;&gt;AreaConocimientoModule -->
<g id="edge3" class="edge">
<title>SharedModule&#45;&gt;AreaConocimientoModule</title>
<path fill="none" stroke="#000000" d="M241.087,-122.1061C241.087,-122.1061 241.087,-140.991 241.087,-140.991"/>
<polygon fill="#000000" stroke="#000000" points="237.587,-140.9909 241.087,-150.991 244.587,-140.991 237.587,-140.9909"/>
</g>
<!-- CrudAreaConocimientoComponent  -->
<g id="node5" class="node">
<title>CrudAreaConocimientoComponent </title>
<polygon fill="#fb8072" stroke="#000000" points="410.8545,-252 191.1455,-252 191.1455,-216 410.8545,-216 410.8545,-252"/>
<text text-anchor="middle" x="301" y="-229.8" font-family="Times,serif" font-size="14.00" fill="#000000">CrudAreaConocimientoComponent </text>
</g>
<!-- AreaConocimientoModule&#45;&gt;CrudAreaConocimientoComponent  -->
<g id="edge4" class="edge">
<title>AreaConocimientoModule&#45;&gt;CrudAreaConocimientoComponent </title>
<path fill="none" stroke="#000000" stroke-dasharray="5,2" d="M301,-187.1061C301,-187.1061 301,-205.991 301,-205.991"/>
<polygon fill="#000000" stroke="#000000" points="297.5001,-205.9909 301,-215.991 304.5001,-205.991 297.5001,-205.9909"/>
</g>
<!-- CoreService -->
<g id="node6" class="node">
<title>CoreService</title>
<ellipse fill="#fdb462" stroke="#000000" cx="83" cy="-104" rx="58.5251" ry="18"/>
<text text-anchor="middle" x="83" y="-99.8" font-family="Times,serif" font-size="14.00" fill="#000000">CoreService</text>
</g>
<!-- CoreService&#45;&gt;AreaConocimientoModule -->
<g id="edge5" class="edge">
<title>CoreService&#45;&gt;AreaConocimientoModule</title>
<path fill="none" stroke="#000000" d="M83,-122.1061C83,-141.3391 83,-169 83,-169 83,-169 207.9617,-169 207.9617,-169"/>
<polygon fill="#000000" stroke="#000000" points="207.9617,-172.5001 217.9617,-169 207.9616,-165.5001 207.9617,-172.5001"/>
</g>
</g>
</svg>
