<?xml version="1.0" encoding="UTF-8" standalone="no"?>
<!DOCTYPE svg PUBLIC "-//W3C//DTD SVG 1.1//EN"
 "http://www.w3.org/Graphics/SVG/1.1/DTD/svg11.dtd">
<!-- Generated by graphviz version 2.40.1 (20161225.0304)
 -->
<!-- Title: dependencies Pages: 1 -->
<svg width="646pt" height="284pt"
 viewBox="0.00 0.00 646.00 284.00" xmlns="http://www.w3.org/2000/svg" xmlns:xlink="http://www.w3.org/1999/xlink">
<g id="graph0" class="graph" transform="scale(1 1) rotate(0) translate(4 280)">
<title>dependencies</title>
<polygon fill="#ffffff" stroke="transparent" points="-4,4 -4,-280 642,-280 642,4 -4,4"/>
<text text-anchor="start" x="298.0091" y="-42.4" font-family="sans-serif" font-weight="bold" font-size="14.00" fill="#000000">Legend</text>
<polygon fill="#ffffb3" stroke="transparent" points="85,-10 85,-30 105,-30 105,-10 85,-10"/>
<text text-anchor="start" x="108.629" y="-15.4" font-family="sans-serif" font-size="14.00" fill="#000000"> &#160;Declarations</text>
<polygon fill="#8dd3c7" stroke="transparent" points="198,-10 198,-30 218,-30 218,-10 198,-10"/>
<text text-anchor="start" x="221.7251" y="-15.4" font-family="sans-serif" font-size="14.00" fill="#000000"> &#160;Module</text>
<polygon fill="#80b1d3" stroke="transparent" points="284,-10 284,-30 304,-30 304,-10 284,-10"/>
<text text-anchor="start" x="307.7812" y="-15.4" font-family="sans-serif" font-size="14.00" fill="#000000"> &#160;Bootstrap</text>
<polygon fill="#fdb462" stroke="transparent" points="381,-10 381,-30 401,-30 401,-10 381,-10"/>
<text text-anchor="start" x="404.6732" y="-15.4" font-family="sans-serif" font-size="14.00" fill="#000000"> &#160;Providers</text>
<polygon fill="#fb8072" stroke="transparent" points="477,-10 477,-30 497,-30 497,-10 477,-10"/>
<text text-anchor="start" x="500.7258" y="-15.4" font-family="sans-serif" font-size="14.00" fill="#000000"> &#160;Exports</text>
<g id="clust1" class="cluster">
<title>cluster_TipoRecurrenciaModule</title>
<polygon fill="none" stroke="#000000" stroke-dasharray="1,5" points="8,-70 8,-268 630,-268 630,-70 8,-70"/>
</g>
<g id="clust3" class="cluster">
<title>cluster_TipoRecurrenciaModule_imports</title>
<polygon fill="none" stroke="#000000" points="174,-78 174,-130 622,-130 622,-78 174,-78"/>
</g>
<g id="clust4" class="cluster">
<title>cluster_TipoRecurrenciaModule_exports</title>
<polygon fill="none" stroke="#000000" points="203,-208 203,-260 425,-260 425,-208 203,-208"/>
</g>
<g id="clust6" class="cluster">
<title>cluster_TipoRecurrenciaModule_providers</title>
<polygon fill="none" stroke="#000000" points="16,-78 16,-130 166,-130 166,-78 16,-78"/>
</g>
<!-- ThemeModule -->
<g id="node1" class="node">
<title>ThemeModule</title>
<polygon fill="#8dd3c7" stroke="#000000" points="614.4231,-122 611.4231,-126 590.4231,-126 587.4231,-122 515.5769,-122 515.5769,-86 614.4231,-86 614.4231,-122"/>
<text text-anchor="middle" x="565" y="-99.8" font-family="Times,serif" font-size="14.00" fill="#000000">ThemeModule</text>
</g>
<!-- TipoRecurrenciaModule -->
<g id="node4" class="node">
<title>TipoRecurrenciaModule</title>
<polygon fill="#8dd3c7" stroke="#000000" points="390.6149,-187 387.6149,-191 366.6149,-191 363.6149,-187 237.3851,-187 237.3851,-151 390.6149,-151 390.6149,-187"/>
<text text-anchor="middle" x="314" y="-164.8" font-family="Times,serif" font-size="14.00" fill="#000000">TipoRecurrenciaModule</text>
</g>
<!-- ThemeModule&#45;&gt;TipoRecurrenciaModule -->
<g id="edge1" class="edge">
<title>ThemeModule&#45;&gt;TipoRecurrenciaModule</title>
<path fill="none" stroke="#000000" d="M565,-122.1061C565,-141.3391 565,-169 565,-169 565,-169 400.6721,-169 400.6721,-169"/>
<polygon fill="#000000" stroke="#000000" points="400.6722,-165.5001 390.6721,-169 400.6721,-172.5001 400.6722,-165.5001"/>
</g>
<!-- TipoRecurrenciaRoutingModule -->
<g id="node2" class="node">
<title>TipoRecurrenciaRoutingModule</title>
<polygon fill="#8dd3c7" stroke="#000000" points="497.2324,-122 494.2324,-126 473.2324,-126 470.2324,-122 298.7676,-122 298.7676,-86 497.2324,-86 497.2324,-122"/>
<text text-anchor="middle" x="398" y="-99.8" font-family="Times,serif" font-size="14.00" fill="#000000">TipoRecurrenciaRoutingModule</text>
</g>
<!-- TipoRecurrenciaRoutingModule&#45;&gt;TipoRecurrenciaModule -->
<g id="edge2" class="edge">
<title>TipoRecurrenciaRoutingModule&#45;&gt;TipoRecurrenciaModule</title>
<path fill="none" stroke="#000000" d="M344.7206,-122.1061C344.7206,-122.1061 344.7206,-140.991 344.7206,-140.991"/>
<polygon fill="#000000" stroke="#000000" points="341.2206,-140.9909 344.7206,-150.991 348.2206,-140.991 341.2206,-140.9909"/>
</g>
<!-- SharedModule -->
<g id="node3" class="node">
<title>SharedModule</title>
<polygon fill="#8dd3c7" stroke="#000000" points="280.4231,-122 277.4231,-126 256.4231,-126 253.4231,-122 181.5769,-122 181.5769,-86 280.4231,-86 280.4231,-122"/>
<text text-anchor="middle" x="231" y="-99.8" font-family="Times,serif" font-size="14.00" fill="#000000">SharedModule</text>
</g>
<!-- SharedModule&#45;&gt;TipoRecurrenciaModule -->
<g id="edge3" class="edge">
<title>SharedModule&#45;&gt;TipoRecurrenciaModule</title>
<path fill="none" stroke="#000000" d="M258.702,-122.1061C258.702,-122.1061 258.702,-140.991 258.702,-140.991"/>
<polygon fill="#000000" stroke="#000000" points="255.202,-140.9909 258.702,-150.991 262.202,-140.991 255.202,-140.9909"/>
</g>
<!-- CrudTipoRecurrenciaComponent  -->
<g id="node5" class="node">
<title>CrudTipoRecurrenciaComponent </title>
<polygon fill="#fb8072" stroke="#000000" points="417.3942,-252 210.6058,-252 210.6058,-216 417.3942,-216 417.3942,-252"/>
<text text-anchor="middle" x="314" y="-229.8" font-family="Times,serif" font-size="14.00" fill="#000000">CrudTipoRecurrenciaComponent </text>
</g>
<!-- TipoRecurrenciaModule&#45;&gt;CrudTipoRecurrenciaComponent  -->
<g id="edge4" class="edge">
<title>TipoRecurrenciaModule&#45;&gt;CrudTipoRecurrenciaComponent </title>
<path fill="none" stroke="#000000" stroke-dasharray="5,2" d="M314,-187.1061C314,-187.1061 314,-205.991 314,-205.991"/>
<polygon fill="#000000" stroke="#000000" points="310.5001,-205.9909 314,-215.991 317.5001,-205.991 310.5001,-205.9909"/>
</g>
<!-- EventoService -->
<g id="node6" class="node">
<title>EventoService</title>
<ellipse fill="#fdb462" stroke="#000000" cx="91" cy="-104" rx="67.1946" ry="18"/>
<text text-anchor="middle" x="91" y="-99.8" font-family="Times,serif" font-size="14.00" fill="#000000">EventoService</text>
</g>
<!-- EventoService&#45;&gt;TipoRecurrenciaModule -->
<g id="edge5" class="edge">
<title>EventoService&#45;&gt;TipoRecurrenciaModule</title>
<path fill="none" stroke="#000000" d="M91,-122.1061C91,-141.3391 91,-169 91,-169 91,-169 227.2561,-169 227.2561,-169"/>
<polygon fill="#000000" stroke="#000000" points="227.2561,-172.5001 237.2561,-169 227.256,-165.5001 227.2561,-172.5001"/>
</g>
</g>
</svg>
