<?xml version="1.0" encoding="UTF-8" standalone="no"?>
<!DOCTYPE svg PUBLIC "-//W3C//DTD SVG 1.1//EN"
 "http://www.w3.org/Graphics/SVG/1.1/DTD/svg11.dtd">
<!-- Generated by graphviz version 2.40.1 (20161225.0304)
 -->
<!-- Title: dependencies Pages: 1 -->
<svg width="590pt" height="284pt"
 viewBox="0.00 0.00 590.00 284.00" xmlns="http://www.w3.org/2000/svg" xmlns:xlink="http://www.w3.org/1999/xlink">
<g id="graph0" class="graph" transform="scale(1 1) rotate(0) translate(4 280)">
<title>dependencies</title>
<polygon fill="#ffffff" stroke="transparent" points="-4,4 -4,-280 586,-280 586,4 -4,4"/>
<text text-anchor="start" x="270.0091" y="-42.4" font-family="sans-serif" font-weight="bold" font-size="14.00" fill="#000000">Legend</text>
<polygon fill="#ffffb3" stroke="transparent" points="57,-10 57,-30 77,-30 77,-10 57,-10"/>
<text text-anchor="start" x="80.629" y="-15.4" font-family="sans-serif" font-size="14.00" fill="#000000"> &#160;Declarations</text>
<polygon fill="#8dd3c7" stroke="transparent" points="170,-10 170,-30 190,-30 190,-10 170,-10"/>
<text text-anchor="start" x="193.7251" y="-15.4" font-family="sans-serif" font-size="14.00" fill="#000000"> &#160;Module</text>
<polygon fill="#80b1d3" stroke="transparent" points="256,-10 256,-30 276,-30 276,-10 256,-10"/>
<text text-anchor="start" x="279.7812" y="-15.4" font-family="sans-serif" font-size="14.00" fill="#000000"> &#160;Bootstrap</text>
<polygon fill="#fdb462" stroke="transparent" points="353,-10 353,-30 373,-30 373,-10 353,-10"/>
<text text-anchor="start" x="376.6732" y="-15.4" font-family="sans-serif" font-size="14.00" fill="#000000"> &#160;Providers</text>
<polygon fill="#fb8072" stroke="transparent" points="449,-10 449,-30 469,-30 469,-10 449,-10"/>
<text text-anchor="start" x="472.7258" y="-15.4" font-family="sans-serif" font-size="14.00" fill="#000000"> &#160;Exports</text>
<g id="clust1" class="cluster">
<title>cluster_IdiomaModule</title>
<polygon fill="none" stroke="#000000" stroke-dasharray="1,5" points="8,-70 8,-268 574,-268 574,-70 8,-70"/>
</g>
<g id="clust3" class="cluster">
<title>cluster_IdiomaModule_imports</title>
<polygon fill="none" stroke="#000000" points="174,-78 174,-130 566,-130 566,-78 174,-78"/>
</g>
<g id="clust4" class="cluster">
<title>cluster_IdiomaModule_exports</title>
<polygon fill="none" stroke="#000000" points="216,-208 216,-260 384,-260 384,-208 216,-208"/>
</g>
<g id="clust6" class="cluster">
<title>cluster_IdiomaModule_providers</title>
<polygon fill="none" stroke="#000000" points="16,-78 16,-130 166,-130 166,-78 16,-78"/>
</g>
<!-- ThemeModule -->
<g id="node1" class="node">
<title>ThemeModule</title>
<polygon fill="#8dd3c7" stroke="#000000" points="558.4231,-122 555.4231,-126 534.4231,-126 531.4231,-122 459.5769,-122 459.5769,-86 558.4231,-86 558.4231,-122"/>
<text text-anchor="middle" x="509" y="-99.8" font-family="Times,serif" font-size="14.00" fill="#000000">ThemeModule</text>
</g>
<!-- IdiomaModule -->
<g id="node4" class="node">
<title>IdiomaModule</title>
<polygon fill="#8dd3c7" stroke="#000000" points="349.7064,-187 346.7064,-191 325.7064,-191 322.7064,-187 250.2936,-187 250.2936,-151 349.7064,-151 349.7064,-187"/>
<text text-anchor="middle" x="300" y="-164.8" font-family="Times,serif" font-size="14.00" fill="#000000">IdiomaModule</text>
</g>
<!-- ThemeModule&#45;&gt;IdiomaModule -->
<g id="edge1" class="edge">
<title>ThemeModule&#45;&gt;IdiomaModule</title>
<path fill="none" stroke="#000000" d="M509,-122.1061C509,-141.3391 509,-169 509,-169 509,-169 359.7952,-169 359.7952,-169"/>
<polygon fill="#000000" stroke="#000000" points="359.7952,-165.5001 349.7952,-169 359.7951,-172.5001 359.7952,-165.5001"/>
</g>
<!-- IdiomaRoutingModule -->
<g id="node2" class="node">
<title>IdiomaRoutingModule</title>
<polygon fill="#8dd3c7" stroke="#000000" points="442.3244,-122 439.3244,-126 418.3244,-126 415.3244,-122 297.6756,-122 297.6756,-86 442.3244,-86 442.3244,-122"/>
<text text-anchor="middle" x="370" y="-99.8" font-family="Times,serif" font-size="14.00" fill="#000000">IdiomaRoutingModule</text>
</g>
<!-- IdiomaRoutingModule&#45;&gt;IdiomaModule -->
<g id="edge2" class="edge">
<title>IdiomaRoutingModule&#45;&gt;IdiomaModule</title>
<path fill="none" stroke="#000000" d="M323.7206,-122.1061C323.7206,-122.1061 323.7206,-140.991 323.7206,-140.991"/>
<polygon fill="#000000" stroke="#000000" points="320.2206,-140.9909 323.7206,-150.991 327.2206,-140.991 320.2206,-140.9909"/>
</g>
<!-- SharedModule -->
<g id="node3" class="node">
<title>SharedModule</title>
<polygon fill="#8dd3c7" stroke="#000000" points="280.4231,-122 277.4231,-126 256.4231,-126 253.4231,-122 181.5769,-122 181.5769,-86 280.4231,-86 280.4231,-122"/>
<text text-anchor="middle" x="231" y="-99.8" font-family="Times,serif" font-size="14.00" fill="#000000">SharedModule</text>
</g>
<!-- SharedModule&#45;&gt;IdiomaModule -->
<g id="edge3" class="edge">
<title>SharedModule&#45;&gt;IdiomaModule</title>
<path fill="none" stroke="#000000" d="M265.304,-122.1061C265.304,-122.1061 265.304,-140.991 265.304,-140.991"/>
<polygon fill="#000000" stroke="#000000" points="261.8041,-140.9909 265.304,-150.991 268.8041,-140.991 261.8041,-140.9909"/>
</g>
<!-- CrudIdiomaComponent  -->
<g id="node5" class="node">
<title>CrudIdiomaComponent </title>
<polygon fill="#fb8072" stroke="#000000" points="376.4868,-252 223.5132,-252 223.5132,-216 376.4868,-216 376.4868,-252"/>
<text text-anchor="middle" x="300" y="-229.8" font-family="Times,serif" font-size="14.00" fill="#000000">CrudIdiomaComponent </text>
</g>
<!-- IdiomaModule&#45;&gt;CrudIdiomaComponent  -->
<g id="edge4" class="edge">
<title>IdiomaModule&#45;&gt;CrudIdiomaComponent </title>
<path fill="none" stroke="#000000" stroke-dasharray="5,2" d="M300,-187.1061C300,-187.1061 300,-205.991 300,-205.991"/>
<polygon fill="#000000" stroke="#000000" points="296.5001,-205.9909 300,-215.991 303.5001,-205.991 296.5001,-205.9909"/>
</g>
<!-- IdiomaService -->
<g id="node6" class="node">
<title>IdiomaService</title>
<ellipse fill="#fdb462" stroke="#000000" cx="91" cy="-104" rx="67.1927" ry="18"/>
<text text-anchor="middle" x="91" y="-99.8" font-family="Times,serif" font-size="14.00" fill="#000000">IdiomaService</text>
</g>
<!-- IdiomaService&#45;&gt;IdiomaModule -->
<g id="edge5" class="edge">
<title>IdiomaService&#45;&gt;IdiomaModule</title>
<path fill="none" stroke="#000000" d="M91,-122.1061C91,-141.3391 91,-169 91,-169 91,-169 240.2048,-169 240.2048,-169"/>
<polygon fill="#000000" stroke="#000000" points="240.2049,-172.5001 250.2048,-169 240.2048,-165.5001 240.2049,-172.5001"/>
</g>
</g>
</svg>
