<?xml version="1.0" encoding="UTF-8" standalone="no"?>
<!DOCTYPE svg PUBLIC "-//W3C//DTD SVG 1.1//EN"
 "http://www.w3.org/Graphics/SVG/1.1/DTD/svg11.dtd">
<!-- Generated by graphviz version 2.40.1 (20161225.0304)
 -->
<!-- Title: dependencies Pages: 1 -->
<svg width="504pt" height="284pt"
 viewBox="0.00 0.00 504.00 284.00" xmlns="http://www.w3.org/2000/svg" xmlns:xlink="http://www.w3.org/1999/xlink">
<g id="graph0" class="graph" transform="scale(1 1) rotate(0) translate(4 280)">
<title>dependencies</title>
<polygon fill="#ffffff" stroke="transparent" points="-4,4 -4,-280 500,-280 500,4 -4,4"/>
<text text-anchor="start" x="227.0091" y="-42.4" font-family="sans-serif" font-weight="bold" font-size="14.00" fill="#000000">Legend</text>
<polygon fill="#ffffb3" stroke="transparent" points="14,-10 14,-30 34,-30 34,-10 14,-10"/>
<text text-anchor="start" x="37.629" y="-15.4" font-family="sans-serif" font-size="14.00" fill="#000000"> &#160;Declarations</text>
<polygon fill="#8dd3c7" stroke="transparent" points="127,-10 127,-30 147,-30 147,-10 127,-10"/>
<text text-anchor="start" x="150.7251" y="-15.4" font-family="sans-serif" font-size="14.00" fill="#000000"> &#160;Module</text>
<polygon fill="#80b1d3" stroke="transparent" points="213,-10 213,-30 233,-30 233,-10 213,-10"/>
<text text-anchor="start" x="236.7812" y="-15.4" font-family="sans-serif" font-size="14.00" fill="#000000"> &#160;Bootstrap</text>
<polygon fill="#fdb462" stroke="transparent" points="310,-10 310,-30 330,-30 330,-10 310,-10"/>
<text text-anchor="start" x="333.6732" y="-15.4" font-family="sans-serif" font-size="14.00" fill="#000000"> &#160;Providers</text>
<polygon fill="#fb8072" stroke="transparent" points="406,-10 406,-30 426,-30 426,-10 406,-10"/>
<text text-anchor="start" x="429.7258" y="-15.4" font-family="sans-serif" font-size="14.00" fill="#000000"> &#160;Exports</text>
<g id="clust1" class="cluster">
<title>cluster_ProgramasVirtualesModule</title>
<polygon fill="none" stroke="#000000" stroke-dasharray="1,5" points="8,-70 8,-268 488,-268 488,-70 8,-70"/>
</g>
<g id="clust3" class="cluster">
<title>cluster_ProgramasVirtualesModule_imports</title>
<polygon fill="none" stroke="#000000" points="16,-78 16,-130 480,-130 480,-78 16,-78"/>
</g>
<g id="clust4" class="cluster">
<title>cluster_ProgramasVirtualesModule_exports</title>
<polygon fill="none" stroke="#000000" points="53,-208 53,-260 447,-260 447,-208 53,-208"/>
</g>
<!-- ThemeModule -->
<g id="node1" class="node">
<title>ThemeModule</title>
<polygon fill="#8dd3c7" stroke="#000000" points="472.4231,-122 469.4231,-126 448.4231,-126 445.4231,-122 373.5769,-122 373.5769,-86 472.4231,-86 472.4231,-122"/>
<text text-anchor="middle" x="423" y="-99.8" font-family="Times,serif" font-size="14.00" fill="#000000">ThemeModule</text>
</g>
<!-- ProgramasVirtualesModule -->
<g id="node4" class="node">
<title>ProgramasVirtualesModule</title>
<polygon fill="#8dd3c7" stroke="#000000" points="333.231,-187 330.231,-191 309.231,-191 306.231,-187 162.769,-187 162.769,-151 333.231,-151 333.231,-187"/>
<text text-anchor="middle" x="248" y="-164.8" font-family="Times,serif" font-size="14.00" fill="#000000">ProgramasVirtualesModule</text>
</g>
<!-- ThemeModule&#45;&gt;ProgramasVirtualesModule -->
<g id="edge1" class="edge">
<title>ThemeModule&#45;&gt;ProgramasVirtualesModule</title>
<path fill="none" stroke="#000000" d="M406.49,-122.1061C406.49,-141.3391 406.49,-169 406.49,-169 406.49,-169 343.2761,-169 343.2761,-169"/>
<polygon fill="#000000" stroke="#000000" points="343.2761,-165.5001 333.2761,-169 343.276,-172.5001 343.2761,-165.5001"/>
</g>
<!-- ProgramasVirtualesRoutingModule -->
<g id="node2" class="node">
<title>ProgramasVirtualesRoutingModule</title>
<polygon fill="#8dd3c7" stroke="#000000" points="355.8487,-122 352.8487,-126 331.8487,-126 328.8487,-122 140.1513,-122 140.1513,-86 355.8487,-86 355.8487,-122"/>
<text text-anchor="middle" x="248" y="-99.8" font-family="Times,serif" font-size="14.00" fill="#000000">ProgramasVirtualesRoutingModule</text>
</g>
<!-- ProgramasVirtualesRoutingModule&#45;&gt;ProgramasVirtualesModule -->
<g id="edge2" class="edge">
<title>ProgramasVirtualesRoutingModule&#45;&gt;ProgramasVirtualesModule</title>
<path fill="none" stroke="#000000" d="M248,-122.1061C248,-122.1061 248,-140.991 248,-140.991"/>
<polygon fill="#000000" stroke="#000000" points="244.5001,-140.9909 248,-150.991 251.5001,-140.991 244.5001,-140.9909"/>
</g>
<!-- SharedModule -->
<g id="node3" class="node">
<title>SharedModule</title>
<polygon fill="#8dd3c7" stroke="#000000" points="122.4231,-122 119.4231,-126 98.4231,-126 95.4231,-122 23.5769,-122 23.5769,-86 122.4231,-86 122.4231,-122"/>
<text text-anchor="middle" x="73" y="-99.8" font-family="Times,serif" font-size="14.00" fill="#000000">SharedModule</text>
</g>
<!-- SharedModule&#45;&gt;ProgramasVirtualesModule -->
<g id="edge3" class="edge">
<title>SharedModule&#45;&gt;ProgramasVirtualesModule</title>
<path fill="none" stroke="#000000" d="M91.483,-122.1061C91.483,-141.3391 91.483,-169 91.483,-169 91.483,-169 152.4143,-169 152.4143,-169"/>
<polygon fill="#000000" stroke="#000000" points="152.4144,-172.5001 162.4143,-169 152.4143,-165.5001 152.4144,-172.5001"/>
</g>
<!-- METComponent  -->
<g id="node5" class="node">
<title>METComponent </title>
<polygon fill="#fb8072" stroke="#000000" points="439.3828,-252 324.6172,-252 324.6172,-216 439.3828,-216 439.3828,-252"/>
<text text-anchor="middle" x="382" y="-229.8" font-family="Times,serif" font-size="14.00" fill="#000000">METComponent </text>
</g>
<!-- ProgramasVirtualesModule&#45;&gt;METComponent  -->
<g id="edge4" class="edge">
<title>ProgramasVirtualesModule&#45;&gt;METComponent </title>
<path fill="none" stroke="#000000" stroke-dasharray="5,2" d="M329.0871,-187.1061C329.0871,-187.1061 329.0871,-205.991 329.0871,-205.991"/>
<polygon fill="#000000" stroke="#000000" points="325.5872,-205.9909 329.0871,-215.991 332.5872,-205.991 325.5872,-205.9909"/>
</g>
<!-- MTMComponent  -->
<g id="node6" class="node">
<title>MTMComponent </title>
<polygon fill="#fb8072" stroke="#000000" points="307.2745,-252 188.7255,-252 188.7255,-216 307.2745,-216 307.2745,-252"/>
<text text-anchor="middle" x="248" y="-229.8" font-family="Times,serif" font-size="14.00" fill="#000000">MTMComponent </text>
</g>
<!-- ProgramasVirtualesModule&#45;&gt;MTMComponent  -->
<g id="edge5" class="edge">
<title>ProgramasVirtualesModule&#45;&gt;MTMComponent </title>
<path fill="none" stroke="#000000" stroke-dasharray="5,2" d="M248,-187.1061C248,-187.1061 248,-205.991 248,-205.991"/>
<polygon fill="#000000" stroke="#000000" points="244.5001,-205.9909 248,-215.991 251.5001,-205.991 244.5001,-205.9909"/>
</g>
<!-- EETComponent  -->
<g id="node7" class="node">
<title>EETComponent </title>
<polygon fill="#fb8072" stroke="#000000" points="171.4913,-252 60.5087,-252 60.5087,-216 171.4913,-216 171.4913,-252"/>
<text text-anchor="middle" x="116" y="-229.8" font-family="Times,serif" font-size="14.00" fill="#000000">EETComponent </text>
</g>
<!-- ProgramasVirtualesModule&#45;&gt;EETComponent  -->
<g id="edge6" class="edge">
<title>ProgramasVirtualesModule&#45;&gt;EETComponent </title>
<path fill="none" stroke="#000000" stroke-dasharray="5,2" d="M166.9399,-187.1061C166.9399,-187.1061 166.9399,-205.991 166.9399,-205.991"/>
<polygon fill="#000000" stroke="#000000" points="163.4399,-205.9909 166.9399,-215.991 170.4399,-205.991 163.4399,-205.9909"/>
</g>
</g>
</svg>
