<?xml version="1.0" encoding="UTF-8" standalone="no"?>
<!DOCTYPE svg PUBLIC "-//W3C//DTD SVG 1.1//EN"
 "http://www.w3.org/Graphics/SVG/1.1/DTD/svg11.dtd">
<!-- Generated by graphviz version 2.40.1 (20161225.0304)
 -->
<!-- Title: dependencies Pages: 1 -->
<svg width="762pt" height="284pt"
 viewBox="0.00 0.00 762.00 284.00" xmlns="http://www.w3.org/2000/svg" xmlns:xlink="http://www.w3.org/1999/xlink">
<g id="graph0" class="graph" transform="scale(1 1) rotate(0) translate(4 280)">
<title>dependencies</title>
<polygon fill="#ffffff" stroke="transparent" points="-4,4 -4,-280 758,-280 758,4 -4,4"/>
<text text-anchor="start" x="356.0091" y="-42.4" font-family="sans-serif" font-weight="bold" font-size="14.00" fill="#000000">Legend</text>
<polygon fill="#ffffb3" stroke="transparent" points="143,-10 143,-30 163,-30 163,-10 143,-10"/>
<text text-anchor="start" x="166.629" y="-15.4" font-family="sans-serif" font-size="14.00" fill="#000000"> &#160;Declarations</text>
<polygon fill="#8dd3c7" stroke="transparent" points="256,-10 256,-30 276,-30 276,-10 256,-10"/>
<text text-anchor="start" x="279.7251" y="-15.4" font-family="sans-serif" font-size="14.00" fill="#000000"> &#160;Module</text>
<polygon fill="#80b1d3" stroke="transparent" points="342,-10 342,-30 362,-30 362,-10 342,-10"/>
<text text-anchor="start" x="365.7812" y="-15.4" font-family="sans-serif" font-size="14.00" fill="#000000"> &#160;Bootstrap</text>
<polygon fill="#fdb462" stroke="transparent" points="439,-10 439,-30 459,-30 459,-10 439,-10"/>
<text text-anchor="start" x="462.6732" y="-15.4" font-family="sans-serif" font-size="14.00" fill="#000000"> &#160;Providers</text>
<polygon fill="#fb8072" stroke="transparent" points="535,-10 535,-30 555,-30 555,-10 535,-10"/>
<text text-anchor="start" x="558.7258" y="-15.4" font-family="sans-serif" font-size="14.00" fill="#000000"> &#160;Exports</text>
<g id="clust1" class="cluster">
<title>cluster_TipoProduccionModule</title>
<polygon fill="none" stroke="#000000" stroke-dasharray="1,5" points="8,-70 8,-268 746,-268 746,-70 8,-70"/>
</g>
<g id="clust3" class="cluster">
<title>cluster_TipoProduccionModule_imports</title>
<polygon fill="none" stroke="#000000" points="294,-78 294,-130 738,-130 738,-78 294,-78"/>
</g>
<g id="clust4" class="cluster">
<title>cluster_TipoProduccionModule_exports</title>
<polygon fill="none" stroke="#000000" points="323,-208 323,-260 543,-260 543,-208 323,-208"/>
</g>
<g id="clust6" class="cluster">
<title>cluster_TipoProduccionModule_providers</title>
<polygon fill="none" stroke="#000000" points="16,-78 16,-130 286,-130 286,-78 16,-78"/>
</g>
<!-- ThemeModule -->
<g id="node1" class="node">
<title>ThemeModule</title>
<polygon fill="#8dd3c7" stroke="#000000" points="730.4231,-122 727.4231,-126 706.4231,-126 703.4231,-122 631.5769,-122 631.5769,-86 730.4231,-86 730.4231,-122"/>
<text text-anchor="middle" x="681" y="-99.8" font-family="Times,serif" font-size="14.00" fill="#000000">ThemeModule</text>
</g>
<!-- TipoProduccionModule -->
<g id="node4" class="node">
<title>TipoProduccionModule</title>
<polygon fill="#8dd3c7" stroke="#000000" points="507.7562,-187 504.7562,-191 483.7562,-191 480.7562,-187 358.2438,-187 358.2438,-151 507.7562,-151 507.7562,-187"/>
<text text-anchor="middle" x="433" y="-164.8" font-family="Times,serif" font-size="14.00" fill="#000000">TipoProduccionModule</text>
</g>
<!-- ThemeModule&#45;&gt;TipoProduccionModule -->
<g id="edge1" class="edge">
<title>ThemeModule&#45;&gt;TipoProduccionModule</title>
<path fill="none" stroke="#000000" d="M681,-122.1061C681,-141.3391 681,-169 681,-169 681,-169 518.0812,-169 518.0812,-169"/>
<polygon fill="#000000" stroke="#000000" points="518.0812,-165.5001 508.0812,-169 518.0812,-172.5001 518.0812,-165.5001"/>
</g>
<!-- TipoProduccionRoutingModule -->
<g id="node2" class="node">
<title>TipoProduccionRoutingModule</title>
<polygon fill="#8dd3c7" stroke="#000000" points="613.3738,-122 610.3738,-126 589.3738,-126 586.3738,-122 418.6262,-122 418.6262,-86 613.3738,-86 613.3738,-122"/>
<text text-anchor="middle" x="516" y="-99.8" font-family="Times,serif" font-size="14.00" fill="#000000">TipoProduccionRoutingModule</text>
</g>
<!-- TipoProduccionRoutingModule&#45;&gt;TipoProduccionModule -->
<g id="edge2" class="edge">
<title>TipoProduccionRoutingModule&#45;&gt;TipoProduccionModule</title>
<path fill="none" stroke="#000000" d="M463.2206,-122.1061C463.2206,-122.1061 463.2206,-140.991 463.2206,-140.991"/>
<polygon fill="#000000" stroke="#000000" points="459.7206,-140.9909 463.2206,-150.991 466.7206,-140.991 459.7206,-140.9909"/>
</g>
<!-- SharedModule -->
<g id="node3" class="node">
<title>SharedModule</title>
<polygon fill="#8dd3c7" stroke="#000000" points="400.4231,-122 397.4231,-126 376.4231,-126 373.4231,-122 301.5769,-122 301.5769,-86 400.4231,-86 400.4231,-122"/>
<text text-anchor="middle" x="351" y="-99.8" font-family="Times,serif" font-size="14.00" fill="#000000">SharedModule</text>
</g>
<!-- SharedModule&#45;&gt;TipoProduccionModule -->
<g id="edge3" class="edge">
<title>SharedModule&#45;&gt;TipoProduccionModule</title>
<path fill="none" stroke="#000000" d="M379.1666,-122.1061C379.1666,-122.1061 379.1666,-140.991 379.1666,-140.991"/>
<polygon fill="#000000" stroke="#000000" points="375.6666,-140.9909 379.1666,-150.991 382.6666,-140.991 375.6666,-140.9909"/>
</g>
<!-- CrudTipoProduccionComponent  -->
<g id="node5" class="node">
<title>CrudTipoProduccionComponent </title>
<polygon fill="#fb8072" stroke="#000000" points="534.5358,-252 331.4642,-252 331.4642,-216 534.5358,-216 534.5358,-252"/>
<text text-anchor="middle" x="433" y="-229.8" font-family="Times,serif" font-size="14.00" fill="#000000">CrudTipoProduccionComponent </text>
</g>
<!-- TipoProduccionModule&#45;&gt;CrudTipoProduccionComponent  -->
<g id="edge4" class="edge">
<title>TipoProduccionModule&#45;&gt;CrudTipoProduccionComponent </title>
<path fill="none" stroke="#000000" stroke-dasharray="5,2" d="M433,-187.1061C433,-187.1061 433,-205.991 433,-205.991"/>
<polygon fill="#000000" stroke="#000000" points="429.5001,-205.9909 433,-215.991 436.5001,-205.991 429.5001,-205.9909"/>
</g>
<!-- ProduccionAcademicaService -->
<g id="node6" class="node">
<title>ProduccionAcademicaService</title>
<ellipse fill="#fdb462" stroke="#000000" cx="151" cy="-104" rx="127.3074" ry="18"/>
<text text-anchor="middle" x="151" y="-99.8" font-family="Times,serif" font-size="14.00" fill="#000000">ProduccionAcademicaService</text>
</g>
<!-- ProduccionAcademicaService&#45;&gt;TipoProduccionModule -->
<g id="edge5" class="edge">
<title>ProduccionAcademicaService&#45;&gt;TipoProduccionModule</title>
<path fill="none" stroke="#000000" d="M151,-122.1061C151,-141.3391 151,-169 151,-169 151,-169 348.1695,-169 348.1695,-169"/>
<polygon fill="#000000" stroke="#000000" points="348.1696,-172.5001 358.1695,-169 348.1695,-165.5001 348.1696,-172.5001"/>
</g>
</g>
</svg>
