<?xml version="1.0" encoding="UTF-8" standalone="no"?>
<!DOCTYPE svg PUBLIC "-//W3C//DTD SVG 1.1//EN"
 "http://www.w3.org/Graphics/SVG/1.1/DTD/svg11.dtd">
<!-- Generated by graphviz version 2.40.1 (20161225.0304)
 -->
<!-- Title: dependencies Pages: 1 -->
<svg width="798pt" height="284pt"
 viewBox="0.00 0.00 798.00 284.00" xmlns="http://www.w3.org/2000/svg" xmlns:xlink="http://www.w3.org/1999/xlink">
<g id="graph0" class="graph" transform="scale(1 1) rotate(0) translate(4 280)">
<title>dependencies</title>
<polygon fill="#ffffff" stroke="transparent" points="-4,4 -4,-280 794,-280 794,4 -4,4"/>
<text text-anchor="start" x="374.0091" y="-42.4" font-family="sans-serif" font-weight="bold" font-size="14.00" fill="#000000">Legend</text>
<polygon fill="#ffffb3" stroke="transparent" points="161,-10 161,-30 181,-30 181,-10 161,-10"/>
<text text-anchor="start" x="184.629" y="-15.4" font-family="sans-serif" font-size="14.00" fill="#000000"> &#160;Declarations</text>
<polygon fill="#8dd3c7" stroke="transparent" points="274,-10 274,-30 294,-30 294,-10 274,-10"/>
<text text-anchor="start" x="297.7251" y="-15.4" font-family="sans-serif" font-size="14.00" fill="#000000"> &#160;Module</text>
<polygon fill="#80b1d3" stroke="transparent" points="360,-10 360,-30 380,-30 380,-10 360,-10"/>
<text text-anchor="start" x="383.7812" y="-15.4" font-family="sans-serif" font-size="14.00" fill="#000000"> &#160;Bootstrap</text>
<polygon fill="#fdb462" stroke="transparent" points="457,-10 457,-30 477,-30 477,-10 457,-10"/>
<text text-anchor="start" x="480.6732" y="-15.4" font-family="sans-serif" font-size="14.00" fill="#000000"> &#160;Providers</text>
<polygon fill="#fb8072" stroke="transparent" points="553,-10 553,-30 573,-30 573,-10 553,-10"/>
<text text-anchor="start" x="576.7258" y="-15.4" font-family="sans-serif" font-size="14.00" fill="#000000"> &#160;Exports</text>
<g id="clust1" class="cluster">
<title>cluster_EvaluacionInscripcionModule</title>
<polygon fill="none" stroke="#000000" stroke-dasharray="1,5" points="8,-70 8,-268 782,-268 782,-70 8,-70"/>
</g>
<g id="clust3" class="cluster">
<title>cluster_EvaluacionInscripcionModule_imports</title>
<polygon fill="none" stroke="#000000" points="294,-78 294,-130 774,-130 774,-78 294,-78"/>
</g>
<g id="clust4" class="cluster">
<title>cluster_EvaluacionInscripcionModule_exports</title>
<polygon fill="none" stroke="#000000" points="315,-208 315,-260 569,-260 569,-208 315,-208"/>
</g>
<g id="clust6" class="cluster">
<title>cluster_EvaluacionInscripcionModule_providers</title>
<polygon fill="none" stroke="#000000" points="16,-78 16,-130 286,-130 286,-78 16,-78"/>
</g>
<!-- ThemeModule -->
<g id="node1" class="node">
<title>ThemeModule</title>
<polygon fill="#8dd3c7" stroke="#000000" points="766.4231,-122 763.4231,-126 742.4231,-126 739.4231,-122 667.5769,-122 667.5769,-86 766.4231,-86 766.4231,-122"/>
<text text-anchor="middle" x="717" y="-99.8" font-family="Times,serif" font-size="14.00" fill="#000000">ThemeModule</text>
</g>
<!-- EvaluacionInscripcionModule -->
<g id="node4" class="node">
<title>EvaluacionInscripcionModule</title>
<polygon fill="#8dd3c7" stroke="#000000" points="534.5043,-187 531.5043,-191 510.5043,-191 507.5043,-187 349.4957,-187 349.4957,-151 534.5043,-151 534.5043,-187"/>
<text text-anchor="middle" x="442" y="-164.8" font-family="Times,serif" font-size="14.00" fill="#000000">EvaluacionInscripcionModule</text>
</g>
<!-- ThemeModule&#45;&gt;EvaluacionInscripcionModule -->
<g id="edge1" class="edge">
<title>ThemeModule&#45;&gt;EvaluacionInscripcionModule</title>
<path fill="none" stroke="#000000" d="M717,-122.1061C717,-141.3391 717,-169 717,-169 717,-169 544.7191,-169 544.7191,-169"/>
<polygon fill="#000000" stroke="#000000" points="544.7191,-165.5001 534.7191,-169 544.719,-172.5001 544.7191,-165.5001"/>
</g>
<!-- EvaluacionInscripcionRoutingModule -->
<g id="node2" class="node">
<title>EvaluacionInscripcionRoutingModule</title>
<polygon fill="#8dd3c7" stroke="#000000" points="649.1217,-122 646.1217,-126 625.1217,-126 622.1217,-122 418.8783,-122 418.8783,-86 649.1217,-86 649.1217,-122"/>
<text text-anchor="middle" x="534" y="-99.8" font-family="Times,serif" font-size="14.00" fill="#000000">EvaluacionInscripcionRoutingModule</text>
</g>
<!-- EvaluacionInscripcionRoutingModule&#45;&gt;EvaluacionInscripcionModule -->
<g id="edge2" class="edge">
<title>EvaluacionInscripcionRoutingModule&#45;&gt;EvaluacionInscripcionModule</title>
<path fill="none" stroke="#000000" d="M476.7206,-122.1061C476.7206,-122.1061 476.7206,-140.991 476.7206,-140.991"/>
<polygon fill="#000000" stroke="#000000" points="473.2206,-140.9909 476.7206,-150.991 480.2206,-140.991 473.2206,-140.9909"/>
</g>
<!-- SharedModule -->
<g id="node3" class="node">
<title>SharedModule</title>
<polygon fill="#8dd3c7" stroke="#000000" points="400.4231,-122 397.4231,-126 376.4231,-126 373.4231,-122 301.5769,-122 301.5769,-86 400.4231,-86 400.4231,-122"/>
<text text-anchor="middle" x="351" y="-99.8" font-family="Times,serif" font-size="14.00" fill="#000000">SharedModule</text>
</g>
<!-- SharedModule&#45;&gt;EvaluacionInscripcionModule -->
<g id="edge3" class="edge">
<title>SharedModule&#45;&gt;EvaluacionInscripcionModule</title>
<path fill="none" stroke="#000000" d="M374.7297,-122.1061C374.7297,-122.1061 374.7297,-140.991 374.7297,-140.991"/>
<polygon fill="#000000" stroke="#000000" points="371.2297,-140.9909 374.7297,-150.991 378.2297,-140.991 371.2297,-140.9909"/>
</g>
<!-- CrudEvaluacionInscripcionComponent  -->
<g id="node5" class="node">
<title>CrudEvaluacionInscripcionComponent </title>
<polygon fill="#fb8072" stroke="#000000" points="561.2835,-252 322.7165,-252 322.7165,-216 561.2835,-216 561.2835,-252"/>
<text text-anchor="middle" x="442" y="-229.8" font-family="Times,serif" font-size="14.00" fill="#000000">CrudEvaluacionInscripcionComponent </text>
</g>
<!-- EvaluacionInscripcionModule&#45;&gt;CrudEvaluacionInscripcionComponent  -->
<g id="edge4" class="edge">
<title>EvaluacionInscripcionModule&#45;&gt;CrudEvaluacionInscripcionComponent </title>
<path fill="none" stroke="#000000" stroke-dasharray="5,2" d="M442,-187.1061C442,-187.1061 442,-205.991 442,-205.991"/>
<polygon fill="#000000" stroke="#000000" points="438.5001,-205.9909 442,-215.991 445.5001,-205.991 438.5001,-205.9909"/>
</g>
<!-- EvaluacionInscripcionService -->
<g id="node6" class="node">
<title>EvaluacionInscripcionService</title>
<ellipse fill="#fdb462" stroke="#000000" cx="151" cy="-104" rx="126.7452" ry="18"/>
<text text-anchor="middle" x="151" y="-99.8" font-family="Times,serif" font-size="14.00" fill="#000000">EvaluacionInscripcionService</text>
</g>
<!-- EvaluacionInscripcionService&#45;&gt;EvaluacionInscripcionModule -->
<g id="edge5" class="edge">
<title>EvaluacionInscripcionService&#45;&gt;EvaluacionInscripcionModule</title>
<path fill="none" stroke="#000000" d="M151,-122.1061C151,-141.3391 151,-169 151,-169 151,-169 339.1257,-169 339.1257,-169"/>
<polygon fill="#000000" stroke="#000000" points="339.1257,-172.5001 349.1257,-169 339.1257,-165.5001 339.1257,-172.5001"/>
</g>
</g>
</svg>
