<?xml version="1.0" encoding="UTF-8" standalone="no"?>
<!DOCTYPE svg PUBLIC "-//W3C//DTD SVG 1.1//EN"
 "http://www.w3.org/Graphics/SVG/1.1/DTD/svg11.dtd">
<!-- Generated by graphviz version 2.40.1 (20161225.0304)
 -->
<!-- Title: dependencies Pages: 1 -->
<svg width="620pt" height="284pt"
 viewBox="0.00 0.00 620.00 284.00" xmlns="http://www.w3.org/2000/svg" xmlns:xlink="http://www.w3.org/1999/xlink">
<g id="graph0" class="graph" transform="scale(1 1) rotate(0) translate(4 280)">
<title>dependencies</title>
<polygon fill="#ffffff" stroke="transparent" points="-4,4 -4,-280 616,-280 616,4 -4,4"/>
<text text-anchor="start" x="285.0091" y="-42.4" font-family="sans-serif" font-weight="bold" font-size="14.00" fill="#000000">Legend</text>
<polygon fill="#ffffb3" stroke="transparent" points="72,-10 72,-30 92,-30 92,-10 72,-10"/>
<text text-anchor="start" x="95.629" y="-15.4" font-family="sans-serif" font-size="14.00" fill="#000000"> &#160;Declarations</text>
<polygon fill="#8dd3c7" stroke="transparent" points="185,-10 185,-30 205,-30 205,-10 185,-10"/>
<text text-anchor="start" x="208.7251" y="-15.4" font-family="sans-serif" font-size="14.00" fill="#000000"> &#160;Module</text>
<polygon fill="#80b1d3" stroke="transparent" points="271,-10 271,-30 291,-30 291,-10 271,-10"/>
<text text-anchor="start" x="294.7812" y="-15.4" font-family="sans-serif" font-size="14.00" fill="#000000"> &#160;Bootstrap</text>
<polygon fill="#fdb462" stroke="transparent" points="368,-10 368,-30 388,-30 388,-10 368,-10"/>
<text text-anchor="start" x="391.6732" y="-15.4" font-family="sans-serif" font-size="14.00" fill="#000000"> &#160;Providers</text>
<polygon fill="#fb8072" stroke="transparent" points="464,-10 464,-30 484,-30 484,-10 464,-10"/>
<text text-anchor="start" x="487.7258" y="-15.4" font-family="sans-serif" font-size="14.00" fill="#000000"> &#160;Exports</text>
<g id="clust1" class="cluster">
<title>cluster_UnidadTiempoModule</title>
<polygon fill="none" stroke="#000000" stroke-dasharray="1,5" points="8,-70 8,-268 604,-268 604,-70 8,-70"/>
</g>
<g id="clust3" class="cluster">
<title>cluster_UnidadTiempoModule_imports</title>
<polygon fill="none" stroke="#000000" points="158,-78 158,-130 596,-130 596,-78 158,-78"/>
</g>
<g id="clust4" class="cluster">
<title>cluster_UnidadTiempoModule_exports</title>
<polygon fill="none" stroke="#000000" points="189,-208 189,-260 403,-260 403,-208 189,-208"/>
</g>
<g id="clust6" class="cluster">
<title>cluster_UnidadTiempoModule_providers</title>
<polygon fill="none" stroke="#000000" points="16,-78 16,-130 150,-130 150,-78 16,-78"/>
</g>
<!-- ThemeModule -->
<g id="node1" class="node">
<title>ThemeModule</title>
<polygon fill="#8dd3c7" stroke="#000000" points="588.4231,-122 585.4231,-126 564.4231,-126 561.4231,-122 489.5769,-122 489.5769,-86 588.4231,-86 588.4231,-122"/>
<text text-anchor="middle" x="539" y="-99.8" font-family="Times,serif" font-size="14.00" fill="#000000">ThemeModule</text>
</g>
<!-- UnidadTiempoModule -->
<g id="node4" class="node">
<title>UnidadTiempoModule</title>
<polygon fill="#8dd3c7" stroke="#000000" points="368.3103,-187 365.3103,-191 344.3103,-191 341.3103,-187 223.6897,-187 223.6897,-151 368.3103,-151 368.3103,-187"/>
<text text-anchor="middle" x="296" y="-164.8" font-family="Times,serif" font-size="14.00" fill="#000000">UnidadTiempoModule</text>
</g>
<!-- ThemeModule&#45;&gt;UnidadTiempoModule -->
<g id="edge1" class="edge">
<title>ThemeModule&#45;&gt;UnidadTiempoModule</title>
<path fill="none" stroke="#000000" d="M539,-122.1061C539,-141.3391 539,-169 539,-169 539,-169 378.2501,-169 378.2501,-169"/>
<polygon fill="#000000" stroke="#000000" points="378.2501,-165.5001 368.2501,-169 378.2501,-172.5001 378.2501,-165.5001"/>
</g>
<!-- UnidadTiempoRoutingModule -->
<g id="node2" class="node">
<title>UnidadTiempoRoutingModule</title>
<polygon fill="#8dd3c7" stroke="#000000" points="471.9283,-122 468.9283,-126 447.9283,-126 444.9283,-122 282.0717,-122 282.0717,-86 471.9283,-86 471.9283,-122"/>
<text text-anchor="middle" x="377" y="-99.8" font-family="Times,serif" font-size="14.00" fill="#000000">UnidadTiempoRoutingModule</text>
</g>
<!-- UnidadTiempoRoutingModule&#45;&gt;UnidadTiempoModule -->
<g id="edge2" class="edge">
<title>UnidadTiempoRoutingModule&#45;&gt;UnidadTiempoModule</title>
<path fill="none" stroke="#000000" d="M325.2206,-122.1061C325.2206,-122.1061 325.2206,-140.991 325.2206,-140.991"/>
<polygon fill="#000000" stroke="#000000" points="321.7206,-140.9909 325.2206,-150.991 328.7206,-140.991 321.7206,-140.9909"/>
</g>
<!-- SharedModule -->
<g id="node3" class="node">
<title>SharedModule</title>
<polygon fill="#8dd3c7" stroke="#000000" points="264.4231,-122 261.4231,-126 240.4231,-126 237.4231,-122 165.5769,-122 165.5769,-86 264.4231,-86 264.4231,-122"/>
<text text-anchor="middle" x="215" y="-99.8" font-family="Times,serif" font-size="14.00" fill="#000000">SharedModule</text>
</g>
<!-- SharedModule&#45;&gt;UnidadTiempoModule -->
<g id="edge3" class="edge">
<title>SharedModule&#45;&gt;UnidadTiempoModule</title>
<path fill="none" stroke="#000000" d="M244.0281,-122.1061C244.0281,-122.1061 244.0281,-140.991 244.0281,-140.991"/>
<polygon fill="#000000" stroke="#000000" points="240.5281,-140.9909 244.0281,-150.991 247.5281,-140.991 240.5281,-140.9909"/>
</g>
<!-- CrudUnidadTiempoComponent  -->
<g id="node5" class="node">
<title>CrudUnidadTiempoComponent </title>
<polygon fill="#fb8072" stroke="#000000" points="394.5902,-252 197.4098,-252 197.4098,-216 394.5902,-216 394.5902,-252"/>
<text text-anchor="middle" x="296" y="-229.8" font-family="Times,serif" font-size="14.00" fill="#000000">CrudUnidadTiempoComponent </text>
</g>
<!-- UnidadTiempoModule&#45;&gt;CrudUnidadTiempoComponent  -->
<g id="edge4" class="edge">
<title>UnidadTiempoModule&#45;&gt;CrudUnidadTiempoComponent </title>
<path fill="none" stroke="#000000" stroke-dasharray="5,2" d="M296,-187.1061C296,-187.1061 296,-205.991 296,-205.991"/>
<polygon fill="#000000" stroke="#000000" points="292.5001,-205.9909 296,-215.991 299.5001,-205.991 292.5001,-205.9909"/>
</g>
<!-- CoreService -->
<g id="node6" class="node">
<title>CoreService</title>
<ellipse fill="#fdb462" stroke="#000000" cx="83" cy="-104" rx="58.5251" ry="18"/>
<text text-anchor="middle" x="83" y="-99.8" font-family="Times,serif" font-size="14.00" fill="#000000">CoreService</text>
</g>
<!-- CoreService&#45;&gt;UnidadTiempoModule -->
<g id="edge5" class="edge">
<title>CoreService&#45;&gt;UnidadTiempoModule</title>
<path fill="none" stroke="#000000" d="M83,-122.1061C83,-141.3391 83,-169 83,-169 83,-169 213.5907,-169 213.5907,-169"/>
<polygon fill="#000000" stroke="#000000" points="213.5907,-172.5001 223.5907,-169 213.5907,-165.5001 213.5907,-172.5001"/>
</g>
</g>
</svg>
