<?xml version="1.0" encoding="UTF-8" standalone="no"?>
<!DOCTYPE svg PUBLIC "-//W3C//DTD SVG 1.1//EN"
 "http://www.w3.org/Graphics/SVG/1.1/DTD/svg11.dtd">
<!-- Generated by graphviz version 2.40.1 (20161225.0304)
 -->
<!-- Title: dependencies Pages: 1 -->
<svg width="702pt" height="284pt"
 viewBox="0.00 0.00 702.00 284.00" xmlns="http://www.w3.org/2000/svg" xmlns:xlink="http://www.w3.org/1999/xlink">
<g id="graph0" class="graph" transform="scale(1 1) rotate(0) translate(4 280)">
<title>dependencies</title>
<polygon fill="#ffffff" stroke="transparent" points="-4,4 -4,-280 698,-280 698,4 -4,4"/>
<text text-anchor="start" x="326.0091" y="-42.4" font-family="sans-serif" font-weight="bold" font-size="14.00" fill="#000000">Legend</text>
<polygon fill="#ffffb3" stroke="transparent" points="113,-10 113,-30 133,-30 133,-10 113,-10"/>
<text text-anchor="start" x="136.629" y="-15.4" font-family="sans-serif" font-size="14.00" fill="#000000"> &#160;Declarations</text>
<polygon fill="#8dd3c7" stroke="transparent" points="226,-10 226,-30 246,-30 246,-10 226,-10"/>
<text text-anchor="start" x="249.7251" y="-15.4" font-family="sans-serif" font-size="14.00" fill="#000000"> &#160;Module</text>
<polygon fill="#80b1d3" stroke="transparent" points="312,-10 312,-30 332,-30 332,-10 312,-10"/>
<text text-anchor="start" x="335.7812" y="-15.4" font-family="sans-serif" font-size="14.00" fill="#000000"> &#160;Bootstrap</text>
<polygon fill="#fdb462" stroke="transparent" points="409,-10 409,-30 429,-30 429,-10 409,-10"/>
<text text-anchor="start" x="432.6732" y="-15.4" font-family="sans-serif" font-size="14.00" fill="#000000"> &#160;Providers</text>
<polygon fill="#fb8072" stroke="transparent" points="505,-10 505,-30 525,-30 525,-10 505,-10"/>
<text text-anchor="start" x="528.7258" y="-15.4" font-family="sans-serif" font-size="14.00" fill="#000000"> &#160;Exports</text>
<g id="clust1" class="cluster">
<title>cluster_TipoOrganizacionModule</title>
<polygon fill="none" stroke="#000000" stroke-dasharray="1,5" points="8,-70 8,-268 686,-268 686,-70 8,-70"/>
</g>
<g id="clust3" class="cluster">
<title>cluster_TipoOrganizacionModule_imports</title>
<polygon fill="none" stroke="#000000" points="224,-78 224,-130 678,-130 678,-78 224,-78"/>
</g>
<g id="clust4" class="cluster">
<title>cluster_TipoOrganizacionModule_exports</title>
<polygon fill="none" stroke="#000000" points="251,-208 251,-260 481,-260 481,-208 251,-208"/>
</g>
<g id="clust6" class="cluster">
<title>cluster_TipoOrganizacionModule_providers</title>
<polygon fill="none" stroke="#000000" points="16,-78 16,-130 216,-130 216,-78 16,-78"/>
</g>
<!-- ThemeModule -->
<g id="node1" class="node">
<title>ThemeModule</title>
<polygon fill="#8dd3c7" stroke="#000000" points="670.4231,-122 667.4231,-126 646.4231,-126 643.4231,-122 571.5769,-122 571.5769,-86 670.4231,-86 670.4231,-122"/>
<text text-anchor="middle" x="621" y="-99.8" font-family="Times,serif" font-size="14.00" fill="#000000">ThemeModule</text>
</g>
<!-- TipoOrganizacionModule -->
<g id="node4" class="node">
<title>TipoOrganizacionModule</title>
<polygon fill="#8dd3c7" stroke="#000000" points="446.9003,-187 443.9003,-191 422.9003,-191 419.9003,-187 285.0997,-187 285.0997,-151 446.9003,-151 446.9003,-187"/>
<text text-anchor="middle" x="366" y="-164.8" font-family="Times,serif" font-size="14.00" fill="#000000">TipoOrganizacionModule</text>
</g>
<!-- ThemeModule&#45;&gt;TipoOrganizacionModule -->
<g id="edge1" class="edge">
<title>ThemeModule&#45;&gt;TipoOrganizacionModule</title>
<path fill="none" stroke="#000000" d="M621,-122.1061C621,-141.3391 621,-169 621,-169 621,-169 457.034,-169 457.034,-169"/>
<polygon fill="#000000" stroke="#000000" points="457.034,-165.5001 447.034,-169 457.0339,-172.5001 457.034,-165.5001"/>
</g>
<!-- TipoOrganizacionRoutingModule -->
<g id="node2" class="node">
<title>TipoOrganizacionRoutingModule</title>
<polygon fill="#8dd3c7" stroke="#000000" points="554.0182,-122 551.0182,-126 530.0182,-126 527.0182,-122 347.9818,-122 347.9818,-86 554.0182,-86 554.0182,-122"/>
<text text-anchor="middle" x="451" y="-99.8" font-family="Times,serif" font-size="14.00" fill="#000000">TipoOrganizacionRoutingModule</text>
</g>
<!-- TipoOrganizacionRoutingModule&#45;&gt;TipoOrganizacionModule -->
<g id="edge2" class="edge">
<title>TipoOrganizacionRoutingModule&#45;&gt;TipoOrganizacionModule</title>
<path fill="none" stroke="#000000" d="M397.2206,-122.1061C397.2206,-122.1061 397.2206,-140.991 397.2206,-140.991"/>
<polygon fill="#000000" stroke="#000000" points="393.7206,-140.9909 397.2206,-150.991 400.7206,-140.991 393.7206,-140.9909"/>
</g>
<!-- SharedModule -->
<g id="node3" class="node">
<title>SharedModule</title>
<polygon fill="#8dd3c7" stroke="#000000" points="330.4231,-122 327.4231,-126 306.4231,-126 303.4231,-122 231.5769,-122 231.5769,-86 330.4231,-86 330.4231,-122"/>
<text text-anchor="middle" x="281" y="-99.8" font-family="Times,serif" font-size="14.00" fill="#000000">SharedModule</text>
</g>
<!-- SharedModule&#45;&gt;TipoOrganizacionModule -->
<g id="edge3" class="edge">
<title>SharedModule&#45;&gt;TipoOrganizacionModule</title>
<path fill="none" stroke="#000000" d="M307.7556,-122.1061C307.7556,-122.1061 307.7556,-140.991 307.7556,-140.991"/>
<polygon fill="#000000" stroke="#000000" points="304.2557,-140.9909 307.7556,-150.991 311.2557,-140.991 304.2557,-140.9909"/>
</g>
<!-- CrudTipoOrganizacionComponent  -->
<g id="node5" class="node">
<title>CrudTipoOrganizacionComponent </title>
<polygon fill="#fb8072" stroke="#000000" points="473.1798,-252 258.8202,-252 258.8202,-216 473.1798,-216 473.1798,-252"/>
<text text-anchor="middle" x="366" y="-229.8" font-family="Times,serif" font-size="14.00" fill="#000000">CrudTipoOrganizacionComponent </text>
</g>
<!-- TipoOrganizacionModule&#45;&gt;CrudTipoOrganizacionComponent  -->
<g id="edge4" class="edge">
<title>TipoOrganizacionModule&#45;&gt;CrudTipoOrganizacionComponent </title>
<path fill="none" stroke="#000000" stroke-dasharray="5,2" d="M366,-187.1061C366,-187.1061 366,-205.991 366,-205.991"/>
<polygon fill="#000000" stroke="#000000" points="362.5001,-205.9909 366,-215.991 369.5001,-205.991 362.5001,-205.9909"/>
</g>
<!-- OrganizacionService -->
<g id="node6" class="node">
<title>OrganizacionService</title>
<ellipse fill="#fdb462" stroke="#000000" cx="116" cy="-104" rx="92.0123" ry="18"/>
<text text-anchor="middle" x="116" y="-99.8" font-family="Times,serif" font-size="14.00" fill="#000000">OrganizacionService</text>
</g>
<!-- OrganizacionService&#45;&gt;TipoOrganizacionModule -->
<g id="edge5" class="edge">
<title>OrganizacionService&#45;&gt;TipoOrganizacionModule</title>
<path fill="none" stroke="#000000" d="M116,-122.1061C116,-141.3391 116,-169 116,-169 116,-169 275.1774,-169 275.1774,-169"/>
<polygon fill="#000000" stroke="#000000" points="275.1774,-172.5001 285.1774,-169 275.1774,-165.5001 275.1774,-172.5001"/>
</g>
</g>
</svg>
