<?xml version="1.0" encoding="UTF-8" standalone="no"?>
<!DOCTYPE svg PUBLIC "-//W3C//DTD SVG 1.1//EN"
 "http://www.w3.org/Graphics/SVG/1.1/DTD/svg11.dtd">
<!-- Generated by graphviz version 2.40.1 (20161225.0304)
 -->
<!-- Title: dependencies Pages: 1 -->
<svg width="752pt" height="284pt"
 viewBox="0.00 0.00 752.00 284.00" xmlns="http://www.w3.org/2000/svg" xmlns:xlink="http://www.w3.org/1999/xlink">
<g id="graph0" class="graph" transform="scale(1 1) rotate(0) translate(4 280)">
<title>dependencies</title>
<polygon fill="#ffffff" stroke="transparent" points="-4,4 -4,-280 748,-280 748,4 -4,4"/>
<text text-anchor="start" x="351.0091" y="-42.4" font-family="sans-serif" font-weight="bold" font-size="14.00" fill="#000000">Legend</text>
<polygon fill="#ffffb3" stroke="transparent" points="138,-10 138,-30 158,-30 158,-10 138,-10"/>
<text text-anchor="start" x="161.629" y="-15.4" font-family="sans-serif" font-size="14.00" fill="#000000"> &#160;Declarations</text>
<polygon fill="#8dd3c7" stroke="transparent" points="251,-10 251,-30 271,-30 271,-10 251,-10"/>
<text text-anchor="start" x="274.7251" y="-15.4" font-family="sans-serif" font-size="14.00" fill="#000000"> &#160;Module</text>
<polygon fill="#80b1d3" stroke="transparent" points="337,-10 337,-30 357,-30 357,-10 337,-10"/>
<text text-anchor="start" x="360.7812" y="-15.4" font-family="sans-serif" font-size="14.00" fill="#000000"> &#160;Bootstrap</text>
<polygon fill="#fdb462" stroke="transparent" points="434,-10 434,-30 454,-30 454,-10 434,-10"/>
<text text-anchor="start" x="457.6732" y="-15.4" font-family="sans-serif" font-size="14.00" fill="#000000"> &#160;Providers</text>
<polygon fill="#fb8072" stroke="transparent" points="530,-10 530,-30 550,-30 550,-10 530,-10"/>
<text text-anchor="start" x="553.7258" y="-15.4" font-family="sans-serif" font-size="14.00" fill="#000000"> &#160;Exports</text>
<g id="clust1" class="cluster">
<title>cluster_TipoRelacionOrganizacionModule</title>
<polygon fill="none" stroke="#000000" stroke-dasharray="1,5" points="8,-70 8,-268 736,-268 736,-70 8,-70"/>
</g>
<g id="clust3" class="cluster">
<title>cluster_TipoRelacionOrganizacionModule_imports</title>
<polygon fill="none" stroke="#000000" points="224,-78 224,-130 728,-130 728,-78 224,-78"/>
</g>
<g id="clust4" class="cluster">
<title>cluster_TipoRelacionOrganizacionModule_exports</title>
<polygon fill="none" stroke="#000000" points="238,-208 238,-260 518,-260 518,-208 238,-208"/>
</g>
<g id="clust6" class="cluster">
<title>cluster_TipoRelacionOrganizacionModule_providers</title>
<polygon fill="none" stroke="#000000" points="16,-78 16,-130 216,-130 216,-78 16,-78"/>
</g>
<!-- ThemeModule -->
<g id="node1" class="node">
<title>ThemeModule</title>
<polygon fill="#8dd3c7" stroke="#000000" points="720.4231,-122 717.4231,-126 696.4231,-126 693.4231,-122 621.5769,-122 621.5769,-86 720.4231,-86 720.4231,-122"/>
<text text-anchor="middle" x="671" y="-99.8" font-family="Times,serif" font-size="14.00" fill="#000000">ThemeModule</text>
</g>
<!-- TipoRelacionOrganizacionModule -->
<g id="node4" class="node">
<title>TipoRelacionOrganizacionModule</title>
<polygon fill="#8dd3c7" stroke="#000000" points="483.6615,-187 480.6615,-191 459.6615,-191 456.6615,-187 272.3385,-187 272.3385,-151 483.6615,-151 483.6615,-187"/>
<text text-anchor="middle" x="378" y="-164.8" font-family="Times,serif" font-size="14.00" fill="#000000">TipoRelacionOrganizacionModule</text>
</g>
<!-- ThemeModule&#45;&gt;TipoRelacionOrganizacionModule -->
<g id="edge1" class="edge">
<title>ThemeModule&#45;&gt;TipoRelacionOrganizacionModule</title>
<path fill="none" stroke="#000000" d="M671,-122.1061C671,-141.3391 671,-169 671,-169 671,-169 493.7797,-169 493.7797,-169"/>
<polygon fill="#000000" stroke="#000000" points="493.7798,-165.5001 483.7797,-169 493.7797,-172.5001 493.7798,-165.5001"/>
</g>
<!-- TipoRelacionOrganizacionRoutingModule -->
<g id="node2" class="node">
<title>TipoRelacionOrganizacionRoutingModule</title>
<polygon fill="#8dd3c7" stroke="#000000" points="604.2794,-122 601.2794,-126 580.2794,-126 577.2794,-122 347.7206,-122 347.7206,-86 604.2794,-86 604.2794,-122"/>
<text text-anchor="middle" x="476" y="-99.8" font-family="Times,serif" font-size="14.00" fill="#000000">TipoRelacionOrganizacionRoutingModule</text>
</g>
<!-- TipoRelacionOrganizacionRoutingModule&#45;&gt;TipoRelacionOrganizacionModule -->
<g id="edge2" class="edge">
<title>TipoRelacionOrganizacionRoutingModule&#45;&gt;TipoRelacionOrganizacionModule</title>
<path fill="none" stroke="#000000" d="M415.7206,-122.1061C415.7206,-122.1061 415.7206,-140.991 415.7206,-140.991"/>
<polygon fill="#000000" stroke="#000000" points="412.2206,-140.9909 415.7206,-150.991 419.2206,-140.991 412.2206,-140.9909"/>
</g>
<!-- SharedModule -->
<g id="node3" class="node">
<title>SharedModule</title>
<polygon fill="#8dd3c7" stroke="#000000" points="330.4231,-122 327.4231,-126 306.4231,-126 303.4231,-122 231.5769,-122 231.5769,-86 330.4231,-86 330.4231,-122"/>
<text text-anchor="middle" x="281" y="-99.8" font-family="Times,serif" font-size="14.00" fill="#000000">SharedModule</text>
</g>
<!-- SharedModule&#45;&gt;TipoRelacionOrganizacionModule -->
<g id="edge3" class="edge">
<title>SharedModule&#45;&gt;TipoRelacionOrganizacionModule</title>
<path fill="none" stroke="#000000" d="M301.3152,-122.1061C301.3152,-122.1061 301.3152,-140.991 301.3152,-140.991"/>
<polygon fill="#000000" stroke="#000000" points="297.8153,-140.9909 301.3152,-150.991 304.8153,-140.991 297.8153,-140.9909"/>
</g>
<!-- CrudTipoRelacionOrganizacionComponent  -->
<g id="node5" class="node">
<title>CrudTipoRelacionOrganizacionComponent </title>
<polygon fill="#fb8072" stroke="#000000" points="510.4416,-252 245.5584,-252 245.5584,-216 510.4416,-216 510.4416,-252"/>
<text text-anchor="middle" x="378" y="-229.8" font-family="Times,serif" font-size="14.00" fill="#000000">CrudTipoRelacionOrganizacionComponent </text>
</g>
<!-- TipoRelacionOrganizacionModule&#45;&gt;CrudTipoRelacionOrganizacionComponent  -->
<g id="edge4" class="edge">
<title>TipoRelacionOrganizacionModule&#45;&gt;CrudTipoRelacionOrganizacionComponent </title>
<path fill="none" stroke="#000000" stroke-dasharray="5,2" d="M378,-187.1061C378,-187.1061 378,-205.991 378,-205.991"/>
<polygon fill="#000000" stroke="#000000" points="374.5001,-205.9909 378,-215.991 381.5001,-205.991 374.5001,-205.9909"/>
</g>
<!-- OrganizacionService -->
<g id="node6" class="node">
<title>OrganizacionService</title>
<ellipse fill="#fdb462" stroke="#000000" cx="116" cy="-104" rx="92.0123" ry="18"/>
<text text-anchor="middle" x="116" y="-99.8" font-family="Times,serif" font-size="14.00" fill="#000000">OrganizacionService</text>
</g>
<!-- OrganizacionService&#45;&gt;TipoRelacionOrganizacionModule -->
<g id="edge5" class="edge">
<title>OrganizacionService&#45;&gt;TipoRelacionOrganizacionModule</title>
<path fill="none" stroke="#000000" d="M116,-122.1061C116,-141.3391 116,-169 116,-169 116,-169 262.1898,-169 262.1898,-169"/>
<polygon fill="#000000" stroke="#000000" points="262.1898,-172.5001 272.1898,-169 262.1897,-165.5001 262.1898,-172.5001"/>
</g>
</g>
</svg>
