<?xml version="1.0" encoding="UTF-8" standalone="no"?>
<!DOCTYPE svg PUBLIC "-//W3C//DTD SVG 1.1//EN"
 "http://www.w3.org/Graphics/SVG/1.1/DTD/svg11.dtd">
<!-- Generated by graphviz version 2.40.1 (20161225.0304)
 -->
<!-- Title: dependencies Pages: 1 -->
<svg width="578pt" height="284pt"
 viewBox="0.00 0.00 578.00 284.00" xmlns="http://www.w3.org/2000/svg" xmlns:xlink="http://www.w3.org/1999/xlink">
<g id="graph0" class="graph" transform="scale(1 1) rotate(0) translate(4 280)">
<title>dependencies</title>
<polygon fill="#ffffff" stroke="transparent" points="-4,4 -4,-280 574,-280 574,4 -4,4"/>
<text text-anchor="start" x="264.0091" y="-42.4" font-family="sans-serif" font-weight="bold" font-size="14.00" fill="#000000">Legend</text>
<polygon fill="#ffffb3" stroke="transparent" points="51,-10 51,-30 71,-30 71,-10 51,-10"/>
<text text-anchor="start" x="74.629" y="-15.4" font-family="sans-serif" font-size="14.00" fill="#000000"> &#160;Declarations</text>
<polygon fill="#8dd3c7" stroke="transparent" points="164,-10 164,-30 184,-30 184,-10 164,-10"/>
<text text-anchor="start" x="187.7251" y="-15.4" font-family="sans-serif" font-size="14.00" fill="#000000"> &#160;Module</text>
<polygon fill="#80b1d3" stroke="transparent" points="250,-10 250,-30 270,-30 270,-10 250,-10"/>
<text text-anchor="start" x="273.7812" y="-15.4" font-family="sans-serif" font-size="14.00" fill="#000000"> &#160;Bootstrap</text>
<polygon fill="#fdb462" stroke="transparent" points="347,-10 347,-30 367,-30 367,-10 347,-10"/>
<text text-anchor="start" x="370.6732" y="-15.4" font-family="sans-serif" font-size="14.00" fill="#000000"> &#160;Providers</text>
<polygon fill="#fb8072" stroke="transparent" points="443,-10 443,-30 463,-30 463,-10 443,-10"/>
<text text-anchor="start" x="466.7258" y="-15.4" font-family="sans-serif" font-size="14.00" fill="#000000"> &#160;Exports</text>
<g id="clust1" class="cluster">
<title>cluster_PeriodoModule</title>
<polygon fill="none" stroke="#000000" stroke-dasharray="1,5" points="8,-70 8,-268 562,-268 562,-70 8,-70"/>
</g>
<g id="clust3" class="cluster">
<title>cluster_PeriodoModule_imports</title>
<polygon fill="none" stroke="#000000" points="158,-78 158,-130 554,-130 554,-78 158,-78"/>
</g>
<g id="clust4" class="cluster">
<title>cluster_PeriodoModule_exports</title>
<polygon fill="none" stroke="#000000" points="199,-208 199,-260 371,-260 371,-208 199,-208"/>
</g>
<g id="clust6" class="cluster">
<title>cluster_PeriodoModule_providers</title>
<polygon fill="none" stroke="#000000" points="16,-78 16,-130 150,-130 150,-78 16,-78"/>
</g>
<!-- ThemeModule -->
<g id="node1" class="node">
<title>ThemeModule</title>
<polygon fill="#8dd3c7" stroke="#000000" points="546.4231,-122 543.4231,-126 522.4231,-126 519.4231,-122 447.5769,-122 447.5769,-86 546.4231,-86 546.4231,-122"/>
<text text-anchor="middle" x="497" y="-99.8" font-family="Times,serif" font-size="14.00" fill="#000000">ThemeModule</text>
</g>
<!-- PeriodoModule -->
<g id="node4" class="node">
<title>PeriodoModule</title>
<polygon fill="#8dd3c7" stroke="#000000" points="336.5982,-187 333.5982,-191 312.5982,-191 309.5982,-187 233.4018,-187 233.4018,-151 336.5982,-151 336.5982,-187"/>
<text text-anchor="middle" x="285" y="-164.8" font-family="Times,serif" font-size="14.00" fill="#000000">PeriodoModule</text>
</g>
<!-- ThemeModule&#45;&gt;PeriodoModule -->
<g id="edge1" class="edge">
<title>ThemeModule&#45;&gt;PeriodoModule</title>
<path fill="none" stroke="#000000" d="M497,-122.1061C497,-141.3391 497,-169 497,-169 497,-169 346.5899,-169 346.5899,-169"/>
<polygon fill="#000000" stroke="#000000" points="346.59,-165.5001 336.5899,-169 346.5899,-172.5001 346.59,-165.5001"/>
</g>
<!-- PeriodoRoutingModule -->
<g id="node2" class="node">
<title>PeriodoRoutingModule</title>
<polygon fill="#8dd3c7" stroke="#000000" points="430.2162,-122 427.2162,-126 406.2162,-126 403.2162,-122 281.7838,-122 281.7838,-86 430.2162,-86 430.2162,-122"/>
<text text-anchor="middle" x="356" y="-99.8" font-family="Times,serif" font-size="14.00" fill="#000000">PeriodoRoutingModule</text>
</g>
<!-- PeriodoRoutingModule&#45;&gt;PeriodoModule -->
<g id="edge2" class="edge">
<title>PeriodoRoutingModule&#45;&gt;PeriodoModule</title>
<path fill="none" stroke="#000000" d="M309.2206,-122.1061C309.2206,-122.1061 309.2206,-140.991 309.2206,-140.991"/>
<polygon fill="#000000" stroke="#000000" points="305.7206,-140.9909 309.2206,-150.991 312.7206,-140.991 305.7206,-140.9909"/>
</g>
<!-- SharedModule -->
<g id="node3" class="node">
<title>SharedModule</title>
<polygon fill="#8dd3c7" stroke="#000000" points="264.4231,-122 261.4231,-126 240.4231,-126 237.4231,-122 165.5769,-122 165.5769,-86 264.4231,-86 264.4231,-122"/>
<text text-anchor="middle" x="215" y="-99.8" font-family="Times,serif" font-size="14.00" fill="#000000">SharedModule</text>
</g>
<!-- SharedModule&#45;&gt;PeriodoModule -->
<g id="edge3" class="edge">
<title>SharedModule&#45;&gt;PeriodoModule</title>
<path fill="none" stroke="#000000" d="M248.831,-122.1061C248.831,-122.1061 248.831,-140.991 248.831,-140.991"/>
<polygon fill="#000000" stroke="#000000" points="245.3311,-140.9909 248.831,-150.991 252.3311,-140.991 245.3311,-140.9909"/>
</g>
<!-- CrudPeriodoComponent  -->
<g id="node5" class="node">
<title>CrudPeriodoComponent </title>
<polygon fill="#fb8072" stroke="#000000" points="363.3785,-252 206.6215,-252 206.6215,-216 363.3785,-216 363.3785,-252"/>
<text text-anchor="middle" x="285" y="-229.8" font-family="Times,serif" font-size="14.00" fill="#000000">CrudPeriodoComponent </text>
</g>
<!-- PeriodoModule&#45;&gt;CrudPeriodoComponent  -->
<g id="edge4" class="edge">
<title>PeriodoModule&#45;&gt;CrudPeriodoComponent </title>
<path fill="none" stroke="#000000" stroke-dasharray="5,2" d="M285,-187.1061C285,-187.1061 285,-205.991 285,-205.991"/>
<polygon fill="#000000" stroke="#000000" points="281.5001,-205.9909 285,-215.991 288.5001,-205.991 281.5001,-205.9909"/>
</g>
<!-- CoreService -->
<g id="node6" class="node">
<title>CoreService</title>
<ellipse fill="#fdb462" stroke="#000000" cx="83" cy="-104" rx="58.5251" ry="18"/>
<text text-anchor="middle" x="83" y="-99.8" font-family="Times,serif" font-size="14.00" fill="#000000">CoreService</text>
</g>
<!-- CoreService&#45;&gt;PeriodoModule -->
<g id="edge5" class="edge">
<title>CoreService&#45;&gt;PeriodoModule</title>
<path fill="none" stroke="#000000" d="M83,-122.1061C83,-141.3391 83,-169 83,-169 83,-169 223.2423,-169 223.2423,-169"/>
<polygon fill="#000000" stroke="#000000" points="223.2423,-172.5001 233.2423,-169 223.2423,-165.5001 223.2423,-172.5001"/>
</g>
</g>
</svg>
