<?xml version="1.0" encoding="UTF-8" standalone="no"?>
<!DOCTYPE svg PUBLIC "-//W3C//DTD SVG 1.1//EN"
 "http://www.w3.org/Graphics/SVG/1.1/DTD/svg11.dtd">
<!-- Generated by graphviz version 2.40.1 (20161225.0304)
 -->
<!-- Title: dependencies Pages: 1 -->
<svg width="732pt" height="284pt"
 viewBox="0.00 0.00 732.00 284.00" xmlns="http://www.w3.org/2000/svg" xmlns:xlink="http://www.w3.org/1999/xlink">
<g id="graph0" class="graph" transform="scale(1 1) rotate(0) translate(4 280)">
<title>dependencies</title>
<polygon fill="#ffffff" stroke="transparent" points="-4,4 -4,-280 728,-280 728,4 -4,4"/>
<text text-anchor="start" x="341.0091" y="-42.4" font-family="sans-serif" font-weight="bold" font-size="14.00" fill="#000000">Legend</text>
<polygon fill="#ffffb3" stroke="transparent" points="128,-10 128,-30 148,-30 148,-10 128,-10"/>
<text text-anchor="start" x="151.629" y="-15.4" font-family="sans-serif" font-size="14.00" fill="#000000"> &#160;Declarations</text>
<polygon fill="#8dd3c7" stroke="transparent" points="241,-10 241,-30 261,-30 261,-10 241,-10"/>
<text text-anchor="start" x="264.7251" y="-15.4" font-family="sans-serif" font-size="14.00" fill="#000000"> &#160;Module</text>
<polygon fill="#80b1d3" stroke="transparent" points="327,-10 327,-30 347,-30 347,-10 327,-10"/>
<text text-anchor="start" x="350.7812" y="-15.4" font-family="sans-serif" font-size="14.00" fill="#000000"> &#160;Bootstrap</text>
<polygon fill="#fdb462" stroke="transparent" points="424,-10 424,-30 444,-30 444,-10 424,-10"/>
<text text-anchor="start" x="447.6732" y="-15.4" font-family="sans-serif" font-size="14.00" fill="#000000"> &#160;Providers</text>
<polygon fill="#fb8072" stroke="transparent" points="520,-10 520,-30 540,-30 540,-10 520,-10"/>
<text text-anchor="start" x="543.7258" y="-15.4" font-family="sans-serif" font-size="14.00" fill="#000000"> &#160;Exports</text>
<g id="clust1" class="cluster">
<title>cluster_MetodologiaModule</title>
<polygon fill="none" stroke="#000000" stroke-dasharray="1,5" points="8,-70 8,-268 716,-268 716,-70 8,-70"/>
</g>
<g id="clust3" class="cluster">
<title>cluster_MetodologiaModule_imports</title>
<polygon fill="none" stroke="#000000" points="284,-78 284,-130 708,-130 708,-78 284,-78"/>
</g>
<g id="clust4" class="cluster">
<title>cluster_MetodologiaModule_exports</title>
<polygon fill="none" stroke="#000000" points="318,-208 318,-260 518,-260 518,-208 318,-208"/>
</g>
<g id="clust6" class="cluster">
<title>cluster_MetodologiaModule_providers</title>
<polygon fill="none" stroke="#000000" points="16,-78 16,-130 276,-130 276,-78 16,-78"/>
</g>
<!-- ThemeModule -->
<g id="node1" class="node">
<title>ThemeModule</title>
<polygon fill="#8dd3c7" stroke="#000000" points="700.4231,-122 697.4231,-126 676.4231,-126 673.4231,-122 601.5769,-122 601.5769,-86 700.4231,-86 700.4231,-122"/>
<text text-anchor="middle" x="651" y="-99.8" font-family="Times,serif" font-size="14.00" fill="#000000">ThemeModule</text>
</g>
<!-- MetodologiaModule -->
<g id="node4" class="node">
<title>MetodologiaModule</title>
<polygon fill="#8dd3c7" stroke="#000000" points="483.5954,-187 480.5954,-191 459.5954,-191 456.5954,-187 352.4046,-187 352.4046,-151 483.5954,-151 483.5954,-187"/>
<text text-anchor="middle" x="418" y="-164.8" font-family="Times,serif" font-size="14.00" fill="#000000">MetodologiaModule</text>
</g>
<!-- ThemeModule&#45;&gt;MetodologiaModule -->
<g id="edge1" class="edge">
<title>ThemeModule&#45;&gt;MetodologiaModule</title>
<path fill="none" stroke="#000000" d="M651,-122.1061C651,-141.3391 651,-169 651,-169 651,-169 493.8342,-169 493.8342,-169"/>
<polygon fill="#000000" stroke="#000000" points="493.8342,-165.5001 483.8342,-169 493.8341,-172.5001 493.8342,-165.5001"/>
</g>
<!-- MetodologiaRoutingModule -->
<g id="node2" class="node">
<title>MetodologiaRoutingModule</title>
<polygon fill="#8dd3c7" stroke="#000000" points="584.2133,-122 581.2133,-126 560.2133,-126 557.2133,-122 407.7867,-122 407.7867,-86 584.2133,-86 584.2133,-122"/>
<text text-anchor="middle" x="496" y="-99.8" font-family="Times,serif" font-size="14.00" fill="#000000">MetodologiaRoutingModule</text>
</g>
<!-- MetodologiaRoutingModule&#45;&gt;MetodologiaModule -->
<g id="edge2" class="edge">
<title>MetodologiaRoutingModule&#45;&gt;MetodologiaModule</title>
<path fill="none" stroke="#000000" d="M445.7206,-122.1061C445.7206,-122.1061 445.7206,-140.991 445.7206,-140.991"/>
<polygon fill="#000000" stroke="#000000" points="442.2206,-140.9909 445.7206,-150.991 449.2206,-140.991 442.2206,-140.9909"/>
</g>
<!-- SharedModule -->
<g id="node3" class="node">
<title>SharedModule</title>
<polygon fill="#8dd3c7" stroke="#000000" points="390.4231,-122 387.4231,-126 366.4231,-126 363.4231,-122 291.5769,-122 291.5769,-86 390.4231,-86 390.4231,-122"/>
<text text-anchor="middle" x="341" y="-99.8" font-family="Times,serif" font-size="14.00" fill="#000000">SharedModule</text>
</g>
<!-- SharedModule&#45;&gt;MetodologiaModule -->
<g id="edge3" class="edge">
<title>SharedModule&#45;&gt;MetodologiaModule</title>
<path fill="none" stroke="#000000" d="M371.3317,-122.1061C371.3317,-122.1061 371.3317,-140.991 371.3317,-140.991"/>
<polygon fill="#000000" stroke="#000000" points="367.8318,-140.9909 371.3317,-150.991 374.8318,-140.991 367.8318,-140.9909"/>
</g>
<!-- CrudMetodologiaComponent  -->
<g id="node5" class="node">
<title>CrudMetodologiaComponent </title>
<polygon fill="#fb8072" stroke="#000000" points="510.3756,-252 325.6244,-252 325.6244,-216 510.3756,-216 510.3756,-252"/>
<text text-anchor="middle" x="418" y="-229.8" font-family="Times,serif" font-size="14.00" fill="#000000">CrudMetodologiaComponent </text>
</g>
<!-- MetodologiaModule&#45;&gt;CrudMetodologiaComponent  -->
<g id="edge4" class="edge">
<title>MetodologiaModule&#45;&gt;CrudMetodologiaComponent </title>
<path fill="none" stroke="#000000" stroke-dasharray="5,2" d="M418,-187.1061C418,-187.1061 418,-205.991 418,-205.991"/>
<polygon fill="#000000" stroke="#000000" points="414.5001,-205.9909 418,-215.991 421.5001,-205.991 414.5001,-205.9909"/>
</g>
<!-- ProgramaAcademicoService -->
<g id="node6" class="node">
<title>ProgramaAcademicoService</title>
<ellipse fill="#fdb462" stroke="#000000" cx="146" cy="-104" rx="121.5065" ry="18"/>
<text text-anchor="middle" x="146" y="-99.8" font-family="Times,serif" font-size="14.00" fill="#000000">ProgramaAcademicoService</text>
</g>
<!-- ProgramaAcademicoService&#45;&gt;MetodologiaModule -->
<g id="edge5" class="edge">
<title>ProgramaAcademicoService&#45;&gt;MetodologiaModule</title>
<path fill="none" stroke="#000000" d="M146,-122.1061C146,-141.3391 146,-169 146,-169 146,-169 342.1564,-169 342.1564,-169"/>
<polygon fill="#000000" stroke="#000000" points="342.1564,-172.5001 352.1564,-169 342.1564,-165.5001 342.1564,-172.5001"/>
</g>
</g>
</svg>
