<?xml version="1.0" encoding="UTF-8" standalone="no"?>
<!DOCTYPE svg PUBLIC "-//W3C//DTD SVG 1.1//EN"
 "http://www.w3.org/Graphics/SVG/1.1/DTD/svg11.dtd">
<!-- Generated by graphviz version 2.40.1 (20161225.0304)
 -->
<!-- Title: dependencies Pages: 1 -->
<svg width="1134pt" height="284pt"
 viewBox="0.00 0.00 1134.00 284.00" xmlns="http://www.w3.org/2000/svg" xmlns:xlink="http://www.w3.org/1999/xlink">
<g id="graph0" class="graph" transform="scale(1 1) rotate(0) translate(4 280)">
<title>dependencies</title>
<polygon fill="#ffffff" stroke="transparent" points="-4,4 -4,-280 1130,-280 1130,4 -4,4"/>
<text text-anchor="start" x="542.0091" y="-42.4" font-family="sans-serif" font-weight="bold" font-size="14.00" fill="#000000">Legend</text>
<polygon fill="#ffffb3" stroke="transparent" points="329,-10 329,-30 349,-30 349,-10 329,-10"/>
<text text-anchor="start" x="352.629" y="-15.4" font-family="sans-serif" font-size="14.00" fill="#000000"> &#160;Declarations</text>
<polygon fill="#8dd3c7" stroke="transparent" points="442,-10 442,-30 462,-30 462,-10 442,-10"/>
<text text-anchor="start" x="465.7251" y="-15.4" font-family="sans-serif" font-size="14.00" fill="#000000"> &#160;Module</text>
<polygon fill="#80b1d3" stroke="transparent" points="528,-10 528,-30 548,-30 548,-10 528,-10"/>
<text text-anchor="start" x="551.7812" y="-15.4" font-family="sans-serif" font-size="14.00" fill="#000000"> &#160;Bootstrap</text>
<polygon fill="#fdb462" stroke="transparent" points="625,-10 625,-30 645,-30 645,-10 625,-10"/>
<text text-anchor="start" x="648.6732" y="-15.4" font-family="sans-serif" font-size="14.00" fill="#000000"> &#160;Providers</text>
<polygon fill="#fb8072" stroke="transparent" points="721,-10 721,-30 741,-30 741,-10 721,-10"/>
<text text-anchor="start" x="744.7258" y="-15.4" font-family="sans-serif" font-size="14.00" fill="#000000"> &#160;Exports</text>
<g id="clust1" class="cluster">
<title>cluster_RequisitoProgramaModule</title>
<polygon fill="none" stroke="#000000" stroke-dasharray="1,5" points="8,-70 8,-268 1118,-268 1118,-70 8,-70"/>
</g>
<g id="clust3" class="cluster">
<title>cluster_RequisitoProgramaModule_imports</title>
<polygon fill="none" stroke="#000000" points="648,-78 648,-130 1110,-130 1110,-78 648,-78"/>
</g>
<g id="clust4" class="cluster">
<title>cluster_RequisitoProgramaModule_exports</title>
<polygon fill="none" stroke="#000000" points="487,-208 487,-260 723,-260 723,-208 487,-208"/>
</g>
<g id="clust6" class="cluster">
<title>cluster_RequisitoProgramaModule_providers</title>
<polygon fill="none" stroke="#000000" points="16,-78 16,-130 640,-130 640,-78 16,-78"/>
</g>
<!-- ThemeModule -->
<g id="node1" class="node">
<title>ThemeModule</title>
<polygon fill="#8dd3c7" stroke="#000000" points="1102.4231,-122 1099.4231,-126 1078.4231,-126 1075.4231,-122 1003.5769,-122 1003.5769,-86 1102.4231,-86 1102.4231,-122"/>
<text text-anchor="middle" x="1053" y="-99.8" font-family="Times,serif" font-size="14.00" fill="#000000">ThemeModule</text>
</g>
<!-- RequisitoProgramaModule -->
<g id="node4" class="node">
<title>RequisitoProgramaModule</title>
<polygon fill="#8dd3c7" stroke="#000000" points="688.6414,-187 685.6414,-191 664.6414,-191 661.6414,-187 521.3586,-187 521.3586,-151 688.6414,-151 688.6414,-187"/>
<text text-anchor="middle" x="605" y="-164.8" font-family="Times,serif" font-size="14.00" fill="#000000">RequisitoProgramaModule</text>
</g>
<!-- ThemeModule&#45;&gt;RequisitoProgramaModule -->
<g id="edge1" class="edge">
<title>ThemeModule&#45;&gt;RequisitoProgramaModule</title>
<path fill="none" stroke="#000000" d="M1053,-122.2843C1053,-143.3211 1053,-175 1053,-175 1053,-175 698.7398,-175 698.7398,-175"/>
<polygon fill="#000000" stroke="#000000" points="698.7399,-171.5001 688.7398,-175 698.7398,-178.5001 698.7399,-171.5001"/>
</g>
<!-- RequisitoProgramaRoutingModule -->
<g id="node2" class="node">
<title>RequisitoProgramaRoutingModule</title>
<polygon fill="#8dd3c7" stroke="#000000" points="985.2589,-122 982.2589,-126 961.2589,-126 958.2589,-122 772.7411,-122 772.7411,-86 985.2589,-86 985.2589,-122"/>
<text text-anchor="middle" x="879" y="-99.8" font-family="Times,serif" font-size="14.00" fill="#000000">RequisitoProgramaRoutingModule</text>
</g>
<!-- RequisitoProgramaRoutingModule&#45;&gt;RequisitoProgramaModule -->
<g id="edge2" class="edge">
<title>RequisitoProgramaRoutingModule&#45;&gt;RequisitoProgramaModule</title>
<path fill="none" stroke="#000000" d="M879,-122.0225C879,-139.3734 879,-163 879,-163 879,-163 698.6979,-163 698.6979,-163"/>
<polygon fill="#000000" stroke="#000000" points="698.6979,-159.5001 688.6979,-163 698.6978,-166.5001 698.6979,-159.5001"/>
</g>
<!-- SharedModule -->
<g id="node3" class="node">
<title>SharedModule</title>
<polygon fill="#8dd3c7" stroke="#000000" points="754.4231,-122 751.4231,-126 730.4231,-126 727.4231,-122 655.5769,-122 655.5769,-86 754.4231,-86 754.4231,-122"/>
<text text-anchor="middle" x="705" y="-99.8" font-family="Times,serif" font-size="14.00" fill="#000000">SharedModule</text>
</g>
<!-- SharedModule&#45;&gt;RequisitoProgramaModule -->
<g id="edge3" class="edge">
<title>SharedModule&#45;&gt;RequisitoProgramaModule</title>
<path fill="none" stroke="#000000" d="M672.3047,-122.1061C672.3047,-122.1061 672.3047,-140.991 672.3047,-140.991"/>
<polygon fill="#000000" stroke="#000000" points="668.8048,-140.9909 672.3047,-150.991 675.8048,-140.991 668.8048,-140.9909"/>
</g>
<!-- CrudRequisitoProgramaComponent  -->
<g id="node5" class="node">
<title>CrudRequisitoProgramaComponent </title>
<polygon fill="#fb8072" stroke="#000000" points="715.4208,-252 494.5792,-252 494.5792,-216 715.4208,-216 715.4208,-252"/>
<text text-anchor="middle" x="605" y="-229.8" font-family="Times,serif" font-size="14.00" fill="#000000">CrudRequisitoProgramaComponent </text>
</g>
<!-- RequisitoProgramaModule&#45;&gt;CrudRequisitoProgramaComponent  -->
<g id="edge4" class="edge">
<title>RequisitoProgramaModule&#45;&gt;CrudRequisitoProgramaComponent </title>
<path fill="none" stroke="#000000" stroke-dasharray="5,2" d="M605,-187.1061C605,-187.1061 605,-205.991 605,-205.991"/>
<polygon fill="#000000" stroke="#000000" points="601.5001,-205.9909 605,-215.991 608.5001,-205.991 601.5001,-205.9909"/>
</g>
<!-- EvaluacionInscripcionService -->
<g id="node6" class="node">
<title>EvaluacionInscripcionService</title>
<ellipse fill="#fdb462" stroke="#000000" cx="505" cy="-104" rx="126.7452" ry="18"/>
<text text-anchor="middle" x="505" y="-99.8" font-family="Times,serif" font-size="14.00" fill="#000000">EvaluacionInscripcionService</text>
</g>
<!-- EvaluacionInscripcionService&#45;&gt;RequisitoProgramaModule -->
<g id="edge5" class="edge">
<title>EvaluacionInscripcionService&#45;&gt;RequisitoProgramaModule</title>
<path fill="none" stroke="#000000" d="M576.526,-119.0757C576.526,-119.0757 576.526,-140.7642 576.526,-140.7642"/>
<polygon fill="#000000" stroke="#000000" points="573.0261,-140.7642 576.526,-150.7642 580.0261,-140.7642 573.0261,-140.7642"/>
</g>
<!-- ProgramaOikosService -->
<g id="node7" class="node">
<title>ProgramaOikosService</title>
<ellipse fill="#fdb462" stroke="#000000" cx="260" cy="-104" rx="100.6998" ry="18"/>
<text text-anchor="middle" x="260" y="-99.8" font-family="Times,serif" font-size="14.00" fill="#000000">ProgramaOikosService</text>
</g>
<!-- ProgramaOikosService&#45;&gt;RequisitoProgramaModule -->
<g id="edge6" class="edge">
<title>ProgramaOikosService&#45;&gt;RequisitoProgramaModule</title>
<path fill="none" stroke="#000000" d="M260,-122.0225C260,-139.3734 260,-163 260,-163 260,-163 511.0447,-163 511.0447,-163"/>
<polygon fill="#000000" stroke="#000000" points="511.0447,-166.5001 521.0447,-163 511.0446,-159.5001 511.0447,-166.5001"/>
</g>
<!-- CoreService -->
<g id="node8" class="node">
<title>CoreService</title>
<ellipse fill="#fdb462" stroke="#000000" cx="83" cy="-104" rx="58.5251" ry="18"/>
<text text-anchor="middle" x="83" y="-99.8" font-family="Times,serif" font-size="14.00" fill="#000000">CoreService</text>
</g>
<!-- CoreService&#45;&gt;RequisitoProgramaModule -->
<g id="edge7" class="edge">
<title>CoreService&#45;&gt;RequisitoProgramaModule</title>
<path fill="none" stroke="#000000" d="M83,-122.2843C83,-143.3211 83,-175 83,-175 83,-175 511.1317,-175 511.1317,-175"/>
<polygon fill="#000000" stroke="#000000" points="511.1317,-178.5001 521.1317,-175 511.1316,-171.5001 511.1317,-178.5001"/>
</g>
</g>
</svg>
