<?xml version="1.0" encoding="UTF-8" standalone="no"?>
<!DOCTYPE svg PUBLIC "-//W3C//DTD SVG 1.1//EN"
 "http://www.w3.org/Graphics/SVG/1.1/DTD/svg11.dtd">
<!-- Generated by graphviz version 2.40.1 (20161225.0304)
 -->
<!-- Title: dependencies Pages: 1 -->
<svg width="838pt" height="284pt"
 viewBox="0.00 0.00 838.00 284.00" xmlns="http://www.w3.org/2000/svg" xmlns:xlink="http://www.w3.org/1999/xlink">
<g id="graph0" class="graph" transform="scale(1 1) rotate(0) translate(4 280)">
<title>dependencies</title>
<polygon fill="#ffffff" stroke="transparent" points="-4,4 -4,-280 834,-280 834,4 -4,4"/>
<text text-anchor="start" x="394.0091" y="-42.4" font-family="sans-serif" font-weight="bold" font-size="14.00" fill="#000000">Legend</text>
<polygon fill="#ffffb3" stroke="transparent" points="181,-10 181,-30 201,-30 201,-10 181,-10"/>
<text text-anchor="start" x="204.629" y="-15.4" font-family="sans-serif" font-size="14.00" fill="#000000"> &#160;Declarations</text>
<polygon fill="#8dd3c7" stroke="transparent" points="294,-10 294,-30 314,-30 314,-10 294,-10"/>
<text text-anchor="start" x="317.7251" y="-15.4" font-family="sans-serif" font-size="14.00" fill="#000000"> &#160;Module</text>
<polygon fill="#80b1d3" stroke="transparent" points="380,-10 380,-30 400,-30 400,-10 380,-10"/>
<text text-anchor="start" x="403.7812" y="-15.4" font-family="sans-serif" font-size="14.00" fill="#000000"> &#160;Bootstrap</text>
<polygon fill="#fdb462" stroke="transparent" points="477,-10 477,-30 497,-30 497,-10 477,-10"/>
<text text-anchor="start" x="500.6732" y="-15.4" font-family="sans-serif" font-size="14.00" fill="#000000"> &#160;Providers</text>
<polygon fill="#fb8072" stroke="transparent" points="573,-10 573,-30 593,-30 593,-10 573,-10"/>
<text text-anchor="start" x="596.7258" y="-15.4" font-family="sans-serif" font-size="14.00" fill="#000000"> &#160;Exports</text>
<g id="clust1" class="cluster">
<title>cluster_TipoEventoModule</title>
<polygon fill="none" stroke="#000000" stroke-dasharray="1,5" points="8,-70 8,-268 822,-268 822,-70 8,-70"/>
</g>
<g id="clust3" class="cluster">
<title>cluster_TipoEventoModule_imports</title>
<polygon fill="none" stroke="#000000" points="394,-78 394,-130 814,-130 814,-78 394,-78"/>
</g>
<g id="clust4" class="cluster">
<title>cluster_TipoEventoModule_exports</title>
<polygon fill="none" stroke="#000000" points="354,-208 354,-260 548,-260 548,-208 354,-208"/>
</g>
<g id="clust6" class="cluster">
<title>cluster_TipoEventoModule_providers</title>
<polygon fill="none" stroke="#000000" points="16,-78 16,-130 386,-130 386,-78 16,-78"/>
</g>
<!-- ThemeModule -->
<g id="node1" class="node">
<title>ThemeModule</title>
<polygon fill="#8dd3c7" stroke="#000000" points="806.4231,-122 803.4231,-126 782.4231,-126 779.4231,-122 707.5769,-122 707.5769,-86 806.4231,-86 806.4231,-122"/>
<text text-anchor="middle" x="757" y="-99.8" font-family="Times,serif" font-size="14.00" fill="#000000">ThemeModule</text>
</g>
<!-- TipoEventoModule -->
<g id="node4" class="node">
<title>TipoEventoModule</title>
<polygon fill="#8dd3c7" stroke="#000000" points="513.6513,-187 510.6513,-191 489.6513,-191 486.6513,-187 388.3487,-187 388.3487,-151 513.6513,-151 513.6513,-187"/>
<text text-anchor="middle" x="451" y="-164.8" font-family="Times,serif" font-size="14.00" fill="#000000">TipoEventoModule</text>
</g>
<!-- ThemeModule&#45;&gt;TipoEventoModule -->
<g id="edge1" class="edge">
<title>ThemeModule&#45;&gt;TipoEventoModule</title>
<path fill="none" stroke="#000000" d="M757,-122.1061C757,-141.3391 757,-169 757,-169 757,-169 523.6621,-169 523.6621,-169"/>
<polygon fill="#000000" stroke="#000000" points="523.6621,-165.5001 513.6621,-169 523.662,-172.5001 523.6621,-165.5001"/>
</g>
<!-- TipoEventoRoutingModule -->
<g id="node2" class="node">
<title>TipoEventoRoutingModule</title>
<polygon fill="#8dd3c7" stroke="#000000" points="689.2688,-122 686.2688,-126 665.2688,-126 662.2688,-122 518.7312,-122 518.7312,-86 689.2688,-86 689.2688,-122"/>
<text text-anchor="middle" x="604" y="-99.8" font-family="Times,serif" font-size="14.00" fill="#000000">TipoEventoRoutingModule</text>
</g>
<!-- TipoEventoRoutingModule&#45;&gt;TipoEventoModule -->
<g id="edge2" class="edge">
<title>TipoEventoRoutingModule&#45;&gt;TipoEventoModule</title>
<path fill="none" stroke="#000000" d="M518.5242,-104C511.4947,-104 507.0183,-104 507.0183,-104 507.0183,-104 507.0183,-140.8939 507.0183,-140.8939"/>
<polygon fill="#000000" stroke="#000000" points="503.5183,-140.8938 507.0183,-150.8939 510.5183,-140.8939 503.5183,-140.8938"/>
</g>
<!-- SharedModule -->
<g id="node3" class="node">
<title>SharedModule</title>
<polygon fill="#8dd3c7" stroke="#000000" points="500.4231,-122 497.4231,-126 476.4231,-126 473.4231,-122 401.5769,-122 401.5769,-86 500.4231,-86 500.4231,-122"/>
<text text-anchor="middle" x="451" y="-99.8" font-family="Times,serif" font-size="14.00" fill="#000000">SharedModule</text>
</g>
<!-- SharedModule&#45;&gt;TipoEventoModule -->
<g id="edge3" class="edge">
<title>SharedModule&#45;&gt;TipoEventoModule</title>
<path fill="none" stroke="#000000" d="M451,-122.1061C451,-122.1061 451,-140.991 451,-140.991"/>
<polygon fill="#000000" stroke="#000000" points="447.5001,-140.9909 451,-150.991 454.5001,-140.991 447.5001,-140.9909"/>
</g>
<!-- CrudTipoEventoComponent  -->
<g id="node5" class="node">
<title>CrudTipoEventoComponent </title>
<polygon fill="#fb8072" stroke="#000000" points="540.4306,-252 361.5694,-252 361.5694,-216 540.4306,-216 540.4306,-252"/>
<text text-anchor="middle" x="451" y="-229.8" font-family="Times,serif" font-size="14.00" fill="#000000">CrudTipoEventoComponent </text>
</g>
<!-- TipoEventoModule&#45;&gt;CrudTipoEventoComponent  -->
<g id="edge4" class="edge">
<title>TipoEventoModule&#45;&gt;CrudTipoEventoComponent </title>
<path fill="none" stroke="#000000" stroke-dasharray="5,2" d="M451,-187.1061C451,-187.1061 451,-205.991 451,-205.991"/>
<polygon fill="#000000" stroke="#000000" points="447.5001,-205.9909 451,-215.991 454.5001,-205.991 447.5001,-205.9909"/>
</g>
<!-- EventoService -->
<g id="node6" class="node">
<title>EventoService</title>
<ellipse fill="#fdb462" stroke="#000000" cx="311" cy="-104" rx="67.1946" ry="18"/>
<text text-anchor="middle" x="311" y="-99.8" font-family="Times,serif" font-size="14.00" fill="#000000">EventoService</text>
</g>
<!-- EventoService&#45;&gt;TipoEventoModule -->
<g id="edge5" class="edge">
<title>EventoService&#45;&gt;TipoEventoModule</title>
<path fill="none" stroke="#000000" d="M378.3897,-104C388.1529,-104 394.9818,-104 394.9818,-104 394.9818,-104 394.9818,-140.8939 394.9818,-140.8939"/>
<polygon fill="#000000" stroke="#000000" points="391.4818,-140.8938 394.9818,-150.8939 398.4818,-140.8939 391.4818,-140.8938"/>
</g>
<!-- ProgramaOikosService -->
<g id="node7" class="node">
<title>ProgramaOikosService</title>
<ellipse fill="#fdb462" stroke="#000000" cx="125" cy="-104" rx="100.6998" ry="18"/>
<text text-anchor="middle" x="125" y="-99.8" font-family="Times,serif" font-size="14.00" fill="#000000">ProgramaOikosService</text>
</g>
<!-- ProgramaOikosService&#45;&gt;TipoEventoModule -->
<g id="edge6" class="edge">
<title>ProgramaOikosService&#45;&gt;TipoEventoModule</title>
<path fill="none" stroke="#000000" d="M125,-122.1061C125,-141.3391 125,-169 125,-169 125,-169 378.1439,-169 378.1439,-169"/>
<polygon fill="#000000" stroke="#000000" points="378.144,-172.5001 388.1439,-169 378.1439,-165.5001 378.144,-172.5001"/>
</g>
</g>
</svg>
