<?xml version="1.0" encoding="UTF-8" standalone="no"?>
<!DOCTYPE svg PUBLIC "-//W3C//DTD SVG 1.1//EN"
 "http://www.w3.org/Graphics/SVG/1.1/DTD/svg11.dtd">
<!-- Generated by graphviz version 2.40.1 (20161225.0304)
 -->
<!-- Title: dependencies Pages: 1 -->
<svg width="586pt" height="284pt"
 viewBox="0.00 0.00 586.00 284.00" xmlns="http://www.w3.org/2000/svg" xmlns:xlink="http://www.w3.org/1999/xlink">
<g id="graph0" class="graph" transform="scale(1 1) rotate(0) translate(4 280)">
<title>dependencies</title>
<polygon fill="#ffffff" stroke="transparent" points="-4,4 -4,-280 582,-280 582,4 -4,4"/>
<text text-anchor="start" x="268.0091" y="-42.4" font-family="sans-serif" font-weight="bold" font-size="14.00" fill="#000000">Legend</text>
<polygon fill="#ffffb3" stroke="transparent" points="55,-10 55,-30 75,-30 75,-10 55,-10"/>
<text text-anchor="start" x="78.629" y="-15.4" font-family="sans-serif" font-size="14.00" fill="#000000"> &#160;Declarations</text>
<polygon fill="#8dd3c7" stroke="transparent" points="168,-10 168,-30 188,-30 188,-10 168,-10"/>
<text text-anchor="start" x="191.7251" y="-15.4" font-family="sans-serif" font-size="14.00" fill="#000000"> &#160;Module</text>
<polygon fill="#80b1d3" stroke="transparent" points="254,-10 254,-30 274,-30 274,-10 254,-10"/>
<text text-anchor="start" x="277.7812" y="-15.4" font-family="sans-serif" font-size="14.00" fill="#000000"> &#160;Bootstrap</text>
<polygon fill="#fdb462" stroke="transparent" points="351,-10 351,-30 371,-30 371,-10 351,-10"/>
<text text-anchor="start" x="374.6732" y="-15.4" font-family="sans-serif" font-size="14.00" fill="#000000"> &#160;Providers</text>
<polygon fill="#fb8072" stroke="transparent" points="447,-10 447,-30 467,-30 467,-10 447,-10"/>
<text text-anchor="start" x="470.7258" y="-15.4" font-family="sans-serif" font-size="14.00" fill="#000000"> &#160;Exports</text>
<g id="clust1" class="cluster">
<title>cluster_TipoEnteModule</title>
<polygon fill="none" stroke="#000000" stroke-dasharray="1,5" points="8,-70 8,-268 570,-268 570,-70 8,-70"/>
</g>
<g id="clust3" class="cluster">
<title>cluster_TipoEnteModule_imports</title>
<polygon fill="none" stroke="#000000" points="156,-78 156,-130 562,-130 562,-78 156,-78"/>
</g>
<g id="clust4" class="cluster">
<title>cluster_TipoEnteModule_exports</title>
<polygon fill="none" stroke="#000000" points="196,-208 196,-260 376,-260 376,-208 196,-208"/>
</g>
<g id="clust6" class="cluster">
<title>cluster_TipoEnteModule_providers</title>
<polygon fill="none" stroke="#000000" points="16,-78 16,-130 148,-130 148,-78 16,-78"/>
</g>
<!-- ThemeModule -->
<g id="node1" class="node">
<title>ThemeModule</title>
<polygon fill="#8dd3c7" stroke="#000000" points="554.4231,-122 551.4231,-126 530.4231,-126 527.4231,-122 455.5769,-122 455.5769,-86 554.4231,-86 554.4231,-122"/>
<text text-anchor="middle" x="505" y="-99.8" font-family="Times,serif" font-size="14.00" fill="#000000">ThemeModule</text>
</g>
<!-- TipoEnteModule -->
<g id="node4" class="node">
<title>TipoEnteModule</title>
<polygon fill="#8dd3c7" stroke="#000000" points="341.6513,-187 338.6513,-191 317.6513,-191 314.6513,-187 230.3487,-187 230.3487,-151 341.6513,-151 341.6513,-187"/>
<text text-anchor="middle" x="286" y="-164.8" font-family="Times,serif" font-size="14.00" fill="#000000">TipoEnteModule</text>
</g>
<!-- ThemeModule&#45;&gt;TipoEnteModule -->
<g id="edge1" class="edge">
<title>ThemeModule&#45;&gt;TipoEnteModule</title>
<path fill="none" stroke="#000000" d="M505,-122.1061C505,-141.3391 505,-169 505,-169 505,-169 351.8296,-169 351.8296,-169"/>
<polygon fill="#000000" stroke="#000000" points="351.8296,-165.5001 341.8296,-169 351.8296,-172.5001 351.8296,-165.5001"/>
</g>
<!-- TipoEnteRoutingModule -->
<g id="node2" class="node">
<title>TipoEnteRoutingModule</title>
<polygon fill="#8dd3c7" stroke="#000000" points="437.2688,-122 434.2688,-126 413.2688,-126 410.2688,-122 280.7312,-122 280.7312,-86 437.2688,-86 437.2688,-122"/>
<text text-anchor="middle" x="359" y="-99.8" font-family="Times,serif" font-size="14.00" fill="#000000">TipoEnteRoutingModule</text>
</g>
<!-- TipoEnteRoutingModule&#45;&gt;TipoEnteModule -->
<g id="edge2" class="edge">
<title>TipoEnteRoutingModule&#45;&gt;TipoEnteModule</title>
<path fill="none" stroke="#000000" d="M311.2206,-122.1061C311.2206,-122.1061 311.2206,-140.991 311.2206,-140.991"/>
<polygon fill="#000000" stroke="#000000" points="307.7206,-140.9909 311.2206,-150.991 314.7206,-140.991 307.7206,-140.9909"/>
</g>
<!-- SharedModule -->
<g id="node3" class="node">
<title>SharedModule</title>
<polygon fill="#8dd3c7" stroke="#000000" points="262.4231,-122 259.4231,-126 238.4231,-126 235.4231,-122 163.5769,-122 163.5769,-86 262.4231,-86 262.4231,-122"/>
<text text-anchor="middle" x="213" y="-99.8" font-family="Times,serif" font-size="14.00" fill="#000000">SharedModule</text>
</g>
<!-- SharedModule&#45;&gt;TipoEnteModule -->
<g id="edge3" class="edge">
<title>SharedModule&#45;&gt;TipoEnteModule</title>
<path fill="none" stroke="#000000" d="M246.1929,-122.1061C246.1929,-122.1061 246.1929,-140.991 246.1929,-140.991"/>
<polygon fill="#000000" stroke="#000000" points="242.6929,-140.9909 246.1929,-150.991 249.6929,-140.991 242.6929,-140.9909"/>
</g>
<!-- CrudTipoEnteComponent  -->
<g id="node5" class="node">
<title>CrudTipoEnteComponent </title>
<polygon fill="#fb8072" stroke="#000000" points="368.4306,-252 203.5694,-252 203.5694,-216 368.4306,-216 368.4306,-252"/>
<text text-anchor="middle" x="286" y="-229.8" font-family="Times,serif" font-size="14.00" fill="#000000">CrudTipoEnteComponent </text>
</g>
<!-- TipoEnteModule&#45;&gt;CrudTipoEnteComponent  -->
<g id="edge4" class="edge">
<title>TipoEnteModule&#45;&gt;CrudTipoEnteComponent </title>
<path fill="none" stroke="#000000" stroke-dasharray="5,2" d="M286,-187.1061C286,-187.1061 286,-205.991 286,-205.991"/>
<polygon fill="#000000" stroke="#000000" points="282.5001,-205.9909 286,-215.991 289.5001,-205.991 282.5001,-205.9909"/>
</g>
<!-- EnteService -->
<g id="node6" class="node">
<title>EnteService</title>
<ellipse fill="#fdb462" stroke="#000000" cx="82" cy="-104" rx="57.881" ry="18"/>
<text text-anchor="middle" x="82" y="-99.8" font-family="Times,serif" font-size="14.00" fill="#000000">EnteService</text>
</g>
<!-- EnteService&#45;&gt;TipoEnteModule -->
<g id="edge5" class="edge">
<title>EnteService&#45;&gt;TipoEnteModule</title>
<path fill="none" stroke="#000000" d="M82,-122.1061C82,-141.3391 82,-169 82,-169 82,-169 220.2561,-169 220.2561,-169"/>
<polygon fill="#000000" stroke="#000000" points="220.2561,-172.5001 230.2561,-169 220.2561,-165.5001 220.2561,-172.5001"/>
</g>
</g>
</svg>
