<?xml version="1.0" encoding="UTF-8" standalone="no"?>
<!DOCTYPE svg PUBLIC "-//W3C//DTD SVG 1.1//EN"
 "http://www.w3.org/Graphics/SVG/1.1/DTD/svg11.dtd">
<!-- Generated by graphviz version 2.40.1 (20161225.0304)
 -->
<!-- Title: dependencies Pages: 1 -->
<svg width="672pt" height="284pt"
 viewBox="0.00 0.00 672.00 284.00" xmlns="http://www.w3.org/2000/svg" xmlns:xlink="http://www.w3.org/1999/xlink">
<g id="graph0" class="graph" transform="scale(1 1) rotate(0) translate(4 280)">
<title>dependencies</title>
<polygon fill="#ffffff" stroke="transparent" points="-4,4 -4,-280 668,-280 668,4 -4,4"/>
<text text-anchor="start" x="311.0091" y="-42.4" font-family="sans-serif" font-weight="bold" font-size="14.00" fill="#000000">Legend</text>
<polygon fill="#ffffb3" stroke="transparent" points="98,-10 98,-30 118,-30 118,-10 98,-10"/>
<text text-anchor="start" x="121.629" y="-15.4" font-family="sans-serif" font-size="14.00" fill="#000000"> &#160;Declarations</text>
<polygon fill="#8dd3c7" stroke="transparent" points="211,-10 211,-30 231,-30 231,-10 211,-10"/>
<text text-anchor="start" x="234.7251" y="-15.4" font-family="sans-serif" font-size="14.00" fill="#000000"> &#160;Module</text>
<polygon fill="#80b1d3" stroke="transparent" points="297,-10 297,-30 317,-30 317,-10 297,-10"/>
<text text-anchor="start" x="320.7812" y="-15.4" font-family="sans-serif" font-size="14.00" fill="#000000"> &#160;Bootstrap</text>
<polygon fill="#fdb462" stroke="transparent" points="394,-10 394,-30 414,-30 414,-10 394,-10"/>
<text text-anchor="start" x="417.6732" y="-15.4" font-family="sans-serif" font-size="14.00" fill="#000000"> &#160;Providers</text>
<polygon fill="#fb8072" stroke="transparent" points="490,-10 490,-30 510,-30 510,-10 490,-10"/>
<text text-anchor="start" x="513.7258" y="-15.4" font-family="sans-serif" font-size="14.00" fill="#000000"> &#160;Exports</text>
<g id="clust1" class="cluster">
<title>cluster_TipoInscripcionModule</title>
<polygon fill="none" stroke="#000000" stroke-dasharray="1,5" points="8,-70 8,-268 656,-268 656,-70 8,-70"/>
</g>
<g id="clust3" class="cluster">
<title>cluster_TipoInscripcionModule_imports</title>
<polygon fill="none" stroke="#000000" points="206,-78 206,-130 648,-130 648,-78 206,-78"/>
</g>
<g id="clust4" class="cluster">
<title>cluster_TipoInscripcionModule_exports</title>
<polygon fill="none" stroke="#000000" points="236,-208 236,-260 454,-260 454,-208 236,-208"/>
</g>
<g id="clust6" class="cluster">
<title>cluster_TipoInscripcionModule_providers</title>
<polygon fill="none" stroke="#000000" points="16,-78 16,-130 198,-130 198,-78 16,-78"/>
</g>
<!-- ThemeModule -->
<g id="node1" class="node">
<title>ThemeModule</title>
<polygon fill="#8dd3c7" stroke="#000000" points="640.4231,-122 637.4231,-126 616.4231,-126 613.4231,-122 541.5769,-122 541.5769,-86 640.4231,-86 640.4231,-122"/>
<text text-anchor="middle" x="591" y="-99.8" font-family="Times,serif" font-size="14.00" fill="#000000">ThemeModule</text>
</g>
<!-- TipoInscripcionModule -->
<g id="node4" class="node">
<title>TipoInscripcionModule</title>
<polygon fill="#8dd3c7" stroke="#000000" points="419.4692,-187 416.4692,-191 395.4692,-191 392.4692,-187 270.5308,-187 270.5308,-151 419.4692,-151 419.4692,-187"/>
<text text-anchor="middle" x="345" y="-164.8" font-family="Times,serif" font-size="14.00" fill="#000000">TipoInscripcionModule</text>
</g>
<!-- ThemeModule&#45;&gt;TipoInscripcionModule -->
<g id="edge1" class="edge">
<title>ThemeModule&#45;&gt;TipoInscripcionModule</title>
<path fill="none" stroke="#000000" d="M591,-122.1061C591,-141.3391 591,-169 591,-169 591,-169 429.4757,-169 429.4757,-169"/>
<polygon fill="#000000" stroke="#000000" points="429.4757,-165.5001 419.4757,-169 429.4757,-172.5001 429.4757,-165.5001"/>
</g>
<!-- TipoInscripcionRoutingModule -->
<g id="node2" class="node">
<title>TipoInscripcionRoutingModule</title>
<polygon fill="#8dd3c7" stroke="#000000" points="524.087,-122 521.087,-126 500.087,-126 497.087,-122 329.913,-122 329.913,-86 524.087,-86 524.087,-122"/>
<text text-anchor="middle" x="427" y="-99.8" font-family="Times,serif" font-size="14.00" fill="#000000">TipoInscripcionRoutingModule</text>
</g>
<!-- TipoInscripcionRoutingModule&#45;&gt;TipoInscripcionModule -->
<g id="edge2" class="edge">
<title>TipoInscripcionRoutingModule&#45;&gt;TipoInscripcionModule</title>
<path fill="none" stroke="#000000" d="M374.7206,-122.1061C374.7206,-122.1061 374.7206,-140.991 374.7206,-140.991"/>
<polygon fill="#000000" stroke="#000000" points="371.2206,-140.9909 374.7206,-150.991 378.2206,-140.991 371.2206,-140.9909"/>
</g>
<!-- SharedModule -->
<g id="node3" class="node">
<title>SharedModule</title>
<polygon fill="#8dd3c7" stroke="#000000" points="312.4231,-122 309.4231,-126 288.4231,-126 285.4231,-122 213.5769,-122 213.5769,-86 312.4231,-86 312.4231,-122"/>
<text text-anchor="middle" x="263" y="-99.8" font-family="Times,serif" font-size="14.00" fill="#000000">SharedModule</text>
</g>
<!-- SharedModule&#45;&gt;TipoInscripcionModule -->
<g id="edge3" class="edge">
<title>SharedModule&#45;&gt;TipoInscripcionModule</title>
<path fill="none" stroke="#000000" d="M291.3633,-122.1061C291.3633,-122.1061 291.3633,-140.991 291.3633,-140.991"/>
<polygon fill="#000000" stroke="#000000" points="287.8633,-140.9909 291.3633,-150.991 294.8633,-140.991 287.8633,-140.9909"/>
</g>
<!-- CrudTipoInscripcionComponent  -->
<g id="node5" class="node">
<title>CrudTipoInscripcionComponent </title>
<polygon fill="#fb8072" stroke="#000000" points="446.2492,-252 243.7508,-252 243.7508,-216 446.2492,-216 446.2492,-252"/>
<text text-anchor="middle" x="345" y="-229.8" font-family="Times,serif" font-size="14.00" fill="#000000">CrudTipoInscripcionComponent </text>
</g>
<!-- TipoInscripcionModule&#45;&gt;CrudTipoInscripcionComponent  -->
<g id="edge4" class="edge">
<title>TipoInscripcionModule&#45;&gt;CrudTipoInscripcionComponent </title>
<path fill="none" stroke="#000000" stroke-dasharray="5,2" d="M345,-187.1061C345,-187.1061 345,-205.991 345,-205.991"/>
<polygon fill="#000000" stroke="#000000" points="341.5001,-205.9909 345,-215.991 348.5001,-205.991 341.5001,-205.9909"/>
</g>
<!-- InscripcionService -->
<g id="node6" class="node">
<title>InscripcionService</title>
<ellipse fill="#fdb462" stroke="#000000" cx="107" cy="-104" rx="83.3635" ry="18"/>
<text text-anchor="middle" x="107" y="-99.8" font-family="Times,serif" font-size="14.00" fill="#000000">InscripcionService</text>
</g>
<!-- InscripcionService&#45;&gt;TipoInscripcionModule -->
<g id="edge5" class="edge">
<title>InscripcionService&#45;&gt;TipoInscripcionModule</title>
<path fill="none" stroke="#000000" d="M107,-122.1061C107,-141.3391 107,-169 107,-169 107,-169 260.3483,-169 260.3483,-169"/>
<polygon fill="#000000" stroke="#000000" points="260.3483,-172.5001 270.3483,-169 260.3483,-165.5001 260.3483,-172.5001"/>
</g>
</g>
</svg>
