<?xml version="1.0" encoding="UTF-8" standalone="no"?>
<!DOCTYPE svg PUBLIC "-//W3C//DTD SVG 1.1//EN"
 "http://www.w3.org/Graphics/SVG/1.1/DTD/svg11.dtd">
<!-- Generated by graphviz version 2.40.1 (20161225.0304)
 -->
<!-- Title: dependencies Pages: 1 -->
<svg width="696pt" height="284pt"
 viewBox="0.00 0.00 696.00 284.00" xmlns="http://www.w3.org/2000/svg" xmlns:xlink="http://www.w3.org/1999/xlink">
<g id="graph0" class="graph" transform="scale(1 1) rotate(0) translate(4 280)">
<title>dependencies</title>
<polygon fill="#ffffff" stroke="transparent" points="-4,4 -4,-280 692,-280 692,4 -4,4"/>
<text text-anchor="start" x="323.0091" y="-42.4" font-family="sans-serif" font-weight="bold" font-size="14.00" fill="#000000">Legend</text>
<polygon fill="#ffffb3" stroke="transparent" points="110,-10 110,-30 130,-30 130,-10 110,-10"/>
<text text-anchor="start" x="133.629" y="-15.4" font-family="sans-serif" font-size="14.00" fill="#000000"> &#160;Declarations</text>
<polygon fill="#8dd3c7" stroke="transparent" points="223,-10 223,-30 243,-30 243,-10 223,-10"/>
<text text-anchor="start" x="246.7251" y="-15.4" font-family="sans-serif" font-size="14.00" fill="#000000"> &#160;Module</text>
<polygon fill="#80b1d3" stroke="transparent" points="309,-10 309,-30 329,-30 329,-10 309,-10"/>
<text text-anchor="start" x="332.7812" y="-15.4" font-family="sans-serif" font-size="14.00" fill="#000000"> &#160;Bootstrap</text>
<polygon fill="#fdb462" stroke="transparent" points="406,-10 406,-30 426,-30 426,-10 406,-10"/>
<text text-anchor="start" x="429.6732" y="-15.4" font-family="sans-serif" font-size="14.00" fill="#000000"> &#160;Providers</text>
<polygon fill="#fb8072" stroke="transparent" points="502,-10 502,-30 522,-30 522,-10 502,-10"/>
<text text-anchor="start" x="525.7258" y="-15.4" font-family="sans-serif" font-size="14.00" fill="#000000"> &#160;Exports</text>
<g id="clust1" class="cluster">
<title>cluster_SubtipoDocumentoModule</title>
<polygon fill="none" stroke="#000000" stroke-dasharray="1,5" points="8,-70 8,-268 680,-268 680,-70 8,-70"/>
</g>
<g id="clust3" class="cluster">
<title>cluster_SubtipoDocumentoModule_imports</title>
<polygon fill="none" stroke="#000000" points="210,-78 210,-130 672,-130 672,-78 210,-78"/>
</g>
<g id="clust4" class="cluster">
<title>cluster_SubtipoDocumentoModule_exports</title>
<polygon fill="none" stroke="#000000" points="235,-208 235,-260 473,-260 473,-208 235,-208"/>
</g>
<g id="clust6" class="cluster">
<title>cluster_SubtipoDocumentoModule_providers</title>
<polygon fill="none" stroke="#000000" points="16,-78 16,-130 202,-130 202,-78 16,-78"/>
</g>
<!-- ThemeModule -->
<g id="node1" class="node">
<title>ThemeModule</title>
<polygon fill="#8dd3c7" stroke="#000000" points="664.4231,-122 661.4231,-126 640.4231,-126 637.4231,-122 565.5769,-122 565.5769,-86 664.4231,-86 664.4231,-122"/>
<text text-anchor="middle" x="615" y="-99.8" font-family="Times,serif" font-size="14.00" fill="#000000">ThemeModule</text>
</g>
<!-- SubtipoDocumentoModule -->
<g id="node4" class="node">
<title>SubtipoDocumentoModule</title>
<polygon fill="#8dd3c7" stroke="#000000" points="438.4312,-187 435.4312,-191 414.4312,-191 411.4312,-187 269.5688,-187 269.5688,-151 438.4312,-151 438.4312,-187"/>
<text text-anchor="middle" x="354" y="-164.8" font-family="Times,serif" font-size="14.00" fill="#000000">SubtipoDocumentoModule</text>
</g>
<!-- ThemeModule&#45;&gt;SubtipoDocumentoModule -->
<g id="edge1" class="edge">
<title>ThemeModule&#45;&gt;SubtipoDocumentoModule</title>
<path fill="none" stroke="#000000" d="M615,-122.1061C615,-141.3391 615,-169 615,-169 615,-169 448.3788,-169 448.3788,-169"/>
<polygon fill="#000000" stroke="#000000" points="448.3788,-165.5001 438.3788,-169 448.3787,-172.5001 448.3788,-165.5001"/>
</g>
<!-- SubtipoDocumentoRoutingModule -->
<g id="node2" class="node">
<title>SubtipoDocumentoRoutingModule</title>
<polygon fill="#8dd3c7" stroke="#000000" points="547.5489,-122 544.5489,-126 523.5489,-126 520.5489,-122 334.4511,-122 334.4511,-86 547.5489,-86 547.5489,-122"/>
<text text-anchor="middle" x="441" y="-99.8" font-family="Times,serif" font-size="14.00" fill="#000000">SubtipoDocumentoRoutingModule</text>
</g>
<!-- SubtipoDocumentoRoutingModule&#45;&gt;SubtipoDocumentoModule -->
<g id="edge2" class="edge">
<title>SubtipoDocumentoRoutingModule&#45;&gt;SubtipoDocumentoModule</title>
<path fill="none" stroke="#000000" d="M386.2206,-122.1061C386.2206,-122.1061 386.2206,-140.991 386.2206,-140.991"/>
<polygon fill="#000000" stroke="#000000" points="382.7206,-140.9909 386.2206,-150.991 389.7206,-140.991 382.7206,-140.9909"/>
</g>
<!-- SharedModule -->
<g id="node3" class="node">
<title>SharedModule</title>
<polygon fill="#8dd3c7" stroke="#000000" points="316.4231,-122 313.4231,-126 292.4231,-126 289.4231,-122 217.5769,-122 217.5769,-86 316.4231,-86 316.4231,-122"/>
<text text-anchor="middle" x="267" y="-99.8" font-family="Times,serif" font-size="14.00" fill="#000000">SharedModule</text>
</g>
<!-- SharedModule&#45;&gt;SubtipoDocumentoModule -->
<g id="edge3" class="edge">
<title>SharedModule&#45;&gt;SubtipoDocumentoModule</title>
<path fill="none" stroke="#000000" d="M292.9979,-122.1061C292.9979,-122.1061 292.9979,-140.991 292.9979,-140.991"/>
<polygon fill="#000000" stroke="#000000" points="289.498,-140.9909 292.9979,-150.991 296.498,-140.991 289.498,-140.9909"/>
</g>
<!-- CrudSubtipoDocumentoComponent  -->
<g id="node5" class="node">
<title>CrudSubtipoDocumentoComponent </title>
<polygon fill="#fb8072" stroke="#000000" points="464.7106,-252 243.2894,-252 243.2894,-216 464.7106,-216 464.7106,-252"/>
<text text-anchor="middle" x="354" y="-229.8" font-family="Times,serif" font-size="14.00" fill="#000000">CrudSubtipoDocumentoComponent </text>
</g>
<!-- SubtipoDocumentoModule&#45;&gt;CrudSubtipoDocumentoComponent  -->
<g id="edge4" class="edge">
<title>SubtipoDocumentoModule&#45;&gt;CrudSubtipoDocumentoComponent </title>
<path fill="none" stroke="#000000" stroke-dasharray="5,2" d="M354,-187.1061C354,-187.1061 354,-205.991 354,-205.991"/>
<polygon fill="#000000" stroke="#000000" points="350.5001,-205.9909 354,-215.991 357.5001,-205.991 350.5001,-205.9909"/>
</g>
<!-- DocumentoService -->
<g id="node6" class="node">
<title>DocumentoService</title>
<ellipse fill="#fdb462" stroke="#000000" cx="109" cy="-104" rx="85.0928" ry="18"/>
<text text-anchor="middle" x="109" y="-99.8" font-family="Times,serif" font-size="14.00" fill="#000000">DocumentoService</text>
</g>
<!-- DocumentoService&#45;&gt;SubtipoDocumentoModule -->
<g id="edge5" class="edge">
<title>DocumentoService&#45;&gt;SubtipoDocumentoModule</title>
<path fill="none" stroke="#000000" d="M109,-122.1061C109,-141.3391 109,-169 109,-169 109,-169 259.6849,-169 259.6849,-169"/>
<polygon fill="#000000" stroke="#000000" points="259.6849,-172.5001 269.6849,-169 259.6849,-165.5001 259.6849,-172.5001"/>
</g>
</g>
</svg>
