<?xml version="1.0" encoding="UTF-8" standalone="no"?>
<!DOCTYPE svg PUBLIC "-//W3C//DTD SVG 1.1//EN"
 "http://www.w3.org/Graphics/SVG/1.1/DTD/svg11.dtd">
<!-- Generated by graphviz version 2.40.1 (20161225.0304)
 -->
<!-- Title: dependencies Pages: 1 -->
<svg width="832pt" height="284pt"
 viewBox="0.00 0.00 832.00 284.00" xmlns="http://www.w3.org/2000/svg" xmlns:xlink="http://www.w3.org/1999/xlink">
<g id="graph0" class="graph" transform="scale(1 1) rotate(0) translate(4 280)">
<title>dependencies</title>
<polygon fill="#ffffff" stroke="transparent" points="-4,4 -4,-280 828,-280 828,4 -4,4"/>
<text text-anchor="start" x="391.0091" y="-42.4" font-family="sans-serif" font-weight="bold" font-size="14.00" fill="#000000">Legend</text>
<polygon fill="#ffffb3" stroke="transparent" points="178,-10 178,-30 198,-30 198,-10 178,-10"/>
<text text-anchor="start" x="201.629" y="-15.4" font-family="sans-serif" font-size="14.00" fill="#000000"> &#160;Declarations</text>
<polygon fill="#8dd3c7" stroke="transparent" points="291,-10 291,-30 311,-30 311,-10 291,-10"/>
<text text-anchor="start" x="314.7251" y="-15.4" font-family="sans-serif" font-size="14.00" fill="#000000"> &#160;Module</text>
<polygon fill="#80b1d3" stroke="transparent" points="377,-10 377,-30 397,-30 397,-10 377,-10"/>
<text text-anchor="start" x="400.7812" y="-15.4" font-family="sans-serif" font-size="14.00" fill="#000000"> &#160;Bootstrap</text>
<polygon fill="#fdb462" stroke="transparent" points="474,-10 474,-30 494,-30 494,-10 474,-10"/>
<text text-anchor="start" x="497.6732" y="-15.4" font-family="sans-serif" font-size="14.00" fill="#000000"> &#160;Providers</text>
<polygon fill="#fb8072" stroke="transparent" points="570,-10 570,-30 590,-30 590,-10 570,-10"/>
<text text-anchor="start" x="593.7258" y="-15.4" font-family="sans-serif" font-size="14.00" fill="#000000"> &#160;Exports</text>
<g id="clust1" class="cluster">
<title>cluster_MetadatoSubtipoProduccionModule</title>
<polygon fill="none" stroke="#000000" stroke-dasharray="1,5" points="8,-70 8,-268 816,-268 816,-70 8,-70"/>
</g>
<g id="clust3" class="cluster">
<title>cluster_MetadatoSubtipoProduccionModule_imports</title>
<polygon fill="none" stroke="#000000" points="294,-78 294,-130 808,-130 808,-78 294,-78"/>
</g>
<g id="clust4" class="cluster">
<title>cluster_MetadatoSubtipoProduccionModule_exports</title>
<polygon fill="none" stroke="#000000" points="306,-208 306,-260 596,-260 596,-208 306,-208"/>
</g>
<g id="clust6" class="cluster">
<title>cluster_MetadatoSubtipoProduccionModule_providers</title>
<polygon fill="none" stroke="#000000" points="16,-78 16,-130 286,-130 286,-78 16,-78"/>
</g>
<!-- ThemeModule -->
<g id="node1" class="node">
<title>ThemeModule</title>
<polygon fill="#8dd3c7" stroke="#000000" points="800.4231,-122 797.4231,-126 776.4231,-126 773.4231,-122 701.5769,-122 701.5769,-86 800.4231,-86 800.4231,-122"/>
<text text-anchor="middle" x="751" y="-99.8" font-family="Times,serif" font-size="14.00" fill="#000000">ThemeModule</text>
</g>
<!-- MetadatoSubtipoProduccionModule -->
<g id="node4" class="node">
<title>MetadatoSubtipoProduccionModule</title>
<polygon fill="#8dd3c7" stroke="#000000" points="560.7463,-187 557.7463,-191 536.7463,-191 533.7463,-187 341.2537,-187 341.2537,-151 560.7463,-151 560.7463,-187"/>
<text text-anchor="middle" x="451" y="-164.8" font-family="Times,serif" font-size="14.00" fill="#000000">MetadatoSubtipoProduccionModule</text>
</g>
<!-- ThemeModule&#45;&gt;MetadatoSubtipoProduccionModule -->
<g id="edge1" class="edge">
<title>ThemeModule&#45;&gt;MetadatoSubtipoProduccionModule</title>
<path fill="none" stroke="#000000" d="M751,-122.1061C751,-141.3391 751,-169 751,-169 751,-169 571.0054,-169 571.0054,-169"/>
<polygon fill="#000000" stroke="#000000" points="571.0055,-165.5001 561.0054,-169 571.0054,-172.5001 571.0055,-165.5001"/>
</g>
<!-- MetadatoSubtipoProduccionRoutingModule -->
<g id="node2" class="node">
<title>MetadatoSubtipoProduccionRoutingModule</title>
<polygon fill="#8dd3c7" stroke="#000000" points="683.364,-122 680.364,-126 659.364,-126 656.364,-122 418.636,-122 418.636,-86 683.364,-86 683.364,-122"/>
<text text-anchor="middle" x="551" y="-99.8" font-family="Times,serif" font-size="14.00" fill="#000000">MetadatoSubtipoProduccionRoutingModule</text>
</g>
<!-- MetadatoSubtipoProduccionRoutingModule&#45;&gt;MetadatoSubtipoProduccionModule -->
<g id="edge2" class="edge">
<title>MetadatoSubtipoProduccionRoutingModule&#45;&gt;MetadatoSubtipoProduccionModule</title>
<path fill="none" stroke="#000000" d="M489.7206,-122.1061C489.7206,-122.1061 489.7206,-140.991 489.7206,-140.991"/>
<polygon fill="#000000" stroke="#000000" points="486.2206,-140.9909 489.7206,-150.991 493.2206,-140.991 486.2206,-140.9909"/>
</g>
<!-- SharedModule -->
<g id="node3" class="node">
<title>SharedModule</title>
<polygon fill="#8dd3c7" stroke="#000000" points="400.4231,-122 397.4231,-126 376.4231,-126 373.4231,-122 301.5769,-122 301.5769,-86 400.4231,-86 400.4231,-122"/>
<text text-anchor="middle" x="351" y="-99.8" font-family="Times,serif" font-size="14.00" fill="#000000">SharedModule</text>
</g>
<!-- SharedModule&#45;&gt;MetadatoSubtipoProduccionModule -->
<g id="edge3" class="edge">
<title>SharedModule&#45;&gt;MetadatoSubtipoProduccionModule</title>
<path fill="none" stroke="#000000" d="M370.669,-122.1061C370.669,-122.1061 370.669,-140.991 370.669,-140.991"/>
<polygon fill="#000000" stroke="#000000" points="367.1691,-140.9909 370.669,-150.991 374.1691,-140.991 367.1691,-140.9909"/>
</g>
<!-- CrudMetadatoSubtipoProduccionComponent  -->
<g id="node5" class="node">
<title>CrudMetadatoSubtipoProduccionComponent </title>
<polygon fill="#fb8072" stroke="#000000" points="587.526,-252 314.474,-252 314.474,-216 587.526,-216 587.526,-252"/>
<text text-anchor="middle" x="451" y="-229.8" font-family="Times,serif" font-size="14.00" fill="#000000">CrudMetadatoSubtipoProduccionComponent </text>
</g>
<!-- MetadatoSubtipoProduccionModule&#45;&gt;CrudMetadatoSubtipoProduccionComponent  -->
<g id="edge4" class="edge">
<title>MetadatoSubtipoProduccionModule&#45;&gt;CrudMetadatoSubtipoProduccionComponent </title>
<path fill="none" stroke="#000000" stroke-dasharray="5,2" d="M451,-187.1061C451,-187.1061 451,-205.991 451,-205.991"/>
<polygon fill="#000000" stroke="#000000" points="447.5001,-205.9909 451,-215.991 454.5001,-205.991 447.5001,-205.9909"/>
</g>
<!-- ProduccionAcademicaService -->
<g id="node6" class="node">
<title>ProduccionAcademicaService</title>
<ellipse fill="#fdb462" stroke="#000000" cx="151" cy="-104" rx="127.3074" ry="18"/>
<text text-anchor="middle" x="151" y="-99.8" font-family="Times,serif" font-size="14.00" fill="#000000">ProduccionAcademicaService</text>
</g>
<!-- ProduccionAcademicaService&#45;&gt;MetadatoSubtipoProduccionModule -->
<g id="edge5" class="edge">
<title>ProduccionAcademicaService&#45;&gt;MetadatoSubtipoProduccionModule</title>
<path fill="none" stroke="#000000" d="M151,-122.1061C151,-141.3391 151,-169 151,-169 151,-169 330.9946,-169 330.9946,-169"/>
<polygon fill="#000000" stroke="#000000" points="330.9946,-172.5001 340.9946,-169 330.9945,-165.5001 330.9946,-172.5001"/>
</g>
</g>
</svg>
