<?xml version="1.0" encoding="UTF-8" standalone="no"?>
<!DOCTYPE svg PUBLIC "-//W3C//DTD SVG 1.1//EN"
 "http://www.w3.org/Graphics/SVG/1.1/DTD/svg11.dtd">
<!-- Generated by graphviz version 2.40.1 (20161225.0304)
 -->
<!-- Title: dependencies Pages: 1 -->
<svg width="684pt" height="284pt"
 viewBox="0.00 0.00 684.00 284.00" xmlns="http://www.w3.org/2000/svg" xmlns:xlink="http://www.w3.org/1999/xlink">
<g id="graph0" class="graph" transform="scale(1 1) rotate(0) translate(4 280)">
<title>dependencies</title>
<polygon fill="#ffffff" stroke="transparent" points="-4,4 -4,-280 680,-280 680,4 -4,4"/>
<text text-anchor="start" x="317.0091" y="-42.4" font-family="sans-serif" font-weight="bold" font-size="14.00" fill="#000000">Legend</text>
<polygon fill="#ffffb3" stroke="transparent" points="104,-10 104,-30 124,-30 124,-10 104,-10"/>
<text text-anchor="start" x="127.629" y="-15.4" font-family="sans-serif" font-size="14.00" fill="#000000"> &#160;Declarations</text>
<polygon fill="#8dd3c7" stroke="transparent" points="217,-10 217,-30 237,-30 237,-10 217,-10"/>
<text text-anchor="start" x="240.7251" y="-15.4" font-family="sans-serif" font-size="14.00" fill="#000000"> &#160;Module</text>
<polygon fill="#80b1d3" stroke="transparent" points="303,-10 303,-30 323,-30 323,-10 303,-10"/>
<text text-anchor="start" x="326.7812" y="-15.4" font-family="sans-serif" font-size="14.00" fill="#000000"> &#160;Bootstrap</text>
<polygon fill="#fdb462" stroke="transparent" points="400,-10 400,-30 420,-30 420,-10 400,-10"/>
<text text-anchor="start" x="423.6732" y="-15.4" font-family="sans-serif" font-size="14.00" fill="#000000"> &#160;Providers</text>
<polygon fill="#fb8072" stroke="transparent" points="496,-10 496,-30 516,-30 516,-10 496,-10"/>
<text text-anchor="start" x="519.7258" y="-15.4" font-family="sans-serif" font-size="14.00" fill="#000000"> &#160;Exports</text>
<g id="clust1" class="cluster">
<title>cluster_EstadoInscripcionModule</title>
<polygon fill="none" stroke="#000000" stroke-dasharray="1,5" points="8,-70 8,-268 668,-268 668,-70 8,-70"/>
</g>
<g id="clust3" class="cluster">
<title>cluster_EstadoInscripcionModule_imports</title>
<polygon fill="none" stroke="#000000" points="206,-78 206,-130 660,-130 660,-78 206,-78"/>
</g>
<g id="clust4" class="cluster">
<title>cluster_EstadoInscripcionModule_exports</title>
<polygon fill="none" stroke="#000000" points="233,-208 233,-260 463,-260 463,-208 233,-208"/>
</g>
<g id="clust6" class="cluster">
<title>cluster_EstadoInscripcionModule_providers</title>
<polygon fill="none" stroke="#000000" points="16,-78 16,-130 198,-130 198,-78 16,-78"/>
</g>
<!-- ThemeModule -->
<g id="node1" class="node">
<title>ThemeModule</title>
<polygon fill="#8dd3c7" stroke="#000000" points="652.4231,-122 649.4231,-126 628.4231,-126 625.4231,-122 553.5769,-122 553.5769,-86 652.4231,-86 652.4231,-122"/>
<text text-anchor="middle" x="603" y="-99.8" font-family="Times,serif" font-size="14.00" fill="#000000">ThemeModule</text>
</g>
<!-- EstadoInscripcionModule -->
<g id="node4" class="node">
<title>EstadoInscripcionModule</title>
<polygon fill="#8dd3c7" stroke="#000000" points="428.1288,-187 425.1288,-191 404.1288,-191 401.1288,-187 267.8712,-187 267.8712,-151 428.1288,-151 428.1288,-187"/>
<text text-anchor="middle" x="348" y="-164.8" font-family="Times,serif" font-size="14.00" fill="#000000">EstadoInscripcionModule</text>
</g>
<!-- ThemeModule&#45;&gt;EstadoInscripcionModule -->
<g id="edge1" class="edge">
<title>ThemeModule&#45;&gt;EstadoInscripcionModule</title>
<path fill="none" stroke="#000000" d="M603,-122.1061C603,-141.3391 603,-169 603,-169 603,-169 438.3336,-169 438.3336,-169"/>
<polygon fill="#000000" stroke="#000000" points="438.3336,-165.5001 428.3336,-169 438.3336,-172.5001 438.3336,-165.5001"/>
</g>
<!-- EstadoInscripcionRoutingModule -->
<g id="node2" class="node">
<title>EstadoInscripcionRoutingModule</title>
<polygon fill="#8dd3c7" stroke="#000000" points="535.7464,-122 532.7464,-126 511.7464,-126 508.7464,-122 330.2536,-122 330.2536,-86 535.7464,-86 535.7464,-122"/>
<text text-anchor="middle" x="433" y="-99.8" font-family="Times,serif" font-size="14.00" fill="#000000">EstadoInscripcionRoutingModule</text>
</g>
<!-- EstadoInscripcionRoutingModule&#45;&gt;EstadoInscripcionModule -->
<g id="edge2" class="edge">
<title>EstadoInscripcionRoutingModule&#45;&gt;EstadoInscripcionModule</title>
<path fill="none" stroke="#000000" d="M379.2206,-122.1061C379.2206,-122.1061 379.2206,-140.991 379.2206,-140.991"/>
<polygon fill="#000000" stroke="#000000" points="375.7206,-140.9909 379.2206,-150.991 382.7206,-140.991 375.7206,-140.9909"/>
</g>
<!-- SharedModule -->
<g id="node3" class="node">
<title>SharedModule</title>
<polygon fill="#8dd3c7" stroke="#000000" points="312.4231,-122 309.4231,-126 288.4231,-126 285.4231,-122 213.5769,-122 213.5769,-86 312.4231,-86 312.4231,-122"/>
<text text-anchor="middle" x="263" y="-99.8" font-family="Times,serif" font-size="14.00" fill="#000000">SharedModule</text>
</g>
<!-- SharedModule&#45;&gt;EstadoInscripcionModule -->
<g id="edge3" class="edge">
<title>SharedModule&#45;&gt;EstadoInscripcionModule</title>
<path fill="none" stroke="#000000" d="M289.9485,-122.1061C289.9485,-122.1061 289.9485,-140.991 289.9485,-140.991"/>
<polygon fill="#000000" stroke="#000000" points="286.4485,-140.9909 289.9485,-150.991 293.4485,-140.991 286.4485,-140.9909"/>
</g>
<!-- CrudEstadoInscripcionComponent  -->
<g id="node5" class="node">
<title>CrudEstadoInscripcionComponent </title>
<polygon fill="#fb8072" stroke="#000000" points="454.9082,-252 241.0918,-252 241.0918,-216 454.9082,-216 454.9082,-252"/>
<text text-anchor="middle" x="348" y="-229.8" font-family="Times,serif" font-size="14.00" fill="#000000">CrudEstadoInscripcionComponent </text>
</g>
<!-- EstadoInscripcionModule&#45;&gt;CrudEstadoInscripcionComponent  -->
<g id="edge4" class="edge">
<title>EstadoInscripcionModule&#45;&gt;CrudEstadoInscripcionComponent </title>
<path fill="none" stroke="#000000" stroke-dasharray="5,2" d="M348,-187.1061C348,-187.1061 348,-205.991 348,-205.991"/>
<polygon fill="#000000" stroke="#000000" points="344.5001,-205.9909 348,-215.991 351.5001,-205.991 344.5001,-205.9909"/>
</g>
<!-- InscripcionService -->
<g id="node6" class="node">
<title>InscripcionService</title>
<ellipse fill="#fdb462" stroke="#000000" cx="107" cy="-104" rx="83.3635" ry="18"/>
<text text-anchor="middle" x="107" y="-99.8" font-family="Times,serif" font-size="14.00" fill="#000000">InscripcionService</text>
</g>
<!-- InscripcionService&#45;&gt;EstadoInscripcionModule -->
<g id="edge5" class="edge">
<title>InscripcionService&#45;&gt;EstadoInscripcionModule</title>
<path fill="none" stroke="#000000" d="M107,-122.1061C107,-141.3391 107,-169 107,-169 107,-169 257.7505,-169 257.7505,-169"/>
<polygon fill="#000000" stroke="#000000" points="257.7505,-172.5001 267.7505,-169 257.7505,-165.5001 257.7505,-172.5001"/>
</g>
</g>
</svg>
