<?xml version="1.0" encoding="UTF-8" standalone="no"?>
<!DOCTYPE svg PUBLIC "-//W3C//DTD SVG 1.1//EN"
 "http://www.w3.org/Graphics/SVG/1.1/DTD/svg11.dtd">
<!-- Generated by graphviz version 2.40.1 (20161225.0304)
 -->
<!-- Title: dependencies Pages: 1 -->
<svg width="702pt" height="284pt"
 viewBox="0.00 0.00 702.00 284.00" xmlns="http://www.w3.org/2000/svg" xmlns:xlink="http://www.w3.org/1999/xlink">
<g id="graph0" class="graph" transform="scale(1 1) rotate(0) translate(4 280)">
<title>dependencies</title>
<polygon fill="#ffffff" stroke="transparent" points="-4,4 -4,-280 698,-280 698,4 -4,4"/>
<text text-anchor="start" x="326.0091" y="-42.4" font-family="sans-serif" font-weight="bold" font-size="14.00" fill="#000000">Legend</text>
<polygon fill="#ffffb3" stroke="transparent" points="113,-10 113,-30 133,-30 133,-10 113,-10"/>
<text text-anchor="start" x="136.629" y="-15.4" font-family="sans-serif" font-size="14.00" fill="#000000"> &#160;Declarations</text>
<polygon fill="#8dd3c7" stroke="transparent" points="226,-10 226,-30 246,-30 246,-10 226,-10"/>
<text text-anchor="start" x="249.7251" y="-15.4" font-family="sans-serif" font-size="14.00" fill="#000000"> &#160;Module</text>
<polygon fill="#80b1d3" stroke="transparent" points="312,-10 312,-30 332,-30 332,-10 312,-10"/>
<text text-anchor="start" x="335.7812" y="-15.4" font-family="sans-serif" font-size="14.00" fill="#000000"> &#160;Bootstrap</text>
<polygon fill="#fdb462" stroke="transparent" points="409,-10 409,-30 429,-30 429,-10 409,-10"/>
<text text-anchor="start" x="432.6732" y="-15.4" font-family="sans-serif" font-size="14.00" fill="#000000"> &#160;Providers</text>
<polygon fill="#fb8072" stroke="transparent" points="505,-10 505,-30 525,-30 525,-10 505,-10"/>
<text text-anchor="start" x="528.7258" y="-15.4" font-family="sans-serif" font-size="14.00" fill="#000000"> &#160;Exports</text>
<g id="clust1" class="cluster">
<title>cluster_EnfasisModule</title>
<polygon fill="none" stroke="#000000" stroke-dasharray="1,5" points="8,-70 8,-268 686,-268 686,-70 8,-70"/>
</g>
<g id="clust3" class="cluster">
<title>cluster_EnfasisModule_imports</title>
<polygon fill="none" stroke="#000000" points="284,-78 284,-130 678,-130 678,-78 284,-78"/>
</g>
<g id="clust4" class="cluster">
<title>cluster_EnfasisModule_exports</title>
<polygon fill="none" stroke="#000000" points="326,-208 326,-260 496,-260 496,-208 326,-208"/>
</g>
<g id="clust6" class="cluster">
<title>cluster_EnfasisModule_providers</title>
<polygon fill="none" stroke="#000000" points="16,-78 16,-130 276,-130 276,-78 16,-78"/>
</g>
<!-- ThemeModule -->
<g id="node1" class="node">
<title>ThemeModule</title>
<polygon fill="#8dd3c7" stroke="#000000" points="670.4231,-122 667.4231,-126 646.4231,-126 643.4231,-122 571.5769,-122 571.5769,-86 670.4231,-86 670.4231,-122"/>
<text text-anchor="middle" x="621" y="-99.8" font-family="Times,serif" font-size="14.00" fill="#000000">ThemeModule</text>
</g>
<!-- EnfasisModule -->
<g id="node4" class="node">
<title>EnfasisModule</title>
<polygon fill="#8dd3c7" stroke="#000000" points="461.2577,-187 458.2577,-191 437.2577,-191 434.2577,-187 360.7423,-187 360.7423,-151 461.2577,-151 461.2577,-187"/>
<text text-anchor="middle" x="411" y="-164.8" font-family="Times,serif" font-size="14.00" fill="#000000">EnfasisModule</text>
</g>
<!-- ThemeModule&#45;&gt;EnfasisModule -->
<g id="edge1" class="edge">
<title>ThemeModule&#45;&gt;EnfasisModule</title>
<path fill="none" stroke="#000000" d="M621,-122.1061C621,-141.3391 621,-169 621,-169 621,-169 471.3002,-169 471.3002,-169"/>
<polygon fill="#000000" stroke="#000000" points="471.3003,-165.5001 461.3002,-169 471.3002,-172.5001 471.3003,-165.5001"/>
</g>
<!-- EnfasisRoutingModule -->
<g id="node2" class="node">
<title>EnfasisRoutingModule</title>
<polygon fill="#8dd3c7" stroke="#000000" points="553.8753,-122 550.8753,-126 529.8753,-126 526.8753,-122 408.1247,-122 408.1247,-86 553.8753,-86 553.8753,-122"/>
<text text-anchor="middle" x="481" y="-99.8" font-family="Times,serif" font-size="14.00" fill="#000000">EnfasisRoutingModule</text>
</g>
<!-- EnfasisRoutingModule&#45;&gt;EnfasisModule -->
<g id="edge2" class="edge">
<title>EnfasisRoutingModule&#45;&gt;EnfasisModule</title>
<path fill="none" stroke="#000000" d="M434.7206,-122.1061C434.7206,-122.1061 434.7206,-140.991 434.7206,-140.991"/>
<polygon fill="#000000" stroke="#000000" points="431.2206,-140.9909 434.7206,-150.991 438.2206,-140.991 431.2206,-140.9909"/>
</g>
<!-- SharedModule -->
<g id="node3" class="node">
<title>SharedModule</title>
<polygon fill="#8dd3c7" stroke="#000000" points="390.4231,-122 387.4231,-126 366.4231,-126 363.4231,-122 291.5769,-122 291.5769,-86 390.4231,-86 390.4231,-122"/>
<text text-anchor="middle" x="341" y="-99.8" font-family="Times,serif" font-size="14.00" fill="#000000">SharedModule</text>
</g>
<!-- SharedModule&#45;&gt;EnfasisModule -->
<g id="edge3" class="edge">
<title>SharedModule&#45;&gt;EnfasisModule</title>
<path fill="none" stroke="#000000" d="M375.4162,-122.1061C375.4162,-122.1061 375.4162,-140.991 375.4162,-140.991"/>
<polygon fill="#000000" stroke="#000000" points="371.9163,-140.9909 375.4162,-150.991 378.9163,-140.991 371.9163,-140.9909"/>
</g>
<!-- CrudEnfasisComponent  -->
<g id="node5" class="node">
<title>CrudEnfasisComponent </title>
<polygon fill="#fb8072" stroke="#000000" points="488.0372,-252 333.9628,-252 333.9628,-216 488.0372,-216 488.0372,-252"/>
<text text-anchor="middle" x="411" y="-229.8" font-family="Times,serif" font-size="14.00" fill="#000000">CrudEnfasisComponent </text>
</g>
<!-- EnfasisModule&#45;&gt;CrudEnfasisComponent  -->
<g id="edge4" class="edge">
<title>EnfasisModule&#45;&gt;CrudEnfasisComponent </title>
<path fill="none" stroke="#000000" stroke-dasharray="5,2" d="M411,-187.1061C411,-187.1061 411,-205.991 411,-205.991"/>
<polygon fill="#000000" stroke="#000000" points="407.5001,-205.9909 411,-215.991 414.5001,-205.991 407.5001,-205.9909"/>
</g>
<!-- ProgramaAcademicoService -->
<g id="node6" class="node">
<title>ProgramaAcademicoService</title>
<ellipse fill="#fdb462" stroke="#000000" cx="146" cy="-104" rx="121.5065" ry="18"/>
<text text-anchor="middle" x="146" y="-99.8" font-family="Times,serif" font-size="14.00" fill="#000000">ProgramaAcademicoService</text>
</g>
<!-- ProgramaAcademicoService&#45;&gt;EnfasisModule -->
<g id="edge5" class="edge">
<title>ProgramaAcademicoService&#45;&gt;EnfasisModule</title>
<path fill="none" stroke="#000000" d="M146,-122.1061C146,-141.3391 146,-169 146,-169 146,-169 350.5318,-169 350.5318,-169"/>
<polygon fill="#000000" stroke="#000000" points="350.5318,-172.5001 360.5318,-169 350.5317,-165.5001 350.5318,-172.5001"/>
</g>
</g>
</svg>
