<?xml version="1.0" encoding="UTF-8" standalone="no"?>
<!DOCTYPE svg PUBLIC "-//W3C//DTD SVG 1.1//EN"
 "http://www.w3.org/Graphics/SVG/1.1/DTD/svg11.dtd">
<!-- Generated by graphviz version 2.40.1 (20161225.0304)
 -->
<!-- Title: dependencies Pages: 1 -->
<svg width="1415pt" height="284pt"
 viewBox="0.00 0.00 1415.00 284.00" xmlns="http://www.w3.org/2000/svg" xmlns:xlink="http://www.w3.org/1999/xlink">
<g id="graph0" class="graph" transform="scale(1 1) rotate(0) translate(4 280)">
<title>dependencies</title>
<polygon fill="#ffffff" stroke="transparent" points="-4,4 -4,-280 1411,-280 1411,4 -4,4"/>
<text text-anchor="start" x="682.5091" y="-42.4" font-family="sans-serif" font-weight="bold" font-size="14.00" fill="#000000">Legend</text>
<polygon fill="#ffffb3" stroke="transparent" points="469.5,-10 469.5,-30 489.5,-30 489.5,-10 469.5,-10"/>
<text text-anchor="start" x="493.129" y="-15.4" font-family="sans-serif" font-size="14.00" fill="#000000"> &#160;Declarations</text>
<polygon fill="#8dd3c7" stroke="transparent" points="582.5,-10 582.5,-30 602.5,-30 602.5,-10 582.5,-10"/>
<text text-anchor="start" x="606.2251" y="-15.4" font-family="sans-serif" font-size="14.00" fill="#000000"> &#160;Module</text>
<polygon fill="#80b1d3" stroke="transparent" points="668.5,-10 668.5,-30 688.5,-30 688.5,-10 668.5,-10"/>
<text text-anchor="start" x="692.2812" y="-15.4" font-family="sans-serif" font-size="14.00" fill="#000000"> &#160;Bootstrap</text>
<polygon fill="#fdb462" stroke="transparent" points="765.5,-10 765.5,-30 785.5,-30 785.5,-10 765.5,-10"/>
<text text-anchor="start" x="789.1732" y="-15.4" font-family="sans-serif" font-size="14.00" fill="#000000"> &#160;Providers</text>
<polygon fill="#fb8072" stroke="transparent" points="861.5,-10 861.5,-30 881.5,-30 881.5,-10 861.5,-10"/>
<text text-anchor="start" x="885.2258" y="-15.4" font-family="sans-serif" font-size="14.00" fill="#000000"> &#160;Exports</text>
<g id="clust1" class="cluster">
<title>cluster_SolicitudDescuentoModule</title>
<polygon fill="none" stroke="#000000" stroke-dasharray="1,5" points="8,-70 8,-268 1399,-268 1399,-70 8,-70"/>
</g>
<g id="clust3" class="cluster">
<title>cluster_SolicitudDescuentoModule_imports</title>
<polygon fill="none" stroke="#000000" points="929,-78 929,-130 1391,-130 1391,-78 929,-78"/>
</g>
<g id="clust4" class="cluster">
<title>cluster_SolicitudDescuentoModule_exports</title>
<polygon fill="none" stroke="#000000" points="669,-208 669,-260 907,-260 907,-208 669,-208"/>
</g>
<g id="clust6" class="cluster">
<title>cluster_SolicitudDescuentoModule_providers</title>
<polygon fill="none" stroke="#000000" points="16,-78 16,-130 921,-130 921,-78 16,-78"/>
</g>
<!-- ThemeModule -->
<g id="node1" class="node">
<title>ThemeModule</title>
<polygon fill="#8dd3c7" stroke="#000000" points="1383.4231,-122 1380.4231,-126 1359.4231,-126 1356.4231,-122 1284.5769,-122 1284.5769,-86 1383.4231,-86 1383.4231,-122"/>
<text text-anchor="middle" x="1334" y="-99.8" font-family="Times,serif" font-size="14.00" fill="#000000">ThemeModule</text>
</g>
<!-- SolicitudDescuentoModule -->
<g id="node4" class="node">
<title>SolicitudDescuentoModule</title>
<polygon fill="#8dd3c7" stroke="#000000" points="872.6951,-187 869.6951,-191 848.6951,-191 845.6951,-187 703.3049,-187 703.3049,-151 872.6951,-151 872.6951,-187"/>
<text text-anchor="middle" x="788" y="-164.8" font-family="Times,serif" font-size="14.00" fill="#000000">SolicitudDescuentoModule</text>
</g>
<!-- ThemeModule&#45;&gt;SolicitudDescuentoModule -->
<g id="edge1" class="edge">
<title>ThemeModule&#45;&gt;SolicitudDescuentoModule</title>
<path fill="none" stroke="#000000" d="M1334,-122.2921C1334,-144.2057 1334,-178 1334,-178 1334,-178 882.7134,-178 882.7134,-178"/>
<polygon fill="#000000" stroke="#000000" points="882.7135,-174.5001 872.7134,-178 882.7134,-181.5001 882.7135,-174.5001"/>
</g>
<!-- SolicitudDescuentoRoutingModule -->
<g id="node2" class="node">
<title>SolicitudDescuentoRoutingModule</title>
<polygon fill="#8dd3c7" stroke="#000000" points="1267.313,-122 1264.313,-126 1243.313,-126 1240.313,-122 1052.687,-122 1052.687,-86 1267.313,-86 1267.313,-122"/>
<text text-anchor="middle" x="1160" y="-99.8" font-family="Times,serif" font-size="14.00" fill="#000000">SolicitudDescuentoRoutingModule</text>
</g>
<!-- SolicitudDescuentoRoutingModule&#45;&gt;SolicitudDescuentoModule -->
<g id="edge2" class="edge">
<title>SolicitudDescuentoRoutingModule&#45;&gt;SolicitudDescuentoModule</title>
<path fill="none" stroke="#000000" d="M1160,-122.1061C1160,-141.3391 1160,-169 1160,-169 1160,-169 882.878,-169 882.878,-169"/>
<polygon fill="#000000" stroke="#000000" points="882.8781,-165.5001 872.878,-169 882.878,-172.5001 882.8781,-165.5001"/>
</g>
<!-- SharedModule -->
<g id="node3" class="node">
<title>SharedModule</title>
<polygon fill="#8dd3c7" stroke="#000000" points="1035.4231,-122 1032.4231,-126 1011.4231,-126 1008.4231,-122 936.5769,-122 936.5769,-86 1035.4231,-86 1035.4231,-122"/>
<text text-anchor="middle" x="986" y="-99.8" font-family="Times,serif" font-size="14.00" fill="#000000">SharedModule</text>
</g>
<!-- SharedModule&#45;&gt;SolicitudDescuentoModule -->
<g id="edge3" class="edge">
<title>SharedModule&#45;&gt;SolicitudDescuentoModule</title>
<path fill="none" stroke="#000000" d="M986,-122.027C986,-138.3976 986,-160 986,-160 986,-160 882.8315,-160 882.8315,-160"/>
<polygon fill="#000000" stroke="#000000" points="882.8315,-156.5001 872.8315,-160 882.8314,-163.5001 882.8315,-156.5001"/>
</g>
<!-- CrudSolicitudDescuentoComponent  -->
<g id="node5" class="node">
<title>CrudSolicitudDescuentoComponent </title>
<polygon fill="#fb8072" stroke="#000000" points="899.4753,-252 676.5247,-252 676.5247,-216 899.4753,-216 899.4753,-252"/>
<text text-anchor="middle" x="788" y="-229.8" font-family="Times,serif" font-size="14.00" fill="#000000">CrudSolicitudDescuentoComponent </text>
</g>
<!-- SolicitudDescuentoModule&#45;&gt;CrudSolicitudDescuentoComponent  -->
<g id="edge4" class="edge">
<title>SolicitudDescuentoModule&#45;&gt;CrudSolicitudDescuentoComponent </title>
<path fill="none" stroke="#000000" stroke-dasharray="5,2" d="M788,-187.1061C788,-187.1061 788,-205.991 788,-205.991"/>
<polygon fill="#000000" stroke="#000000" points="784.5001,-205.9909 788,-215.991 791.5001,-205.991 784.5001,-205.9909"/>
</g>
<!-- DescuentoAcademicoService -->
<g id="node6" class="node">
<title>DescuentoAcademicoService</title>
<ellipse fill="#fdb462" stroke="#000000" cx="788" cy="-104" rx="124.9384" ry="18"/>
<text text-anchor="middle" x="788" y="-99.8" font-family="Times,serif" font-size="14.00" fill="#000000">DescuentoAcademicoService</text>
</g>
<!-- DescuentoAcademicoService&#45;&gt;SolicitudDescuentoModule -->
<g id="edge5" class="edge">
<title>DescuentoAcademicoService&#45;&gt;SolicitudDescuentoModule</title>
<path fill="none" stroke="#000000" d="M788,-122.1061C788,-122.1061 788,-140.991 788,-140.991"/>
<polygon fill="#000000" stroke="#000000" points="784.5001,-140.9909 788,-150.991 791.5001,-140.991 784.5001,-140.9909"/>
</g>
<!-- ProgramaAcademicoService -->
<g id="node7" class="node">
<title>ProgramaAcademicoService</title>
<ellipse fill="#fdb462" stroke="#000000" cx="524" cy="-104" rx="121.5065" ry="18"/>
<text text-anchor="middle" x="524" y="-99.8" font-family="Times,serif" font-size="14.00" fill="#000000">ProgramaAcademicoService</text>
</g>
<!-- ProgramaAcademicoService&#45;&gt;SolicitudDescuentoModule -->
<g id="edge6" class="edge">
<title>ProgramaAcademicoService&#45;&gt;SolicitudDescuentoModule</title>
<path fill="none" stroke="#000000" d="M524,-122.027C524,-138.3976 524,-160 524,-160 524,-160 693.3794,-160 693.3794,-160"/>
<polygon fill="#000000" stroke="#000000" points="693.3795,-163.5001 703.3794,-160 693.3794,-156.5001 693.3795,-163.5001"/>
</g>
<!-- ProgramaOikosService -->
<g id="node8" class="node">
<title>ProgramaOikosService</title>
<ellipse fill="#fdb462" stroke="#000000" cx="284" cy="-104" rx="100.6998" ry="18"/>
<text text-anchor="middle" x="284" y="-99.8" font-family="Times,serif" font-size="14.00" fill="#000000">ProgramaOikosService</text>
</g>
<!-- ProgramaOikosService&#45;&gt;SolicitudDescuentoModule -->
<g id="edge7" class="edge">
<title>ProgramaOikosService&#45;&gt;SolicitudDescuentoModule</title>
<path fill="none" stroke="#000000" d="M284,-122.1061C284,-141.3391 284,-169 284,-169 284,-169 693.3576,-169 693.3576,-169"/>
<polygon fill="#000000" stroke="#000000" points="693.3577,-172.5001 703.3576,-169 693.3576,-165.5001 693.3577,-172.5001"/>
</g>
<!-- PersonaService -->
<g id="node9" class="node">
<title>PersonaService</title>
<ellipse fill="#fdb462" stroke="#000000" cx="95" cy="-104" rx="70.622" ry="18"/>
<text text-anchor="middle" x="95" y="-99.8" font-family="Times,serif" font-size="14.00" fill="#000000">PersonaService</text>
</g>
<!-- PersonaService&#45;&gt;SolicitudDescuentoModule -->
<g id="edge8" class="edge">
<title>PersonaService&#45;&gt;SolicitudDescuentoModule</title>
<path fill="none" stroke="#000000" d="M95,-122.2921C95,-144.2057 95,-178 95,-178 95,-178 693.3713,-178 693.3713,-178"/>
<polygon fill="#000000" stroke="#000000" points="693.3713,-181.5001 703.3713,-178 693.3713,-174.5001 693.3713,-181.5001"/>
</g>
</g>
</svg>
