<?xml version="1.0" encoding="UTF-8" standalone="no"?>
<!DOCTYPE svg PUBLIC "-//W3C//DTD SVG 1.1//EN"
 "http://www.w3.org/Graphics/SVG/1.1/DTD/svg11.dtd">
<!-- Generated by graphviz version 2.40.1 (20161225.0304)
 -->
<!-- Title: dependencies Pages: 1 -->
<svg width="652pt" height="284pt"
 viewBox="0.00 0.00 652.00 284.00" xmlns="http://www.w3.org/2000/svg" xmlns:xlink="http://www.w3.org/1999/xlink">
<g id="graph0" class="graph" transform="scale(1 1) rotate(0) translate(4 280)">
<title>dependencies</title>
<polygon fill="#ffffff" stroke="transparent" points="-4,4 -4,-280 648,-280 648,4 -4,4"/>
<text text-anchor="start" x="301.0091" y="-42.4" font-family="sans-serif" font-weight="bold" font-size="14.00" fill="#000000">Legend</text>
<polygon fill="#ffffb3" stroke="transparent" points="88,-10 88,-30 108,-30 108,-10 88,-10"/>
<text text-anchor="start" x="111.629" y="-15.4" font-family="sans-serif" font-size="14.00" fill="#000000"> &#160;Declarations</text>
<polygon fill="#8dd3c7" stroke="transparent" points="201,-10 201,-30 221,-30 221,-10 201,-10"/>
<text text-anchor="start" x="224.7251" y="-15.4" font-family="sans-serif" font-size="14.00" fill="#000000"> &#160;Module</text>
<polygon fill="#80b1d3" stroke="transparent" points="287,-10 287,-30 307,-30 307,-10 287,-10"/>
<text text-anchor="start" x="310.7812" y="-15.4" font-family="sans-serif" font-size="14.00" fill="#000000"> &#160;Bootstrap</text>
<polygon fill="#fdb462" stroke="transparent" points="384,-10 384,-30 404,-30 404,-10 384,-10"/>
<text text-anchor="start" x="407.6732" y="-15.4" font-family="sans-serif" font-size="14.00" fill="#000000"> &#160;Providers</text>
<polygon fill="#fb8072" stroke="transparent" points="480,-10 480,-30 500,-30 500,-10 480,-10"/>
<text text-anchor="start" x="503.7258" y="-15.4" font-family="sans-serif" font-size="14.00" fill="#000000"> &#160;Exports</text>
<g id="clust1" class="cluster">
<title>cluster_ConceptoAcademicoModule</title>
<polygon fill="none" stroke="#000000" stroke-dasharray="1,5" points="8,-70 8,-268 636,-268 636,-70 8,-70"/>
</g>
<g id="clust3" class="cluster">
<title>cluster_ConceptoAcademicoModule_imports</title>
<polygon fill="none" stroke="#000000" points="158,-78 158,-130 628,-130 628,-78 158,-78"/>
</g>
<g id="clust4" class="cluster">
<title>cluster_ConceptoAcademicoModule_exports</title>
<polygon fill="none" stroke="#000000" points="181,-208 181,-260 427,-260 427,-208 181,-208"/>
</g>
<g id="clust6" class="cluster">
<title>cluster_ConceptoAcademicoModule_providers</title>
<polygon fill="none" stroke="#000000" points="16,-78 16,-130 150,-130 150,-78 16,-78"/>
</g>
<!-- ThemeModule -->
<g id="node1" class="node">
<title>ThemeModule</title>
<polygon fill="#8dd3c7" stroke="#000000" points="620.4231,-122 617.4231,-126 596.4231,-126 593.4231,-122 521.5769,-122 521.5769,-86 620.4231,-86 620.4231,-122"/>
<text text-anchor="middle" x="571" y="-99.8" font-family="Times,serif" font-size="14.00" fill="#000000">ThemeModule</text>
</g>
<!-- ConceptoAcademicoModule -->
<g id="node4" class="node">
<title>ConceptoAcademicoModule</title>
<polygon fill="#8dd3c7" stroke="#000000" points="392.4524,-187 389.4524,-191 368.4524,-191 365.4524,-187 215.5476,-187 215.5476,-151 392.4524,-151 392.4524,-187"/>
<text text-anchor="middle" x="304" y="-164.8" font-family="Times,serif" font-size="14.00" fill="#000000">ConceptoAcademicoModule</text>
</g>
<!-- ThemeModule&#45;&gt;ConceptoAcademicoModule -->
<g id="edge1" class="edge">
<title>ThemeModule&#45;&gt;ConceptoAcademicoModule</title>
<path fill="none" stroke="#000000" d="M571,-122.1061C571,-141.3391 571,-169 571,-169 571,-169 402.5363,-169 402.5363,-169"/>
<polygon fill="#000000" stroke="#000000" points="402.5363,-165.5001 392.5363,-169 402.5362,-172.5001 402.5363,-165.5001"/>
</g>
<!-- ConceptoAcademicoRoutingModule -->
<g id="node2" class="node">
<title>ConceptoAcademicoRoutingModule</title>
<polygon fill="#8dd3c7" stroke="#000000" points="504.0702,-122 501.0702,-126 480.0702,-126 477.0702,-122 281.9298,-122 281.9298,-86 504.0702,-86 504.0702,-122"/>
<text text-anchor="middle" x="393" y="-99.8" font-family="Times,serif" font-size="14.00" fill="#000000">ConceptoAcademicoRoutingModule</text>
</g>
<!-- ConceptoAcademicoRoutingModule&#45;&gt;ConceptoAcademicoModule -->
<g id="edge2" class="edge">
<title>ConceptoAcademicoRoutingModule&#45;&gt;ConceptoAcademicoModule</title>
<path fill="none" stroke="#000000" d="M337.2206,-122.1061C337.2206,-122.1061 337.2206,-140.991 337.2206,-140.991"/>
<polygon fill="#000000" stroke="#000000" points="333.7206,-140.9909 337.2206,-150.991 340.7206,-140.991 333.7206,-140.9909"/>
</g>
<!-- SharedModule -->
<g id="node3" class="node">
<title>SharedModule</title>
<polygon fill="#8dd3c7" stroke="#000000" points="264.4231,-122 261.4231,-126 240.4231,-126 237.4231,-122 165.5769,-122 165.5769,-86 264.4231,-86 264.4231,-122"/>
<text text-anchor="middle" x="215" y="-99.8" font-family="Times,serif" font-size="14.00" fill="#000000">SharedModule</text>
</g>
<!-- SharedModule&#45;&gt;ConceptoAcademicoModule -->
<g id="edge3" class="edge">
<title>SharedModule&#45;&gt;ConceptoAcademicoModule</title>
<path fill="none" stroke="#000000" d="M239.8675,-122.1061C239.8675,-122.1061 239.8675,-140.991 239.8675,-140.991"/>
<polygon fill="#000000" stroke="#000000" points="236.3675,-140.9909 239.8675,-150.991 243.3675,-140.991 236.3675,-140.9909"/>
</g>
<!-- CrudConceptoAcademicoComponent  -->
<g id="node5" class="node">
<title>CrudConceptoAcademicoComponent </title>
<polygon fill="#fb8072" stroke="#000000" points="419.2323,-252 188.7677,-252 188.7677,-216 419.2323,-216 419.2323,-252"/>
<text text-anchor="middle" x="304" y="-229.8" font-family="Times,serif" font-size="14.00" fill="#000000">CrudConceptoAcademicoComponent </text>
</g>
<!-- ConceptoAcademicoModule&#45;&gt;CrudConceptoAcademicoComponent  -->
<g id="edge4" class="edge">
<title>ConceptoAcademicoModule&#45;&gt;CrudConceptoAcademicoComponent </title>
<path fill="none" stroke="#000000" stroke-dasharray="5,2" d="M304,-187.1061C304,-187.1061 304,-205.991 304,-205.991"/>
<polygon fill="#000000" stroke="#000000" points="300.5001,-205.9909 304,-215.991 307.5001,-205.991 300.5001,-205.9909"/>
</g>
<!-- CoreService -->
<g id="node6" class="node">
<title>CoreService</title>
<ellipse fill="#fdb462" stroke="#000000" cx="83" cy="-104" rx="58.5251" ry="18"/>
<text text-anchor="middle" x="83" y="-99.8" font-family="Times,serif" font-size="14.00" fill="#000000">CoreService</text>
</g>
<!-- CoreService&#45;&gt;ConceptoAcademicoModule -->
<g id="edge5" class="edge">
<title>CoreService&#45;&gt;ConceptoAcademicoModule</title>
<path fill="none" stroke="#000000" d="M83,-122.1061C83,-141.3391 83,-169 83,-169 83,-169 205.3842,-169 205.3842,-169"/>
<polygon fill="#000000" stroke="#000000" points="205.3843,-172.5001 215.3842,-169 205.3842,-165.5001 205.3843,-172.5001"/>
</g>
</g>
</svg>
