<?xml version="1.0" encoding="UTF-8" standalone="no"?>
<!DOCTYPE svg PUBLIC "-//W3C//DTD SVG 1.1//EN"
 "http://www.w3.org/Graphics/SVG/1.1/DTD/svg11.dtd">
<!-- Generated by graphviz version 2.40.1 (20161225.0304)
 -->
<!-- Title: dependencies Pages: 1 -->
<svg width="754pt" height="284pt"
 viewBox="0.00 0.00 754.00 284.00" xmlns="http://www.w3.org/2000/svg" xmlns:xlink="http://www.w3.org/1999/xlink">
<g id="graph0" class="graph" transform="scale(1 1) rotate(0) translate(4 280)">
<title>dependencies</title>
<polygon fill="#ffffff" stroke="transparent" points="-4,4 -4,-280 750,-280 750,4 -4,4"/>
<text text-anchor="start" x="352.0091" y="-42.4" font-family="sans-serif" font-weight="bold" font-size="14.00" fill="#000000">Legend</text>
<polygon fill="#ffffb3" stroke="transparent" points="139,-10 139,-30 159,-30 159,-10 139,-10"/>
<text text-anchor="start" x="162.629" y="-15.4" font-family="sans-serif" font-size="14.00" fill="#000000"> &#160;Declarations</text>
<polygon fill="#8dd3c7" stroke="transparent" points="252,-10 252,-30 272,-30 272,-10 252,-10"/>
<text text-anchor="start" x="275.7251" y="-15.4" font-family="sans-serif" font-size="14.00" fill="#000000"> &#160;Module</text>
<polygon fill="#80b1d3" stroke="transparent" points="338,-10 338,-30 358,-30 358,-10 338,-10"/>
<text text-anchor="start" x="361.7812" y="-15.4" font-family="sans-serif" font-size="14.00" fill="#000000"> &#160;Bootstrap</text>
<polygon fill="#fdb462" stroke="transparent" points="435,-10 435,-30 455,-30 455,-10 435,-10"/>
<text text-anchor="start" x="458.6732" y="-15.4" font-family="sans-serif" font-size="14.00" fill="#000000"> &#160;Providers</text>
<polygon fill="#fb8072" stroke="transparent" points="531,-10 531,-30 551,-30 551,-10 531,-10"/>
<text text-anchor="start" x="554.7258" y="-15.4" font-family="sans-serif" font-size="14.00" fill="#000000"> &#160;Exports</text>
<g id="clust1" class="cluster">
<title>cluster_TipoEntrevistaModule</title>
<polygon fill="none" stroke="#000000" stroke-dasharray="1,5" points="8,-70 8,-268 738,-268 738,-70 8,-70"/>
</g>
<g id="clust3" class="cluster">
<title>cluster_TipoEntrevistaModule_imports</title>
<polygon fill="none" stroke="#000000" points="294,-78 294,-130 730,-130 730,-78 294,-78"/>
</g>
<g id="clust4" class="cluster">
<title>cluster_TipoEntrevistaModule_exports</title>
<polygon fill="none" stroke="#000000" points="325,-208 325,-260 537,-260 537,-208 325,-208"/>
</g>
<g id="clust6" class="cluster">
<title>cluster_TipoEntrevistaModule_providers</title>
<polygon fill="none" stroke="#000000" points="16,-78 16,-130 286,-130 286,-78 16,-78"/>
</g>
<!-- ThemeModule -->
<g id="node1" class="node">
<title>ThemeModule</title>
<polygon fill="#8dd3c7" stroke="#000000" points="722.4231,-122 719.4231,-126 698.4231,-126 695.4231,-122 623.5769,-122 623.5769,-86 722.4231,-86 722.4231,-122"/>
<text text-anchor="middle" x="673" y="-99.8" font-family="Times,serif" font-size="14.00" fill="#000000">ThemeModule</text>
</g>
<!-- TipoEntrevistaModule -->
<g id="node4" class="node">
<title>TipoEntrevistaModule</title>
<polygon fill="#8dd3c7" stroke="#000000" points="502.252,-187 499.252,-191 478.252,-191 475.252,-187 359.748,-187 359.748,-151 502.252,-151 502.252,-187"/>
<text text-anchor="middle" x="431" y="-164.8" font-family="Times,serif" font-size="14.00" fill="#000000">TipoEntrevistaModule</text>
</g>
<!-- ThemeModule&#45;&gt;TipoEntrevistaModule -->
<g id="edge1" class="edge">
<title>ThemeModule&#45;&gt;TipoEntrevistaModule</title>
<path fill="none" stroke="#000000" d="M673,-122.1061C673,-141.3391 673,-169 673,-169 673,-169 512.2991,-169 512.2991,-169"/>
<polygon fill="#000000" stroke="#000000" points="512.2991,-165.5001 502.2991,-169 512.2991,-172.5001 512.2991,-165.5001"/>
</g>
<!-- TipoEntrevistaRoutingModule -->
<g id="node2" class="node">
<title>TipoEntrevistaRoutingModule</title>
<polygon fill="#8dd3c7" stroke="#000000" points="605.8696,-122 602.8696,-126 581.8696,-126 578.8696,-122 418.1304,-122 418.1304,-86 605.8696,-86 605.8696,-122"/>
<text text-anchor="middle" x="512" y="-99.8" font-family="Times,serif" font-size="14.00" fill="#000000">TipoEntrevistaRoutingModule</text>
</g>
<!-- TipoEntrevistaRoutingModule&#45;&gt;TipoEntrevistaModule -->
<g id="edge2" class="edge">
<title>TipoEntrevistaRoutingModule&#45;&gt;TipoEntrevistaModule</title>
<path fill="none" stroke="#000000" d="M460.2206,-122.1061C460.2206,-122.1061 460.2206,-140.991 460.2206,-140.991"/>
<polygon fill="#000000" stroke="#000000" points="456.7206,-140.9909 460.2206,-150.991 463.7206,-140.991 456.7206,-140.9909"/>
</g>
<!-- SharedModule -->
<g id="node3" class="node">
<title>SharedModule</title>
<polygon fill="#8dd3c7" stroke="#000000" points="400.4231,-122 397.4231,-126 376.4231,-126 373.4231,-122 301.5769,-122 301.5769,-86 400.4231,-86 400.4231,-122"/>
<text text-anchor="middle" x="351" y="-99.8" font-family="Times,serif" font-size="14.00" fill="#000000">SharedModule</text>
</g>
<!-- SharedModule&#45;&gt;TipoEntrevistaModule -->
<g id="edge3" class="edge">
<title>SharedModule&#45;&gt;TipoEntrevistaModule</title>
<path fill="none" stroke="#000000" d="M379.9176,-122.1061C379.9176,-122.1061 379.9176,-140.991 379.9176,-140.991"/>
<polygon fill="#000000" stroke="#000000" points="376.4177,-140.9909 379.9176,-150.991 383.4177,-140.991 376.4177,-140.9909"/>
</g>
<!-- CrudTipoEntrevistaComponent  -->
<g id="node5" class="node">
<title>CrudTipoEntrevistaComponent </title>
<polygon fill="#fb8072" stroke="#000000" points="529.0316,-252 332.9684,-252 332.9684,-216 529.0316,-216 529.0316,-252"/>
<text text-anchor="middle" x="431" y="-229.8" font-family="Times,serif" font-size="14.00" fill="#000000">CrudTipoEntrevistaComponent </text>
</g>
<!-- TipoEntrevistaModule&#45;&gt;CrudTipoEntrevistaComponent  -->
<g id="edge4" class="edge">
<title>TipoEntrevistaModule&#45;&gt;CrudTipoEntrevistaComponent </title>
<path fill="none" stroke="#000000" stroke-dasharray="5,2" d="M431,-187.1061C431,-187.1061 431,-205.991 431,-205.991"/>
<polygon fill="#000000" stroke="#000000" points="427.5001,-205.9909 431,-215.991 434.5001,-205.991 427.5001,-205.9909"/>
</g>
<!-- EvaluacionInscripcionService -->
<g id="node6" class="node">
<title>EvaluacionInscripcionService</title>
<ellipse fill="#fdb462" stroke="#000000" cx="151" cy="-104" rx="126.7452" ry="18"/>
<text text-anchor="middle" x="151" y="-99.8" font-family="Times,serif" font-size="14.00" fill="#000000">EvaluacionInscripcionService</text>
</g>
<!-- EvaluacionInscripcionService&#45;&gt;TipoEntrevistaModule -->
<g id="edge5" class="edge">
<title>EvaluacionInscripcionService&#45;&gt;TipoEntrevistaModule</title>
<path fill="none" stroke="#000000" d="M151,-122.1061C151,-141.3391 151,-169 151,-169 151,-169 349.6197,-169 349.6197,-169"/>
<polygon fill="#000000" stroke="#000000" points="349.6197,-172.5001 359.6197,-169 349.6197,-165.5001 349.6197,-172.5001"/>
</g>
</g>
</svg>
