<?xml version="1.0" encoding="UTF-8" standalone="no"?>
<!DOCTYPE svg PUBLIC "-//W3C//DTD SVG 1.1//EN"
 "http://www.w3.org/Graphics/SVG/1.1/DTD/svg11.dtd">
<!-- Generated by graphviz version 2.40.1 (20161225.0304)
 -->
<!-- Title: dependencies Pages: 1 -->
<svg width="752pt" height="284pt"
 viewBox="0.00 0.00 752.00 284.00" xmlns="http://www.w3.org/2000/svg" xmlns:xlink="http://www.w3.org/1999/xlink">
<g id="graph0" class="graph" transform="scale(1 1) rotate(0) translate(4 280)">
<title>dependencies</title>
<polygon fill="#ffffff" stroke="transparent" points="-4,4 -4,-280 748,-280 748,4 -4,4"/>
<text text-anchor="start" x="351.0091" y="-42.4" font-family="sans-serif" font-weight="bold" font-size="14.00" fill="#000000">Legend</text>
<polygon fill="#ffffb3" stroke="transparent" points="138,-10 138,-30 158,-30 158,-10 138,-10"/>
<text text-anchor="start" x="161.629" y="-15.4" font-family="sans-serif" font-size="14.00" fill="#000000"> &#160;Declarations</text>
<polygon fill="#8dd3c7" stroke="transparent" points="251,-10 251,-30 271,-30 271,-10 251,-10"/>
<text text-anchor="start" x="274.7251" y="-15.4" font-family="sans-serif" font-size="14.00" fill="#000000"> &#160;Module</text>
<polygon fill="#80b1d3" stroke="transparent" points="337,-10 337,-30 357,-30 357,-10 337,-10"/>
<text text-anchor="start" x="360.7812" y="-15.4" font-family="sans-serif" font-size="14.00" fill="#000000"> &#160;Bootstrap</text>
<polygon fill="#fdb462" stroke="transparent" points="434,-10 434,-30 454,-30 454,-10 434,-10"/>
<text text-anchor="start" x="457.6732" y="-15.4" font-family="sans-serif" font-size="14.00" fill="#000000"> &#160;Providers</text>
<polygon fill="#fb8072" stroke="transparent" points="530,-10 530,-30 550,-30 550,-10 530,-10"/>
<text text-anchor="start" x="553.7258" y="-15.4" font-family="sans-serif" font-size="14.00" fill="#000000"> &#160;Exports</text>
<g id="clust1" class="cluster">
<title>cluster_NivelFormacionModule</title>
<polygon fill="none" stroke="#000000" stroke-dasharray="1,5" points="8,-70 8,-268 736,-268 736,-70 8,-70"/>
</g>
<g id="clust3" class="cluster">
<title>cluster_NivelFormacionModule_imports</title>
<polygon fill="none" stroke="#000000" points="284,-78 284,-130 728,-130 728,-78 284,-78"/>
</g>
<g id="clust4" class="cluster">
<title>cluster_NivelFormacionModule_exports</title>
<polygon fill="none" stroke="#000000" points="313,-208 313,-260 533,-260 533,-208 313,-208"/>
</g>
<g id="clust6" class="cluster">
<title>cluster_NivelFormacionModule_providers</title>
<polygon fill="none" stroke="#000000" points="16,-78 16,-130 276,-130 276,-78 16,-78"/>
</g>
<!-- ThemeModule -->
<g id="node1" class="node">
<title>ThemeModule</title>
<polygon fill="#8dd3c7" stroke="#000000" points="720.4231,-122 717.4231,-126 696.4231,-126 693.4231,-122 621.5769,-122 621.5769,-86 720.4231,-86 720.4231,-122"/>
<text text-anchor="middle" x="671" y="-99.8" font-family="Times,serif" font-size="14.00" fill="#000000">ThemeModule</text>
</g>
<!-- NivelFormacionModule -->
<g id="node4" class="node">
<title>NivelFormacionModule</title>
<polygon fill="#8dd3c7" stroke="#000000" points="498.8061,-187 495.8061,-191 474.8061,-191 471.8061,-187 347.1939,-187 347.1939,-151 498.8061,-151 498.8061,-187"/>
<text text-anchor="middle" x="423" y="-164.8" font-family="Times,serif" font-size="14.00" fill="#000000">NivelFormacionModule</text>
</g>
<!-- ThemeModule&#45;&gt;NivelFormacionModule -->
<g id="edge1" class="edge">
<title>ThemeModule&#45;&gt;NivelFormacionModule</title>
<path fill="none" stroke="#000000" d="M671,-122.1061C671,-141.3391 671,-169 671,-169 671,-169 508.7557,-169 508.7557,-169"/>
<polygon fill="#000000" stroke="#000000" points="508.7558,-165.5001 498.7557,-169 508.7557,-172.5001 508.7558,-165.5001"/>
</g>
<!-- NivelFormacionRoutingModule -->
<g id="node2" class="node">
<title>NivelFormacionRoutingModule</title>
<polygon fill="#8dd3c7" stroke="#000000" points="604.4241,-122 601.4241,-126 580.4241,-126 577.4241,-122 407.5759,-122 407.5759,-86 604.4241,-86 604.4241,-122"/>
<text text-anchor="middle" x="506" y="-99.8" font-family="Times,serif" font-size="14.00" fill="#000000">NivelFormacionRoutingModule</text>
</g>
<!-- NivelFormacionRoutingModule&#45;&gt;NivelFormacionModule -->
<g id="edge2" class="edge">
<title>NivelFormacionRoutingModule&#45;&gt;NivelFormacionModule</title>
<path fill="none" stroke="#000000" d="M453.2206,-122.1061C453.2206,-122.1061 453.2206,-140.991 453.2206,-140.991"/>
<polygon fill="#000000" stroke="#000000" points="449.7206,-140.9909 453.2206,-150.991 456.7206,-140.991 449.7206,-140.9909"/>
</g>
<!-- SharedModule -->
<g id="node3" class="node">
<title>SharedModule</title>
<polygon fill="#8dd3c7" stroke="#000000" points="390.4231,-122 387.4231,-126 366.4231,-126 363.4231,-122 291.5769,-122 291.5769,-86 390.4231,-86 390.4231,-122"/>
<text text-anchor="middle" x="341" y="-99.8" font-family="Times,serif" font-size="14.00" fill="#000000">SharedModule</text>
</g>
<!-- SharedModule&#45;&gt;NivelFormacionModule -->
<g id="edge3" class="edge">
<title>SharedModule&#45;&gt;NivelFormacionModule</title>
<path fill="none" stroke="#000000" d="M368.7791,-122.1061C368.7791,-122.1061 368.7791,-140.991 368.7791,-140.991"/>
<polygon fill="#000000" stroke="#000000" points="365.2792,-140.9909 368.7791,-150.991 372.2792,-140.991 365.2792,-140.9909"/>
</g>
<!-- CrudNivelFormacionComponent  -->
<g id="node5" class="node">
<title>CrudNivelFormacionComponent </title>
<polygon fill="#fb8072" stroke="#000000" points="525.086,-252 320.914,-252 320.914,-216 525.086,-216 525.086,-252"/>
<text text-anchor="middle" x="423" y="-229.8" font-family="Times,serif" font-size="14.00" fill="#000000">CrudNivelFormacionComponent </text>
</g>
<!-- NivelFormacionModule&#45;&gt;CrudNivelFormacionComponent  -->
<g id="edge4" class="edge">
<title>NivelFormacionModule&#45;&gt;CrudNivelFormacionComponent </title>
<path fill="none" stroke="#000000" stroke-dasharray="5,2" d="M423,-187.1061C423,-187.1061 423,-205.991 423,-205.991"/>
<polygon fill="#000000" stroke="#000000" points="419.5001,-205.9909 423,-215.991 426.5001,-205.991 419.5001,-205.9909"/>
</g>
<!-- ProgramaAcademicoService -->
<g id="node6" class="node">
<title>ProgramaAcademicoService</title>
<ellipse fill="#fdb462" stroke="#000000" cx="146" cy="-104" rx="121.5065" ry="18"/>
<text text-anchor="middle" x="146" y="-99.8" font-family="Times,serif" font-size="14.00" fill="#000000">ProgramaAcademicoService</text>
</g>
<!-- ProgramaAcademicoService&#45;&gt;NivelFormacionModule -->
<g id="edge5" class="edge">
<title>ProgramaAcademicoService&#45;&gt;NivelFormacionModule</title>
<path fill="none" stroke="#000000" d="M146,-122.1061C146,-141.3391 146,-169 146,-169 146,-169 337.3085,-169 337.3085,-169"/>
<polygon fill="#000000" stroke="#000000" points="337.3086,-172.5001 347.3085,-169 337.3085,-165.5001 337.3086,-172.5001"/>
</g>
</g>
</svg>
