<?xml version="1.0" encoding="UTF-8" standalone="no"?>
<!DOCTYPE svg PUBLIC "-//W3C//DTD SVG 1.1//EN"
 "http://www.w3.org/Graphics/SVG/1.1/DTD/svg11.dtd">
<!-- Generated by graphviz version 2.40.1 (20161225.0304)
 -->
<!-- Title: dependencies Pages: 1 -->
<svg width="606pt" height="284pt"
 viewBox="0.00 0.00 606.00 284.00" xmlns="http://www.w3.org/2000/svg" xmlns:xlink="http://www.w3.org/1999/xlink">
<g id="graph0" class="graph" transform="scale(1 1) rotate(0) translate(4 280)">
<title>dependencies</title>
<polygon fill="#ffffff" stroke="transparent" points="-4,4 -4,-280 602,-280 602,4 -4,4"/>
<text text-anchor="start" x="278.0091" y="-42.4" font-family="sans-serif" font-weight="bold" font-size="14.00" fill="#000000">Legend</text>
<polygon fill="#ffffb3" stroke="transparent" points="65,-10 65,-30 85,-30 85,-10 65,-10"/>
<text text-anchor="start" x="88.629" y="-15.4" font-family="sans-serif" font-size="14.00" fill="#000000"> &#160;Declarations</text>
<polygon fill="#8dd3c7" stroke="transparent" points="178,-10 178,-30 198,-30 198,-10 178,-10"/>
<text text-anchor="start" x="201.7251" y="-15.4" font-family="sans-serif" font-size="14.00" fill="#000000"> &#160;Module</text>
<polygon fill="#80b1d3" stroke="transparent" points="264,-10 264,-30 284,-30 284,-10 264,-10"/>
<text text-anchor="start" x="287.7812" y="-15.4" font-family="sans-serif" font-size="14.00" fill="#000000"> &#160;Bootstrap</text>
<polygon fill="#fdb462" stroke="transparent" points="361,-10 361,-30 381,-30 381,-10 361,-10"/>
<text text-anchor="start" x="384.6732" y="-15.4" font-family="sans-serif" font-size="14.00" fill="#000000"> &#160;Providers</text>
<polygon fill="#fb8072" stroke="transparent" points="457,-10 457,-30 477,-30 477,-10 457,-10"/>
<text text-anchor="start" x="480.7258" y="-15.4" font-family="sans-serif" font-size="14.00" fill="#000000"> &#160;Exports</text>
<g id="clust1" class="cluster">
<title>cluster_TipoPagoModule</title>
<polygon fill="none" stroke="#000000" stroke-dasharray="1,5" points="8,-70 8,-268 590,-268 590,-70 8,-70"/>
</g>
<g id="clust3" class="cluster">
<title>cluster_TipoPagoModule_imports</title>
<polygon fill="none" stroke="#000000" points="174,-78 174,-130 582,-130 582,-78 174,-78"/>
</g>
<g id="clust4" class="cluster">
<title>cluster_TipoPagoModule_exports</title>
<polygon fill="none" stroke="#000000" points="212,-208 212,-260 396,-260 396,-208 212,-208"/>
</g>
<g id="clust6" class="cluster">
<title>cluster_TipoPagoModule_providers</title>
<polygon fill="none" stroke="#000000" points="16,-78 16,-130 166,-130 166,-78 16,-78"/>
</g>
<!-- ThemeModule -->
<g id="node1" class="node">
<title>ThemeModule</title>
<polygon fill="#8dd3c7" stroke="#000000" points="574.4231,-122 571.4231,-126 550.4231,-126 547.4231,-122 475.5769,-122 475.5769,-86 574.4231,-86 574.4231,-122"/>
<text text-anchor="middle" x="525" y="-99.8" font-family="Times,serif" font-size="14.00" fill="#000000">ThemeModule</text>
</g>
<!-- TipoPagoModule -->
<g id="node4" class="node">
<title>TipoPagoModule</title>
<polygon fill="#8dd3c7" stroke="#000000" points="360.9902,-187 357.9902,-191 336.9902,-191 333.9902,-187 247.0098,-187 247.0098,-151 360.9902,-151 360.9902,-187"/>
<text text-anchor="middle" x="304" y="-164.8" font-family="Times,serif" font-size="14.00" fill="#000000">TipoPagoModule</text>
</g>
<!-- ThemeModule&#45;&gt;TipoPagoModule -->
<g id="edge1" class="edge">
<title>ThemeModule&#45;&gt;TipoPagoModule</title>
<path fill="none" stroke="#000000" d="M525,-122.1061C525,-141.3391 525,-169 525,-169 525,-169 371.2004,-169 371.2004,-169"/>
<polygon fill="#000000" stroke="#000000" points="371.2004,-165.5001 361.2004,-169 371.2004,-172.5001 371.2004,-165.5001"/>
</g>
<!-- TipoPagoRoutingModule -->
<g id="node2" class="node">
<title>TipoPagoRoutingModule</title>
<polygon fill="#8dd3c7" stroke="#000000" points="457.608,-122 454.608,-126 433.608,-126 430.608,-122 298.392,-122 298.392,-86 457.608,-86 457.608,-122"/>
<text text-anchor="middle" x="378" y="-99.8" font-family="Times,serif" font-size="14.00" fill="#000000">TipoPagoRoutingModule</text>
</g>
<!-- TipoPagoRoutingModule&#45;&gt;TipoPagoModule -->
<g id="edge2" class="edge">
<title>TipoPagoRoutingModule&#45;&gt;TipoPagoModule</title>
<path fill="none" stroke="#000000" d="M329.7206,-122.1061C329.7206,-122.1061 329.7206,-140.991 329.7206,-140.991"/>
<polygon fill="#000000" stroke="#000000" points="326.2206,-140.9909 329.7206,-150.991 333.2206,-140.991 326.2206,-140.9909"/>
</g>
<!-- SharedModule -->
<g id="node3" class="node">
<title>SharedModule</title>
<polygon fill="#8dd3c7" stroke="#000000" points="280.4231,-122 277.4231,-126 256.4231,-126 253.4231,-122 181.5769,-122 181.5769,-86 280.4231,-86 280.4231,-122"/>
<text text-anchor="middle" x="231" y="-99.8" font-family="Times,serif" font-size="14.00" fill="#000000">SharedModule</text>
</g>
<!-- SharedModule&#45;&gt;TipoPagoModule -->
<g id="edge3" class="edge">
<title>SharedModule&#45;&gt;TipoPagoModule</title>
<path fill="none" stroke="#000000" d="M263.608,-122.1061C263.608,-122.1061 263.608,-140.991 263.608,-140.991"/>
<polygon fill="#000000" stroke="#000000" points="260.1081,-140.9909 263.608,-150.991 267.1081,-140.991 260.1081,-140.9909"/>
</g>
<!-- CrudTipoPagoComponent  -->
<g id="node5" class="node">
<title>CrudTipoPagoComponent </title>
<polygon fill="#fb8072" stroke="#000000" points="387.7702,-252 220.2298,-252 220.2298,-216 387.7702,-216 387.7702,-252"/>
<text text-anchor="middle" x="304" y="-229.8" font-family="Times,serif" font-size="14.00" fill="#000000">CrudTipoPagoComponent </text>
</g>
<!-- TipoPagoModule&#45;&gt;CrudTipoPagoComponent  -->
<g id="edge4" class="edge">
<title>TipoPagoModule&#45;&gt;CrudTipoPagoComponent </title>
<path fill="none" stroke="#000000" stroke-dasharray="5,2" d="M304,-187.1061C304,-187.1061 304,-205.991 304,-205.991"/>
<polygon fill="#000000" stroke="#000000" points="300.5001,-205.9909 304,-215.991 307.5001,-205.991 300.5001,-205.9909"/>
</g>
<!-- ReciboService -->
<g id="node6" class="node">
<title>ReciboService</title>
<ellipse fill="#fdb462" stroke="#000000" cx="91" cy="-104" rx="67.1927" ry="18"/>
<text text-anchor="middle" x="91" y="-99.8" font-family="Times,serif" font-size="14.00" fill="#000000">ReciboService</text>
</g>
<!-- ReciboService&#45;&gt;TipoPagoModule -->
<g id="edge5" class="edge">
<title>ReciboService&#45;&gt;TipoPagoModule</title>
<path fill="none" stroke="#000000" d="M91,-122.1061C91,-141.3391 91,-169 91,-169 91,-169 236.9199,-169 236.9199,-169"/>
<polygon fill="#000000" stroke="#000000" points="236.9199,-172.5001 246.9199,-169 236.9199,-165.5001 236.9199,-172.5001"/>
</g>
</g>
</svg>
