<?xml version="1.0" encoding="UTF-8" standalone="no"?>
<!DOCTYPE svg PUBLIC "-//W3C//DTD SVG 1.1//EN"
 "http://www.w3.org/Graphics/SVG/1.1/DTD/svg11.dtd">
<!-- Generated by graphviz version 2.40.1 (20161225.0304)
 -->
<!-- Title: dependencies Pages: 1 -->
<svg width="692pt" height="284pt"
 viewBox="0.00 0.00 692.00 284.00" xmlns="http://www.w3.org/2000/svg" xmlns:xlink="http://www.w3.org/1999/xlink">
<g id="graph0" class="graph" transform="scale(1 1) rotate(0) translate(4 280)">
<title>dependencies</title>
<polygon fill="#ffffff" stroke="transparent" points="-4,4 -4,-280 688,-280 688,4 -4,4"/>
<text text-anchor="start" x="321.0091" y="-42.4" font-family="sans-serif" font-weight="bold" font-size="14.00" fill="#000000">Legend</text>
<polygon fill="#ffffb3" stroke="transparent" points="108,-10 108,-30 128,-30 128,-10 108,-10"/>
<text text-anchor="start" x="131.629" y="-15.4" font-family="sans-serif" font-size="14.00" fill="#000000"> &#160;Declarations</text>
<polygon fill="#8dd3c7" stroke="transparent" points="221,-10 221,-30 241,-30 241,-10 221,-10"/>
<text text-anchor="start" x="244.7251" y="-15.4" font-family="sans-serif" font-size="14.00" fill="#000000"> &#160;Module</text>
<polygon fill="#80b1d3" stroke="transparent" points="307,-10 307,-30 327,-30 327,-10 307,-10"/>
<text text-anchor="start" x="330.7812" y="-15.4" font-family="sans-serif" font-size="14.00" fill="#000000"> &#160;Bootstrap</text>
<polygon fill="#fdb462" stroke="transparent" points="404,-10 404,-30 424,-30 424,-10 404,-10"/>
<text text-anchor="start" x="427.6732" y="-15.4" font-family="sans-serif" font-size="14.00" fill="#000000"> &#160;Providers</text>
<polygon fill="#fb8072" stroke="transparent" points="500,-10 500,-30 520,-30 520,-10 500,-10"/>
<text text-anchor="start" x="523.7258" y="-15.4" font-family="sans-serif" font-size="14.00" fill="#000000"> &#160;Exports</text>
<g id="clust1" class="cluster">
<title>cluster_DependenciaModule</title>
<polygon fill="none" stroke="#000000" stroke-dasharray="1,5" points="8,-70 8,-268 676,-268 676,-70 8,-70"/>
</g>
<g id="clust3" class="cluster">
<title>cluster_DependenciaModule_imports</title>
<polygon fill="none" stroke="#000000" points="242,-78 242,-130 668,-130 668,-78 242,-78"/>
</g>
<g id="clust4" class="cluster">
<title>cluster_DependenciaModule_exports</title>
<polygon fill="none" stroke="#000000" points="276,-208 276,-260 478,-260 478,-208 276,-208"/>
</g>
<g id="clust6" class="cluster">
<title>cluster_DependenciaModule_providers</title>
<polygon fill="none" stroke="#000000" points="16,-78 16,-130 234,-130 234,-78 16,-78"/>
</g>
<!-- ThemeModule -->
<g id="node1" class="node">
<title>ThemeModule</title>
<polygon fill="#8dd3c7" stroke="#000000" points="660.4231,-122 657.4231,-126 636.4231,-126 633.4231,-122 561.5769,-122 561.5769,-86 660.4231,-86 660.4231,-122"/>
<text text-anchor="middle" x="611" y="-99.8" font-family="Times,serif" font-size="14.00" fill="#000000">ThemeModule</text>
</g>
<!-- DependenciaModule -->
<g id="node4" class="node">
<title>DependenciaModule</title>
<polygon fill="#8dd3c7" stroke="#000000" points="443.1205,-187 440.1205,-191 419.1205,-191 416.1205,-187 310.8795,-187 310.8795,-151 443.1205,-151 443.1205,-187"/>
<text text-anchor="middle" x="377" y="-164.8" font-family="Times,serif" font-size="14.00" fill="#000000">DependenciaModule</text>
</g>
<!-- ThemeModule&#45;&gt;DependenciaModule -->
<g id="edge1" class="edge">
<title>ThemeModule&#45;&gt;DependenciaModule</title>
<path fill="none" stroke="#000000" d="M611,-122.1061C611,-141.3391 611,-169 611,-169 611,-169 453.4291,-169 453.4291,-169"/>
<polygon fill="#000000" stroke="#000000" points="453.4291,-165.5001 443.4291,-169 453.4291,-172.5001 453.4291,-165.5001"/>
</g>
<!-- DependenciaRoutingModule -->
<g id="node2" class="node">
<title>DependenciaRoutingModule</title>
<polygon fill="#8dd3c7" stroke="#000000" points="543.738,-122 540.738,-126 519.738,-126 516.738,-122 366.262,-122 366.262,-86 543.738,-86 543.738,-122"/>
<text text-anchor="middle" x="455" y="-99.8" font-family="Times,serif" font-size="14.00" fill="#000000">DependenciaRoutingModule</text>
</g>
<!-- DependenciaRoutingModule&#45;&gt;DependenciaModule -->
<g id="edge2" class="edge">
<title>DependenciaRoutingModule&#45;&gt;DependenciaModule</title>
<path fill="none" stroke="#000000" d="M404.7206,-122.1061C404.7206,-122.1061 404.7206,-140.991 404.7206,-140.991"/>
<polygon fill="#000000" stroke="#000000" points="401.2206,-140.9909 404.7206,-150.991 408.2206,-140.991 401.2206,-140.9909"/>
</g>
<!-- SharedModule -->
<g id="node3" class="node">
<title>SharedModule</title>
<polygon fill="#8dd3c7" stroke="#000000" points="348.4231,-122 345.4231,-126 324.4231,-126 321.4231,-122 249.5769,-122 249.5769,-86 348.4231,-86 348.4231,-122"/>
<text text-anchor="middle" x="299" y="-99.8" font-family="Times,serif" font-size="14.00" fill="#000000">SharedModule</text>
</g>
<!-- SharedModule&#45;&gt;DependenciaModule -->
<g id="edge3" class="edge">
<title>SharedModule&#45;&gt;DependenciaModule</title>
<path fill="none" stroke="#000000" d="M329.4506,-122.1061C329.4506,-122.1061 329.4506,-140.991 329.4506,-140.991"/>
<polygon fill="#000000" stroke="#000000" points="325.9506,-140.9909 329.4506,-150.991 332.9506,-140.991 325.9506,-140.9909"/>
</g>
<!-- CrudDependenciaComponent  -->
<g id="node5" class="node">
<title>CrudDependenciaComponent </title>
<polygon fill="#fb8072" stroke="#000000" points="469.8998,-252 284.1002,-252 284.1002,-216 469.8998,-216 469.8998,-252"/>
<text text-anchor="middle" x="377" y="-229.8" font-family="Times,serif" font-size="14.00" fill="#000000">CrudDependenciaComponent </text>
</g>
<!-- DependenciaModule&#45;&gt;CrudDependenciaComponent  -->
<g id="edge4" class="edge">
<title>DependenciaModule&#45;&gt;CrudDependenciaComponent </title>
<path fill="none" stroke="#000000" stroke-dasharray="5,2" d="M377,-187.1061C377,-187.1061 377,-205.991 377,-205.991"/>
<polygon fill="#000000" stroke="#000000" points="373.5001,-205.9909 377,-215.991 380.5001,-205.991 373.5001,-205.9909"/>
</g>
<!-- ProgramaOikosService -->
<g id="node6" class="node">
<title>ProgramaOikosService</title>
<ellipse fill="#fdb462" stroke="#000000" cx="125" cy="-104" rx="100.6998" ry="18"/>
<text text-anchor="middle" x="125" y="-99.8" font-family="Times,serif" font-size="14.00" fill="#000000">ProgramaOikosService</text>
</g>
<!-- ProgramaOikosService&#45;&gt;DependenciaModule -->
<g id="edge5" class="edge">
<title>ProgramaOikosService&#45;&gt;DependenciaModule</title>
<path fill="none" stroke="#000000" d="M125,-122.1061C125,-141.3391 125,-169 125,-169 125,-169 300.79,-169 300.79,-169"/>
<polygon fill="#000000" stroke="#000000" points="300.79,-172.5001 310.79,-169 300.7899,-165.5001 300.79,-172.5001"/>
</g>
</g>
</svg>
