<?xml version="1.0" encoding="UTF-8" standalone="no"?>
<!DOCTYPE svg PUBLIC "-//W3C//DTD SVG 1.1//EN"
 "http://www.w3.org/Graphics/SVG/1.1/DTD/svg11.dtd">
<!-- Generated by graphviz version 2.40.1 (20161225.0304)
 -->
<!-- Title: dependencies Pages: 1 -->
<svg width="692pt" height="284pt"
 viewBox="0.00 0.00 692.00 284.00" xmlns="http://www.w3.org/2000/svg" xmlns:xlink="http://www.w3.org/1999/xlink">
<g id="graph0" class="graph" transform="scale(1 1) rotate(0) translate(4 280)">
<title>dependencies</title>
<polygon fill="#ffffff" stroke="transparent" points="-4,4 -4,-280 688,-280 688,4 -4,4"/>
<text text-anchor="start" x="321.0091" y="-42.4" font-family="sans-serif" font-weight="bold" font-size="14.00" fill="#000000">Legend</text>
<polygon fill="#ffffb3" stroke="transparent" points="108,-10 108,-30 128,-30 128,-10 108,-10"/>
<text text-anchor="start" x="131.629" y="-15.4" font-family="sans-serif" font-size="14.00" fill="#000000"> &#160;Declarations</text>
<polygon fill="#8dd3c7" stroke="transparent" points="221,-10 221,-30 241,-30 241,-10 221,-10"/>
<text text-anchor="start" x="244.7251" y="-15.4" font-family="sans-serif" font-size="14.00" fill="#000000"> &#160;Module</text>
<polygon fill="#80b1d3" stroke="transparent" points="307,-10 307,-30 327,-30 327,-10 307,-10"/>
<text text-anchor="start" x="330.7812" y="-15.4" font-family="sans-serif" font-size="14.00" fill="#000000"> &#160;Bootstrap</text>
<polygon fill="#fdb462" stroke="transparent" points="404,-10 404,-30 424,-30 424,-10 404,-10"/>
<text text-anchor="start" x="427.6732" y="-15.4" font-family="sans-serif" font-size="14.00" fill="#000000"> &#160;Providers</text>
<polygon fill="#fb8072" stroke="transparent" points="500,-10 500,-30 520,-30 520,-10 500,-10"/>
<text text-anchor="start" x="523.7258" y="-15.4" font-family="sans-serif" font-size="14.00" fill="#000000"> &#160;Exports</text>
<g id="clust1" class="cluster">
<title>cluster_NucleoBasicoConocimientoModule</title>
<polygon fill="none" stroke="#000000" stroke-dasharray="1,5" points="8,-70 8,-268 676,-268 676,-70 8,-70"/>
</g>
<g id="clust3" class="cluster">
<title>cluster_NucleoBasicoConocimientoModule_imports</title>
<polygon fill="none" stroke="#000000" points="158,-78 158,-130 668,-130 668,-78 158,-78"/>
</g>
<g id="clust4" class="cluster">
<title>cluster_NucleoBasicoConocimientoModule_exports</title>
<polygon fill="none" stroke="#000000" points="171,-208 171,-260 457,-260 457,-208 171,-208"/>
</g>
<g id="clust6" class="cluster">
<title>cluster_NucleoBasicoConocimientoModule_providers</title>
<polygon fill="none" stroke="#000000" points="16,-78 16,-130 150,-130 150,-78 16,-78"/>
</g>
<!-- ThemeModule -->
<g id="node1" class="node">
<title>ThemeModule</title>
<polygon fill="#8dd3c7" stroke="#000000" points="660.4231,-122 657.4231,-126 636.4231,-126 633.4231,-122 561.5769,-122 561.5769,-86 660.4231,-86 660.4231,-122"/>
<text text-anchor="middle" x="611" y="-99.8" font-family="Times,serif" font-size="14.00" fill="#000000">ThemeModule</text>
</g>
<!-- NucleoBasicoConocimientoModule -->
<g id="node4" class="node">
<title>NucleoBasicoConocimientoModule</title>
<polygon fill="#8dd3c7" stroke="#000000" points="422.9058,-187 419.9058,-191 398.9058,-191 395.9058,-187 205.0942,-187 205.0942,-151 422.9058,-151 422.9058,-187"/>
<text text-anchor="middle" x="314" y="-164.8" font-family="Times,serif" font-size="14.00" fill="#000000">NucleoBasicoConocimientoModule</text>
</g>
<!-- ThemeModule&#45;&gt;NucleoBasicoConocimientoModule -->
<g id="edge1" class="edge">
<title>ThemeModule&#45;&gt;NucleoBasicoConocimientoModule</title>
<path fill="none" stroke="#000000" d="M611,-122.1061C611,-141.3391 611,-169 611,-169 611,-169 432.9054,-169 432.9054,-169"/>
<polygon fill="#000000" stroke="#000000" points="432.9054,-165.5001 422.9054,-169 432.9053,-172.5001 432.9054,-165.5001"/>
</g>
<!-- NucleoBasicoConocimientoRoutingModule -->
<g id="node2" class="node">
<title>NucleoBasicoConocimientoRoutingModule</title>
<polygon fill="#8dd3c7" stroke="#000000" points="544.0236,-122 541.0236,-126 520.0236,-126 517.0236,-122 281.9764,-122 281.9764,-86 544.0236,-86 544.0236,-122"/>
<text text-anchor="middle" x="413" y="-99.8" font-family="Times,serif" font-size="14.00" fill="#000000">NucleoBasicoConocimientoRoutingModule</text>
</g>
<!-- NucleoBasicoConocimientoRoutingModule&#45;&gt;NucleoBasicoConocimientoModule -->
<g id="edge2" class="edge">
<title>NucleoBasicoConocimientoRoutingModule&#45;&gt;NucleoBasicoConocimientoModule</title>
<path fill="none" stroke="#000000" d="M352.2206,-122.1061C352.2206,-122.1061 352.2206,-140.991 352.2206,-140.991"/>
<polygon fill="#000000" stroke="#000000" points="348.7206,-140.9909 352.2206,-150.991 355.7206,-140.991 348.7206,-140.9909"/>
</g>
<!-- SharedModule -->
<g id="node3" class="node">
<title>SharedModule</title>
<polygon fill="#8dd3c7" stroke="#000000" points="264.4231,-122 261.4231,-126 240.4231,-126 237.4231,-122 165.5769,-122 165.5769,-86 264.4231,-86 264.4231,-122"/>
<text text-anchor="middle" x="215" y="-99.8" font-family="Times,serif" font-size="14.00" fill="#000000">SharedModule</text>
</g>
<!-- SharedModule&#45;&gt;NucleoBasicoConocimientoModule -->
<g id="edge3" class="edge">
<title>SharedModule&#45;&gt;NucleoBasicoConocimientoModule</title>
<path fill="none" stroke="#000000" d="M234.7542,-122.1061C234.7542,-122.1061 234.7542,-140.991 234.7542,-140.991"/>
<polygon fill="#000000" stroke="#000000" points="231.2543,-140.9909 234.7542,-150.991 238.2543,-140.991 231.2543,-140.9909"/>
</g>
<!-- CrudNucleoBasicoConocimientoComponent  -->
<g id="node5" class="node">
<title>CrudNucleoBasicoConocimientoComponent </title>
<polygon fill="#fb8072" stroke="#000000" points="449.1854,-252 178.8146,-252 178.8146,-216 449.1854,-216 449.1854,-252"/>
<text text-anchor="middle" x="314" y="-229.8" font-family="Times,serif" font-size="14.00" fill="#000000">CrudNucleoBasicoConocimientoComponent </text>
</g>
<!-- NucleoBasicoConocimientoModule&#45;&gt;CrudNucleoBasicoConocimientoComponent  -->
<g id="edge4" class="edge">
<title>NucleoBasicoConocimientoModule&#45;&gt;CrudNucleoBasicoConocimientoComponent </title>
<path fill="none" stroke="#000000" stroke-dasharray="5,2" d="M314,-187.1061C314,-187.1061 314,-205.991 314,-205.991"/>
<polygon fill="#000000" stroke="#000000" points="310.5001,-205.9909 314,-215.991 317.5001,-205.991 310.5001,-205.9909"/>
</g>
<!-- CoreService -->
<g id="node6" class="node">
<title>CoreService</title>
<ellipse fill="#fdb462" stroke="#000000" cx="83" cy="-104" rx="58.5251" ry="18"/>
<text text-anchor="middle" x="83" y="-99.8" font-family="Times,serif" font-size="14.00" fill="#000000">CoreService</text>
</g>
<!-- CoreService&#45;&gt;NucleoBasicoConocimientoModule -->
<g id="edge5" class="edge">
<title>CoreService&#45;&gt;NucleoBasicoConocimientoModule</title>
<path fill="none" stroke="#000000" d="M83,-122.1061C83,-141.3391 83,-169 83,-169 83,-169 195.2641,-169 195.2641,-169"/>
<polygon fill="#000000" stroke="#000000" points="195.2642,-172.5001 205.2641,-169 195.2641,-165.5001 195.2642,-172.5001"/>
</g>
</g>
</svg>
