<?xml version="1.0" encoding="UTF-8" standalone="no"?>
<!DOCTYPE svg PUBLIC "-//W3C//DTD SVG 1.1//EN"
 "http://www.w3.org/Graphics/SVG/1.1/DTD/svg11.dtd">
<!-- Generated by graphviz version 2.40.1 (20161225.0304)
 -->
<!-- Title: dependencies Pages: 1 -->
<svg width="810pt" height="284pt"
 viewBox="0.00 0.00 810.00 284.00" xmlns="http://www.w3.org/2000/svg" xmlns:xlink="http://www.w3.org/1999/xlink">
<g id="graph0" class="graph" transform="scale(1 1) rotate(0) translate(4 280)">
<title>dependencies</title>
<polygon fill="#ffffff" stroke="transparent" points="-4,4 -4,-280 806,-280 806,4 -4,4"/>
<text text-anchor="start" x="380.0091" y="-42.4" font-family="sans-serif" font-weight="bold" font-size="14.00" fill="#000000">Legend</text>
<polygon fill="#ffffb3" stroke="transparent" points="167,-10 167,-30 187,-30 187,-10 167,-10"/>
<text text-anchor="start" x="190.629" y="-15.4" font-family="sans-serif" font-size="14.00" fill="#000000"> &#160;Declarations</text>
<polygon fill="#8dd3c7" stroke="transparent" points="280,-10 280,-30 300,-30 300,-10 280,-10"/>
<text text-anchor="start" x="303.7251" y="-15.4" font-family="sans-serif" font-size="14.00" fill="#000000"> &#160;Module</text>
<polygon fill="#80b1d3" stroke="transparent" points="366,-10 366,-30 386,-30 386,-10 366,-10"/>
<text text-anchor="start" x="389.7812" y="-15.4" font-family="sans-serif" font-size="14.00" fill="#000000"> &#160;Bootstrap</text>
<polygon fill="#fdb462" stroke="transparent" points="463,-10 463,-30 483,-30 483,-10 463,-10"/>
<text text-anchor="start" x="486.6732" y="-15.4" font-family="sans-serif" font-size="14.00" fill="#000000"> &#160;Providers</text>
<polygon fill="#fb8072" stroke="transparent" points="559,-10 559,-30 579,-30 579,-10 559,-10"/>
<text text-anchor="start" x="582.7258" y="-15.4" font-family="sans-serif" font-size="14.00" fill="#000000"> &#160;Exports</text>
<g id="clust1" class="cluster">
<title>cluster_TipoDocumentoProgramaModule</title>
<polygon fill="none" stroke="#000000" stroke-dasharray="1,5" points="8,-70 8,-268 794,-268 794,-70 8,-70"/>
</g>
<g id="clust3" class="cluster">
<title>cluster_TipoDocumentoProgramaModule_imports</title>
<polygon fill="none" stroke="#000000" points="286,-78 286,-130 786,-130 786,-78 286,-78"/>
</g>
<g id="clust4" class="cluster">
<title>cluster_TipoDocumentoProgramaModule_exports</title>
<polygon fill="none" stroke="#000000" points="301,-208 301,-260 577,-260 577,-208 301,-208"/>
</g>
<g id="clust6" class="cluster">
<title>cluster_TipoDocumentoProgramaModule_providers</title>
<polygon fill="none" stroke="#000000" points="16,-78 16,-130 278,-130 278,-78 16,-78"/>
</g>
<!-- ThemeModule -->
<g id="node1" class="node">
<title>ThemeModule</title>
<polygon fill="#8dd3c7" stroke="#000000" points="778.4231,-122 775.4231,-126 754.4231,-126 751.4231,-122 679.5769,-122 679.5769,-86 778.4231,-86 778.4231,-122"/>
<text text-anchor="middle" x="729" y="-99.8" font-family="Times,serif" font-size="14.00" fill="#000000">ThemeModule</text>
</g>
<!-- TipoDocumentoProgramaModule -->
<g id="node4" class="node">
<title>TipoDocumentoProgramaModule</title>
<polygon fill="#8dd3c7" stroke="#000000" points="541.7338,-187 538.7338,-191 517.7338,-191 514.7338,-187 336.2662,-187 336.2662,-151 541.7338,-151 541.7338,-187"/>
<text text-anchor="middle" x="439" y="-164.8" font-family="Times,serif" font-size="14.00" fill="#000000">TipoDocumentoProgramaModule</text>
</g>
<!-- ThemeModule&#45;&gt;TipoDocumentoProgramaModule -->
<g id="edge1" class="edge">
<title>ThemeModule&#45;&gt;TipoDocumentoProgramaModule</title>
<path fill="none" stroke="#000000" d="M729,-122.1061C729,-141.3391 729,-169 729,-169 729,-169 552.0597,-169 552.0597,-169"/>
<polygon fill="#000000" stroke="#000000" points="552.0597,-165.5001 542.0597,-169 552.0597,-172.5001 552.0597,-165.5001"/>
</g>
<!-- TipoDocumentoProgramaRoutingModule -->
<g id="node2" class="node">
<title>TipoDocumentoProgramaRoutingModule</title>
<polygon fill="#8dd3c7" stroke="#000000" points="661.3514,-122 658.3514,-126 637.3514,-126 634.3514,-122 410.6486,-122 410.6486,-86 661.3514,-86 661.3514,-122"/>
<text text-anchor="middle" x="536" y="-99.8" font-family="Times,serif" font-size="14.00" fill="#000000">TipoDocumentoProgramaRoutingModule</text>
</g>
<!-- TipoDocumentoProgramaRoutingModule&#45;&gt;TipoDocumentoProgramaModule -->
<g id="edge2" class="edge">
<title>TipoDocumentoProgramaRoutingModule&#45;&gt;TipoDocumentoProgramaModule</title>
<path fill="none" stroke="#000000" d="M476.2206,-122.1061C476.2206,-122.1061 476.2206,-140.991 476.2206,-140.991"/>
<polygon fill="#000000" stroke="#000000" points="472.7206,-140.9909 476.2206,-150.991 479.7206,-140.991 472.7206,-140.9909"/>
</g>
<!-- SharedModule -->
<g id="node3" class="node">
<title>SharedModule</title>
<polygon fill="#8dd3c7" stroke="#000000" points="392.4231,-122 389.4231,-126 368.4231,-126 365.4231,-122 293.5769,-122 293.5769,-86 392.4231,-86 392.4231,-122"/>
<text text-anchor="middle" x="343" y="-99.8" font-family="Times,serif" font-size="14.00" fill="#000000">SharedModule</text>
</g>
<!-- SharedModule&#45;&gt;TipoDocumentoProgramaModule -->
<g id="edge3" class="edge">
<title>SharedModule&#45;&gt;TipoDocumentoProgramaModule</title>
<path fill="none" stroke="#000000" d="M364.1722,-122.1061C364.1722,-122.1061 364.1722,-140.991 364.1722,-140.991"/>
<polygon fill="#000000" stroke="#000000" points="360.6722,-140.9909 364.1722,-150.991 367.6722,-140.991 360.6722,-140.9909"/>
</g>
<!-- CrudTipoDocumentoProgramaComponent  -->
<g id="node5" class="node">
<title>CrudTipoDocumentoProgramaComponent </title>
<polygon fill="#fb8072" stroke="#000000" points="568.5134,-252 309.4866,-252 309.4866,-216 568.5134,-216 568.5134,-252"/>
<text text-anchor="middle" x="439" y="-229.8" font-family="Times,serif" font-size="14.00" fill="#000000">CrudTipoDocumentoProgramaComponent </text>
</g>
<!-- TipoDocumentoProgramaModule&#45;&gt;CrudTipoDocumentoProgramaComponent  -->
<g id="edge4" class="edge">
<title>TipoDocumentoProgramaModule&#45;&gt;CrudTipoDocumentoProgramaComponent </title>
<path fill="none" stroke="#000000" stroke-dasharray="5,2" d="M439,-187.1061C439,-187.1061 439,-205.991 439,-205.991"/>
<polygon fill="#000000" stroke="#000000" points="435.5001,-205.9909 439,-215.991 442.5001,-205.991 435.5001,-205.9909"/>
</g>
<!-- DocumentoProgramaService -->
<g id="node6" class="node">
<title>DocumentoProgramaService</title>
<ellipse fill="#fdb462" stroke="#000000" cx="147" cy="-104" rx="122.6736" ry="18"/>
<text text-anchor="middle" x="147" y="-99.8" font-family="Times,serif" font-size="14.00" fill="#000000">DocumentoProgramaService</text>
</g>
<!-- DocumentoProgramaService&#45;&gt;TipoDocumentoProgramaModule -->
<g id="edge5" class="edge">
<title>DocumentoProgramaService&#45;&gt;TipoDocumentoProgramaModule</title>
<path fill="none" stroke="#000000" d="M147,-122.1061C147,-141.3391 147,-169 147,-169 147,-169 326.0517,-169 326.0517,-169"/>
<polygon fill="#000000" stroke="#000000" points="326.0518,-172.5001 336.0517,-169 326.0517,-165.5001 326.0518,-172.5001"/>
</g>
</g>
</svg>
