<?xml version="1.0" encoding="UTF-8" standalone="no"?>
<!DOCTYPE svg PUBLIC "-//W3C//DTD SVG 1.1//EN"
 "http://www.w3.org/Graphics/SVG/1.1/DTD/svg11.dtd">
<!-- Generated by graphviz version 2.40.1 (20161225.0304)
 -->
<!-- Title: dependencies Pages: 1 -->
<svg width="718pt" height="284pt"
 viewBox="0.00 0.00 718.00 284.00" xmlns="http://www.w3.org/2000/svg" xmlns:xlink="http://www.w3.org/1999/xlink">
<g id="graph0" class="graph" transform="scale(1 1) rotate(0) translate(4 280)">
<title>dependencies</title>
<polygon fill="#ffffff" stroke="transparent" points="-4,4 -4,-280 714,-280 714,4 -4,4"/>
<text text-anchor="start" x="334.0091" y="-42.4" font-family="sans-serif" font-weight="bold" font-size="14.00" fill="#000000">Legend</text>
<polygon fill="#ffffb3" stroke="transparent" points="121,-10 121,-30 141,-30 141,-10 121,-10"/>
<text text-anchor="start" x="144.629" y="-15.4" font-family="sans-serif" font-size="14.00" fill="#000000"> &#160;Declarations</text>
<polygon fill="#8dd3c7" stroke="transparent" points="234,-10 234,-30 254,-30 254,-10 234,-10"/>
<text text-anchor="start" x="257.7251" y="-15.4" font-family="sans-serif" font-size="14.00" fill="#000000"> &#160;Module</text>
<polygon fill="#80b1d3" stroke="transparent" points="320,-10 320,-30 340,-30 340,-10 320,-10"/>
<text text-anchor="start" x="343.7812" y="-15.4" font-family="sans-serif" font-size="14.00" fill="#000000"> &#160;Bootstrap</text>
<polygon fill="#fdb462" stroke="transparent" points="417,-10 417,-30 437,-30 437,-10 417,-10"/>
<text text-anchor="start" x="440.6732" y="-15.4" font-family="sans-serif" font-size="14.00" fill="#000000"> &#160;Providers</text>
<polygon fill="#fb8072" stroke="transparent" points="513,-10 513,-30 533,-30 533,-10 513,-10"/>
<text text-anchor="start" x="536.7258" y="-15.4" font-family="sans-serif" font-size="14.00" fill="#000000"> &#160;Exports</text>
<g id="clust1" class="cluster">
<title>cluster_TipoDependenciaModule</title>
<polygon fill="none" stroke="#000000" stroke-dasharray="1,5" points="8,-70 8,-268 702,-268 702,-70 8,-70"/>
</g>
<g id="clust3" class="cluster">
<title>cluster_TipoDependenciaModule_imports</title>
<polygon fill="none" stroke="#000000" points="242,-78 242,-130 694,-130 694,-78 242,-78"/>
</g>
<g id="clust4" class="cluster">
<title>cluster_TipoDependenciaModule_exports</title>
<polygon fill="none" stroke="#000000" points="269,-208 269,-260 497,-260 497,-208 269,-208"/>
</g>
<g id="clust6" class="cluster">
<title>cluster_TipoDependenciaModule_providers</title>
<polygon fill="none" stroke="#000000" points="16,-78 16,-130 234,-130 234,-78 16,-78"/>
</g>
<!-- ThemeModule -->
<g id="node1" class="node">
<title>ThemeModule</title>
<polygon fill="#8dd3c7" stroke="#000000" points="686.4231,-122 683.4231,-126 662.4231,-126 659.4231,-122 587.5769,-122 587.5769,-86 686.4231,-86 686.4231,-122"/>
<text text-anchor="middle" x="637" y="-99.8" font-family="Times,serif" font-size="14.00" fill="#000000">ThemeModule</text>
</g>
<!-- TipoDependenciaModule -->
<g id="node4" class="node">
<title>TipoDependenciaModule</title>
<polygon fill="#8dd3c7" stroke="#000000" points="462.5632,-187 459.5632,-191 438.5632,-191 435.5632,-187 303.4368,-187 303.4368,-151 462.5632,-151 462.5632,-187"/>
<text text-anchor="middle" x="383" y="-164.8" font-family="Times,serif" font-size="14.00" fill="#000000">TipoDependenciaModule</text>
</g>
<!-- ThemeModule&#45;&gt;TipoDependenciaModule -->
<g id="edge1" class="edge">
<title>ThemeModule&#45;&gt;TipoDependenciaModule</title>
<path fill="none" stroke="#000000" d="M637,-122.1061C637,-141.3391 637,-169 637,-169 637,-169 472.6703,-169 472.6703,-169"/>
<polygon fill="#000000" stroke="#000000" points="472.6703,-165.5001 462.6703,-169 472.6703,-172.5001 472.6703,-165.5001"/>
</g>
<!-- TipoDependenciaRoutingModule -->
<g id="node2" class="node">
<title>TipoDependenciaRoutingModule</title>
<polygon fill="#8dd3c7" stroke="#000000" points="570.1811,-122 567.1811,-126 546.1811,-126 543.1811,-122 365.8189,-122 365.8189,-86 570.1811,-86 570.1811,-122"/>
<text text-anchor="middle" x="468" y="-99.8" font-family="Times,serif" font-size="14.00" fill="#000000">TipoDependenciaRoutingModule</text>
</g>
<!-- TipoDependenciaRoutingModule&#45;&gt;TipoDependenciaModule -->
<g id="edge2" class="edge">
<title>TipoDependenciaRoutingModule&#45;&gt;TipoDependenciaModule</title>
<path fill="none" stroke="#000000" d="M414.2206,-122.1061C414.2206,-122.1061 414.2206,-140.991 414.2206,-140.991"/>
<polygon fill="#000000" stroke="#000000" points="410.7206,-140.9909 414.2206,-150.991 417.7206,-140.991 410.7206,-140.9909"/>
</g>
<!-- SharedModule -->
<g id="node3" class="node">
<title>SharedModule</title>
<polygon fill="#8dd3c7" stroke="#000000" points="348.4231,-122 345.4231,-126 324.4231,-126 321.4231,-122 249.5769,-122 249.5769,-86 348.4231,-86 348.4231,-122"/>
<text text-anchor="middle" x="299" y="-99.8" font-family="Times,serif" font-size="14.00" fill="#000000">SharedModule</text>
</g>
<!-- SharedModule&#45;&gt;TipoDependenciaModule -->
<g id="edge3" class="edge">
<title>SharedModule&#45;&gt;TipoDependenciaModule</title>
<path fill="none" stroke="#000000" d="M325.8398,-122.1061C325.8398,-122.1061 325.8398,-140.991 325.8398,-140.991"/>
<polygon fill="#000000" stroke="#000000" points="322.3398,-140.9909 325.8398,-150.991 329.3398,-140.991 322.3398,-140.9909"/>
</g>
<!-- CrudTipoDependenciaComponent  -->
<g id="node5" class="node">
<title>CrudTipoDependenciaComponent </title>
<polygon fill="#fb8072" stroke="#000000" points="489.3433,-252 276.6567,-252 276.6567,-216 489.3433,-216 489.3433,-252"/>
<text text-anchor="middle" x="383" y="-229.8" font-family="Times,serif" font-size="14.00" fill="#000000">CrudTipoDependenciaComponent </text>
</g>
<!-- TipoDependenciaModule&#45;&gt;CrudTipoDependenciaComponent  -->
<g id="edge4" class="edge">
<title>TipoDependenciaModule&#45;&gt;CrudTipoDependenciaComponent </title>
<path fill="none" stroke="#000000" stroke-dasharray="5,2" d="M383,-187.1061C383,-187.1061 383,-205.991 383,-205.991"/>
<polygon fill="#000000" stroke="#000000" points="379.5001,-205.9909 383,-215.991 386.5001,-205.991 379.5001,-205.9909"/>
</g>
<!-- ProgramaOikosService -->
<g id="node6" class="node">
<title>ProgramaOikosService</title>
<ellipse fill="#fdb462" stroke="#000000" cx="125" cy="-104" rx="100.6998" ry="18"/>
<text text-anchor="middle" x="125" y="-99.8" font-family="Times,serif" font-size="14.00" fill="#000000">ProgramaOikosService</text>
</g>
<!-- ProgramaOikosService&#45;&gt;TipoDependenciaModule -->
<g id="edge5" class="edge">
<title>ProgramaOikosService&#45;&gt;TipoDependenciaModule</title>
<path fill="none" stroke="#000000" d="M125,-122.1061C125,-141.3391 125,-169 125,-169 125,-169 293.1341,-169 293.1341,-169"/>
<polygon fill="#000000" stroke="#000000" points="293.1341,-172.5001 303.1341,-169 293.134,-165.5001 293.1341,-172.5001"/>
</g>
</g>
</svg>
