<?xml version="1.0" encoding="UTF-8" standalone="no"?>
<!DOCTYPE svg PUBLIC "-//W3C//DTD SVG 1.1//EN"
 "http://www.w3.org/Graphics/SVG/1.1/DTD/svg11.dtd">
<!-- Generated by graphviz version 2.40.1 (20161225.0304)
 -->
<!-- Title: dependencies Pages: 1 -->
<svg width="660pt" height="284pt"
 viewBox="0.00 0.00 660.00 284.00" xmlns="http://www.w3.org/2000/svg" xmlns:xlink="http://www.w3.org/1999/xlink">
<g id="graph0" class="graph" transform="scale(1 1) rotate(0) translate(4 280)">
<title>dependencies</title>
<polygon fill="#ffffff" stroke="transparent" points="-4,4 -4,-280 656,-280 656,4 -4,4"/>
<text text-anchor="start" x="305.0091" y="-42.4" font-family="sans-serif" font-weight="bold" font-size="14.00" fill="#000000">Legend</text>
<polygon fill="#ffffb3" stroke="transparent" points="92,-10 92,-30 112,-30 112,-10 92,-10"/>
<text text-anchor="start" x="115.629" y="-15.4" font-family="sans-serif" font-size="14.00" fill="#000000"> &#160;Declarations</text>
<polygon fill="#8dd3c7" stroke="transparent" points="205,-10 205,-30 225,-30 225,-10 205,-10"/>
<text text-anchor="start" x="228.7251" y="-15.4" font-family="sans-serif" font-size="14.00" fill="#000000"> &#160;Module</text>
<polygon fill="#80b1d3" stroke="transparent" points="291,-10 291,-30 311,-30 311,-10 291,-10"/>
<text text-anchor="start" x="314.7812" y="-15.4" font-family="sans-serif" font-size="14.00" fill="#000000"> &#160;Bootstrap</text>
<polygon fill="#fdb462" stroke="transparent" points="388,-10 388,-30 408,-30 408,-10 388,-10"/>
<text text-anchor="start" x="411.6732" y="-15.4" font-family="sans-serif" font-size="14.00" fill="#000000"> &#160;Providers</text>
<polygon fill="#fb8072" stroke="transparent" points="484,-10 484,-30 504,-30 504,-10 484,-10"/>
<text text-anchor="start" x="507.7258" y="-15.4" font-family="sans-serif" font-size="14.00" fill="#000000"> &#160;Exports</text>
<g id="clust1" class="cluster">
<title>cluster_TipoProyectoModule</title>
<polygon fill="none" stroke="#000000" stroke-dasharray="1,5" points="8,-70 8,-268 644,-268 644,-70 8,-70"/>
</g>
<g id="clust3" class="cluster">
<title>cluster_TipoProyectoModule_imports</title>
<polygon fill="none" stroke="#000000" points="206,-78 206,-130 636,-130 636,-78 206,-78"/>
</g>
<g id="clust4" class="cluster">
<title>cluster_TipoProyectoModule_exports</title>
<polygon fill="none" stroke="#000000" points="239,-208 239,-260 445,-260 445,-208 239,-208"/>
</g>
<g id="clust6" class="cluster">
<title>cluster_TipoProyectoModule_providers</title>
<polygon fill="none" stroke="#000000" points="16,-78 16,-130 198,-130 198,-78 16,-78"/>
</g>
<!-- ThemeModule -->
<g id="node1" class="node">
<title>ThemeModule</title>
<polygon fill="#8dd3c7" stroke="#000000" points="628.4231,-122 625.4231,-126 604.4231,-126 601.4231,-122 529.5769,-122 529.5769,-86 628.4231,-86 628.4231,-122"/>
<text text-anchor="middle" x="579" y="-99.8" font-family="Times,serif" font-size="14.00" fill="#000000">ThemeModule</text>
</g>
<!-- TipoProyectoModule -->
<g id="node4" class="node">
<title>TipoProyectoModule</title>
<polygon fill="#8dd3c7" stroke="#000000" points="409.7562,-187 406.7562,-191 385.7562,-191 382.7562,-187 274.2438,-187 274.2438,-151 409.7562,-151 409.7562,-187"/>
<text text-anchor="middle" x="342" y="-164.8" font-family="Times,serif" font-size="14.00" fill="#000000">TipoProyectoModule</text>
</g>
<!-- ThemeModule&#45;&gt;TipoProyectoModule -->
<g id="edge1" class="edge">
<title>ThemeModule&#45;&gt;TipoProyectoModule</title>
<path fill="none" stroke="#000000" d="M579,-122.1061C579,-141.3391 579,-169 579,-169 579,-169 419.9147,-169 419.9147,-169"/>
<polygon fill="#000000" stroke="#000000" points="419.9147,-165.5001 409.9147,-169 419.9147,-172.5001 419.9147,-165.5001"/>
</g>
<!-- TipoProyectoRoutingModule -->
<g id="node2" class="node">
<title>TipoProyectoRoutingModule</title>
<polygon fill="#8dd3c7" stroke="#000000" points="511.3738,-122 508.3738,-126 487.3738,-126 484.3738,-122 330.6262,-122 330.6262,-86 511.3738,-86 511.3738,-122"/>
<text text-anchor="middle" x="421" y="-99.8" font-family="Times,serif" font-size="14.00" fill="#000000">TipoProyectoRoutingModule</text>
</g>
<!-- TipoProyectoRoutingModule&#45;&gt;TipoProyectoModule -->
<g id="edge2" class="edge">
<title>TipoProyectoRoutingModule&#45;&gt;TipoProyectoModule</title>
<path fill="none" stroke="#000000" d="M370.2206,-122.1061C370.2206,-122.1061 370.2206,-140.991 370.2206,-140.991"/>
<polygon fill="#000000" stroke="#000000" points="366.7206,-140.9909 370.2206,-150.991 373.7206,-140.991 366.7206,-140.9909"/>
</g>
<!-- SharedModule -->
<g id="node3" class="node">
<title>SharedModule</title>
<polygon fill="#8dd3c7" stroke="#000000" points="312.4231,-122 309.4231,-126 288.4231,-126 285.4231,-122 213.5769,-122 213.5769,-86 312.4231,-86 312.4231,-122"/>
<text text-anchor="middle" x="263" y="-99.8" font-family="Times,serif" font-size="14.00" fill="#000000">SharedModule</text>
</g>
<!-- SharedModule&#45;&gt;TipoProyectoModule -->
<g id="edge3" class="edge">
<title>SharedModule&#45;&gt;TipoProyectoModule</title>
<path fill="none" stroke="#000000" d="M293.1666,-122.1061C293.1666,-122.1061 293.1666,-140.991 293.1666,-140.991"/>
<polygon fill="#000000" stroke="#000000" points="289.6666,-140.9909 293.1666,-150.991 296.6666,-140.991 289.6666,-140.9909"/>
</g>
<!-- CrudTipoProyectoComponent  -->
<g id="node5" class="node">
<title>CrudTipoProyectoComponent </title>
<polygon fill="#fb8072" stroke="#000000" points="436.5358,-252 247.4642,-252 247.4642,-216 436.5358,-216 436.5358,-252"/>
<text text-anchor="middle" x="342" y="-229.8" font-family="Times,serif" font-size="14.00" fill="#000000">CrudTipoProyectoComponent </text>
</g>
<!-- TipoProyectoModule&#45;&gt;CrudTipoProyectoComponent  -->
<g id="edge4" class="edge">
<title>TipoProyectoModule&#45;&gt;CrudTipoProyectoComponent </title>
<path fill="none" stroke="#000000" stroke-dasharray="5,2" d="M342,-187.1061C342,-187.1061 342,-205.991 342,-205.991"/>
<polygon fill="#000000" stroke="#000000" points="338.5001,-205.9909 342,-215.991 345.5001,-205.991 338.5001,-205.9909"/>
</g>
<!-- InscripcionService -->
<g id="node6" class="node">
<title>InscripcionService</title>
<ellipse fill="#fdb462" stroke="#000000" cx="107" cy="-104" rx="83.3635" ry="18"/>
<text text-anchor="middle" x="107" y="-99.8" font-family="Times,serif" font-size="14.00" fill="#000000">InscripcionService</text>
</g>
<!-- InscripcionService&#45;&gt;TipoProyectoModule -->
<g id="edge5" class="edge">
<title>InscripcionService&#45;&gt;TipoProyectoModule</title>
<path fill="none" stroke="#000000" d="M107,-122.1061C107,-141.3391 107,-169 107,-169 107,-169 264.0283,-169 264.0283,-169"/>
<polygon fill="#000000" stroke="#000000" points="264.0283,-172.5001 274.0283,-169 264.0282,-165.5001 264.0283,-172.5001"/>
</g>
</g>
</svg>
