<?xml version="1.0" encoding="UTF-8" standalone="no"?>
<!DOCTYPE svg PUBLIC "-//W3C//DTD SVG 1.1//EN"
 "http://www.w3.org/Graphics/SVG/1.1/DTD/svg11.dtd">
<!-- Generated by graphviz version 2.40.1 (20161225.0304)
 -->
<!-- Title: dependencies Pages: 1 -->
<svg width="618pt" height="284pt"
 viewBox="0.00 0.00 618.00 284.00" xmlns="http://www.w3.org/2000/svg" xmlns:xlink="http://www.w3.org/1999/xlink">
<g id="graph0" class="graph" transform="scale(1 1) rotate(0) translate(4 280)">
<title>dependencies</title>
<polygon fill="#ffffff" stroke="transparent" points="-4,4 -4,-280 614,-280 614,4 -4,4"/>
<text text-anchor="start" x="284.0091" y="-42.4" font-family="sans-serif" font-weight="bold" font-size="14.00" fill="#000000">Legend</text>
<polygon fill="#ffffb3" stroke="transparent" points="71,-10 71,-30 91,-30 91,-10 71,-10"/>
<text text-anchor="start" x="94.629" y="-15.4" font-family="sans-serif" font-size="14.00" fill="#000000"> &#160;Declarations</text>
<polygon fill="#8dd3c7" stroke="transparent" points="184,-10 184,-30 204,-30 204,-10 184,-10"/>
<text text-anchor="start" x="207.7251" y="-15.4" font-family="sans-serif" font-size="14.00" fill="#000000"> &#160;Module</text>
<polygon fill="#80b1d3" stroke="transparent" points="270,-10 270,-30 290,-30 290,-10 270,-10"/>
<text text-anchor="start" x="293.7812" y="-15.4" font-family="sans-serif" font-size="14.00" fill="#000000"> &#160;Bootstrap</text>
<polygon fill="#fdb462" stroke="transparent" points="367,-10 367,-30 387,-30 387,-10 367,-10"/>
<text text-anchor="start" x="390.6732" y="-15.4" font-family="sans-serif" font-size="14.00" fill="#000000"> &#160;Providers</text>
<polygon fill="#fb8072" stroke="transparent" points="463,-10 463,-30 483,-30 483,-10 463,-10"/>
<text text-anchor="start" x="486.7258" y="-15.4" font-family="sans-serif" font-size="14.00" fill="#000000"> &#160;Exports</text>
<g id="clust1" class="cluster">
<title>cluster_TipoReciboModule</title>
<polygon fill="none" stroke="#000000" stroke-dasharray="1,5" points="8,-70 8,-268 602,-268 602,-70 8,-70"/>
</g>
<g id="clust3" class="cluster">
<title>cluster_TipoReciboModule_imports</title>
<polygon fill="none" stroke="#000000" points="174,-78 174,-130 594,-130 594,-78 174,-78"/>
</g>
<g id="clust4" class="cluster">
<title>cluster_TipoReciboModule_exports</title>
<polygon fill="none" stroke="#000000" points="210,-208 210,-260 404,-260 404,-208 210,-208"/>
</g>
<g id="clust6" class="cluster">
<title>cluster_TipoReciboModule_providers</title>
<polygon fill="none" stroke="#000000" points="16,-78 16,-130 166,-130 166,-78 16,-78"/>
</g>
<!-- ThemeModule -->
<g id="node1" class="node">
<title>ThemeModule</title>
<polygon fill="#8dd3c7" stroke="#000000" points="586.4231,-122 583.4231,-126 562.4231,-126 559.4231,-122 487.5769,-122 487.5769,-86 586.4231,-86 586.4231,-122"/>
<text text-anchor="middle" x="537" y="-99.8" font-family="Times,serif" font-size="14.00" fill="#000000">ThemeModule</text>
</g>
<!-- TipoReciboModule -->
<g id="node4" class="node">
<title>TipoReciboModule</title>
<polygon fill="#8dd3c7" stroke="#000000" points="369.6499,-187 366.6499,-191 345.6499,-191 342.6499,-187 244.3501,-187 244.3501,-151 369.6499,-151 369.6499,-187"/>
<text text-anchor="middle" x="307" y="-164.8" font-family="Times,serif" font-size="14.00" fill="#000000">TipoReciboModule</text>
</g>
<!-- ThemeModule&#45;&gt;TipoReciboModule -->
<g id="edge1" class="edge">
<title>ThemeModule&#45;&gt;TipoReciboModule</title>
<path fill="none" stroke="#000000" d="M537,-122.1061C537,-141.3391 537,-169 537,-169 537,-169 379.8485,-169 379.8485,-169"/>
<polygon fill="#000000" stroke="#000000" points="379.8485,-165.5001 369.8485,-169 379.8485,-172.5001 379.8485,-165.5001"/>
</g>
<!-- TipoReciboRoutingModule -->
<g id="node2" class="node">
<title>TipoReciboRoutingModule</title>
<polygon fill="#8dd3c7" stroke="#000000" points="469.2674,-122 466.2674,-126 445.2674,-126 442.2674,-122 298.7326,-122 298.7326,-86 469.2674,-86 469.2674,-122"/>
<text text-anchor="middle" x="384" y="-99.8" font-family="Times,serif" font-size="14.00" fill="#000000">TipoReciboRoutingModule</text>
</g>
<!-- TipoReciboRoutingModule&#45;&gt;TipoReciboModule -->
<g id="edge2" class="edge">
<title>TipoReciboRoutingModule&#45;&gt;TipoReciboModule</title>
<path fill="none" stroke="#000000" d="M334.2206,-122.1061C334.2206,-122.1061 334.2206,-140.991 334.2206,-140.991"/>
<polygon fill="#000000" stroke="#000000" points="330.7206,-140.9909 334.2206,-150.991 337.7206,-140.991 330.7206,-140.9909"/>
</g>
<!-- SharedModule -->
<g id="node3" class="node">
<title>SharedModule</title>
<polygon fill="#8dd3c7" stroke="#000000" points="280.4231,-122 277.4231,-126 256.4231,-126 253.4231,-122 181.5769,-122 181.5769,-86 280.4231,-86 280.4231,-122"/>
<text text-anchor="middle" x="231" y="-99.8" font-family="Times,serif" font-size="14.00" fill="#000000">SharedModule</text>
</g>
<!-- SharedModule&#45;&gt;TipoReciboModule -->
<g id="edge3" class="edge">
<title>SharedModule&#45;&gt;TipoReciboModule</title>
<path fill="none" stroke="#000000" d="M262.1932,-122.1061C262.1932,-122.1061 262.1932,-140.991 262.1932,-140.991"/>
<polygon fill="#000000" stroke="#000000" points="258.6933,-140.9909 262.1932,-150.991 265.6933,-140.991 258.6933,-140.9909"/>
</g>
<!-- CrudTipoReciboComponent  -->
<g id="node5" class="node">
<title>CrudTipoReciboComponent </title>
<polygon fill="#fb8072" stroke="#000000" points="396.4292,-252 217.5708,-252 217.5708,-216 396.4292,-216 396.4292,-252"/>
<text text-anchor="middle" x="307" y="-229.8" font-family="Times,serif" font-size="14.00" fill="#000000">CrudTipoReciboComponent </text>
</g>
<!-- TipoReciboModule&#45;&gt;CrudTipoReciboComponent  -->
<g id="edge4" class="edge">
<title>TipoReciboModule&#45;&gt;CrudTipoReciboComponent </title>
<path fill="none" stroke="#000000" stroke-dasharray="5,2" d="M307,-187.1061C307,-187.1061 307,-205.991 307,-205.991"/>
<polygon fill="#000000" stroke="#000000" points="303.5001,-205.9909 307,-215.991 310.5001,-205.991 303.5001,-205.9909"/>
</g>
<!-- ReciboService -->
<g id="node6" class="node">
<title>ReciboService</title>
<ellipse fill="#fdb462" stroke="#000000" cx="91" cy="-104" rx="67.1927" ry="18"/>
<text text-anchor="middle" x="91" y="-99.8" font-family="Times,serif" font-size="14.00" fill="#000000">ReciboService</text>
</g>
<!-- ReciboService&#45;&gt;TipoReciboModule -->
<g id="edge5" class="edge">
<title>ReciboService&#45;&gt;TipoReciboModule</title>
<path fill="none" stroke="#000000" d="M91,-122.1061C91,-141.3391 91,-169 91,-169 91,-169 234.2337,-169 234.2337,-169"/>
<polygon fill="#000000" stroke="#000000" points="234.2337,-172.5001 244.2337,-169 234.2337,-165.5001 234.2337,-172.5001"/>
</g>
</g>
</svg>
