<?xml version="1.0" encoding="UTF-8" standalone="no"?>
<!DOCTYPE svg PUBLIC "-//W3C//DTD SVG 1.1//EN"
 "http://www.w3.org/Graphics/SVG/1.1/DTD/svg11.dtd">
<!-- Generated by graphviz version 2.40.1 (20161225.0304)
 -->
<!-- Title: dependencies Pages: 1 -->
<svg width="610pt" height="284pt"
 viewBox="0.00 0.00 610.00 284.00" xmlns="http://www.w3.org/2000/svg" xmlns:xlink="http://www.w3.org/1999/xlink">
<g id="graph0" class="graph" transform="scale(1 1) rotate(0) translate(4 280)">
<title>dependencies</title>
<polygon fill="#ffffff" stroke="transparent" points="-4,4 -4,-280 606,-280 606,4 -4,4"/>
<text text-anchor="start" x="280.0091" y="-42.4" font-family="sans-serif" font-weight="bold" font-size="14.00" fill="#000000">Legend</text>
<polygon fill="#ffffb3" stroke="transparent" points="67,-10 67,-30 87,-30 87,-10 67,-10"/>
<text text-anchor="start" x="90.629" y="-15.4" font-family="sans-serif" font-size="14.00" fill="#000000"> &#160;Declarations</text>
<polygon fill="#8dd3c7" stroke="transparent" points="180,-10 180,-30 200,-30 200,-10 180,-10"/>
<text text-anchor="start" x="203.7251" y="-15.4" font-family="sans-serif" font-size="14.00" fill="#000000"> &#160;Module</text>
<polygon fill="#80b1d3" stroke="transparent" points="266,-10 266,-30 286,-30 286,-10 266,-10"/>
<text text-anchor="start" x="289.7812" y="-15.4" font-family="sans-serif" font-size="14.00" fill="#000000"> &#160;Bootstrap</text>
<polygon fill="#fdb462" stroke="transparent" points="363,-10 363,-30 383,-30 383,-10 363,-10"/>
<text text-anchor="start" x="386.6732" y="-15.4" font-family="sans-serif" font-size="14.00" fill="#000000"> &#160;Providers</text>
<polygon fill="#fb8072" stroke="transparent" points="459,-10 459,-30 479,-30 479,-10 459,-10"/>
<text text-anchor="start" x="482.7258" y="-15.4" font-family="sans-serif" font-size="14.00" fill="#000000"> &#160;Exports</text>
<g id="clust1" class="cluster">
<title>cluster_TipoContactoModule</title>
<polygon fill="none" stroke="#000000" stroke-dasharray="1,5" points="8,-70 8,-268 594,-268 594,-70 8,-70"/>
</g>
<g id="clust3" class="cluster">
<title>cluster_TipoContactoModule_imports</title>
<polygon fill="none" stroke="#000000" points="156,-78 156,-130 586,-130 586,-78 156,-78"/>
</g>
<g id="clust4" class="cluster">
<title>cluster_TipoContactoModule_exports</title>
<polygon fill="none" stroke="#000000" points="189,-208 189,-260 395,-260 395,-208 189,-208"/>
</g>
<g id="clust6" class="cluster">
<title>cluster_TipoContactoModule_providers</title>
<polygon fill="none" stroke="#000000" points="16,-78 16,-130 148,-130 148,-78 16,-78"/>
</g>
<!-- ThemeModule -->
<g id="node1" class="node">
<title>ThemeModule</title>
<polygon fill="#8dd3c7" stroke="#000000" points="578.4231,-122 575.4231,-126 554.4231,-126 551.4231,-122 479.5769,-122 479.5769,-86 578.4231,-86 578.4231,-122"/>
<text text-anchor="middle" x="529" y="-99.8" font-family="Times,serif" font-size="14.00" fill="#000000">ThemeModule</text>
</g>
<!-- TipoContactoModule -->
<g id="node4" class="node">
<title>TipoContactoModule</title>
<polygon fill="#8dd3c7" stroke="#000000" points="360.0408,-187 357.0408,-191 336.0408,-191 333.0408,-187 223.9592,-187 223.9592,-151 360.0408,-151 360.0408,-187"/>
<text text-anchor="middle" x="292" y="-164.8" font-family="Times,serif" font-size="14.00" fill="#000000">TipoContactoModule</text>
</g>
<!-- ThemeModule&#45;&gt;TipoContactoModule -->
<g id="edge1" class="edge">
<title>ThemeModule&#45;&gt;TipoContactoModule</title>
<path fill="none" stroke="#000000" d="M529,-122.1061C529,-141.3391 529,-169 529,-169 529,-169 370.2323,-169 370.2323,-169"/>
<polygon fill="#000000" stroke="#000000" points="370.2323,-165.5001 360.2323,-169 370.2322,-172.5001 370.2323,-165.5001"/>
</g>
<!-- TipoContactoRoutingModule -->
<g id="node2" class="node">
<title>TipoContactoRoutingModule</title>
<polygon fill="#8dd3c7" stroke="#000000" points="461.6581,-122 458.6581,-126 437.6581,-126 434.6581,-122 280.3419,-122 280.3419,-86 461.6581,-86 461.6581,-122"/>
<text text-anchor="middle" x="371" y="-99.8" font-family="Times,serif" font-size="14.00" fill="#000000">TipoContactoRoutingModule</text>
</g>
<!-- TipoContactoRoutingModule&#45;&gt;TipoContactoModule -->
<g id="edge2" class="edge">
<title>TipoContactoRoutingModule&#45;&gt;TipoContactoModule</title>
<path fill="none" stroke="#000000" d="M320.2206,-122.1061C320.2206,-122.1061 320.2206,-140.991 320.2206,-140.991"/>
<polygon fill="#000000" stroke="#000000" points="316.7206,-140.9909 320.2206,-150.991 323.7206,-140.991 316.7206,-140.9909"/>
</g>
<!-- SharedModule -->
<g id="node3" class="node">
<title>SharedModule</title>
<polygon fill="#8dd3c7" stroke="#000000" points="262.4231,-122 259.4231,-126 238.4231,-126 235.4231,-122 163.5769,-122 163.5769,-86 262.4231,-86 262.4231,-122"/>
<text text-anchor="middle" x="213" y="-99.8" font-family="Times,serif" font-size="14.00" fill="#000000">SharedModule</text>
</g>
<!-- SharedModule&#45;&gt;TipoContactoModule -->
<g id="edge3" class="edge">
<title>SharedModule&#45;&gt;TipoContactoModule</title>
<path fill="none" stroke="#000000" d="M242.9706,-122.1061C242.9706,-122.1061 242.9706,-140.991 242.9706,-140.991"/>
<polygon fill="#000000" stroke="#000000" points="239.4706,-140.9909 242.9706,-150.991 246.4706,-140.991 239.4706,-140.9909"/>
</g>
<!-- CrudTipoContactoComponent  -->
<g id="node5" class="node">
<title>CrudTipoContactoComponent </title>
<polygon fill="#fb8072" stroke="#000000" points="386.8199,-252 197.1801,-252 197.1801,-216 386.8199,-216 386.8199,-252"/>
<text text-anchor="middle" x="292" y="-229.8" font-family="Times,serif" font-size="14.00" fill="#000000">CrudTipoContactoComponent </text>
</g>
<!-- TipoContactoModule&#45;&gt;CrudTipoContactoComponent  -->
<g id="edge4" class="edge">
<title>TipoContactoModule&#45;&gt;CrudTipoContactoComponent </title>
<path fill="none" stroke="#000000" stroke-dasharray="5,2" d="M292,-187.1061C292,-187.1061 292,-205.991 292,-205.991"/>
<polygon fill="#000000" stroke="#000000" points="288.5001,-205.9909 292,-215.991 295.5001,-205.991 288.5001,-205.9909"/>
</g>
<!-- EnteService -->
<g id="node6" class="node">
<title>EnteService</title>
<ellipse fill="#fdb462" stroke="#000000" cx="82" cy="-104" rx="57.881" ry="18"/>
<text text-anchor="middle" x="82" y="-99.8" font-family="Times,serif" font-size="14.00" fill="#000000">EnteService</text>
</g>
<!-- EnteService&#45;&gt;TipoContactoModule -->
<g id="edge5" class="edge">
<title>EnteService&#45;&gt;TipoContactoModule</title>
<path fill="none" stroke="#000000" d="M82,-122.1061C82,-141.3391 82,-169 82,-169 82,-169 213.819,-169 213.819,-169"/>
<polygon fill="#000000" stroke="#000000" points="213.8191,-172.5001 223.819,-169 213.819,-165.5001 213.8191,-172.5001"/>
</g>
</g>
</svg>
