<?xml version="1.0" encoding="UTF-8" standalone="no"?>
<!DOCTYPE svg PUBLIC "-//W3C//DTD SVG 1.1//EN"
 "http://www.w3.org/Graphics/SVG/1.1/DTD/svg11.dtd">
<!-- Generated by graphviz version 2.40.1 (20161225.0304)
 -->
<!-- Title: dependencies Pages: 1 -->
<svg width="788pt" height="284pt"
 viewBox="0.00 0.00 788.00 284.00" xmlns="http://www.w3.org/2000/svg" xmlns:xlink="http://www.w3.org/1999/xlink">
<g id="graph0" class="graph" transform="scale(1 1) rotate(0) translate(4 280)">
<title>dependencies</title>
<polygon fill="#ffffff" stroke="transparent" points="-4,4 -4,-280 784,-280 784,4 -4,4"/>
<text text-anchor="start" x="369.0091" y="-42.4" font-family="sans-serif" font-weight="bold" font-size="14.00" fill="#000000">Legend</text>
<polygon fill="#ffffb3" stroke="transparent" points="156,-10 156,-30 176,-30 176,-10 156,-10"/>
<text text-anchor="start" x="179.629" y="-15.4" font-family="sans-serif" font-size="14.00" fill="#000000"> &#160;Declarations</text>
<polygon fill="#8dd3c7" stroke="transparent" points="269,-10 269,-30 289,-30 289,-10 269,-10"/>
<text text-anchor="start" x="292.7251" y="-15.4" font-family="sans-serif" font-size="14.00" fill="#000000"> &#160;Module</text>
<polygon fill="#80b1d3" stroke="transparent" points="355,-10 355,-30 375,-30 375,-10 355,-10"/>
<text text-anchor="start" x="378.7812" y="-15.4" font-family="sans-serif" font-size="14.00" fill="#000000"> &#160;Bootstrap</text>
<polygon fill="#fdb462" stroke="transparent" points="452,-10 452,-30 472,-30 472,-10 452,-10"/>
<text text-anchor="start" x="475.6732" y="-15.4" font-family="sans-serif" font-size="14.00" fill="#000000"> &#160;Providers</text>
<polygon fill="#fb8072" stroke="transparent" points="548,-10 548,-30 568,-30 568,-10 548,-10"/>
<text text-anchor="start" x="571.7258" y="-15.4" font-family="sans-serif" font-size="14.00" fill="#000000"> &#160;Exports</text>
<g id="clust1" class="cluster">
<title>cluster_RequisitoAcademicoModule</title>
<polygon fill="none" stroke="#000000" stroke-dasharray="1,5" points="8,-70 8,-268 772,-268 772,-70 8,-70"/>
</g>
<g id="clust3" class="cluster">
<title>cluster_RequisitoAcademicoModule_imports</title>
<polygon fill="none" stroke="#000000" points="294,-78 294,-130 764,-130 764,-78 294,-78"/>
</g>
<g id="clust4" class="cluster">
<title>cluster_RequisitoAcademicoModule_exports</title>
<polygon fill="none" stroke="#000000" points="317,-208 317,-260 563,-260 563,-208 317,-208"/>
</g>
<g id="clust6" class="cluster">
<title>cluster_RequisitoAcademicoModule_providers</title>
<polygon fill="none" stroke="#000000" points="16,-78 16,-130 286,-130 286,-78 16,-78"/>
</g>
<!-- ThemeModule -->
<g id="node1" class="node">
<title>ThemeModule</title>
<polygon fill="#8dd3c7" stroke="#000000" points="756.4231,-122 753.4231,-126 732.4231,-126 729.4231,-122 657.5769,-122 657.5769,-86 756.4231,-86 756.4231,-122"/>
<text text-anchor="middle" x="707" y="-99.8" font-family="Times,serif" font-size="14.00" fill="#000000">ThemeModule</text>
</g>
<!-- RequisitoAcademicoModule -->
<g id="node4" class="node">
<title>RequisitoAcademicoModule</title>
<polygon fill="#8dd3c7" stroke="#000000" points="528.4636,-187 525.4636,-191 504.4636,-191 501.4636,-187 351.5364,-187 351.5364,-151 528.4636,-151 528.4636,-187"/>
<text text-anchor="middle" x="440" y="-164.8" font-family="Times,serif" font-size="14.00" fill="#000000">RequisitoAcademicoModule</text>
</g>
<!-- ThemeModule&#45;&gt;RequisitoAcademicoModule -->
<g id="edge1" class="edge">
<title>ThemeModule&#45;&gt;RequisitoAcademicoModule</title>
<path fill="none" stroke="#000000" d="M707,-122.1061C707,-141.3391 707,-169 707,-169 707,-169 538.5363,-169 538.5363,-169"/>
<polygon fill="#000000" stroke="#000000" points="538.5363,-165.5001 528.5363,-169 538.5362,-172.5001 538.5363,-165.5001"/>
</g>
<!-- RequisitoAcademicoRoutingModule -->
<g id="node2" class="node">
<title>RequisitoAcademicoRoutingModule</title>
<polygon fill="#8dd3c7" stroke="#000000" points="640.0814,-122 637.0814,-126 616.0814,-126 613.0814,-122 417.9186,-122 417.9186,-86 640.0814,-86 640.0814,-122"/>
<text text-anchor="middle" x="529" y="-99.8" font-family="Times,serif" font-size="14.00" fill="#000000">RequisitoAcademicoRoutingModule</text>
</g>
<!-- RequisitoAcademicoRoutingModule&#45;&gt;RequisitoAcademicoModule -->
<g id="edge2" class="edge">
<title>RequisitoAcademicoRoutingModule&#45;&gt;RequisitoAcademicoModule</title>
<path fill="none" stroke="#000000" d="M473.2206,-122.1061C473.2206,-122.1061 473.2206,-140.991 473.2206,-140.991"/>
<polygon fill="#000000" stroke="#000000" points="469.7206,-140.9909 473.2206,-150.991 476.7206,-140.991 469.7206,-140.9909"/>
</g>
<!-- SharedModule -->
<g id="node3" class="node">
<title>SharedModule</title>
<polygon fill="#8dd3c7" stroke="#000000" points="400.4231,-122 397.4231,-126 376.4231,-126 373.4231,-122 301.5769,-122 301.5769,-86 400.4231,-86 400.4231,-122"/>
<text text-anchor="middle" x="351" y="-99.8" font-family="Times,serif" font-size="14.00" fill="#000000">SharedModule</text>
</g>
<!-- SharedModule&#45;&gt;RequisitoAcademicoModule -->
<g id="edge3" class="edge">
<title>SharedModule&#45;&gt;RequisitoAcademicoModule</title>
<path fill="none" stroke="#000000" d="M375.8647,-122.1061C375.8647,-122.1061 375.8647,-140.991 375.8647,-140.991"/>
<polygon fill="#000000" stroke="#000000" points="372.3647,-140.9909 375.8647,-150.991 379.3647,-140.991 372.3647,-140.9909"/>
</g>
<!-- CrudRequisitoAcademicoComponent  -->
<g id="node5" class="node">
<title>CrudRequisitoAcademicoComponent </title>
<polygon fill="#fb8072" stroke="#000000" points="555.2435,-252 324.7565,-252 324.7565,-216 555.2435,-216 555.2435,-252"/>
<text text-anchor="middle" x="440" y="-229.8" font-family="Times,serif" font-size="14.00" fill="#000000">CrudRequisitoAcademicoComponent </text>
</g>
<!-- RequisitoAcademicoModule&#45;&gt;CrudRequisitoAcademicoComponent  -->
<g id="edge4" class="edge">
<title>RequisitoAcademicoModule&#45;&gt;CrudRequisitoAcademicoComponent </title>
<path fill="none" stroke="#000000" stroke-dasharray="5,2" d="M440,-187.1061C440,-187.1061 440,-205.991 440,-205.991"/>
<polygon fill="#000000" stroke="#000000" points="436.5001,-205.9909 440,-215.991 443.5001,-205.991 436.5001,-205.9909"/>
</g>
<!-- EvaluacionInscripcionService -->
<g id="node6" class="node">
<title>EvaluacionInscripcionService</title>
<ellipse fill="#fdb462" stroke="#000000" cx="151" cy="-104" rx="126.7452" ry="18"/>
<text text-anchor="middle" x="151" y="-99.8" font-family="Times,serif" font-size="14.00" fill="#000000">EvaluacionInscripcionService</text>
</g>
<!-- EvaluacionInscripcionService&#45;&gt;RequisitoAcademicoModule -->
<g id="edge5" class="edge">
<title>EvaluacionInscripcionService&#45;&gt;RequisitoAcademicoModule</title>
<path fill="none" stroke="#000000" d="M151,-122.1061C151,-141.3391 151,-169 151,-169 151,-169 341.3264,-169 341.3264,-169"/>
<polygon fill="#000000" stroke="#000000" points="341.3265,-172.5001 351.3264,-169 341.3264,-165.5001 341.3265,-172.5001"/>
</g>
</g>
</svg>
