<?xml version="1.0" encoding="UTF-8" standalone="no"?>
<!DOCTYPE svg PUBLIC "-//W3C//DTD SVG 1.1//EN"
 "http://www.w3.org/Graphics/SVG/1.1/DTD/svg11.dtd">
<!-- Generated by graphviz version 2.40.1 (20161225.0304)
 -->
<!-- Title: dependencies Pages: 1 -->
<svg width="810pt" height="284pt"
 viewBox="0.00 0.00 810.00 284.00" xmlns="http://www.w3.org/2000/svg" xmlns:xlink="http://www.w3.org/1999/xlink">
<g id="graph0" class="graph" transform="scale(1 1) rotate(0) translate(4 280)">
<title>dependencies</title>
<polygon fill="#ffffff" stroke="transparent" points="-4,4 -4,-280 806,-280 806,4 -4,4"/>
<text text-anchor="start" x="380.0091" y="-42.4" font-family="sans-serif" font-weight="bold" font-size="14.00" fill="#000000">Legend</text>
<polygon fill="#ffffb3" stroke="transparent" points="167,-10 167,-30 187,-30 187,-10 167,-10"/>
<text text-anchor="start" x="190.629" y="-15.4" font-family="sans-serif" font-size="14.00" fill="#000000"> &#160;Declarations</text>
<polygon fill="#8dd3c7" stroke="transparent" points="280,-10 280,-30 300,-30 300,-10 280,-10"/>
<text text-anchor="start" x="303.7251" y="-15.4" font-family="sans-serif" font-size="14.00" fill="#000000"> &#160;Module</text>
<polygon fill="#80b1d3" stroke="transparent" points="366,-10 366,-30 386,-30 386,-10 366,-10"/>
<text text-anchor="start" x="389.7812" y="-15.4" font-family="sans-serif" font-size="14.00" fill="#000000"> &#160;Bootstrap</text>
<polygon fill="#fdb462" stroke="transparent" points="463,-10 463,-30 483,-30 483,-10 463,-10"/>
<text text-anchor="start" x="486.6732" y="-15.4" font-family="sans-serif" font-size="14.00" fill="#000000"> &#160;Providers</text>
<polygon fill="#fb8072" stroke="transparent" points="559,-10 559,-30 579,-30 579,-10 559,-10"/>
<text text-anchor="start" x="582.7258" y="-15.4" font-family="sans-serif" font-size="14.00" fill="#000000"> &#160;Exports</text>
<g id="clust1" class="cluster">
<title>cluster_EncargadoEventoModule</title>
<polygon fill="none" stroke="#000000" stroke-dasharray="1,5" points="8,-70 8,-268 794,-268 794,-70 8,-70"/>
</g>
<g id="clust3" class="cluster">
<title>cluster_EncargadoEventoModule_imports</title>
<polygon fill="none" stroke="#000000" points="334,-78 334,-130 786,-130 786,-78 334,-78"/>
</g>
<g id="clust4" class="cluster">
<title>cluster_EncargadoEventoModule_exports</title>
<polygon fill="none" stroke="#000000" points="277,-208 277,-260 505,-260 505,-208 277,-208"/>
</g>
<g id="clust6" class="cluster">
<title>cluster_EncargadoEventoModule_providers</title>
<polygon fill="none" stroke="#000000" points="16,-78 16,-130 326,-130 326,-78 16,-78"/>
</g>
<!-- ThemeModule -->
<g id="node1" class="node">
<title>ThemeModule</title>
<polygon fill="#8dd3c7" stroke="#000000" points="778.4231,-122 775.4231,-126 754.4231,-126 751.4231,-122 679.5769,-122 679.5769,-86 778.4231,-86 778.4231,-122"/>
<text text-anchor="middle" x="729" y="-99.8" font-family="Times,serif" font-size="14.00" fill="#000000">ThemeModule</text>
</g>
<!-- EncargadoEventoModule -->
<g id="node4" class="node">
<title>EncargadoEventoModule</title>
<polygon fill="#8dd3c7" stroke="#000000" points="470.5646,-187 467.5646,-191 446.5646,-191 443.5646,-187 311.4354,-187 311.4354,-151 470.5646,-151 470.5646,-187"/>
<text text-anchor="middle" x="391" y="-164.8" font-family="Times,serif" font-size="14.00" fill="#000000">EncargadoEventoModule</text>
</g>
<!-- ThemeModule&#45;&gt;EncargadoEventoModule -->
<g id="edge1" class="edge">
<title>ThemeModule&#45;&gt;EncargadoEventoModule</title>
<path fill="none" stroke="#000000" d="M729,-122.1061C729,-141.3391 729,-169 729,-169 729,-169 480.6733,-169 480.6733,-169"/>
<polygon fill="#000000" stroke="#000000" points="480.6733,-165.5001 470.6733,-169 480.6732,-172.5001 480.6733,-165.5001"/>
</g>
<!-- EncargadoEventoRoutingModule -->
<g id="node2" class="node">
<title>EncargadoEventoRoutingModule</title>
<polygon fill="#8dd3c7" stroke="#000000" points="662.1825,-122 659.1825,-126 638.1825,-126 635.1825,-122 457.8175,-122 457.8175,-86 662.1825,-86 662.1825,-122"/>
<text text-anchor="middle" x="560" y="-99.8" font-family="Times,serif" font-size="14.00" fill="#000000">EncargadoEventoRoutingModule</text>
</g>
<!-- EncargadoEventoRoutingModule&#45;&gt;EncargadoEventoModule -->
<g id="edge2" class="edge">
<title>EncargadoEventoRoutingModule&#45;&gt;EncargadoEventoModule</title>
<path fill="none" stroke="#000000" d="M464.2206,-122.1061C464.2206,-122.1061 464.2206,-140.991 464.2206,-140.991"/>
<polygon fill="#000000" stroke="#000000" points="460.7206,-140.9909 464.2206,-150.991 467.7206,-140.991 460.7206,-140.9909"/>
</g>
<!-- SharedModule -->
<g id="node3" class="node">
<title>SharedModule</title>
<polygon fill="#8dd3c7" stroke="#000000" points="440.4231,-122 437.4231,-126 416.4231,-126 413.4231,-122 341.5769,-122 341.5769,-86 440.4231,-86 440.4231,-122"/>
<text text-anchor="middle" x="391" y="-99.8" font-family="Times,serif" font-size="14.00" fill="#000000">SharedModule</text>
</g>
<!-- SharedModule&#45;&gt;EncargadoEventoModule -->
<g id="edge3" class="edge">
<title>SharedModule&#45;&gt;EncargadoEventoModule</title>
<path fill="none" stroke="#000000" d="M391,-122.1061C391,-122.1061 391,-140.991 391,-140.991"/>
<polygon fill="#000000" stroke="#000000" points="387.5001,-140.9909 391,-150.991 394.5001,-140.991 387.5001,-140.9909"/>
</g>
<!-- CrudEncargadoEventoComponent  -->
<g id="node5" class="node">
<title>CrudEncargadoEventoComponent </title>
<polygon fill="#fb8072" stroke="#000000" points="497.3447,-252 284.6553,-252 284.6553,-216 497.3447,-216 497.3447,-252"/>
<text text-anchor="middle" x="391" y="-229.8" font-family="Times,serif" font-size="14.00" fill="#000000">CrudEncargadoEventoComponent </text>
</g>
<!-- EncargadoEventoModule&#45;&gt;CrudEncargadoEventoComponent  -->
<g id="edge4" class="edge">
<title>EncargadoEventoModule&#45;&gt;CrudEncargadoEventoComponent </title>
<path fill="none" stroke="#000000" stroke-dasharray="5,2" d="M391,-187.1061C391,-187.1061 391,-205.991 391,-205.991"/>
<polygon fill="#000000" stroke="#000000" points="387.5001,-205.9909 391,-215.991 394.5001,-205.991 387.5001,-205.9909"/>
</g>
<!-- PersonaService -->
<g id="node6" class="node">
<title>PersonaService</title>
<ellipse fill="#fdb462" stroke="#000000" cx="247" cy="-104" rx="70.622" ry="18"/>
<text text-anchor="middle" x="247" y="-99.8" font-family="Times,serif" font-size="14.00" fill="#000000">PersonaService</text>
</g>
<!-- PersonaService&#45;&gt;EncargadoEventoModule -->
<g id="edge5" class="edge">
<title>PersonaService&#45;&gt;EncargadoEventoModule</title>
<path fill="none" stroke="#000000" d="M317.8296,-104C324.9808,-104 329.6749,-104 329.6749,-104 329.6749,-104 329.6749,-140.8939 329.6749,-140.8939"/>
<polygon fill="#000000" stroke="#000000" points="326.175,-140.8938 329.6749,-150.8939 333.175,-140.8939 326.175,-140.8938"/>
</g>
<!-- EventoService -->
<g id="node7" class="node">
<title>EventoService</title>
<ellipse fill="#fdb462" stroke="#000000" cx="91" cy="-104" rx="67.1946" ry="18"/>
<text text-anchor="middle" x="91" y="-99.8" font-family="Times,serif" font-size="14.00" fill="#000000">EventoService</text>
</g>
<!-- EventoService&#45;&gt;EncargadoEventoModule -->
<g id="edge6" class="edge">
<title>EventoService&#45;&gt;EncargadoEventoModule</title>
<path fill="none" stroke="#000000" d="M91,-122.1061C91,-141.3391 91,-169 91,-169 91,-169 301.3931,-169 301.3931,-169"/>
<polygon fill="#000000" stroke="#000000" points="301.3932,-172.5001 311.3931,-169 301.3931,-165.5001 301.3932,-172.5001"/>
</g>
</g>
</svg>
