<?xml version="1.0" encoding="UTF-8" standalone="no"?>
<!DOCTYPE svg PUBLIC "-//W3C//DTD SVG 1.1//EN"
 "http://www.w3.org/Graphics/SVG/1.1/DTD/svg11.dtd">
<!-- Generated by graphviz version 2.40.1 (20161225.0304)
 -->
<!-- Title: dependencies Pages: 1 -->
<svg width="1136pt" height="284pt"
 viewBox="0.00 0.00 1136.00 284.00" xmlns="http://www.w3.org/2000/svg" xmlns:xlink="http://www.w3.org/1999/xlink">
<g id="graph0" class="graph" transform="scale(1 1) rotate(0) translate(4 280)">
<title>dependencies</title>
<polygon fill="#ffffff" stroke="transparent" points="-4,4 -4,-280 1132,-280 1132,4 -4,4"/>
<text text-anchor="start" x="543.0091" y="-42.4" font-family="sans-serif" font-weight="bold" font-size="14.00" fill="#000000">Legend</text>
<polygon fill="#ffffb3" stroke="transparent" points="330,-10 330,-30 350,-30 350,-10 330,-10"/>
<text text-anchor="start" x="353.629" y="-15.4" font-family="sans-serif" font-size="14.00" fill="#000000"> &#160;Declarations</text>
<polygon fill="#8dd3c7" stroke="transparent" points="443,-10 443,-30 463,-30 463,-10 443,-10"/>
<text text-anchor="start" x="466.7251" y="-15.4" font-family="sans-serif" font-size="14.00" fill="#000000"> &#160;Module</text>
<polygon fill="#80b1d3" stroke="transparent" points="529,-10 529,-30 549,-30 549,-10 529,-10"/>
<text text-anchor="start" x="552.7812" y="-15.4" font-family="sans-serif" font-size="14.00" fill="#000000"> &#160;Bootstrap</text>
<polygon fill="#fdb462" stroke="transparent" points="626,-10 626,-30 646,-30 646,-10 626,-10"/>
<text text-anchor="start" x="649.6732" y="-15.4" font-family="sans-serif" font-size="14.00" fill="#000000"> &#160;Providers</text>
<polygon fill="#fb8072" stroke="transparent" points="722,-10 722,-30 742,-30 742,-10 722,-10"/>
<text text-anchor="start" x="745.7258" y="-15.4" font-family="sans-serif" font-size="14.00" fill="#000000"> &#160;Exports</text>
<g id="clust1" class="cluster">
<title>cluster_DocumentoProgramaModule</title>
<polygon fill="none" stroke="#000000" stroke-dasharray="1,5" points="8,-70 8,-268 1120,-268 1120,-70 8,-70"/>
</g>
<g id="clust3" class="cluster">
<title>cluster_DocumentoProgramaModule_imports</title>
<polygon fill="none" stroke="#000000" points="640,-78 640,-130 1112,-130 1112,-78 640,-78"/>
</g>
<g id="clust4" class="cluster">
<title>cluster_DocumentoProgramaModule_exports</title>
<polygon fill="none" stroke="#000000" points="475,-208 475,-260 723,-260 723,-208 475,-208"/>
</g>
<g id="clust6" class="cluster">
<title>cluster_DocumentoProgramaModule_providers</title>
<polygon fill="none" stroke="#000000" points="16,-78 16,-130 632,-130 632,-78 16,-78"/>
</g>
<!-- ThemeModule -->
<g id="node1" class="node">
<title>ThemeModule</title>
<polygon fill="#8dd3c7" stroke="#000000" points="1104.4231,-122 1101.4231,-126 1080.4231,-126 1077.4231,-122 1005.5769,-122 1005.5769,-86 1104.4231,-86 1104.4231,-122"/>
<text text-anchor="middle" x="1055" y="-99.8" font-family="Times,serif" font-size="14.00" fill="#000000">ThemeModule</text>
</g>
<!-- DocumentoProgramaModule -->
<g id="node4" class="node">
<title>DocumentoProgramaModule</title>
<polygon fill="#8dd3c7" stroke="#000000" points="688.7906,-187 685.7906,-191 664.7906,-191 661.7906,-187 509.2094,-187 509.2094,-151 688.7906,-151 688.7906,-187"/>
<text text-anchor="middle" x="599" y="-164.8" font-family="Times,serif" font-size="14.00" fill="#000000">DocumentoProgramaModule</text>
</g>
<!-- ThemeModule&#45;&gt;DocumentoProgramaModule -->
<g id="edge1" class="edge">
<title>ThemeModule&#45;&gt;DocumentoProgramaModule</title>
<path fill="none" stroke="#000000" d="M1055,-122.2843C1055,-143.3211 1055,-175 1055,-175 1055,-175 698.8187,-175 698.8187,-175"/>
<polygon fill="#000000" stroke="#000000" points="698.8188,-171.5001 688.8187,-175 698.8187,-178.5001 698.8188,-171.5001"/>
</g>
<!-- DocumentoProgramaRoutingModule -->
<g id="node2" class="node">
<title>DocumentoProgramaRoutingModule</title>
<polygon fill="#8dd3c7" stroke="#000000" points="988.4086,-122 985.4086,-126 964.4086,-126 961.4086,-122 763.5914,-122 763.5914,-86 988.4086,-86 988.4086,-122"/>
<text text-anchor="middle" x="876" y="-99.8" font-family="Times,serif" font-size="14.00" fill="#000000">DocumentoProgramaRoutingModule</text>
</g>
<!-- DocumentoProgramaRoutingModule&#45;&gt;DocumentoProgramaModule -->
<g id="edge2" class="edge">
<title>DocumentoProgramaRoutingModule&#45;&gt;DocumentoProgramaModule</title>
<path fill="none" stroke="#000000" d="M876,-122.0225C876,-139.3734 876,-163 876,-163 876,-163 698.934,-163 698.934,-163"/>
<polygon fill="#000000" stroke="#000000" points="698.934,-159.5001 688.934,-163 698.9339,-166.5001 698.934,-159.5001"/>
</g>
<!-- SharedModule -->
<g id="node3" class="node">
<title>SharedModule</title>
<polygon fill="#8dd3c7" stroke="#000000" points="746.4231,-122 743.4231,-126 722.4231,-126 719.4231,-122 647.5769,-122 647.5769,-86 746.4231,-86 746.4231,-122"/>
<text text-anchor="middle" x="697" y="-99.8" font-family="Times,serif" font-size="14.00" fill="#000000">SharedModule</text>
</g>
<!-- SharedModule&#45;&gt;DocumentoProgramaModule -->
<g id="edge3" class="edge">
<title>SharedModule&#45;&gt;DocumentoProgramaModule</title>
<path fill="none" stroke="#000000" d="M668.2171,-122.1061C668.2171,-122.1061 668.2171,-140.991 668.2171,-140.991"/>
<polygon fill="#000000" stroke="#000000" points="664.7171,-140.9909 668.2171,-150.991 671.7171,-140.991 664.7171,-140.9909"/>
</g>
<!-- CrudDocumentoProgramaComponent  -->
<g id="node5" class="node">
<title>CrudDocumentoProgramaComponent </title>
<polygon fill="#fb8072" stroke="#000000" points="715.0706,-252 482.9294,-252 482.9294,-216 715.0706,-216 715.0706,-252"/>
<text text-anchor="middle" x="599" y="-229.8" font-family="Times,serif" font-size="14.00" fill="#000000">CrudDocumentoProgramaComponent </text>
</g>
<!-- DocumentoProgramaModule&#45;&gt;CrudDocumentoProgramaComponent  -->
<g id="edge4" class="edge">
<title>DocumentoProgramaModule&#45;&gt;CrudDocumentoProgramaComponent </title>
<path fill="none" stroke="#000000" stroke-dasharray="5,2" d="M599,-187.1061C599,-187.1061 599,-205.991 599,-205.991"/>
<polygon fill="#000000" stroke="#000000" points="595.5001,-205.9909 599,-215.991 602.5001,-205.991 595.5001,-205.9909"/>
</g>
<!-- DocumentoProgramaService -->
<g id="node6" class="node">
<title>DocumentoProgramaService</title>
<ellipse fill="#fdb462" stroke="#000000" cx="501" cy="-104" rx="122.6736" ry="18"/>
<text text-anchor="middle" x="501" y="-99.8" font-family="Times,serif" font-size="14.00" fill="#000000">DocumentoProgramaService</text>
</g>
<!-- DocumentoProgramaService&#45;&gt;DocumentoProgramaModule -->
<g id="edge5" class="edge">
<title>DocumentoProgramaService&#45;&gt;DocumentoProgramaModule</title>
<path fill="none" stroke="#000000" d="M566.4708,-119.4041C566.4708,-119.4041 566.4708,-140.9397 566.4708,-140.9397"/>
<polygon fill="#000000" stroke="#000000" points="562.9709,-140.9397 566.4708,-150.9397 569.9709,-140.9398 562.9709,-140.9397"/>
</g>
<!-- ProgramaOikosService -->
<g id="node7" class="node">
<title>ProgramaOikosService</title>
<ellipse fill="#fdb462" stroke="#000000" cx="260" cy="-104" rx="100.6998" ry="18"/>
<text text-anchor="middle" x="260" y="-99.8" font-family="Times,serif" font-size="14.00" fill="#000000">ProgramaOikosService</text>
</g>
<!-- ProgramaOikosService&#45;&gt;DocumentoProgramaModule -->
<g id="edge6" class="edge">
<title>ProgramaOikosService&#45;&gt;DocumentoProgramaModule</title>
<path fill="none" stroke="#000000" d="M260,-122.0225C260,-139.3734 260,-163 260,-163 260,-163 499.0442,-163 499.0442,-163"/>
<polygon fill="#000000" stroke="#000000" points="499.0443,-166.5001 509.0442,-163 499.0442,-159.5001 499.0443,-166.5001"/>
</g>
<!-- CoreService -->
<g id="node8" class="node">
<title>CoreService</title>
<ellipse fill="#fdb462" stroke="#000000" cx="83" cy="-104" rx="58.5251" ry="18"/>
<text text-anchor="middle" x="83" y="-99.8" font-family="Times,serif" font-size="14.00" fill="#000000">CoreService</text>
</g>
<!-- CoreService&#45;&gt;DocumentoProgramaModule -->
<g id="edge7" class="edge">
<title>CoreService&#45;&gt;DocumentoProgramaModule</title>
<path fill="none" stroke="#000000" d="M83,-122.2843C83,-143.3211 83,-175 83,-175 83,-175 499.1197,-175 499.1197,-175"/>
<polygon fill="#000000" stroke="#000000" points="499.1197,-178.5001 509.1197,-175 499.1196,-171.5001 499.1197,-178.5001"/>
</g>
</g>
</svg>
