<?xml version="1.0" encoding="UTF-8" standalone="no"?>
<!DOCTYPE svg PUBLIC "-//W3C//DTD SVG 1.1//EN"
 "http://www.w3.org/Graphics/SVG/1.1/DTD/svg11.dtd">
<!-- Generated by graphviz version 2.40.1 (20161225.0304)
 -->
<!-- Title: dependencies Pages: 1 -->
<svg width="636pt" height="284pt"
 viewBox="0.00 0.00 636.00 284.00" xmlns="http://www.w3.org/2000/svg" xmlns:xlink="http://www.w3.org/1999/xlink">
<g id="graph0" class="graph" transform="scale(1 1) rotate(0) translate(4 280)">
<title>dependencies</title>
<polygon fill="#ffffff" stroke="transparent" points="-4,4 -4,-280 632,-280 632,4 -4,4"/>
<text text-anchor="start" x="293.0091" y="-42.4" font-family="sans-serif" font-weight="bold" font-size="14.00" fill="#000000">Legend</text>
<polygon fill="#ffffb3" stroke="transparent" points="80,-10 80,-30 100,-30 100,-10 80,-10"/>
<text text-anchor="start" x="103.629" y="-15.4" font-family="sans-serif" font-size="14.00" fill="#000000"> &#160;Declarations</text>
<polygon fill="#8dd3c7" stroke="transparent" points="193,-10 193,-30 213,-30 213,-10 193,-10"/>
<text text-anchor="start" x="216.7251" y="-15.4" font-family="sans-serif" font-size="14.00" fill="#000000"> &#160;Module</text>
<polygon fill="#80b1d3" stroke="transparent" points="279,-10 279,-30 299,-30 299,-10 279,-10"/>
<text text-anchor="start" x="302.7812" y="-15.4" font-family="sans-serif" font-size="14.00" fill="#000000"> &#160;Bootstrap</text>
<polygon fill="#fdb462" stroke="transparent" points="376,-10 376,-30 396,-30 396,-10 376,-10"/>
<text text-anchor="start" x="399.6732" y="-15.4" font-family="sans-serif" font-size="14.00" fill="#000000"> &#160;Providers</text>
<polygon fill="#fb8072" stroke="transparent" points="472,-10 472,-30 492,-30 492,-10 472,-10"/>
<text text-anchor="start" x="495.7258" y="-15.4" font-family="sans-serif" font-size="14.00" fill="#000000"> &#160;Exports</text>
<g id="clust1" class="cluster">
<title>cluster_TipoLugarModule</title>
<polygon fill="none" stroke="#000000" stroke-dasharray="1,5" points="8,-70 8,-268 620,-268 620,-70 8,-70"/>
</g>
<g id="clust3" class="cluster">
<title>cluster_TipoLugarModule_imports</title>
<polygon fill="none" stroke="#000000" points="200,-78 200,-130 612,-130 612,-78 200,-78"/>
</g>
<g id="clust4" class="cluster">
<title>cluster_TipoLugarModule_exports</title>
<polygon fill="none" stroke="#000000" points="237,-208 237,-260 425,-260 425,-208 237,-208"/>
</g>
<g id="clust6" class="cluster">
<title>cluster_TipoLugarModule_providers</title>
<polygon fill="none" stroke="#000000" points="16,-78 16,-130 192,-130 192,-78 16,-78"/>
</g>
<!-- ThemeModule -->
<g id="node1" class="node">
<title>ThemeModule</title>
<polygon fill="#8dd3c7" stroke="#000000" points="604.4231,-122 601.4231,-126 580.4231,-126 577.4231,-122 505.5769,-122 505.5769,-86 604.4231,-86 604.4231,-122"/>
<text text-anchor="middle" x="555" y="-99.8" font-family="Times,serif" font-size="14.00" fill="#000000">ThemeModule</text>
</g>
<!-- TipoLugarModule -->
<g id="node4" class="node">
<title>TipoLugarModule</title>
<polygon fill="#8dd3c7" stroke="#000000" points="390.9215,-187 387.9215,-191 366.9215,-191 363.9215,-187 271.0785,-187 271.0785,-151 390.9215,-151 390.9215,-187"/>
<text text-anchor="middle" x="331" y="-164.8" font-family="Times,serif" font-size="14.00" fill="#000000">TipoLugarModule</text>
</g>
<!-- ThemeModule&#45;&gt;TipoLugarModule -->
<g id="edge1" class="edge">
<title>ThemeModule&#45;&gt;TipoLugarModule</title>
<path fill="none" stroke="#000000" d="M555,-122.1061C555,-141.3391 555,-169 555,-169 555,-169 400.7336,-169 400.7336,-169"/>
<polygon fill="#000000" stroke="#000000" points="400.7337,-165.5001 390.7336,-169 400.7336,-172.5001 400.7337,-165.5001"/>
</g>
<!-- TipoLugarRoutingModule -->
<g id="node2" class="node">
<title>TipoLugarRoutingModule</title>
<polygon fill="#8dd3c7" stroke="#000000" points="488.0392,-122 485.0392,-126 464.0392,-126 461.0392,-122 323.9608,-122 323.9608,-86 488.0392,-86 488.0392,-122"/>
<text text-anchor="middle" x="406" y="-99.8" font-family="Times,serif" font-size="14.00" fill="#000000">TipoLugarRoutingModule</text>
</g>
<!-- TipoLugarRoutingModule&#45;&gt;TipoLugarModule -->
<g id="edge2" class="edge">
<title>TipoLugarRoutingModule&#45;&gt;TipoLugarModule</title>
<path fill="none" stroke="#000000" d="M357.2206,-122.1061C357.2206,-122.1061 357.2206,-140.991 357.2206,-140.991"/>
<polygon fill="#000000" stroke="#000000" points="353.7206,-140.9909 357.2206,-150.991 360.7206,-140.991 353.7206,-140.9909"/>
</g>
<!-- SharedModule -->
<g id="node3" class="node">
<title>SharedModule</title>
<polygon fill="#8dd3c7" stroke="#000000" points="306.4231,-122 303.4231,-126 282.4231,-126 279.4231,-122 207.5769,-122 207.5769,-86 306.4231,-86 306.4231,-122"/>
<text text-anchor="middle" x="257" y="-99.8" font-family="Times,serif" font-size="14.00" fill="#000000">SharedModule</text>
</g>
<!-- SharedModule&#45;&gt;TipoLugarModule -->
<g id="edge3" class="edge">
<title>SharedModule&#45;&gt;TipoLugarModule</title>
<path fill="none" stroke="#000000" d="M288.7504,-122.1061C288.7504,-122.1061 288.7504,-140.991 288.7504,-140.991"/>
<polygon fill="#000000" stroke="#000000" points="285.2504,-140.9909 288.7504,-150.991 292.2504,-140.991 285.2504,-140.9909"/>
</g>
<!-- CrudTipoLugarComponent  -->
<g id="node5" class="node">
<title>CrudTipoLugarComponent </title>
<polygon fill="#fb8072" stroke="#000000" points="417.2009,-252 244.7991,-252 244.7991,-216 417.2009,-216 417.2009,-252"/>
<text text-anchor="middle" x="331" y="-229.8" font-family="Times,serif" font-size="14.00" fill="#000000">CrudTipoLugarComponent </text>
</g>
<!-- TipoLugarModule&#45;&gt;CrudTipoLugarComponent  -->
<g id="edge4" class="edge">
<title>TipoLugarModule&#45;&gt;CrudTipoLugarComponent </title>
<path fill="none" stroke="#000000" stroke-dasharray="5,2" d="M331,-187.1061C331,-187.1061 331,-205.991 331,-205.991"/>
<polygon fill="#000000" stroke="#000000" points="327.5001,-205.9909 331,-215.991 334.5001,-205.991 327.5001,-205.9909"/>
</g>
<!-- UbicacionService -->
<g id="node6" class="node">
<title>UbicacionService</title>
<ellipse fill="#fdb462" stroke="#000000" cx="104" cy="-104" rx="79.8527" ry="18"/>
<text text-anchor="middle" x="104" y="-99.8" font-family="Times,serif" font-size="14.00" fill="#000000">UbicacionService</text>
</g>
<!-- UbicacionService&#45;&gt;TipoLugarModule -->
<g id="edge5" class="edge">
<title>UbicacionService&#45;&gt;TipoLugarModule</title>
<path fill="none" stroke="#000000" d="M104,-122.1061C104,-141.3391 104,-169 104,-169 104,-169 261.0615,-169 261.0615,-169"/>
<polygon fill="#000000" stroke="#000000" points="261.0615,-172.5001 271.0615,-169 261.0615,-165.5001 261.0615,-172.5001"/>
</g>
</g>
</svg>
