<?xml version="1.0" encoding="UTF-8" standalone="no"?>
<!DOCTYPE svg PUBLIC "-//W3C//DTD SVG 1.1//EN"
 "http://www.w3.org/Graphics/SVG/1.1/DTD/svg11.dtd">
<!-- Generated by graphviz version 2.40.1 (20161225.0304)
 -->
<!-- Title: dependencies Pages: 1 -->
<svg width="628pt" height="284pt"
 viewBox="0.00 0.00 628.00 284.00" xmlns="http://www.w3.org/2000/svg" xmlns:xlink="http://www.w3.org/1999/xlink">
<g id="graph0" class="graph" transform="scale(1 1) rotate(0) translate(4 280)">
<title>dependencies</title>
<polygon fill="#ffffff" stroke="transparent" points="-4,4 -4,-280 624,-280 624,4 -4,4"/>
<text text-anchor="start" x="289.0091" y="-42.4" font-family="sans-serif" font-weight="bold" font-size="14.00" fill="#000000">Legend</text>
<polygon fill="#ffffb3" stroke="transparent" points="76,-10 76,-30 96,-30 96,-10 76,-10"/>
<text text-anchor="start" x="99.629" y="-15.4" font-family="sans-serif" font-size="14.00" fill="#000000"> &#160;Declarations</text>
<polygon fill="#8dd3c7" stroke="transparent" points="189,-10 189,-30 209,-30 209,-10 189,-10"/>
<text text-anchor="start" x="212.7251" y="-15.4" font-family="sans-serif" font-size="14.00" fill="#000000"> &#160;Module</text>
<polygon fill="#80b1d3" stroke="transparent" points="275,-10 275,-30 295,-30 295,-10 275,-10"/>
<text text-anchor="start" x="298.7812" y="-15.4" font-family="sans-serif" font-size="14.00" fill="#000000"> &#160;Bootstrap</text>
<polygon fill="#fdb462" stroke="transparent" points="372,-10 372,-30 392,-30 392,-10 372,-10"/>
<text text-anchor="start" x="395.6732" y="-15.4" font-family="sans-serif" font-size="14.00" fill="#000000"> &#160;Providers</text>
<polygon fill="#fb8072" stroke="transparent" points="468,-10 468,-30 488,-30 488,-10 468,-10"/>
<text text-anchor="start" x="491.7258" y="-15.4" font-family="sans-serif" font-size="14.00" fill="#000000"> &#160;Exports</text>
<g id="clust1" class="cluster">
<title>cluster_EstadoReciboModule</title>
<polygon fill="none" stroke="#000000" stroke-dasharray="1,5" points="8,-70 8,-268 612,-268 612,-70 8,-70"/>
</g>
<g id="clust3" class="cluster">
<title>cluster_EstadoReciboModule_imports</title>
<polygon fill="none" stroke="#000000" points="174,-78 174,-130 604,-130 604,-78 174,-78"/>
</g>
<g id="clust4" class="cluster">
<title>cluster_EstadoReciboModule_exports</title>
<polygon fill="none" stroke="#000000" points="207,-208 207,-260 413,-260 413,-208 207,-208"/>
</g>
<g id="clust6" class="cluster">
<title>cluster_EstadoReciboModule_providers</title>
<polygon fill="none" stroke="#000000" points="16,-78 16,-130 166,-130 166,-78 16,-78"/>
</g>
<!-- ThemeModule -->
<g id="node1" class="node">
<title>ThemeModule</title>
<polygon fill="#8dd3c7" stroke="#000000" points="596.4231,-122 593.4231,-126 572.4231,-126 569.4231,-122 497.5769,-122 497.5769,-86 596.4231,-86 596.4231,-122"/>
<text text-anchor="middle" x="547" y="-99.8" font-family="Times,serif" font-size="14.00" fill="#000000">ThemeModule</text>
</g>
<!-- EstadoReciboModule -->
<g id="node4" class="node">
<title>EstadoReciboModule</title>
<polygon fill="#8dd3c7" stroke="#000000" points="378.8089,-187 375.8089,-191 354.8089,-191 351.8089,-187 241.1911,-187 241.1911,-151 378.8089,-151 378.8089,-187"/>
<text text-anchor="middle" x="310" y="-164.8" font-family="Times,serif" font-size="14.00" fill="#000000">EstadoReciboModule</text>
</g>
<!-- ThemeModule&#45;&gt;EstadoReciboModule -->
<g id="edge1" class="edge">
<title>ThemeModule&#45;&gt;EstadoReciboModule</title>
<path fill="none" stroke="#000000" d="M547,-122.1061C547,-141.3391 547,-169 547,-169 547,-169 388.8686,-169 388.8686,-169"/>
<polygon fill="#000000" stroke="#000000" points="388.8686,-165.5001 378.8686,-169 388.8685,-172.5001 388.8686,-165.5001"/>
</g>
<!-- EstadoReciboRoutingModule -->
<g id="node2" class="node">
<title>EstadoReciboRoutingModule</title>
<polygon fill="#8dd3c7" stroke="#000000" points="480.4269,-122 477.4269,-126 456.4269,-126 453.4269,-122 297.5731,-122 297.5731,-86 480.4269,-86 480.4269,-122"/>
<text text-anchor="middle" x="389" y="-99.8" font-family="Times,serif" font-size="14.00" fill="#000000">EstadoReciboRoutingModule</text>
</g>
<!-- EstadoReciboRoutingModule&#45;&gt;EstadoReciboModule -->
<g id="edge2" class="edge">
<title>EstadoReciboRoutingModule&#45;&gt;EstadoReciboModule</title>
<path fill="none" stroke="#000000" d="M338.2206,-122.1061C338.2206,-122.1061 338.2206,-140.991 338.2206,-140.991"/>
<polygon fill="#000000" stroke="#000000" points="334.7206,-140.9909 338.2206,-150.991 341.7206,-140.991 334.7206,-140.9909"/>
</g>
<!-- SharedModule -->
<g id="node3" class="node">
<title>SharedModule</title>
<polygon fill="#8dd3c7" stroke="#000000" points="280.4231,-122 277.4231,-126 256.4231,-126 253.4231,-122 181.5769,-122 181.5769,-86 280.4231,-86 280.4231,-122"/>
<text text-anchor="middle" x="231" y="-99.8" font-family="Times,serif" font-size="14.00" fill="#000000">SharedModule</text>
</g>
<!-- SharedModule&#45;&gt;EstadoReciboModule -->
<g id="edge3" class="edge">
<title>SharedModule&#45;&gt;EstadoReciboModule</title>
<path fill="none" stroke="#000000" d="M260.7784,-122.1061C260.7784,-122.1061 260.7784,-140.991 260.7784,-140.991"/>
<polygon fill="#000000" stroke="#000000" points="257.2785,-140.9909 260.7784,-150.991 264.2785,-140.991 257.2785,-140.9909"/>
</g>
<!-- CrudEstadoReciboComponent  -->
<g id="node5" class="node">
<title>CrudEstadoReciboComponent </title>
<polygon fill="#fb8072" stroke="#000000" points="405.0888,-252 214.9112,-252 214.9112,-216 405.0888,-216 405.0888,-252"/>
<text text-anchor="middle" x="310" y="-229.8" font-family="Times,serif" font-size="14.00" fill="#000000">CrudEstadoReciboComponent </text>
</g>
<!-- EstadoReciboModule&#45;&gt;CrudEstadoReciboComponent  -->
<g id="edge4" class="edge">
<title>EstadoReciboModule&#45;&gt;CrudEstadoReciboComponent </title>
<path fill="none" stroke="#000000" stroke-dasharray="5,2" d="M310,-187.1061C310,-187.1061 310,-205.991 310,-205.991"/>
<polygon fill="#000000" stroke="#000000" points="306.5001,-205.9909 310,-215.991 313.5001,-205.991 306.5001,-205.9909"/>
</g>
<!-- ReciboService -->
<g id="node6" class="node">
<title>ReciboService</title>
<ellipse fill="#fdb462" stroke="#000000" cx="91" cy="-104" rx="67.1927" ry="18"/>
<text text-anchor="middle" x="91" y="-99.8" font-family="Times,serif" font-size="14.00" fill="#000000">ReciboService</text>
</g>
<!-- ReciboService&#45;&gt;EstadoReciboModule -->
<g id="edge5" class="edge">
<title>ReciboService&#45;&gt;EstadoReciboModule</title>
<path fill="none" stroke="#000000" d="M91,-122.1061C91,-141.3391 91,-169 91,-169 91,-169 231.3079,-169 231.3079,-169"/>
<polygon fill="#000000" stroke="#000000" points="231.3079,-172.5001 241.3079,-169 231.3079,-165.5001 231.3079,-172.5001"/>
</g>
</g>
</svg>
