<?xml version="1.0" encoding="UTF-8" standalone="no"?>
<!DOCTYPE svg PUBLIC "-//W3C//DTD SVG 1.1//EN"
 "http://www.w3.org/Graphics/SVG/1.1/DTD/svg11.dtd">
<!-- Generated by graphviz version 2.40.1 (20161225.0304)
 -->
<!-- Title: dependencies Pages: 1 -->
<svg width="778pt" height="284pt"
 viewBox="0.00 0.00 778.00 284.00" xmlns="http://www.w3.org/2000/svg" xmlns:xlink="http://www.w3.org/1999/xlink">
<g id="graph0" class="graph" transform="scale(1 1) rotate(0) translate(4 280)">
<title>dependencies</title>
<polygon fill="#ffffff" stroke="transparent" points="-4,4 -4,-280 774,-280 774,4 -4,4"/>
<text text-anchor="start" x="364.0091" y="-42.4" font-family="sans-serif" font-weight="bold" font-size="14.00" fill="#000000">Legend</text>
<polygon fill="#ffffb3" stroke="transparent" points="151,-10 151,-30 171,-30 171,-10 151,-10"/>
<text text-anchor="start" x="174.629" y="-15.4" font-family="sans-serif" font-size="14.00" fill="#000000"> &#160;Declarations</text>
<polygon fill="#8dd3c7" stroke="transparent" points="264,-10 264,-30 284,-30 284,-10 264,-10"/>
<text text-anchor="start" x="287.7251" y="-15.4" font-family="sans-serif" font-size="14.00" fill="#000000"> &#160;Module</text>
<polygon fill="#80b1d3" stroke="transparent" points="350,-10 350,-30 370,-30 370,-10 350,-10"/>
<text text-anchor="start" x="373.7812" y="-15.4" font-family="sans-serif" font-size="14.00" fill="#000000"> &#160;Bootstrap</text>
<polygon fill="#fdb462" stroke="transparent" points="447,-10 447,-30 467,-30 467,-10 447,-10"/>
<text text-anchor="start" x="470.6732" y="-15.4" font-family="sans-serif" font-size="14.00" fill="#000000"> &#160;Providers</text>
<polygon fill="#fb8072" stroke="transparent" points="543,-10 543,-30 563,-30 563,-10 543,-10"/>
<text text-anchor="start" x="566.7258" y="-15.4" font-family="sans-serif" font-size="14.00" fill="#000000"> &#160;Exports</text>
<g id="clust1" class="cluster">
<title>cluster_SubtipoProduccionModule</title>
<polygon fill="none" stroke="#000000" stroke-dasharray="1,5" points="8,-70 8,-268 762,-268 762,-70 8,-70"/>
</g>
<g id="clust3" class="cluster">
<title>cluster_SubtipoProduccionModule_imports</title>
<polygon fill="none" stroke="#000000" points="294,-78 294,-130 754,-130 754,-78 294,-78"/>
</g>
<g id="clust4" class="cluster">
<title>cluster_SubtipoProduccionModule_exports</title>
<polygon fill="none" stroke="#000000" points="319,-208 319,-260 555,-260 555,-208 319,-208"/>
</g>
<g id="clust6" class="cluster">
<title>cluster_SubtipoProduccionModule_providers</title>
<polygon fill="none" stroke="#000000" points="16,-78 16,-130 286,-130 286,-78 16,-78"/>
</g>
<!-- ThemeModule -->
<g id="node1" class="node">
<title>ThemeModule</title>
<polygon fill="#8dd3c7" stroke="#000000" points="746.4231,-122 743.4231,-126 722.4231,-126 719.4231,-122 647.5769,-122 647.5769,-86 746.4231,-86 746.4231,-122"/>
<text text-anchor="middle" x="697" y="-99.8" font-family="Times,serif" font-size="14.00" fill="#000000">ThemeModule</text>
</g>
<!-- SubtipoProduccionModule -->
<g id="node4" class="node">
<title>SubtipoProduccionModule</title>
<polygon fill="#8dd3c7" stroke="#000000" points="520.3766,-187 517.3766,-191 496.3766,-191 493.3766,-187 353.6234,-187 353.6234,-151 520.3766,-151 520.3766,-187"/>
<text text-anchor="middle" x="437" y="-164.8" font-family="Times,serif" font-size="14.00" fill="#000000">SubtipoProduccionModule</text>
</g>
<!-- ThemeModule&#45;&gt;SubtipoProduccionModule -->
<g id="edge1" class="edge">
<title>ThemeModule&#45;&gt;SubtipoProduccionModule</title>
<path fill="none" stroke="#000000" d="M697,-122.1061C697,-141.3391 697,-169 697,-169 697,-169 530.6968,-169 530.6968,-169"/>
<polygon fill="#000000" stroke="#000000" points="530.6968,-165.5001 520.6968,-169 530.6968,-172.5001 530.6968,-165.5001"/>
</g>
<!-- SubtipoProduccionRoutingModule -->
<g id="node2" class="node">
<title>SubtipoProduccionRoutingModule</title>
<polygon fill="#8dd3c7" stroke="#000000" points="629.9944,-122 626.9944,-126 605.9944,-126 602.9944,-122 418.0056,-122 418.0056,-86 629.9944,-86 629.9944,-122"/>
<text text-anchor="middle" x="524" y="-99.8" font-family="Times,serif" font-size="14.00" fill="#000000">SubtipoProduccionRoutingModule</text>
</g>
<!-- SubtipoProduccionRoutingModule&#45;&gt;SubtipoProduccionModule -->
<g id="edge2" class="edge">
<title>SubtipoProduccionRoutingModule&#45;&gt;SubtipoProduccionModule</title>
<path fill="none" stroke="#000000" d="M469.2206,-122.1061C469.2206,-122.1061 469.2206,-140.991 469.2206,-140.991"/>
<polygon fill="#000000" stroke="#000000" points="465.7206,-140.9909 469.2206,-150.991 472.7206,-140.991 465.7206,-140.9909"/>
</g>
<!-- SharedModule -->
<g id="node3" class="node">
<title>SharedModule</title>
<polygon fill="#8dd3c7" stroke="#000000" points="400.4231,-122 397.4231,-126 376.4231,-126 373.4231,-122 301.5769,-122 301.5769,-86 400.4231,-86 400.4231,-122"/>
<text text-anchor="middle" x="351" y="-99.8" font-family="Times,serif" font-size="14.00" fill="#000000">SharedModule</text>
</g>
<!-- SharedModule&#45;&gt;SubtipoProduccionModule -->
<g id="edge3" class="edge">
<title>SharedModule&#45;&gt;SubtipoProduccionModule</title>
<path fill="none" stroke="#000000" d="M376.8864,-122.1061C376.8864,-122.1061 376.8864,-140.991 376.8864,-140.991"/>
<polygon fill="#000000" stroke="#000000" points="373.3865,-140.9909 376.8864,-150.991 380.3865,-140.991 373.3865,-140.9909"/>
</g>
<!-- CrudSubtipoProduccionComponent  -->
<g id="node5" class="node">
<title>CrudSubtipoProduccionComponent </title>
<polygon fill="#fb8072" stroke="#000000" points="547.1565,-252 326.8435,-252 326.8435,-216 547.1565,-216 547.1565,-252"/>
<text text-anchor="middle" x="437" y="-229.8" font-family="Times,serif" font-size="14.00" fill="#000000">CrudSubtipoProduccionComponent </text>
</g>
<!-- SubtipoProduccionModule&#45;&gt;CrudSubtipoProduccionComponent  -->
<g id="edge4" class="edge">
<title>SubtipoProduccionModule&#45;&gt;CrudSubtipoProduccionComponent </title>
<path fill="none" stroke="#000000" stroke-dasharray="5,2" d="M437,-187.1061C437,-187.1061 437,-205.991 437,-205.991"/>
<polygon fill="#000000" stroke="#000000" points="433.5001,-205.9909 437,-215.991 440.5001,-205.991 433.5001,-205.9909"/>
</g>
<!-- ProduccionAcademicaService -->
<g id="node6" class="node">
<title>ProduccionAcademicaService</title>
<ellipse fill="#fdb462" stroke="#000000" cx="151" cy="-104" rx="127.3074" ry="18"/>
<text text-anchor="middle" x="151" y="-99.8" font-family="Times,serif" font-size="14.00" fill="#000000">ProduccionAcademicaService</text>
</g>
<!-- ProduccionAcademicaService&#45;&gt;SubtipoProduccionModule -->
<g id="edge5" class="edge">
<title>ProduccionAcademicaService&#45;&gt;SubtipoProduccionModule</title>
<path fill="none" stroke="#000000" d="M151,-122.1061C151,-141.3391 151,-169 151,-169 151,-169 343.5081,-169 343.5081,-169"/>
<polygon fill="#000000" stroke="#000000" points="343.5082,-172.5001 353.5081,-169 343.5081,-165.5001 343.5082,-172.5001"/>
</g>
</g>
</svg>
