<?xml version="1.0" encoding="UTF-8" standalone="no"?>
<!DOCTYPE svg PUBLIC "-//W3C//DTD SVG 1.1//EN"
 "http://www.w3.org/Graphics/SVG/1.1/DTD/svg11.dtd">
<!-- Generated by graphviz version 2.40.1 (20161225.0304)
 -->
<!-- Title: dependencies Pages: 1 -->
<svg width="644pt" height="284pt"
 viewBox="0.00 0.00 644.00 284.00" xmlns="http://www.w3.org/2000/svg" xmlns:xlink="http://www.w3.org/1999/xlink">
<g id="graph0" class="graph" transform="scale(1 1) rotate(0) translate(4 280)">
<title>dependencies</title>
<polygon fill="#ffffff" stroke="transparent" points="-4,4 -4,-280 640,-280 640,4 -4,4"/>
<text text-anchor="start" x="297.0091" y="-42.4" font-family="sans-serif" font-weight="bold" font-size="14.00" fill="#000000">Legend</text>
<polygon fill="#ffffb3" stroke="transparent" points="84,-10 84,-30 104,-30 104,-10 84,-10"/>
<text text-anchor="start" x="107.629" y="-15.4" font-family="sans-serif" font-size="14.00" fill="#000000"> &#160;Declarations</text>
<polygon fill="#8dd3c7" stroke="transparent" points="197,-10 197,-30 217,-30 217,-10 197,-10"/>
<text text-anchor="start" x="220.7251" y="-15.4" font-family="sans-serif" font-size="14.00" fill="#000000"> &#160;Module</text>
<polygon fill="#80b1d3" stroke="transparent" points="283,-10 283,-30 303,-30 303,-10 283,-10"/>
<text text-anchor="start" x="306.7812" y="-15.4" font-family="sans-serif" font-size="14.00" fill="#000000"> &#160;Bootstrap</text>
<polygon fill="#fdb462" stroke="transparent" points="380,-10 380,-30 400,-30 400,-10 380,-10"/>
<text text-anchor="start" x="403.6732" y="-15.4" font-family="sans-serif" font-size="14.00" fill="#000000"> &#160;Providers</text>
<polygon fill="#fb8072" stroke="transparent" points="476,-10 476,-30 496,-30 496,-10 476,-10"/>
<text text-anchor="start" x="499.7258" y="-15.4" font-family="sans-serif" font-size="14.00" fill="#000000"> &#160;Exports</text>
<g id="clust1" class="cluster">
<title>cluster_TipoDatoAdicionalModule</title>
<polygon fill="none" stroke="#000000" stroke-dasharray="1,5" points="8,-70 8,-268 628,-268 628,-70 8,-70"/>
</g>
<g id="clust3" class="cluster">
<title>cluster_TipoDatoAdicionalModule_imports</title>
<polygon fill="none" stroke="#000000" points="158,-78 158,-130 620,-130 620,-78 158,-78"/>
</g>
<g id="clust4" class="cluster">
<title>cluster_TipoDatoAdicionalModule_exports</title>
<polygon fill="none" stroke="#000000" points="183,-208 183,-260 421,-260 421,-208 183,-208"/>
</g>
<g id="clust6" class="cluster">
<title>cluster_TipoDatoAdicionalModule_providers</title>
<polygon fill="none" stroke="#000000" points="16,-78 16,-130 150,-130 150,-78 16,-78"/>
</g>
<!-- ThemeModule -->
<g id="node1" class="node">
<title>ThemeModule</title>
<polygon fill="#8dd3c7" stroke="#000000" points="612.4231,-122 609.4231,-126 588.4231,-126 585.4231,-122 513.5769,-122 513.5769,-86 612.4231,-86 612.4231,-122"/>
<text text-anchor="middle" x="563" y="-99.8" font-family="Times,serif" font-size="14.00" fill="#000000">ThemeModule</text>
</g>
<!-- TipoDatoAdicionalModule -->
<g id="node4" class="node">
<title>TipoDatoAdicionalModule</title>
<polygon fill="#8dd3c7" stroke="#000000" points="386.4129,-187 383.4129,-191 362.4129,-191 359.4129,-187 217.5871,-187 217.5871,-151 386.4129,-151 386.4129,-187"/>
<text text-anchor="middle" x="302" y="-164.8" font-family="Times,serif" font-size="14.00" fill="#000000">TipoDatoAdicionalModule</text>
</g>
<!-- ThemeModule&#45;&gt;TipoDatoAdicionalModule -->
<g id="edge1" class="edge">
<title>ThemeModule&#45;&gt;TipoDatoAdicionalModule</title>
<path fill="none" stroke="#000000" d="M563,-122.1061C563,-141.3391 563,-169 563,-169 563,-169 396.3788,-169 396.3788,-169"/>
<polygon fill="#000000" stroke="#000000" points="396.3788,-165.5001 386.3788,-169 396.3787,-172.5001 396.3788,-165.5001"/>
</g>
<!-- TipoDatoAdicionalRoutingModule -->
<g id="node2" class="node">
<title>TipoDatoAdicionalRoutingModule</title>
<polygon fill="#8dd3c7" stroke="#000000" points="495.5307,-122 492.5307,-126 471.5307,-126 468.5307,-122 282.4693,-122 282.4693,-86 495.5307,-86 495.5307,-122"/>
<text text-anchor="middle" x="389" y="-99.8" font-family="Times,serif" font-size="14.00" fill="#000000">TipoDatoAdicionalRoutingModule</text>
</g>
<!-- TipoDatoAdicionalRoutingModule&#45;&gt;TipoDatoAdicionalModule -->
<g id="edge2" class="edge">
<title>TipoDatoAdicionalRoutingModule&#45;&gt;TipoDatoAdicionalModule</title>
<path fill="none" stroke="#000000" d="M334.2206,-122.1061C334.2206,-122.1061 334.2206,-140.991 334.2206,-140.991"/>
<polygon fill="#000000" stroke="#000000" points="330.7206,-140.9909 334.2206,-150.991 337.7206,-140.991 330.7206,-140.9909"/>
</g>
<!-- SharedModule -->
<g id="node3" class="node">
<title>SharedModule</title>
<polygon fill="#8dd3c7" stroke="#000000" points="264.4231,-122 261.4231,-126 240.4231,-126 237.4231,-122 165.5769,-122 165.5769,-86 264.4231,-86 264.4231,-122"/>
<text text-anchor="middle" x="215" y="-99.8" font-family="Times,serif" font-size="14.00" fill="#000000">SharedModule</text>
</g>
<!-- SharedModule&#45;&gt;TipoDatoAdicionalModule -->
<g id="edge3" class="edge">
<title>SharedModule&#45;&gt;TipoDatoAdicionalModule</title>
<path fill="none" stroke="#000000" d="M241.0025,-122.1061C241.0025,-122.1061 241.0025,-140.991 241.0025,-140.991"/>
<polygon fill="#000000" stroke="#000000" points="237.5025,-140.9909 241.0025,-150.991 244.5025,-140.991 237.5025,-140.9909"/>
</g>
<!-- CrudTipoDatoAdicionalComponent  -->
<g id="node5" class="node">
<title>CrudTipoDatoAdicionalComponent </title>
<polygon fill="#fb8072" stroke="#000000" points="412.6924,-252 191.3076,-252 191.3076,-216 412.6924,-216 412.6924,-252"/>
<text text-anchor="middle" x="302" y="-229.8" font-family="Times,serif" font-size="14.00" fill="#000000">CrudTipoDatoAdicionalComponent </text>
</g>
<!-- TipoDatoAdicionalModule&#45;&gt;CrudTipoDatoAdicionalComponent  -->
<g id="edge4" class="edge">
<title>TipoDatoAdicionalModule&#45;&gt;CrudTipoDatoAdicionalComponent </title>
<path fill="none" stroke="#000000" stroke-dasharray="5,2" d="M302,-187.1061C302,-187.1061 302,-205.991 302,-205.991"/>
<polygon fill="#000000" stroke="#000000" points="298.5001,-205.9909 302,-215.991 305.5001,-205.991 298.5001,-205.9909"/>
</g>
<!-- CoreService -->
<g id="node6" class="node">
<title>CoreService</title>
<ellipse fill="#fdb462" stroke="#000000" cx="83" cy="-104" rx="58.5251" ry="18"/>
<text text-anchor="middle" x="83" y="-99.8" font-family="Times,serif" font-size="14.00" fill="#000000">CoreService</text>
</g>
<!-- CoreService&#45;&gt;TipoDatoAdicionalModule -->
<g id="edge5" class="edge">
<title>CoreService&#45;&gt;TipoDatoAdicionalModule</title>
<path fill="none" stroke="#000000" d="M83,-122.1061C83,-141.3391 83,-169 83,-169 83,-169 207.6421,-169 207.6421,-169"/>
<polygon fill="#000000" stroke="#000000" points="207.6422,-172.5001 217.6421,-169 207.6421,-165.5001 207.6422,-172.5001"/>
</g>
</g>
</svg>
