<?xml version="1.0" encoding="UTF-8" standalone="no"?>
<!DOCTYPE svg PUBLIC "-//W3C//DTD SVG 1.1//EN"
 "http://www.w3.org/Graphics/SVG/1.1/DTD/svg11.dtd">
<!-- Generated by graphviz version 2.40.1 (20161225.0304)
 -->
<!-- Title: dependencies Pages: 1 -->
<svg width="606pt" height="284pt"
 viewBox="0.00 0.00 606.00 284.00" xmlns="http://www.w3.org/2000/svg" xmlns:xlink="http://www.w3.org/1999/xlink">
<g id="graph0" class="graph" transform="scale(1 1) rotate(0) translate(4 280)">
<title>dependencies</title>
<polygon fill="#ffffff" stroke="transparent" points="-4,4 -4,-280 602,-280 602,4 -4,4"/>
<text text-anchor="start" x="278.0091" y="-42.4" font-family="sans-serif" font-weight="bold" font-size="14.00" fill="#000000">Legend</text>
<polygon fill="#ffffb3" stroke="transparent" points="65,-10 65,-30 85,-30 85,-10 65,-10"/>
<text text-anchor="start" x="88.629" y="-15.4" font-family="sans-serif" font-size="14.00" fill="#000000"> &#160;Declarations</text>
<polygon fill="#8dd3c7" stroke="transparent" points="178,-10 178,-30 198,-30 198,-10 178,-10"/>
<text text-anchor="start" x="201.7251" y="-15.4" font-family="sans-serif" font-size="14.00" fill="#000000"> &#160;Module</text>
<polygon fill="#80b1d3" stroke="transparent" points="264,-10 264,-30 284,-30 284,-10 264,-10"/>
<text text-anchor="start" x="287.7812" y="-15.4" font-family="sans-serif" font-size="14.00" fill="#000000"> &#160;Bootstrap</text>
<polygon fill="#fdb462" stroke="transparent" points="361,-10 361,-30 381,-30 381,-10 361,-10"/>
<text text-anchor="start" x="384.6732" y="-15.4" font-family="sans-serif" font-size="14.00" fill="#000000"> &#160;Providers</text>
<polygon fill="#fb8072" stroke="transparent" points="457,-10 457,-30 477,-30 477,-10 457,-10"/>
<text text-anchor="start" x="480.7258" y="-15.4" font-family="sans-serif" font-size="14.00" fill="#000000"> &#160;Exports</text>
<g id="clust1" class="cluster">
<title>cluster_TipoPeriodoModule</title>
<polygon fill="none" stroke="#000000" stroke-dasharray="1,5" points="8,-70 8,-268 590,-268 590,-70 8,-70"/>
</g>
<g id="clust3" class="cluster">
<title>cluster_TipoPeriodoModule_imports</title>
<polygon fill="none" stroke="#000000" points="158,-78 158,-130 582,-130 582,-78 158,-78"/>
</g>
<g id="clust4" class="cluster">
<title>cluster_TipoPeriodoModule_exports</title>
<polygon fill="none" stroke="#000000" points="193,-208 193,-260 391,-260 391,-208 193,-208"/>
</g>
<g id="clust6" class="cluster">
<title>cluster_TipoPeriodoModule_providers</title>
<polygon fill="none" stroke="#000000" points="16,-78 16,-130 150,-130 150,-78 16,-78"/>
</g>
<!-- ThemeModule -->
<g id="node1" class="node">
<title>ThemeModule</title>
<polygon fill="#8dd3c7" stroke="#000000" points="574.4231,-122 571.4231,-126 550.4231,-126 547.4231,-122 475.5769,-122 475.5769,-86 574.4231,-86 574.4231,-122"/>
<text text-anchor="middle" x="525" y="-99.8" font-family="Times,serif" font-size="14.00" fill="#000000">ThemeModule</text>
</g>
<!-- TipoPeriodoModule -->
<g id="node4" class="node">
<title>TipoPeriodoModule</title>
<polygon fill="#8dd3c7" stroke="#000000" points="356.5422,-187 353.5422,-191 332.5422,-191 329.5422,-187 227.4578,-187 227.4578,-151 356.5422,-151 356.5422,-187"/>
<text text-anchor="middle" x="292" y="-164.8" font-family="Times,serif" font-size="14.00" fill="#000000">TipoPeriodoModule</text>
</g>
<!-- ThemeModule&#45;&gt;TipoPeriodoModule -->
<g id="edge1" class="edge">
<title>ThemeModule&#45;&gt;TipoPeriodoModule</title>
<path fill="none" stroke="#000000" d="M525,-122.1061C525,-141.3391 525,-169 525,-169 525,-169 366.5941,-169 366.5941,-169"/>
<polygon fill="#000000" stroke="#000000" points="366.5941,-165.5001 356.5941,-169 366.594,-172.5001 366.5941,-165.5001"/>
</g>
<!-- TipoPeriodoRoutingModule -->
<g id="node2" class="node">
<title>TipoPeriodoRoutingModule</title>
<polygon fill="#8dd3c7" stroke="#000000" points="457.1595,-122 454.1595,-126 433.1595,-126 430.1595,-122 282.8405,-122 282.8405,-86 457.1595,-86 457.1595,-122"/>
<text text-anchor="middle" x="370" y="-99.8" font-family="Times,serif" font-size="14.00" fill="#000000">TipoPeriodoRoutingModule</text>
</g>
<!-- TipoPeriodoRoutingModule&#45;&gt;TipoPeriodoModule -->
<g id="edge2" class="edge">
<title>TipoPeriodoRoutingModule&#45;&gt;TipoPeriodoModule</title>
<path fill="none" stroke="#000000" d="M319.7206,-122.1061C319.7206,-122.1061 319.7206,-140.991 319.7206,-140.991"/>
<polygon fill="#000000" stroke="#000000" points="316.2206,-140.9909 319.7206,-150.991 323.2206,-140.991 316.2206,-140.9909"/>
</g>
<!-- SharedModule -->
<g id="node3" class="node">
<title>SharedModule</title>
<polygon fill="#8dd3c7" stroke="#000000" points="264.4231,-122 261.4231,-126 240.4231,-126 237.4231,-122 165.5769,-122 165.5769,-86 264.4231,-86 264.4231,-122"/>
<text text-anchor="middle" x="215" y="-99.8" font-family="Times,serif" font-size="14.00" fill="#000000">SharedModule</text>
</g>
<!-- SharedModule&#45;&gt;TipoPeriodoModule -->
<g id="edge3" class="edge">
<title>SharedModule&#45;&gt;TipoPeriodoModule</title>
<path fill="none" stroke="#000000" d="M245.7202,-122.1061C245.7202,-122.1061 245.7202,-140.991 245.7202,-140.991"/>
<polygon fill="#000000" stroke="#000000" points="242.2203,-140.9909 245.7202,-150.991 249.2203,-140.991 242.2203,-140.9909"/>
</g>
<!-- CrudTipoPeriodoComponent  -->
<g id="node5" class="node">
<title>CrudTipoPeriodoComponent </title>
<polygon fill="#fb8072" stroke="#000000" points="383.3213,-252 200.6787,-252 200.6787,-216 383.3213,-216 383.3213,-252"/>
<text text-anchor="middle" x="292" y="-229.8" font-family="Times,serif" font-size="14.00" fill="#000000">CrudTipoPeriodoComponent </text>
</g>
<!-- TipoPeriodoModule&#45;&gt;CrudTipoPeriodoComponent  -->
<g id="edge4" class="edge">
<title>TipoPeriodoModule&#45;&gt;CrudTipoPeriodoComponent </title>
<path fill="none" stroke="#000000" stroke-dasharray="5,2" d="M292,-187.1061C292,-187.1061 292,-205.991 292,-205.991"/>
<polygon fill="#000000" stroke="#000000" points="288.5001,-205.9909 292,-215.991 295.5001,-205.991 288.5001,-205.9909"/>
</g>
<!-- CoreService -->
<g id="node6" class="node">
<title>CoreService</title>
<ellipse fill="#fdb462" stroke="#000000" cx="83" cy="-104" rx="58.5251" ry="18"/>
<text text-anchor="middle" x="83" y="-99.8" font-family="Times,serif" font-size="14.00" fill="#000000">CoreService</text>
</g>
<!-- CoreService&#45;&gt;TipoPeriodoModule -->
<g id="edge5" class="edge">
<title>CoreService&#45;&gt;TipoPeriodoModule</title>
<path fill="none" stroke="#000000" d="M83,-122.1061C83,-141.3391 83,-169 83,-169 83,-169 217.3024,-169 217.3024,-169"/>
<polygon fill="#000000" stroke="#000000" points="217.3024,-172.5001 227.3024,-169 217.3024,-165.5001 217.3024,-172.5001"/>
</g>
</g>
</svg>
