<?xml version="1.0" encoding="UTF-8" standalone="no"?>
<!DOCTYPE svg PUBLIC "-//W3C//DTD SVG 1.1//EN"
 "http://www.w3.org/Graphics/SVG/1.1/DTD/svg11.dtd">
<!-- Generated by graphviz version 2.40.1 (20161225.0304)
 -->
<!-- Title: dependencies Pages: 1 -->
<svg width="806pt" height="284pt"
 viewBox="0.00 0.00 806.00 284.00" xmlns="http://www.w3.org/2000/svg" xmlns:xlink="http://www.w3.org/1999/xlink">
<g id="graph0" class="graph" transform="scale(1 1) rotate(0) translate(4 280)">
<title>dependencies</title>
<polygon fill="#ffffff" stroke="transparent" points="-4,4 -4,-280 802,-280 802,4 -4,4"/>
<text text-anchor="start" x="378.0091" y="-42.4" font-family="sans-serif" font-weight="bold" font-size="14.00" fill="#000000">Legend</text>
<polygon fill="#ffffb3" stroke="transparent" points="165,-10 165,-30 185,-30 185,-10 165,-10"/>
<text text-anchor="start" x="188.629" y="-15.4" font-family="sans-serif" font-size="14.00" fill="#000000"> &#160;Declarations</text>
<polygon fill="#8dd3c7" stroke="transparent" points="278,-10 278,-30 298,-30 298,-10 278,-10"/>
<text text-anchor="start" x="301.7251" y="-15.4" font-family="sans-serif" font-size="14.00" fill="#000000"> &#160;Module</text>
<polygon fill="#80b1d3" stroke="transparent" points="364,-10 364,-30 384,-30 384,-10 364,-10"/>
<text text-anchor="start" x="387.7812" y="-15.4" font-family="sans-serif" font-size="14.00" fill="#000000"> &#160;Bootstrap</text>
<polygon fill="#fdb462" stroke="transparent" points="461,-10 461,-30 481,-30 481,-10 461,-10"/>
<text text-anchor="start" x="484.6732" y="-15.4" font-family="sans-serif" font-size="14.00" fill="#000000"> &#160;Providers</text>
<polygon fill="#fb8072" stroke="transparent" points="557,-10 557,-30 577,-30 577,-10 557,-10"/>
<text text-anchor="start" x="580.7258" y="-15.4" font-family="sans-serif" font-size="14.00" fill="#000000"> &#160;Exports</text>
<g id="clust1" class="cluster">
<title>cluster_EstadoAutorProduccionModule</title>
<polygon fill="none" stroke="#000000" stroke-dasharray="1,5" points="8,-70 8,-268 790,-268 790,-70 8,-70"/>
</g>
<g id="clust3" class="cluster">
<title>cluster_EstadoAutorProduccionModule_imports</title>
<polygon fill="none" stroke="#000000" points="294,-78 294,-130 782,-130 782,-78 294,-78"/>
</g>
<g id="clust4" class="cluster">
<title>cluster_EstadoAutorProduccionModule_exports</title>
<polygon fill="none" stroke="#000000" points="312,-208 312,-260 576,-260 576,-208 312,-208"/>
</g>
<g id="clust6" class="cluster">
<title>cluster_EstadoAutorProduccionModule_providers</title>
<polygon fill="none" stroke="#000000" points="16,-78 16,-130 286,-130 286,-78 16,-78"/>
</g>
<!-- ThemeModule -->
<g id="node1" class="node">
<title>ThemeModule</title>
<polygon fill="#8dd3c7" stroke="#000000" points="774.4231,-122 771.4231,-126 750.4231,-126 747.4231,-122 675.5769,-122 675.5769,-86 774.4231,-86 774.4231,-122"/>
<text text-anchor="middle" x="725" y="-99.8" font-family="Times,serif" font-size="14.00" fill="#000000">ThemeModule</text>
</g>
<!-- EstadoAutorProduccionModule -->
<g id="node4" class="node">
<title>EstadoAutorProduccionModule</title>
<polygon fill="#8dd3c7" stroke="#000000" points="541.073,-187 538.073,-191 517.073,-191 514.073,-187 346.927,-187 346.927,-151 541.073,-151 541.073,-187"/>
<text text-anchor="middle" x="444" y="-164.8" font-family="Times,serif" font-size="14.00" fill="#000000">EstadoAutorProduccionModule</text>
</g>
<!-- ThemeModule&#45;&gt;EstadoAutorProduccionModule -->
<g id="edge1" class="edge">
<title>ThemeModule&#45;&gt;EstadoAutorProduccionModule</title>
<path fill="none" stroke="#000000" d="M725,-122.1061C725,-141.3391 725,-169 725,-169 725,-169 551.0977,-169 551.0977,-169"/>
<polygon fill="#000000" stroke="#000000" points="551.0978,-165.5001 541.0977,-169 551.0977,-172.5001 551.0978,-165.5001"/>
</g>
<!-- EstadoAutorProduccionRoutingModule -->
<g id="node2" class="node">
<title>EstadoAutorProduccionRoutingModule</title>
<polygon fill="#8dd3c7" stroke="#000000" points="657.6909,-122 654.6909,-126 633.6909,-126 630.6909,-122 418.3091,-122 418.3091,-86 657.6909,-86 657.6909,-122"/>
<text text-anchor="middle" x="538" y="-99.8" font-family="Times,serif" font-size="14.00" fill="#000000">EstadoAutorProduccionRoutingModule</text>
</g>
<!-- EstadoAutorProduccionRoutingModule&#45;&gt;EstadoAutorProduccionModule -->
<g id="edge2" class="edge">
<title>EstadoAutorProduccionRoutingModule&#45;&gt;EstadoAutorProduccionModule</title>
<path fill="none" stroke="#000000" d="M479.7206,-122.1061C479.7206,-122.1061 479.7206,-140.991 479.7206,-140.991"/>
<polygon fill="#000000" stroke="#000000" points="476.2206,-140.9909 479.7206,-150.991 483.2206,-140.991 476.2206,-140.9909"/>
</g>
<!-- SharedModule -->
<g id="node3" class="node">
<title>SharedModule</title>
<polygon fill="#8dd3c7" stroke="#000000" points="400.4231,-122 397.4231,-126 376.4231,-126 373.4231,-122 301.5769,-122 301.5769,-86 400.4231,-86 400.4231,-122"/>
<text text-anchor="middle" x="351" y="-99.8" font-family="Times,serif" font-size="14.00" fill="#000000">SharedModule</text>
</g>
<!-- SharedModule&#45;&gt;EstadoAutorProduccionModule -->
<g id="edge3" class="edge">
<title>SharedModule&#45;&gt;EstadoAutorProduccionModule</title>
<path fill="none" stroke="#000000" d="M373.5873,-122.1061C373.5873,-122.1061 373.5873,-140.991 373.5873,-140.991"/>
<polygon fill="#000000" stroke="#000000" points="370.0874,-140.9909 373.5873,-150.991 377.0874,-140.991 370.0874,-140.9909"/>
</g>
<!-- CrudEstadoAutorProduccionComponent  -->
<g id="node5" class="node">
<title>CrudEstadoAutorProduccionComponent </title>
<polygon fill="#fb8072" stroke="#000000" points="567.8531,-252 320.1469,-252 320.1469,-216 567.8531,-216 567.8531,-252"/>
<text text-anchor="middle" x="444" y="-229.8" font-family="Times,serif" font-size="14.00" fill="#000000">CrudEstadoAutorProduccionComponent </text>
</g>
<!-- EstadoAutorProduccionModule&#45;&gt;CrudEstadoAutorProduccionComponent  -->
<g id="edge4" class="edge">
<title>EstadoAutorProduccionModule&#45;&gt;CrudEstadoAutorProduccionComponent </title>
<path fill="none" stroke="#000000" stroke-dasharray="5,2" d="M444,-187.1061C444,-187.1061 444,-205.991 444,-205.991"/>
<polygon fill="#000000" stroke="#000000" points="440.5001,-205.9909 444,-215.991 447.5001,-205.991 440.5001,-205.9909"/>
</g>
<!-- ProduccionAcademicaService -->
<g id="node6" class="node">
<title>ProduccionAcademicaService</title>
<ellipse fill="#fdb462" stroke="#000000" cx="151" cy="-104" rx="127.3074" ry="18"/>
<text text-anchor="middle" x="151" y="-99.8" font-family="Times,serif" font-size="14.00" fill="#000000">ProduccionAcademicaService</text>
</g>
<!-- ProduccionAcademicaService&#45;&gt;EstadoAutorProduccionModule -->
<g id="edge5" class="edge">
<title>ProduccionAcademicaService&#45;&gt;EstadoAutorProduccionModule</title>
<path fill="none" stroke="#000000" d="M151,-122.1061C151,-141.3391 151,-169 151,-169 151,-169 336.8422,-169 336.8422,-169"/>
<polygon fill="#000000" stroke="#000000" points="336.8423,-172.5001 346.8422,-169 336.8422,-165.5001 336.8423,-172.5001"/>
</g>
</g>
</svg>
