<?xml version="1.0" encoding="UTF-8" standalone="no"?>
<!DOCTYPE svg PUBLIC "-//W3C//DTD SVG 1.1//EN"
 "http://www.w3.org/Graphics/SVG/1.1/DTD/svg11.dtd">
<!-- Generated by graphviz version 2.40.1 (20161225.0304)
 -->
<!-- Title: dependencies Pages: 1 -->
<svg width="660pt" height="284pt"
 viewBox="0.00 0.00 660.00 284.00" xmlns="http://www.w3.org/2000/svg" xmlns:xlink="http://www.w3.org/1999/xlink">
<g id="graph0" class="graph" transform="scale(1 1) rotate(0) translate(4 280)">
<title>dependencies</title>
<polygon fill="#ffffff" stroke="transparent" points="-4,4 -4,-280 656,-280 656,4 -4,4"/>
<text text-anchor="start" x="305.0091" y="-42.4" font-family="sans-serif" font-weight="bold" font-size="14.00" fill="#000000">Legend</text>
<polygon fill="#ffffb3" stroke="transparent" points="92,-10 92,-30 112,-30 112,-10 92,-10"/>
<text text-anchor="start" x="115.629" y="-15.4" font-family="sans-serif" font-size="14.00" fill="#000000"> &#160;Declarations</text>
<polygon fill="#8dd3c7" stroke="transparent" points="205,-10 205,-30 225,-30 225,-10 205,-10"/>
<text text-anchor="start" x="228.7251" y="-15.4" font-family="sans-serif" font-size="14.00" fill="#000000"> &#160;Module</text>
<polygon fill="#80b1d3" stroke="transparent" points="291,-10 291,-30 311,-30 311,-10 291,-10"/>
<text text-anchor="start" x="314.7812" y="-15.4" font-family="sans-serif" font-size="14.00" fill="#000000"> &#160;Bootstrap</text>
<polygon fill="#fdb462" stroke="transparent" points="388,-10 388,-30 408,-30 408,-10 388,-10"/>
<text text-anchor="start" x="411.6732" y="-15.4" font-family="sans-serif" font-size="14.00" fill="#000000"> &#160;Providers</text>
<polygon fill="#fb8072" stroke="transparent" points="484,-10 484,-30 504,-30 504,-10 484,-10"/>
<text text-anchor="start" x="507.7258" y="-15.4" font-family="sans-serif" font-size="14.00" fill="#000000"> &#160;Exports</text>
<g id="clust1" class="cluster">
<title>cluster_RelacionLugarModule</title>
<polygon fill="none" stroke="#000000" stroke-dasharray="1,5" points="8,-70 8,-268 644,-268 644,-70 8,-70"/>
</g>
<g id="clust3" class="cluster">
<title>cluster_RelacionLugarModule_imports</title>
<polygon fill="none" stroke="#000000" points="200,-78 200,-130 636,-130 636,-78 200,-78"/>
</g>
<g id="clust4" class="cluster">
<title>cluster_RelacionLugarModule_exports</title>
<polygon fill="none" stroke="#000000" points="231,-208 231,-260 443,-260 443,-208 231,-208"/>
</g>
<g id="clust6" class="cluster">
<title>cluster_RelacionLugarModule_providers</title>
<polygon fill="none" stroke="#000000" points="16,-78 16,-130 192,-130 192,-78 16,-78"/>
</g>
<!-- ThemeModule -->
<g id="node1" class="node">
<title>ThemeModule</title>
<polygon fill="#8dd3c7" stroke="#000000" points="628.4231,-122 625.4231,-126 604.4231,-126 601.4231,-122 529.5769,-122 529.5769,-86 628.4231,-86 628.4231,-122"/>
<text text-anchor="middle" x="579" y="-99.8" font-family="Times,serif" font-size="14.00" fill="#000000">ThemeModule</text>
</g>
<!-- RelacionLugarModule -->
<g id="node4" class="node">
<title>RelacionLugarModule</title>
<polygon fill="#8dd3c7" stroke="#000000" points="408.2394,-187 405.2394,-191 384.2394,-191 381.2394,-187 265.7606,-187 265.7606,-151 408.2394,-151 408.2394,-187"/>
<text text-anchor="middle" x="337" y="-164.8" font-family="Times,serif" font-size="14.00" fill="#000000">RelacionLugarModule</text>
</g>
<!-- ThemeModule&#45;&gt;RelacionLugarModule -->
<g id="edge1" class="edge">
<title>ThemeModule&#45;&gt;RelacionLugarModule</title>
<path fill="none" stroke="#000000" d="M579,-122.1061C579,-141.3391 579,-169 579,-169 579,-169 418.2991,-169 418.2991,-169"/>
<polygon fill="#000000" stroke="#000000" points="418.2991,-165.5001 408.2991,-169 418.2991,-172.5001 418.2991,-165.5001"/>
</g>
<!-- RelacionLugarRoutingModule -->
<g id="node2" class="node">
<title>RelacionLugarRoutingModule</title>
<polygon fill="#8dd3c7" stroke="#000000" points="511.8571,-122 508.8571,-126 487.8571,-126 484.8571,-122 324.1429,-122 324.1429,-86 511.8571,-86 511.8571,-122"/>
<text text-anchor="middle" x="418" y="-99.8" font-family="Times,serif" font-size="14.00" fill="#000000">RelacionLugarRoutingModule</text>
</g>
<!-- RelacionLugarRoutingModule&#45;&gt;RelacionLugarModule -->
<g id="edge2" class="edge">
<title>RelacionLugarRoutingModule&#45;&gt;RelacionLugarModule</title>
<path fill="none" stroke="#000000" d="M366.2206,-122.1061C366.2206,-122.1061 366.2206,-140.991 366.2206,-140.991"/>
<polygon fill="#000000" stroke="#000000" points="362.7206,-140.9909 366.2206,-150.991 369.7206,-140.991 362.7206,-140.9909"/>
</g>
<!-- SharedModule -->
<g id="node3" class="node">
<title>SharedModule</title>
<polygon fill="#8dd3c7" stroke="#000000" points="306.4231,-122 303.4231,-126 282.4231,-126 279.4231,-122 207.5769,-122 207.5769,-86 306.4231,-86 306.4231,-122"/>
<text text-anchor="middle" x="257" y="-99.8" font-family="Times,serif" font-size="14.00" fill="#000000">SharedModule</text>
</g>
<!-- SharedModule&#45;&gt;RelacionLugarModule -->
<g id="edge3" class="edge">
<title>SharedModule&#45;&gt;RelacionLugarModule</title>
<path fill="none" stroke="#000000" d="M285.9208,-122.1061C285.9208,-122.1061 285.9208,-140.991 285.9208,-140.991"/>
<polygon fill="#000000" stroke="#000000" points="282.4208,-140.9909 285.9208,-150.991 289.4208,-140.991 282.4208,-140.9909"/>
</g>
<!-- CrudRelacionLugarComponent  -->
<g id="node5" class="node">
<title>CrudRelacionLugarComponent </title>
<polygon fill="#fb8072" stroke="#000000" points="435.019,-252 238.981,-252 238.981,-216 435.019,-216 435.019,-252"/>
<text text-anchor="middle" x="337" y="-229.8" font-family="Times,serif" font-size="14.00" fill="#000000">CrudRelacionLugarComponent </text>
</g>
<!-- RelacionLugarModule&#45;&gt;CrudRelacionLugarComponent  -->
<g id="edge4" class="edge">
<title>RelacionLugarModule&#45;&gt;CrudRelacionLugarComponent </title>
<path fill="none" stroke="#000000" stroke-dasharray="5,2" d="M337,-187.1061C337,-187.1061 337,-205.991 337,-205.991"/>
<polygon fill="#000000" stroke="#000000" points="333.5001,-205.9909 337,-215.991 340.5001,-205.991 333.5001,-205.9909"/>
</g>
<!-- UbicacionService -->
<g id="node6" class="node">
<title>UbicacionService</title>
<ellipse fill="#fdb462" stroke="#000000" cx="104" cy="-104" rx="79.8527" ry="18"/>
<text text-anchor="middle" x="104" y="-99.8" font-family="Times,serif" font-size="14.00" fill="#000000">UbicacionService</text>
</g>
<!-- UbicacionService&#45;&gt;RelacionLugarModule -->
<g id="edge5" class="edge">
<title>UbicacionService&#45;&gt;RelacionLugarModule</title>
<path fill="none" stroke="#000000" d="M104,-122.1061C104,-141.3391 104,-169 104,-169 104,-169 255.5089,-169 255.5089,-169"/>
<polygon fill="#000000" stroke="#000000" points="255.5089,-172.5001 265.5089,-169 255.5088,-165.5001 255.5089,-172.5001"/>
</g>
</g>
</svg>
