<?xml version="1.0" encoding="UTF-8" standalone="no"?>
<!DOCTYPE svg PUBLIC "-//W3C//DTD SVG 1.1//EN"
 "http://www.w3.org/Graphics/SVG/1.1/DTD/svg11.dtd">
<!-- Generated by graphviz version 2.40.1 (20161225.0304)
 -->
<!-- Title: dependencies Pages: 1 -->
<svg width="678pt" height="284pt"
 viewBox="0.00 0.00 678.00 284.00" xmlns="http://www.w3.org/2000/svg" xmlns:xlink="http://www.w3.org/1999/xlink">
<g id="graph0" class="graph" transform="scale(1 1) rotate(0) translate(4 280)">
<title>dependencies</title>
<polygon fill="#ffffff" stroke="transparent" points="-4,4 -4,-280 674,-280 674,4 -4,4"/>
<text text-anchor="start" x="314.0091" y="-42.4" font-family="sans-serif" font-weight="bold" font-size="14.00" fill="#000000">Legend</text>
<polygon fill="#ffffb3" stroke="transparent" points="101,-10 101,-30 121,-30 121,-10 101,-10"/>
<text text-anchor="start" x="124.629" y="-15.4" font-family="sans-serif" font-size="14.00" fill="#000000"> &#160;Declarations</text>
<polygon fill="#8dd3c7" stroke="transparent" points="214,-10 214,-30 234,-30 234,-10 214,-10"/>
<text text-anchor="start" x="237.7251" y="-15.4" font-family="sans-serif" font-size="14.00" fill="#000000"> &#160;Module</text>
<polygon fill="#80b1d3" stroke="transparent" points="300,-10 300,-30 320,-30 320,-10 300,-10"/>
<text text-anchor="start" x="323.7812" y="-15.4" font-family="sans-serif" font-size="14.00" fill="#000000"> &#160;Bootstrap</text>
<polygon fill="#fdb462" stroke="transparent" points="397,-10 397,-30 417,-30 417,-10 397,-10"/>
<text text-anchor="start" x="420.6732" y="-15.4" font-family="sans-serif" font-size="14.00" fill="#000000"> &#160;Providers</text>
<polygon fill="#fb8072" stroke="transparent" points="493,-10 493,-30 513,-30 513,-10 493,-10"/>
<text text-anchor="start" x="516.7258" y="-15.4" font-family="sans-serif" font-size="14.00" fill="#000000"> &#160;Exports</text>
<g id="clust1" class="cluster">
<title>cluster_GrupoLineaInvestigacionModule</title>
<polygon fill="none" stroke="#000000" stroke-dasharray="1,5" points="8,-70 8,-268 662,-268 662,-70 8,-70"/>
</g>
<g id="clust3" class="cluster">
<title>cluster_GrupoLineaInvestigacionModule_imports</title>
<polygon fill="none" stroke="#000000" points="158,-78 158,-130 654,-130 654,-78 158,-78"/>
</g>
<g id="clust4" class="cluster">
<title>cluster_GrupoLineaInvestigacionModule_exports</title>
<polygon fill="none" stroke="#000000" points="174,-208 174,-260 446,-260 446,-208 174,-208"/>
</g>
<g id="clust6" class="cluster">
<title>cluster_GrupoLineaInvestigacionModule_providers</title>
<polygon fill="none" stroke="#000000" points="16,-78 16,-130 150,-130 150,-78 16,-78"/>
</g>
<!-- ThemeModule -->
<g id="node1" class="node">
<title>ThemeModule</title>
<polygon fill="#8dd3c7" stroke="#000000" points="646.4231,-122 643.4231,-126 622.4231,-126 619.4231,-122 547.5769,-122 547.5769,-86 646.4231,-86 646.4231,-122"/>
<text text-anchor="middle" x="597" y="-99.8" font-family="Times,serif" font-size="14.00" fill="#000000">ThemeModule</text>
</g>
<!-- GrupoLineaInvestigacionModule -->
<g id="node4" class="node">
<title>GrupoLineaInvestigacionModule</title>
<polygon fill="#8dd3c7" stroke="#000000" points="411.1106,-187 408.1106,-191 387.1106,-191 384.1106,-187 208.8894,-187 208.8894,-151 411.1106,-151 411.1106,-187"/>
<text text-anchor="middle" x="310" y="-164.8" font-family="Times,serif" font-size="14.00" fill="#000000">GrupoLineaInvestigacionModule</text>
</g>
<!-- ThemeModule&#45;&gt;GrupoLineaInvestigacionModule -->
<g id="edge1" class="edge">
<title>ThemeModule&#45;&gt;GrupoLineaInvestigacionModule</title>
<path fill="none" stroke="#000000" d="M597,-122.1061C597,-141.3391 597,-169 597,-169 597,-169 421.1855,-169 421.1855,-169"/>
<polygon fill="#000000" stroke="#000000" points="421.1855,-165.5001 411.1855,-169 421.1854,-172.5001 421.1855,-165.5001"/>
</g>
<!-- GrupoLineaInvestigacionRoutingModule -->
<g id="node2" class="node">
<title>GrupoLineaInvestigacionRoutingModule</title>
<polygon fill="#8dd3c7" stroke="#000000" points="529.7281,-122 526.7281,-126 505.7281,-126 502.7281,-122 282.2719,-122 282.2719,-86 529.7281,-86 529.7281,-122"/>
<text text-anchor="middle" x="406" y="-99.8" font-family="Times,serif" font-size="14.00" fill="#000000">GrupoLineaInvestigacionRoutingModule</text>
</g>
<!-- GrupoLineaInvestigacionRoutingModule&#45;&gt;GrupoLineaInvestigacionModule -->
<g id="edge2" class="edge">
<title>GrupoLineaInvestigacionRoutingModule&#45;&gt;GrupoLineaInvestigacionModule</title>
<path fill="none" stroke="#000000" d="M346.7206,-122.1061C346.7206,-122.1061 346.7206,-140.991 346.7206,-140.991"/>
<polygon fill="#000000" stroke="#000000" points="343.2206,-140.9909 346.7206,-150.991 350.2206,-140.991 343.2206,-140.9909"/>
</g>
<!-- SharedModule -->
<g id="node3" class="node">
<title>SharedModule</title>
<polygon fill="#8dd3c7" stroke="#000000" points="264.4231,-122 261.4231,-126 240.4231,-126 237.4231,-122 165.5769,-122 165.5769,-86 264.4231,-86 264.4231,-122"/>
<text text-anchor="middle" x="215" y="-99.8" font-family="Times,serif" font-size="14.00" fill="#000000">SharedModule</text>
</g>
<!-- SharedModule&#45;&gt;GrupoLineaInvestigacionModule -->
<g id="edge3" class="edge">
<title>SharedModule&#45;&gt;GrupoLineaInvestigacionModule</title>
<path fill="none" stroke="#000000" d="M236.453,-122.1061C236.453,-122.1061 236.453,-140.991 236.453,-140.991"/>
<polygon fill="#000000" stroke="#000000" points="232.9531,-140.9909 236.453,-150.991 239.9531,-140.991 232.9531,-140.9909"/>
</g>
<!-- CrudGrupoLineaInvestigacionComponent  -->
<g id="node5" class="node">
<title>CrudGrupoLineaInvestigacionComponent </title>
<polygon fill="#fb8072" stroke="#000000" points="437.89,-252 182.11,-252 182.11,-216 437.89,-216 437.89,-252"/>
<text text-anchor="middle" x="310" y="-229.8" font-family="Times,serif" font-size="14.00" fill="#000000">CrudGrupoLineaInvestigacionComponent </text>
</g>
<!-- GrupoLineaInvestigacionModule&#45;&gt;CrudGrupoLineaInvestigacionComponent  -->
<g id="edge4" class="edge">
<title>GrupoLineaInvestigacionModule&#45;&gt;CrudGrupoLineaInvestigacionComponent </title>
<path fill="none" stroke="#000000" stroke-dasharray="5,2" d="M310,-187.1061C310,-187.1061 310,-205.991 310,-205.991"/>
<polygon fill="#000000" stroke="#000000" points="306.5001,-205.9909 310,-215.991 313.5001,-205.991 306.5001,-205.9909"/>
</g>
<!-- CoreService -->
<g id="node6" class="node">
<title>CoreService</title>
<ellipse fill="#fdb462" stroke="#000000" cx="83" cy="-104" rx="58.5251" ry="18"/>
<text text-anchor="middle" x="83" y="-99.8" font-family="Times,serif" font-size="14.00" fill="#000000">CoreService</text>
</g>
<!-- CoreService&#45;&gt;GrupoLineaInvestigacionModule -->
<g id="edge5" class="edge">
<title>CoreService&#45;&gt;GrupoLineaInvestigacionModule</title>
<path fill="none" stroke="#000000" d="M83,-122.1061C83,-141.3391 83,-169 83,-169 83,-169 198.7818,-169 198.7818,-169"/>
<polygon fill="#000000" stroke="#000000" points="198.7818,-172.5001 208.7818,-169 198.7818,-165.5001 198.7818,-172.5001"/>
</g>
</g>
</svg>
