<?xml version="1.0" encoding="UTF-8" standalone="no"?>
<!DOCTYPE svg PUBLIC "-//W3C//DTD SVG 1.1//EN"
 "http://www.w3.org/Graphics/SVG/1.1/DTD/svg11.dtd">
<!-- Generated by graphviz version 2.40.1 (20161225.0304)
 -->
<!-- Title: dependencies Pages: 1 -->
<svg width="746pt" height="284pt"
 viewBox="0.00 0.00 746.00 284.00" xmlns="http://www.w3.org/2000/svg" xmlns:xlink="http://www.w3.org/1999/xlink">
<g id="graph0" class="graph" transform="scale(1 1) rotate(0) translate(4 280)">
<title>dependencies</title>
<polygon fill="#ffffff" stroke="transparent" points="-4,4 -4,-280 742,-280 742,4 -4,4"/>
<text text-anchor="start" x="348.0091" y="-42.4" font-family="sans-serif" font-weight="bold" font-size="14.00" fill="#000000">Legend</text>
<polygon fill="#ffffb3" stroke="transparent" points="135,-10 135,-30 155,-30 155,-10 135,-10"/>
<text text-anchor="start" x="158.629" y="-15.4" font-family="sans-serif" font-size="14.00" fill="#000000"> &#160;Declarations</text>
<polygon fill="#8dd3c7" stroke="transparent" points="248,-10 248,-30 268,-30 268,-10 248,-10"/>
<text text-anchor="start" x="271.7251" y="-15.4" font-family="sans-serif" font-size="14.00" fill="#000000"> &#160;Module</text>
<polygon fill="#80b1d3" stroke="transparent" points="334,-10 334,-30 354,-30 354,-10 334,-10"/>
<text text-anchor="start" x="357.7812" y="-15.4" font-family="sans-serif" font-size="14.00" fill="#000000"> &#160;Bootstrap</text>
<polygon fill="#fdb462" stroke="transparent" points="431,-10 431,-30 451,-30 451,-10 431,-10"/>
<text text-anchor="start" x="454.6732" y="-15.4" font-family="sans-serif" font-size="14.00" fill="#000000"> &#160;Providers</text>
<polygon fill="#fb8072" stroke="transparent" points="527,-10 527,-30 547,-30 547,-10 527,-10"/>
<text text-anchor="start" x="550.7258" y="-15.4" font-family="sans-serif" font-size="14.00" fill="#000000"> &#160;Exports</text>
<g id="clust1" class="cluster">
<title>cluster_TipoDuracionModule</title>
<polygon fill="none" stroke="#000000" stroke-dasharray="1,5" points="8,-70 8,-268 730,-268 730,-70 8,-70"/>
</g>
<g id="clust3" class="cluster">
<title>cluster_TipoDuracionModule_imports</title>
<polygon fill="none" stroke="#000000" points="290,-78 290,-130 722,-130 722,-78 290,-78"/>
</g>
<g id="clust4" class="cluster">
<title>cluster_TipoDuracionModule_exports</title>
<polygon fill="none" stroke="#000000" points="322,-208 322,-260 530,-260 530,-208 322,-208"/>
</g>
<g id="clust6" class="cluster">
<title>cluster_TipoDuracionModule_providers</title>
<polygon fill="none" stroke="#000000" points="16,-78 16,-130 282,-130 282,-78 16,-78"/>
</g>
<!-- ThemeModule -->
<g id="node1" class="node">
<title>ThemeModule</title>
<polygon fill="#8dd3c7" stroke="#000000" points="714.4231,-122 711.4231,-126 690.4231,-126 687.4231,-122 615.5769,-122 615.5769,-86 714.4231,-86 714.4231,-122"/>
<text text-anchor="middle" x="665" y="-99.8" font-family="Times,serif" font-size="14.00" fill="#000000">ThemeModule</text>
</g>
<!-- TipoDuracionModule -->
<g id="node4" class="node">
<title>TipoDuracionModule</title>
<polygon fill="#8dd3c7" stroke="#000000" points="495.08,-187 492.08,-191 471.08,-191 468.08,-187 356.92,-187 356.92,-151 495.08,-151 495.08,-187"/>
<text text-anchor="middle" x="426" y="-164.8" font-family="Times,serif" font-size="14.00" fill="#000000">TipoDuracionModule</text>
</g>
<!-- ThemeModule&#45;&gt;TipoDuracionModule -->
<g id="edge1" class="edge">
<title>ThemeModule&#45;&gt;TipoDuracionModule</title>
<path fill="none" stroke="#000000" d="M665,-122.1061C665,-141.3391 665,-169 665,-169 665,-169 505.1287,-169 505.1287,-169"/>
<polygon fill="#000000" stroke="#000000" points="505.1287,-165.5001 495.1287,-169 505.1287,-172.5001 505.1287,-165.5001"/>
</g>
<!-- TipoDuracionRoutingModule -->
<g id="node2" class="node">
<title>TipoDuracionRoutingModule</title>
<polygon fill="#8dd3c7" stroke="#000000" points="597.6979,-122 594.6979,-126 573.6979,-126 570.6979,-122 414.3021,-122 414.3021,-86 597.6979,-86 597.6979,-122"/>
<text text-anchor="middle" x="506" y="-99.8" font-family="Times,serif" font-size="14.00" fill="#000000">TipoDuracionRoutingModule</text>
</g>
<!-- TipoDuracionRoutingModule&#45;&gt;TipoDuracionModule -->
<g id="edge2" class="edge">
<title>TipoDuracionRoutingModule&#45;&gt;TipoDuracionModule</title>
<path fill="none" stroke="#000000" d="M454.7206,-122.1061C454.7206,-122.1061 454.7206,-140.991 454.7206,-140.991"/>
<polygon fill="#000000" stroke="#000000" points="451.2206,-140.9909 454.7206,-150.991 458.2206,-140.991 451.2206,-140.9909"/>
</g>
<!-- SharedModule -->
<g id="node3" class="node">
<title>SharedModule</title>
<polygon fill="#8dd3c7" stroke="#000000" points="396.4231,-122 393.4231,-126 372.4231,-126 369.4231,-122 297.5769,-122 297.5769,-86 396.4231,-86 396.4231,-122"/>
<text text-anchor="middle" x="347" y="-99.8" font-family="Times,serif" font-size="14.00" fill="#000000">SharedModule</text>
</g>
<!-- SharedModule&#45;&gt;TipoDuracionModule -->
<g id="edge3" class="edge">
<title>SharedModule&#45;&gt;TipoDuracionModule</title>
<path fill="none" stroke="#000000" d="M376.5856,-122.1061C376.5856,-122.1061 376.5856,-140.991 376.5856,-140.991"/>
<polygon fill="#000000" stroke="#000000" points="373.0856,-140.9909 376.5856,-150.991 380.0856,-140.991 373.0856,-140.9909"/>
</g>
<!-- CrudTipoDuracionComponent  -->
<g id="node5" class="node">
<title>CrudTipoDuracionComponent </title>
<polygon fill="#fb8072" stroke="#000000" points="521.8601,-252 330.1399,-252 330.1399,-216 521.8601,-216 521.8601,-252"/>
<text text-anchor="middle" x="426" y="-229.8" font-family="Times,serif" font-size="14.00" fill="#000000">CrudTipoDuracionComponent </text>
</g>
<!-- TipoDuracionModule&#45;&gt;CrudTipoDuracionComponent  -->
<g id="edge4" class="edge">
<title>TipoDuracionModule&#45;&gt;CrudTipoDuracionComponent </title>
<path fill="none" stroke="#000000" stroke-dasharray="5,2" d="M426,-187.1061C426,-187.1061 426,-205.991 426,-205.991"/>
<polygon fill="#000000" stroke="#000000" points="422.5001,-205.9909 426,-215.991 429.5001,-205.991 422.5001,-205.9909"/>
</g>
<!-- DescuentoAcademicoService -->
<g id="node6" class="node">
<title>DescuentoAcademicoService</title>
<ellipse fill="#fdb462" stroke="#000000" cx="149" cy="-104" rx="124.9384" ry="18"/>
<text text-anchor="middle" x="149" y="-99.8" font-family="Times,serif" font-size="14.00" fill="#000000">DescuentoAcademicoService</text>
</g>
<!-- DescuentoAcademicoService&#45;&gt;TipoDuracionModule -->
<g id="edge5" class="edge">
<title>DescuentoAcademicoService&#45;&gt;TipoDuracionModule</title>
<path fill="none" stroke="#000000" d="M149,-122.1061C149,-141.3391 149,-169 149,-169 149,-169 346.8157,-169 346.8157,-169"/>
<polygon fill="#000000" stroke="#000000" points="346.8158,-172.5001 356.8157,-169 346.8157,-165.5001 346.8158,-172.5001"/>
</g>
</g>
</svg>
