<?xml version="1.0" encoding="UTF-8" standalone="no"?>
<!DOCTYPE svg PUBLIC "-//W3C//DTD SVG 1.1//EN"
 "http://www.w3.org/Graphics/SVG/1.1/DTD/svg11.dtd">
<!-- Generated by graphviz version 2.40.1 (20161225.0304)
 -->
<!-- Title: dependencies Pages: 1 -->
<svg width="622pt" height="284pt"
 viewBox="0.00 0.00 622.00 284.00" xmlns="http://www.w3.org/2000/svg" xmlns:xlink="http://www.w3.org/1999/xlink">
<g id="graph0" class="graph" transform="scale(1 1) rotate(0) translate(4 280)">
<title>dependencies</title>
<polygon fill="#ffffff" stroke="transparent" points="-4,4 -4,-280 618,-280 618,4 -4,4"/>
<text text-anchor="start" x="286.0091" y="-42.4" font-family="sans-serif" font-weight="bold" font-size="14.00" fill="#000000">Legend</text>
<polygon fill="#ffffb3" stroke="transparent" points="73,-10 73,-30 93,-30 93,-10 73,-10"/>
<text text-anchor="start" x="96.629" y="-15.4" font-family="sans-serif" font-size="14.00" fill="#000000"> &#160;Declarations</text>
<polygon fill="#8dd3c7" stroke="transparent" points="186,-10 186,-30 206,-30 206,-10 186,-10"/>
<text text-anchor="start" x="209.7251" y="-15.4" font-family="sans-serif" font-size="14.00" fill="#000000"> &#160;Module</text>
<polygon fill="#80b1d3" stroke="transparent" points="272,-10 272,-30 292,-30 292,-10 272,-10"/>
<text text-anchor="start" x="295.7812" y="-15.4" font-family="sans-serif" font-size="14.00" fill="#000000"> &#160;Bootstrap</text>
<polygon fill="#fdb462" stroke="transparent" points="369,-10 369,-30 389,-30 389,-10 369,-10"/>
<text text-anchor="start" x="392.6732" y="-15.4" font-family="sans-serif" font-size="14.00" fill="#000000"> &#160;Providers</text>
<polygon fill="#fb8072" stroke="transparent" points="465,-10 465,-30 485,-30 485,-10 465,-10"/>
<text text-anchor="start" x="488.7258" y="-15.4" font-family="sans-serif" font-size="14.00" fill="#000000"> &#160;Exports</text>
<g id="clust1" class="cluster">
<title>cluster_NivelIdiomaModule</title>
<polygon fill="none" stroke="#000000" stroke-dasharray="1,5" points="8,-70 8,-268 606,-268 606,-70 8,-70"/>
</g>
<g id="clust3" class="cluster">
<title>cluster_NivelIdiomaModule_imports</title>
<polygon fill="none" stroke="#000000" points="174,-78 174,-130 598,-130 598,-78 174,-78"/>
</g>
<g id="clust4" class="cluster">
<title>cluster_NivelIdiomaModule_exports</title>
<polygon fill="none" stroke="#000000" points="208,-208 208,-260 408,-260 408,-208 208,-208"/>
</g>
<g id="clust6" class="cluster">
<title>cluster_NivelIdiomaModule_providers</title>
<polygon fill="none" stroke="#000000" points="16,-78 16,-130 166,-130 166,-78 16,-78"/>
</g>
<!-- ThemeModule -->
<g id="node1" class="node">
<title>ThemeModule</title>
<polygon fill="#8dd3c7" stroke="#000000" points="590.4231,-122 587.4231,-126 566.4231,-126 563.4231,-122 491.5769,-122 491.5769,-86 590.4231,-86 590.4231,-122"/>
<text text-anchor="middle" x="541" y="-99.8" font-family="Times,serif" font-size="14.00" fill="#000000">ThemeModule</text>
</g>
<!-- NivelIdiomaModule -->
<g id="node4" class="node">
<title>NivelIdiomaModule</title>
<polygon fill="#8dd3c7" stroke="#000000" points="373.309,-187 370.309,-191 349.309,-191 346.309,-187 242.691,-187 242.691,-151 373.309,-151 373.309,-187"/>
<text text-anchor="middle" x="308" y="-164.8" font-family="Times,serif" font-size="14.00" fill="#000000">NivelIdiomaModule</text>
</g>
<!-- ThemeModule&#45;&gt;NivelIdiomaModule -->
<g id="edge1" class="edge">
<title>ThemeModule&#45;&gt;NivelIdiomaModule</title>
<path fill="none" stroke="#000000" d="M541,-122.1061C541,-141.3391 541,-169 541,-169 541,-169 383.2133,-169 383.2133,-169"/>
<polygon fill="#000000" stroke="#000000" points="383.2134,-165.5001 373.2133,-169 383.2133,-172.5001 383.2134,-165.5001"/>
</g>
<!-- NivelIdiomaRoutingModule -->
<g id="node2" class="node">
<title>NivelIdiomaRoutingModule</title>
<polygon fill="#8dd3c7" stroke="#000000" points="473.9269,-122 470.9269,-126 449.9269,-126 446.9269,-122 298.0731,-122 298.0731,-86 473.9269,-86 473.9269,-122"/>
<text text-anchor="middle" x="386" y="-99.8" font-family="Times,serif" font-size="14.00" fill="#000000">NivelIdiomaRoutingModule</text>
</g>
<!-- NivelIdiomaRoutingModule&#45;&gt;NivelIdiomaModule -->
<g id="edge2" class="edge">
<title>NivelIdiomaRoutingModule&#45;&gt;NivelIdiomaModule</title>
<path fill="none" stroke="#000000" d="M335.7206,-122.1061C335.7206,-122.1061 335.7206,-140.991 335.7206,-140.991"/>
<polygon fill="#000000" stroke="#000000" points="332.2206,-140.9909 335.7206,-150.991 339.2206,-140.991 332.2206,-140.9909"/>
</g>
<!-- SharedModule -->
<g id="node3" class="node">
<title>SharedModule</title>
<polygon fill="#8dd3c7" stroke="#000000" points="280.4231,-122 277.4231,-126 256.4231,-126 253.4231,-122 181.5769,-122 181.5769,-86 280.4231,-86 280.4231,-122"/>
<text text-anchor="middle" x="231" y="-99.8" font-family="Times,serif" font-size="14.00" fill="#000000">SharedModule</text>
</g>
<!-- SharedModule&#45;&gt;NivelIdiomaModule -->
<g id="edge3" class="edge">
<title>SharedModule&#45;&gt;NivelIdiomaModule</title>
<path fill="none" stroke="#000000" d="M261.5284,-122.1061C261.5284,-122.1061 261.5284,-140.991 261.5284,-140.991"/>
<polygon fill="#000000" stroke="#000000" points="258.0285,-140.9909 261.5284,-150.991 265.0285,-140.991 258.0285,-140.9909"/>
</g>
<!-- CrudNivelIdiomaComponent  -->
<g id="node5" class="node">
<title>CrudNivelIdiomaComponent </title>
<polygon fill="#fb8072" stroke="#000000" points="399.5889,-252 216.4111,-252 216.4111,-216 399.5889,-216 399.5889,-252"/>
<text text-anchor="middle" x="308" y="-229.8" font-family="Times,serif" font-size="14.00" fill="#000000">CrudNivelIdiomaComponent </text>
</g>
<!-- NivelIdiomaModule&#45;&gt;CrudNivelIdiomaComponent  -->
<g id="edge4" class="edge">
<title>NivelIdiomaModule&#45;&gt;CrudNivelIdiomaComponent </title>
<path fill="none" stroke="#000000" stroke-dasharray="5,2" d="M308,-187.1061C308,-187.1061 308,-205.991 308,-205.991"/>
<polygon fill="#000000" stroke="#000000" points="304.5001,-205.9909 308,-215.991 311.5001,-205.991 304.5001,-205.9909"/>
</g>
<!-- IdiomaService -->
<g id="node6" class="node">
<title>IdiomaService</title>
<ellipse fill="#fdb462" stroke="#000000" cx="91" cy="-104" rx="67.1927" ry="18"/>
<text text-anchor="middle" x="91" y="-99.8" font-family="Times,serif" font-size="14.00" fill="#000000">IdiomaService</text>
</g>
<!-- IdiomaService&#45;&gt;NivelIdiomaModule -->
<g id="edge5" class="edge">
<title>IdiomaService&#45;&gt;NivelIdiomaModule</title>
<path fill="none" stroke="#000000" d="M91,-122.1061C91,-141.3391 91,-169 91,-169 91,-169 232.5986,-169 232.5986,-169"/>
<polygon fill="#000000" stroke="#000000" points="232.5986,-172.5001 242.5986,-169 232.5985,-165.5001 232.5986,-172.5001"/>
</g>
</g>
</svg>
