<?xml version="1.0" encoding="UTF-8" standalone="no"?>
<!DOCTYPE svg PUBLIC "-//W3C//DTD SVG 1.1//EN"
 "http://www.w3.org/Graphics/SVG/1.1/DTD/svg11.dtd">
<!-- Generated by graphviz version 2.40.1 (20161225.0304)
 -->
<!-- Title: dependencies Pages: 1 -->
<svg width="584pt" height="284pt"
 viewBox="0.00 0.00 584.00 284.00" xmlns="http://www.w3.org/2000/svg" xmlns:xlink="http://www.w3.org/1999/xlink">
<g id="graph0" class="graph" transform="scale(1 1) rotate(0) translate(4 280)">
<title>dependencies</title>
<polygon fill="#ffffff" stroke="transparent" points="-4,4 -4,-280 580,-280 580,4 -4,4"/>
<text text-anchor="start" x="267.0091" y="-42.4" font-family="sans-serif" font-weight="bold" font-size="14.00" fill="#000000">Legend</text>
<polygon fill="#ffffb3" stroke="transparent" points="54,-10 54,-30 74,-30 74,-10 54,-10"/>
<text text-anchor="start" x="77.629" y="-15.4" font-family="sans-serif" font-size="14.00" fill="#000000"> &#160;Declarations</text>
<polygon fill="#8dd3c7" stroke="transparent" points="167,-10 167,-30 187,-30 187,-10 167,-10"/>
<text text-anchor="start" x="190.7251" y="-15.4" font-family="sans-serif" font-size="14.00" fill="#000000"> &#160;Module</text>
<polygon fill="#80b1d3" stroke="transparent" points="253,-10 253,-30 273,-30 273,-10 253,-10"/>
<text text-anchor="start" x="276.7812" y="-15.4" font-family="sans-serif" font-size="14.00" fill="#000000"> &#160;Bootstrap</text>
<polygon fill="#fdb462" stroke="transparent" points="350,-10 350,-30 370,-30 370,-10 350,-10"/>
<text text-anchor="start" x="373.6732" y="-15.4" font-family="sans-serif" font-size="14.00" fill="#000000"> &#160;Providers</text>
<polygon fill="#fb8072" stroke="transparent" points="446,-10 446,-30 466,-30 466,-10 446,-10"/>
<text text-anchor="start" x="469.7258" y="-15.4" font-family="sans-serif" font-size="14.00" fill="#000000"> &#160;Exports</text>
<g id="clust1" class="cluster">
<title>cluster_AppModule</title>
<polygon fill="none" stroke="#000000" stroke-dasharray="1,5" points="8,-70 8,-268 568,-268 568,-70 8,-70"/>
</g>
<g id="clust2" class="cluster">
<title>cluster_AppModule_declarations</title>
<polygon fill="none" stroke="#000000" points="438,-78 438,-130 560,-130 560,-78 438,-78"/>
</g>
<g id="clust4" class="cluster">
<title>cluster_AppModule_imports</title>
<polygon fill="none" stroke="#000000" points="286,-78 286,-130 430,-130 430,-78 286,-78"/>
</g>
<g id="clust6" class="cluster">
<title>cluster_AppModule_bootstrap</title>
<polygon fill="none" stroke="#000000" points="296,-208 296,-260 420,-260 420,-208 296,-208"/>
</g>
<g id="clust7" class="cluster">
<title>cluster_AppModule_providers</title>
<polygon fill="none" stroke="#000000" points="16,-78 16,-130 278,-130 278,-78 16,-78"/>
</g>
<!-- AppComponent -->
<g id="node1" class="node">
<title>AppComponent</title>
<polygon fill="#ffffb3" stroke="#000000" points="551.9399,-122 446.0601,-122 446.0601,-86 551.9399,-86 551.9399,-122"/>
<text text-anchor="middle" x="499" y="-99.8" font-family="Times,serif" font-size="14.00" fill="#000000">AppComponent</text>
</g>
<!-- AppModule -->
<g id="node2" class="node">
<title>AppModule</title>
<polygon fill="#8dd3c7" stroke="#000000" points="399.6571,-187 396.6571,-191 375.6571,-191 372.6571,-187 316.3429,-187 316.3429,-151 399.6571,-151 399.6571,-187"/>
<text text-anchor="middle" x="358" y="-164.8" font-family="Times,serif" font-size="14.00" fill="#000000">AppModule</text>
</g>
<!-- AppComponent&#45;&gt;AppModule -->
<g id="edge1" class="edge">
<title>AppComponent&#45;&gt;AppModule</title>
<path fill="none" stroke="#000000" d="M499,-122.1061C499,-141.3391 499,-169 499,-169 499,-169 409.9229,-169 409.9229,-169"/>
<polygon fill="#000000" stroke="#000000" points="409.9229,-165.5001 399.9229,-169 409.9229,-172.5001 409.9229,-165.5001"/>
</g>
<!-- AppComponent  -->
<g id="node4" class="node">
<title>AppComponent </title>
<polygon fill="#80b1d3" stroke="#000000" points="412.439,-252 303.561,-252 303.561,-216 412.439,-216 412.439,-252"/>
<text text-anchor="middle" x="358" y="-229.8" font-family="Times,serif" font-size="14.00" fill="#000000">AppComponent </text>
</g>
<!-- AppModule&#45;&gt;AppComponent  -->
<g id="edge3" class="edge">
<title>AppModule&#45;&gt;AppComponent </title>
<path fill="none" stroke="#000000" stroke-dasharray="1,5" d="M358,-187.1061C358,-187.1061 358,-205.991 358,-205.991"/>
<polygon fill="#000000" stroke="#000000" points="354.5001,-205.9909 358,-215.991 361.5001,-205.991 354.5001,-205.9909"/>
</g>
<!-- AppRoutingModule -->
<g id="node3" class="node">
<title>AppRoutingModule</title>
<polygon fill="#8dd3c7" stroke="#000000" points="422.2744,-122 419.2744,-126 398.2744,-126 395.2744,-122 293.7256,-122 293.7256,-86 422.2744,-86 422.2744,-122"/>
<text text-anchor="middle" x="358" y="-99.8" font-family="Times,serif" font-size="14.00" fill="#000000">AppRoutingModule</text>
</g>
<!-- AppRoutingModule&#45;&gt;AppModule -->
<g id="edge2" class="edge">
<title>AppRoutingModule&#45;&gt;AppModule</title>
<path fill="none" stroke="#000000" d="M358,-122.1061C358,-122.1061 358,-140.991 358,-140.991"/>
<polygon fill="#000000" stroke="#000000" points="354.5001,-140.9909 358,-150.991 361.5001,-140.991 354.5001,-140.9909"/>
</g>
<!-- ImplicitAutenticationService -->
<g id="node5" class="node">
<title>ImplicitAutenticationService</title>
<ellipse fill="#fdb462" stroke="#000000" cx="147" cy="-104" rx="123.2649" ry="18"/>
<text text-anchor="middle" x="147" y="-99.8" font-family="Times,serif" font-size="14.00" fill="#000000">ImplicitAutenticationService</text>
</g>
<!-- ImplicitAutenticationService&#45;&gt;AppModule -->
<g id="edge4" class="edge">
<title>ImplicitAutenticationService&#45;&gt;AppModule</title>
<path fill="none" stroke="#000000" d="M147,-122.1061C147,-141.3391 147,-169 147,-169 147,-169 306.3132,-169 306.3132,-169"/>
<polygon fill="#000000" stroke="#000000" points="306.3132,-172.5001 316.3132,-169 306.3132,-165.5001 306.3132,-172.5001"/>
</g>
</g>
</svg>
