<?xml version="1.0" encoding="UTF-8" standalone="no"?>
<!DOCTYPE svg PUBLIC "-//W3C//DTD SVG 1.1//EN"
 "http://www.w3.org/Graphics/SVG/1.1/DTD/svg11.dtd">
<!-- Generated by graphviz version 2.40.1 (20161225.0304)
 -->
<!-- Title: dependencies Pages: 1 -->
<svg width="686pt" height="284pt"
 viewBox="0.00 0.00 686.00 284.00" xmlns="http://www.w3.org/2000/svg" xmlns:xlink="http://www.w3.org/1999/xlink">
<g id="graph0" class="graph" transform="scale(1 1) rotate(0) translate(4 280)">
<title>dependencies</title>
<polygon fill="#ffffff" stroke="transparent" points="-4,4 -4,-280 682,-280 682,4 -4,4"/>
<text text-anchor="start" x="318.0091" y="-42.4" font-family="sans-serif" font-weight="bold" font-size="14.00" fill="#000000">Legend</text>
<polygon fill="#ffffb3" stroke="transparent" points="105,-10 105,-30 125,-30 125,-10 105,-10"/>
<text text-anchor="start" x="128.629" y="-15.4" font-family="sans-serif" font-size="14.00" fill="#000000"> &#160;Declarations</text>
<polygon fill="#8dd3c7" stroke="transparent" points="218,-10 218,-30 238,-30 238,-10 218,-10"/>
<text text-anchor="start" x="241.7251" y="-15.4" font-family="sans-serif" font-size="14.00" fill="#000000"> &#160;Module</text>
<polygon fill="#80b1d3" stroke="transparent" points="304,-10 304,-30 324,-30 324,-10 304,-10"/>
<text text-anchor="start" x="327.7812" y="-15.4" font-family="sans-serif" font-size="14.00" fill="#000000"> &#160;Bootstrap</text>
<polygon fill="#fdb462" stroke="transparent" points="401,-10 401,-30 421,-30 421,-10 401,-10"/>
<text text-anchor="start" x="424.6732" y="-15.4" font-family="sans-serif" font-size="14.00" fill="#000000"> &#160;Providers</text>
<polygon fill="#fb8072" stroke="transparent" points="497,-10 497,-30 517,-30 517,-10 497,-10"/>
<text text-anchor="start" x="520.7258" y="-15.4" font-family="sans-serif" font-size="14.00" fill="#000000"> &#160;Exports</text>
<g id="clust1" class="cluster">
<title>cluster_TipoRelacionLugarModule</title>
<polygon fill="none" stroke="#000000" stroke-dasharray="1,5" points="8,-70 8,-268 670,-268 670,-70 8,-70"/>
</g>
<g id="clust3" class="cluster">
<title>cluster_TipoRelacionLugarModule_imports</title>
<polygon fill="none" stroke="#000000" points="200,-78 200,-130 662,-130 662,-78 200,-78"/>
</g>
<g id="clust4" class="cluster">
<title>cluster_TipoRelacionLugarModule_exports</title>
<polygon fill="none" stroke="#000000" points="225,-208 225,-260 463,-260 463,-208 225,-208"/>
</g>
<g id="clust6" class="cluster">
<title>cluster_TipoRelacionLugarModule_providers</title>
<polygon fill="none" stroke="#000000" points="16,-78 16,-130 192,-130 192,-78 16,-78"/>
</g>
<!-- ThemeModule -->
<g id="node1" class="node">
<title>ThemeModule</title>
<polygon fill="#8dd3c7" stroke="#000000" points="654.4231,-122 651.4231,-126 630.4231,-126 627.4231,-122 555.5769,-122 555.5769,-86 654.4231,-86 654.4231,-122"/>
<text text-anchor="middle" x="605" y="-99.8" font-family="Times,serif" font-size="14.00" fill="#000000">ThemeModule</text>
</g>
<!-- TipoRelacionLugarModule -->
<g id="node4" class="node">
<title>TipoRelacionLugarModule</title>
<polygon fill="#8dd3c7" stroke="#000000" points="428.6825,-187 425.6825,-191 404.6825,-191 401.6825,-187 259.3175,-187 259.3175,-151 428.6825,-151 428.6825,-187"/>
<text text-anchor="middle" x="344" y="-164.8" font-family="Times,serif" font-size="14.00" fill="#000000">TipoRelacionLugarModule</text>
</g>
<!-- ThemeModule&#45;&gt;TipoRelacionLugarModule -->
<g id="edge1" class="edge">
<title>ThemeModule&#45;&gt;TipoRelacionLugarModule</title>
<path fill="none" stroke="#000000" d="M605,-122.1061C605,-141.3391 605,-169 605,-169 605,-169 438.7392,-169 438.7392,-169"/>
<polygon fill="#000000" stroke="#000000" points="438.7393,-165.5001 428.7392,-169 438.7392,-172.5001 438.7393,-165.5001"/>
</g>
<!-- TipoRelacionLugarRoutingModule -->
<g id="node2" class="node">
<title>TipoRelacionLugarRoutingModule</title>
<polygon fill="#8dd3c7" stroke="#000000" points="538.3004,-122 535.3004,-126 514.3004,-126 511.3004,-122 323.6996,-122 323.6996,-86 538.3004,-86 538.3004,-122"/>
<text text-anchor="middle" x="431" y="-99.8" font-family="Times,serif" font-size="14.00" fill="#000000">TipoRelacionLugarRoutingModule</text>
</g>
<!-- TipoRelacionLugarRoutingModule&#45;&gt;TipoRelacionLugarModule -->
<g id="edge2" class="edge">
<title>TipoRelacionLugarRoutingModule&#45;&gt;TipoRelacionLugarModule</title>
<path fill="none" stroke="#000000" d="M376.2206,-122.1061C376.2206,-122.1061 376.2206,-140.991 376.2206,-140.991"/>
<polygon fill="#000000" stroke="#000000" points="372.7206,-140.9909 376.2206,-150.991 379.7206,-140.991 372.7206,-140.9909"/>
</g>
<!-- SharedModule -->
<g id="node3" class="node">
<title>SharedModule</title>
<polygon fill="#8dd3c7" stroke="#000000" points="306.4231,-122 303.4231,-126 282.4231,-126 279.4231,-122 207.5769,-122 207.5769,-86 306.4231,-86 306.4231,-122"/>
<text text-anchor="middle" x="257" y="-99.8" font-family="Times,serif" font-size="14.00" fill="#000000">SharedModule</text>
</g>
<!-- SharedModule&#45;&gt;TipoRelacionLugarModule -->
<g id="edge3" class="edge">
<title>SharedModule&#45;&gt;TipoRelacionLugarModule</title>
<path fill="none" stroke="#000000" d="M282.81,-122.1061C282.81,-122.1061 282.81,-140.991 282.81,-140.991"/>
<polygon fill="#000000" stroke="#000000" points="279.31,-140.9909 282.81,-150.991 286.31,-140.991 279.31,-140.9909"/>
</g>
<!-- CrudTipoRelacionLugarComponent  -->
<g id="node5" class="node">
<title>CrudTipoRelacionLugarComponent </title>
<polygon fill="#fb8072" stroke="#000000" points="455.4627,-252 232.5373,-252 232.5373,-216 455.4627,-216 455.4627,-252"/>
<text text-anchor="middle" x="344" y="-229.8" font-family="Times,serif" font-size="14.00" fill="#000000">CrudTipoRelacionLugarComponent </text>
</g>
<!-- TipoRelacionLugarModule&#45;&gt;CrudTipoRelacionLugarComponent  -->
<g id="edge4" class="edge">
<title>TipoRelacionLugarModule&#45;&gt;CrudTipoRelacionLugarComponent </title>
<path fill="none" stroke="#000000" stroke-dasharray="5,2" d="M344,-187.1061C344,-187.1061 344,-205.991 344,-205.991"/>
<polygon fill="#000000" stroke="#000000" points="340.5001,-205.9909 344,-215.991 347.5001,-205.991 340.5001,-205.9909"/>
</g>
<!-- UbicacionService -->
<g id="node6" class="node">
<title>UbicacionService</title>
<ellipse fill="#fdb462" stroke="#000000" cx="104" cy="-104" rx="79.8527" ry="18"/>
<text text-anchor="middle" x="104" y="-99.8" font-family="Times,serif" font-size="14.00" fill="#000000">UbicacionService</text>
</g>
<!-- UbicacionService&#45;&gt;TipoRelacionLugarModule -->
<g id="edge5" class="edge">
<title>UbicacionService&#45;&gt;TipoRelacionLugarModule</title>
<path fill="none" stroke="#000000" d="M104,-122.1061C104,-141.3391 104,-169 104,-169 104,-169 249.385,-169 249.385,-169"/>
<polygon fill="#000000" stroke="#000000" points="249.385,-172.5001 259.385,-169 249.3849,-165.5001 249.385,-172.5001"/>
</g>
</g>
</svg>
