<?xml version="1.0" encoding="UTF-8" standalone="no"?>
<!DOCTYPE svg PUBLIC "-//W3C//DTD SVG 1.1//EN"
 "http://www.w3.org/Graphics/SVG/1.1/DTD/svg11.dtd">
<!-- Generated by graphviz version 2.40.1 (20161225.0304)
 -->
<!-- Title: dependencies Pages: 1 -->
<svg width="1427pt" height="284pt"
 viewBox="0.00 0.00 1427.00 284.00" xmlns="http://www.w3.org/2000/svg" xmlns:xlink="http://www.w3.org/1999/xlink">
<g id="graph0" class="graph" transform="scale(1 1) rotate(0) translate(4 280)">
<title>dependencies</title>
<polygon fill="#ffffff" stroke="transparent" points="-4,4 -4,-280 1423,-280 1423,4 -4,4"/>
<text text-anchor="start" x="688.5091" y="-42.4" font-family="sans-serif" font-weight="bold" font-size="14.00" fill="#000000">Legend</text>
<polygon fill="#ffffb3" stroke="transparent" points="475.5,-10 475.5,-30 495.5,-30 495.5,-10 475.5,-10"/>
<text text-anchor="start" x="499.129" y="-15.4" font-family="sans-serif" font-size="14.00" fill="#000000"> &#160;Declarations</text>
<polygon fill="#8dd3c7" stroke="transparent" points="588.5,-10 588.5,-30 608.5,-30 608.5,-10 588.5,-10"/>
<text text-anchor="start" x="612.2251" y="-15.4" font-family="sans-serif" font-size="14.00" fill="#000000"> &#160;Module</text>
<polygon fill="#80b1d3" stroke="transparent" points="674.5,-10 674.5,-30 694.5,-30 694.5,-10 674.5,-10"/>
<text text-anchor="start" x="698.2812" y="-15.4" font-family="sans-serif" font-size="14.00" fill="#000000"> &#160;Bootstrap</text>
<polygon fill="#fdb462" stroke="transparent" points="771.5,-10 771.5,-30 791.5,-30 791.5,-10 771.5,-10"/>
<text text-anchor="start" x="795.1732" y="-15.4" font-family="sans-serif" font-size="14.00" fill="#000000"> &#160;Providers</text>
<polygon fill="#fb8072" stroke="transparent" points="867.5,-10 867.5,-30 887.5,-30 887.5,-10 867.5,-10"/>
<text text-anchor="start" x="891.2258" y="-15.4" font-family="sans-serif" font-size="14.00" fill="#000000"> &#160;Exports</text>
<g id="clust1" class="cluster">
<title>cluster_ValidacionDescuentoModule</title>
<polygon fill="none" stroke="#000000" stroke-dasharray="1,5" points="8,-70 8,-268 1411,-268 1411,-70 8,-70"/>
</g>
<g id="clust3" class="cluster">
<title>cluster_ValidacionDescuentoModule_imports</title>
<polygon fill="none" stroke="#000000" points="929,-78 929,-130 1403,-130 1403,-78 929,-78"/>
</g>
<g id="clust4" class="cluster">
<title>cluster_ValidacionDescuentoModule_exports</title>
<polygon fill="none" stroke="#000000" points="663,-208 663,-260 913,-260 913,-208 663,-208"/>
</g>
<g id="clust6" class="cluster">
<title>cluster_ValidacionDescuentoModule_providers</title>
<polygon fill="none" stroke="#000000" points="16,-78 16,-130 921,-130 921,-78 16,-78"/>
</g>
<!-- ThemeModule -->
<g id="node1" class="node">
<title>ThemeModule</title>
<polygon fill="#8dd3c7" stroke="#000000" points="1395.4231,-122 1392.4231,-126 1371.4231,-126 1368.4231,-122 1296.5769,-122 1296.5769,-86 1395.4231,-86 1395.4231,-122"/>
<text text-anchor="middle" x="1346" y="-99.8" font-family="Times,serif" font-size="14.00" fill="#000000">ThemeModule</text>
</g>
<!-- ValidacionDescuentoModule -->
<g id="node4" class="node">
<title>ValidacionDescuentoModule</title>
<polygon fill="#8dd3c7" stroke="#000000" points="878.0576,-187 875.0576,-191 854.0576,-191 851.0576,-187 697.9424,-187 697.9424,-151 878.0576,-151 878.0576,-187"/>
<text text-anchor="middle" x="788" y="-164.8" font-family="Times,serif" font-size="14.00" fill="#000000">ValidacionDescuentoModule</text>
</g>
<!-- ThemeModule&#45;&gt;ValidacionDescuentoModule -->
<g id="edge1" class="edge">
<title>ThemeModule&#45;&gt;ValidacionDescuentoModule</title>
<path fill="none" stroke="#000000" d="M1346,-122.2921C1346,-144.2057 1346,-178 1346,-178 1346,-178 888.2725,-178 888.2725,-178"/>
<polygon fill="#000000" stroke="#000000" points="888.2725,-174.5001 878.2725,-178 888.2725,-181.5001 888.2725,-174.5001"/>
</g>
<!-- ValidacionDescuentoRoutingModule -->
<g id="node2" class="node">
<title>ValidacionDescuentoRoutingModule</title>
<polygon fill="#8dd3c7" stroke="#000000" points="1278.6755,-122 1275.6755,-126 1254.6755,-126 1251.6755,-122 1053.3245,-122 1053.3245,-86 1278.6755,-86 1278.6755,-122"/>
<text text-anchor="middle" x="1166" y="-99.8" font-family="Times,serif" font-size="14.00" fill="#000000">ValidacionDescuentoRoutingModule</text>
</g>
<!-- ValidacionDescuentoRoutingModule&#45;&gt;ValidacionDescuentoModule -->
<g id="edge2" class="edge">
<title>ValidacionDescuentoRoutingModule&#45;&gt;ValidacionDescuentoModule</title>
<path fill="none" stroke="#000000" d="M1166,-122.1061C1166,-141.3391 1166,-169 1166,-169 1166,-169 888.0602,-169 888.0602,-169"/>
<polygon fill="#000000" stroke="#000000" points="888.0602,-165.5001 878.0602,-169 888.0601,-172.5001 888.0602,-165.5001"/>
</g>
<!-- SharedModule -->
<g id="node3" class="node">
<title>SharedModule</title>
<polygon fill="#8dd3c7" stroke="#000000" points="1035.4231,-122 1032.4231,-126 1011.4231,-126 1008.4231,-122 936.5769,-122 936.5769,-86 1035.4231,-86 1035.4231,-122"/>
<text text-anchor="middle" x="986" y="-99.8" font-family="Times,serif" font-size="14.00" fill="#000000">SharedModule</text>
</g>
<!-- SharedModule&#45;&gt;ValidacionDescuentoModule -->
<g id="edge3" class="edge">
<title>SharedModule&#45;&gt;ValidacionDescuentoModule</title>
<path fill="none" stroke="#000000" d="M986,-122.027C986,-138.3976 986,-160 986,-160 986,-160 888.3088,-160 888.3088,-160"/>
<polygon fill="#000000" stroke="#000000" points="888.3088,-156.5001 878.3088,-160 888.3088,-163.5001 888.3088,-156.5001"/>
</g>
<!-- CrudValidacionDescuentoComponent  -->
<g id="node5" class="node">
<title>CrudValidacionDescuentoComponent </title>
<polygon fill="#fb8072" stroke="#000000" points="904.8376,-252 671.1624,-252 671.1624,-216 904.8376,-216 904.8376,-252"/>
<text text-anchor="middle" x="788" y="-229.8" font-family="Times,serif" font-size="14.00" fill="#000000">CrudValidacionDescuentoComponent </text>
</g>
<!-- ValidacionDescuentoModule&#45;&gt;CrudValidacionDescuentoComponent  -->
<g id="edge4" class="edge">
<title>ValidacionDescuentoModule&#45;&gt;CrudValidacionDescuentoComponent </title>
<path fill="none" stroke="#000000" stroke-dasharray="5,2" d="M788,-187.1061C788,-187.1061 788,-205.991 788,-205.991"/>
<polygon fill="#000000" stroke="#000000" points="784.5001,-205.9909 788,-215.991 791.5001,-205.991 784.5001,-205.9909"/>
</g>
<!-- DescuentoAcademicoService -->
<g id="node6" class="node">
<title>DescuentoAcademicoService</title>
<ellipse fill="#fdb462" stroke="#000000" cx="788" cy="-104" rx="124.9384" ry="18"/>
<text text-anchor="middle" x="788" y="-99.8" font-family="Times,serif" font-size="14.00" fill="#000000">DescuentoAcademicoService</text>
</g>
<!-- DescuentoAcademicoService&#45;&gt;ValidacionDescuentoModule -->
<g id="edge5" class="edge">
<title>DescuentoAcademicoService&#45;&gt;ValidacionDescuentoModule</title>
<path fill="none" stroke="#000000" d="M788,-122.1061C788,-122.1061 788,-140.991 788,-140.991"/>
<polygon fill="#000000" stroke="#000000" points="784.5001,-140.9909 788,-150.991 791.5001,-140.991 784.5001,-140.9909"/>
</g>
<!-- ProgramaAcademicoService -->
<g id="node7" class="node">
<title>ProgramaAcademicoService</title>
<ellipse fill="#fdb462" stroke="#000000" cx="524" cy="-104" rx="121.5065" ry="18"/>
<text text-anchor="middle" x="524" y="-99.8" font-family="Times,serif" font-size="14.00" fill="#000000">ProgramaAcademicoService</text>
</g>
<!-- ProgramaAcademicoService&#45;&gt;ValidacionDescuentoModule -->
<g id="edge6" class="edge">
<title>ProgramaAcademicoService&#45;&gt;ValidacionDescuentoModule</title>
<path fill="none" stroke="#000000" d="M524,-122.027C524,-138.3976 524,-160 524,-160 524,-160 687.8846,-160 687.8846,-160"/>
<polygon fill="#000000" stroke="#000000" points="687.8846,-163.5001 697.8846,-160 687.8845,-156.5001 687.8846,-163.5001"/>
</g>
<!-- ProgramaOikosService -->
<g id="node8" class="node">
<title>ProgramaOikosService</title>
<ellipse fill="#fdb462" stroke="#000000" cx="284" cy="-104" rx="100.6998" ry="18"/>
<text text-anchor="middle" x="284" y="-99.8" font-family="Times,serif" font-size="14.00" fill="#000000">ProgramaOikosService</text>
</g>
<!-- ProgramaOikosService&#45;&gt;ValidacionDescuentoModule -->
<g id="edge7" class="edge">
<title>ProgramaOikosService&#45;&gt;ValidacionDescuentoModule</title>
<path fill="none" stroke="#000000" d="M284,-122.1061C284,-141.3391 284,-169 284,-169 284,-169 687.8949,-169 687.8949,-169"/>
<polygon fill="#000000" stroke="#000000" points="687.8949,-172.5001 697.8949,-169 687.8949,-165.5001 687.8949,-172.5001"/>
</g>
<!-- PersonaService -->
<g id="node9" class="node">
<title>PersonaService</title>
<ellipse fill="#fdb462" stroke="#000000" cx="95" cy="-104" rx="70.622" ry="18"/>
<text text-anchor="middle" x="95" y="-99.8" font-family="Times,serif" font-size="14.00" fill="#000000">PersonaService</text>
</g>
<!-- PersonaService&#45;&gt;ValidacionDescuentoModule -->
<g id="edge8" class="edge">
<title>PersonaService&#45;&gt;ValidacionDescuentoModule</title>
<path fill="none" stroke="#000000" d="M95,-122.2921C95,-144.2057 95,-178 95,-178 95,-178 687.7578,-178 687.7578,-178"/>
<polygon fill="#000000" stroke="#000000" points="687.7579,-181.5001 697.7578,-178 687.7578,-174.5001 687.7579,-181.5001"/>
</g>
</g>
</svg>
