<?xml version="1.0" encoding="UTF-8" standalone="no"?>
<!DOCTYPE svg PUBLIC "-//W3C//DTD SVG 1.1//EN"
 "http://www.w3.org/Graphics/SVG/1.1/DTD/svg11.dtd">
<!-- Generated by graphviz version 2.40.1 (20161225.0304)
 -->
<!-- Title: dependencies Pages: 1 -->
<svg width="664pt" height="284pt"
 viewBox="0.00 0.00 664.00 284.00" xmlns="http://www.w3.org/2000/svg" xmlns:xlink="http://www.w3.org/1999/xlink">
<g id="graph0" class="graph" transform="scale(1 1) rotate(0) translate(4 280)">
<title>dependencies</title>
<polygon fill="#ffffff" stroke="transparent" points="-4,4 -4,-280 660,-280 660,4 -4,4"/>
<text text-anchor="start" x="307.0091" y="-42.4" font-family="sans-serif" font-weight="bold" font-size="14.00" fill="#000000">Legend</text>
<polygon fill="#ffffb3" stroke="transparent" points="94,-10 94,-30 114,-30 114,-10 94,-10"/>
<text text-anchor="start" x="117.629" y="-15.4" font-family="sans-serif" font-size="14.00" fill="#000000"> &#160;Declarations</text>
<polygon fill="#8dd3c7" stroke="transparent" points="207,-10 207,-30 227,-30 227,-10 207,-10"/>
<text text-anchor="start" x="230.7251" y="-15.4" font-family="sans-serif" font-size="14.00" fill="#000000"> &#160;Module</text>
<polygon fill="#80b1d3" stroke="transparent" points="293,-10 293,-30 313,-30 313,-10 293,-10"/>
<text text-anchor="start" x="316.7812" y="-15.4" font-family="sans-serif" font-size="14.00" fill="#000000"> &#160;Bootstrap</text>
<polygon fill="#fdb462" stroke="transparent" points="390,-10 390,-30 410,-30 410,-10 390,-10"/>
<text text-anchor="start" x="413.6732" y="-15.4" font-family="sans-serif" font-size="14.00" fill="#000000"> &#160;Providers</text>
<polygon fill="#fb8072" stroke="transparent" points="486,-10 486,-30 506,-30 506,-10 486,-10"/>
<text text-anchor="start" x="509.7258" y="-15.4" font-family="sans-serif" font-size="14.00" fill="#000000"> &#160;Exports</text>
<g id="clust1" class="cluster">
<title>cluster_ClasificacionIdiomaModule</title>
<polygon fill="none" stroke="#000000" stroke-dasharray="1,5" points="8,-70 8,-268 648,-268 648,-70 8,-70"/>
</g>
<g id="clust3" class="cluster">
<title>cluster_ClasificacionIdiomaModule_imports</title>
<polygon fill="none" stroke="#000000" points="174,-78 174,-130 640,-130 640,-78 174,-78"/>
</g>
<g id="clust4" class="cluster">
<title>cluster_ClasificacionIdiomaModule_exports</title>
<polygon fill="none" stroke="#000000" points="198,-208 198,-260 440,-260 440,-208 198,-208"/>
</g>
<g id="clust6" class="cluster">
<title>cluster_ClasificacionIdiomaModule_providers</title>
<polygon fill="none" stroke="#000000" points="16,-78 16,-130 166,-130 166,-78 16,-78"/>
</g>
<!-- ThemeModule -->
<g id="node1" class="node">
<title>ThemeModule</title>
<polygon fill="#8dd3c7" stroke="#000000" points="632.4231,-122 629.4231,-126 608.4231,-126 605.4231,-122 533.5769,-122 533.5769,-86 632.4231,-86 632.4231,-122"/>
<text text-anchor="middle" x="583" y="-99.8" font-family="Times,serif" font-size="14.00" fill="#000000">ThemeModule</text>
</g>
<!-- ClasificacionIdiomaModule -->
<g id="node4" class="node">
<title>ClasificacionIdiomaModule</title>
<polygon fill="#8dd3c7" stroke="#000000" points="405.5688,-187 402.5688,-191 381.5688,-191 378.5688,-187 232.4312,-187 232.4312,-151 405.5688,-151 405.5688,-187"/>
<text text-anchor="middle" x="319" y="-164.8" font-family="Times,serif" font-size="14.00" fill="#000000">ClasificacionIdiomaModule</text>
</g>
<!-- ThemeModule&#45;&gt;ClasificacionIdiomaModule -->
<g id="edge1" class="edge">
<title>ThemeModule&#45;&gt;ClasificacionIdiomaModule</title>
<path fill="none" stroke="#000000" d="M583,-122.1061C583,-141.3391 583,-169 583,-169 583,-169 415.8091,-169 415.8091,-169"/>
<polygon fill="#000000" stroke="#000000" points="415.8092,-165.5001 405.8091,-169 415.8091,-172.5001 415.8092,-165.5001"/>
</g>
<!-- ClasificacionIdiomaRoutingModule -->
<g id="node2" class="node">
<title>ClasificacionIdiomaRoutingModule</title>
<polygon fill="#8dd3c7" stroke="#000000" points="516.1867,-122 513.1867,-126 492.1867,-126 489.1867,-122 297.8133,-122 297.8133,-86 516.1867,-86 516.1867,-122"/>
<text text-anchor="middle" x="407" y="-99.8" font-family="Times,serif" font-size="14.00" fill="#000000">ClasificacionIdiomaRoutingModule</text>
</g>
<!-- ClasificacionIdiomaRoutingModule&#45;&gt;ClasificacionIdiomaModule -->
<g id="edge2" class="edge">
<title>ClasificacionIdiomaRoutingModule&#45;&gt;ClasificacionIdiomaModule</title>
<path fill="none" stroke="#000000" d="M351.7206,-122.1061C351.7206,-122.1061 351.7206,-140.991 351.7206,-140.991"/>
<polygon fill="#000000" stroke="#000000" points="348.2206,-140.9909 351.7206,-150.991 355.2206,-140.991 348.2206,-140.9909"/>
</g>
<!-- SharedModule -->
<g id="node3" class="node">
<title>SharedModule</title>
<polygon fill="#8dd3c7" stroke="#000000" points="280.4231,-122 277.4231,-126 256.4231,-126 253.4231,-122 181.5769,-122 181.5769,-86 280.4231,-86 280.4231,-122"/>
<text text-anchor="middle" x="231" y="-99.8" font-family="Times,serif" font-size="14.00" fill="#000000">SharedModule</text>
</g>
<!-- SharedModule&#45;&gt;ClasificacionIdiomaModule -->
<g id="edge3" class="edge">
<title>SharedModule&#45;&gt;ClasificacionIdiomaModule</title>
<path fill="none" stroke="#000000" d="M256.3384,-122.1061C256.3384,-122.1061 256.3384,-140.991 256.3384,-140.991"/>
<polygon fill="#000000" stroke="#000000" points="252.8384,-140.9909 256.3384,-150.991 259.8384,-140.991 252.8384,-140.9909"/>
</g>
<!-- CrudClasificacionIdiomaComponent  -->
<g id="node5" class="node">
<title>CrudClasificacionIdiomaComponent </title>
<polygon fill="#fb8072" stroke="#000000" points="432.3489,-252 205.6511,-252 205.6511,-216 432.3489,-216 432.3489,-252"/>
<text text-anchor="middle" x="319" y="-229.8" font-family="Times,serif" font-size="14.00" fill="#000000">CrudClasificacionIdiomaComponent </text>
</g>
<!-- ClasificacionIdiomaModule&#45;&gt;CrudClasificacionIdiomaComponent  -->
<g id="edge4" class="edge">
<title>ClasificacionIdiomaModule&#45;&gt;CrudClasificacionIdiomaComponent </title>
<path fill="none" stroke="#000000" stroke-dasharray="5,2" d="M319,-187.1061C319,-187.1061 319,-205.991 319,-205.991"/>
<polygon fill="#000000" stroke="#000000" points="315.5001,-205.9909 319,-215.991 322.5001,-205.991 315.5001,-205.9909"/>
</g>
<!-- IdiomaService -->
<g id="node6" class="node">
<title>IdiomaService</title>
<ellipse fill="#fdb462" stroke="#000000" cx="91" cy="-104" rx="67.1927" ry="18"/>
<text text-anchor="middle" x="91" y="-99.8" font-family="Times,serif" font-size="14.00" fill="#000000">IdiomaService</text>
</g>
<!-- IdiomaService&#45;&gt;ClasificacionIdiomaModule -->
<g id="edge5" class="edge">
<title>IdiomaService&#45;&gt;ClasificacionIdiomaModule</title>
<path fill="none" stroke="#000000" d="M91,-122.1061C91,-141.3391 91,-169 91,-169 91,-169 222.1526,-169 222.1526,-169"/>
<polygon fill="#000000" stroke="#000000" points="222.1526,-172.5001 232.1526,-169 222.1525,-165.5001 222.1526,-172.5001"/>
</g>
</g>
</svg>
