<?xml version="1.0" encoding="UTF-8" standalone="no"?>
<!DOCTYPE svg PUBLIC "-//W3C//DTD SVG 1.1//EN"
 "http://www.w3.org/Graphics/SVG/1.1/DTD/svg11.dtd">
<!-- Generated by graphviz version 2.40.1 (20161225.0304)
 -->
<!-- Title: dependencies Pages: 1 -->
<svg width="1298pt" height="284pt"
 viewBox="0.00 0.00 1298.00 284.00" xmlns="http://www.w3.org/2000/svg" xmlns:xlink="http://www.w3.org/1999/xlink">
<g id="graph0" class="graph" transform="scale(1 1) rotate(0) translate(4 280)">
<title>dependencies</title>
<polygon fill="#ffffff" stroke="transparent" points="-4,4 -4,-280 1294,-280 1294,4 -4,4"/>
<text text-anchor="start" x="624.0091" y="-42.4" font-family="sans-serif" font-weight="bold" font-size="14.00" fill="#000000">Legend</text>
<polygon fill="#ffffb3" stroke="transparent" points="411,-10 411,-30 431,-30 431,-10 411,-10"/>
<text text-anchor="start" x="434.629" y="-15.4" font-family="sans-serif" font-size="14.00" fill="#000000"> &#160;Declarations</text>
<polygon fill="#8dd3c7" stroke="transparent" points="524,-10 524,-30 544,-30 544,-10 524,-10"/>
<text text-anchor="start" x="547.7251" y="-15.4" font-family="sans-serif" font-size="14.00" fill="#000000"> &#160;Module</text>
<polygon fill="#80b1d3" stroke="transparent" points="610,-10 610,-30 630,-30 630,-10 610,-10"/>
<text text-anchor="start" x="633.7812" y="-15.4" font-family="sans-serif" font-size="14.00" fill="#000000"> &#160;Bootstrap</text>
<polygon fill="#fdb462" stroke="transparent" points="707,-10 707,-30 727,-30 727,-10 707,-10"/>
<text text-anchor="start" x="730.6732" y="-15.4" font-family="sans-serif" font-size="14.00" fill="#000000"> &#160;Providers</text>
<polygon fill="#fb8072" stroke="transparent" points="803,-10 803,-30 823,-30 823,-10 803,-10"/>
<text text-anchor="start" x="826.7258" y="-15.4" font-family="sans-serif" font-size="14.00" fill="#000000"> &#160;Exports</text>
<g id="clust1" class="cluster">
<title>cluster_ConfiguracionFechasModule</title>
<polygon fill="none" stroke="#000000" stroke-dasharray="1,5" points="8,-70 8,-268 1282,-268 1282,-70 8,-70"/>
</g>
<g id="clust3" class="cluster">
<title>cluster_ConfiguracionFechasModule_imports</title>
<polygon fill="none" stroke="#000000" points="802,-78 802,-130 1274,-130 1274,-78 802,-78"/>
</g>
<g id="clust4" class="cluster">
<title>cluster_ConfiguracionFechasModule_exports</title>
<polygon fill="none" stroke="#000000" points="603,-208 603,-260 851,-260 851,-208 603,-208"/>
</g>
<g id="clust6" class="cluster">
<title>cluster_ConfiguracionFechasModule_providers</title>
<polygon fill="none" stroke="#000000" points="16,-78 16,-130 794,-130 794,-78 16,-78"/>
</g>
<!-- ThemeModule -->
<g id="node1" class="node">
<title>ThemeModule</title>
<polygon fill="#8dd3c7" stroke="#000000" points="1266.4231,-122 1263.4231,-126 1242.4231,-126 1239.4231,-122 1167.5769,-122 1167.5769,-86 1266.4231,-86 1266.4231,-122"/>
<text text-anchor="middle" x="1217" y="-99.8" font-family="Times,serif" font-size="14.00" fill="#000000">ThemeModule</text>
</g>
<!-- ConfiguracionFechasModule -->
<g id="node4" class="node">
<title>ConfiguracionFechasModule</title>
<polygon fill="#8dd3c7" stroke="#000000" points="816.7892,-187 813.7892,-191 792.7892,-191 789.7892,-187 637.2108,-187 637.2108,-151 816.7892,-151 816.7892,-187"/>
<text text-anchor="middle" x="727" y="-164.8" font-family="Times,serif" font-size="14.00" fill="#000000">ConfiguracionFechasModule</text>
</g>
<!-- ThemeModule&#45;&gt;ConfiguracionFechasModule -->
<g id="edge1" class="edge">
<title>ThemeModule&#45;&gt;ConfiguracionFechasModule</title>
<path fill="none" stroke="#000000" d="M1217,-122.2843C1217,-143.3211 1217,-175 1217,-175 1217,-175 826.8736,-175 826.8736,-175"/>
<polygon fill="#000000" stroke="#000000" points="826.8736,-171.5001 816.8736,-175 826.8735,-178.5001 826.8736,-171.5001"/>
</g>
<!-- ConfiguracionFechasRoutingModule -->
<g id="node2" class="node">
<title>ConfiguracionFechasRoutingModule</title>
<polygon fill="#8dd3c7" stroke="#000000" points="1150.4072,-122 1147.4072,-126 1126.4072,-126 1123.4072,-122 925.5928,-122 925.5928,-86 1150.4072,-86 1150.4072,-122"/>
<text text-anchor="middle" x="1038" y="-99.8" font-family="Times,serif" font-size="14.00" fill="#000000">ConfiguracionFechasRoutingModule</text>
</g>
<!-- ConfiguracionFechasRoutingModule&#45;&gt;ConfiguracionFechasModule -->
<g id="edge2" class="edge">
<title>ConfiguracionFechasRoutingModule&#45;&gt;ConfiguracionFechasModule</title>
<path fill="none" stroke="#000000" d="M1038,-122.0225C1038,-139.3734 1038,-163 1038,-163 1038,-163 826.9541,-163 826.9541,-163"/>
<polygon fill="#000000" stroke="#000000" points="826.9541,-159.5001 816.9541,-163 826.9541,-166.5001 826.9541,-159.5001"/>
</g>
<!-- SharedModule -->
<g id="node3" class="node">
<title>SharedModule</title>
<polygon fill="#8dd3c7" stroke="#000000" points="908.4231,-122 905.4231,-126 884.4231,-126 881.4231,-122 809.5769,-122 809.5769,-86 908.4231,-86 908.4231,-122"/>
<text text-anchor="middle" x="859" y="-99.8" font-family="Times,serif" font-size="14.00" fill="#000000">SharedModule</text>
</g>
<!-- SharedModule&#45;&gt;ConfiguracionFechasModule -->
<g id="edge3" class="edge">
<title>SharedModule&#45;&gt;ConfiguracionFechasModule</title>
<path fill="none" stroke="#000000" d="M809.5802,-104C802.6185,-104 797.7755,-104 797.7755,-104 797.7755,-104 797.7755,-140.8939 797.7755,-140.8939"/>
<polygon fill="#000000" stroke="#000000" points="794.2756,-140.8938 797.7755,-150.8939 801.2756,-140.8939 794.2756,-140.8938"/>
</g>
<!-- CrudConfiguracionFechasComponent  -->
<g id="node5" class="node">
<title>CrudConfiguracionFechasComponent </title>
<polygon fill="#fb8072" stroke="#000000" points="843.0692,-252 610.9308,-252 610.9308,-216 843.0692,-216 843.0692,-252"/>
<text text-anchor="middle" x="727" y="-229.8" font-family="Times,serif" font-size="14.00" fill="#000000">CrudConfiguracionFechasComponent </text>
</g>
<!-- ConfiguracionFechasModule&#45;&gt;CrudConfiguracionFechasComponent  -->
<g id="edge4" class="edge">
<title>ConfiguracionFechasModule&#45;&gt;CrudConfiguracionFechasComponent </title>
<path fill="none" stroke="#000000" stroke-dasharray="5,2" d="M727,-187.1061C727,-187.1061 727,-205.991 727,-205.991"/>
<polygon fill="#000000" stroke="#000000" points="723.5001,-205.9909 727,-215.991 730.5001,-205.991 723.5001,-205.9909"/>
</g>
<!-- CoreService -->
<g id="node6" class="node">
<title>CoreService</title>
<ellipse fill="#fdb462" stroke="#000000" cx="727" cy="-104" rx="58.5251" ry="18"/>
<text text-anchor="middle" x="727" y="-99.8" font-family="Times,serif" font-size="14.00" fill="#000000">CoreService</text>
</g>
<!-- CoreService&#45;&gt;ConfiguracionFechasModule -->
<g id="edge5" class="edge">
<title>CoreService&#45;&gt;ConfiguracionFechasModule</title>
<path fill="none" stroke="#000000" d="M727,-122.1061C727,-122.1061 727,-140.991 727,-140.991"/>
<polygon fill="#000000" stroke="#000000" points="723.5001,-140.9909 727,-150.991 730.5001,-140.991 723.5001,-140.9909"/>
</g>
<!-- EvaluacionInscripcionService -->
<g id="node7" class="node">
<title>EvaluacionInscripcionService</title>
<ellipse fill="#fdb462" stroke="#000000" cx="523" cy="-104" rx="126.7452" ry="18"/>
<text text-anchor="middle" x="523" y="-99.8" font-family="Times,serif" font-size="14.00" fill="#000000">EvaluacionInscripcionService</text>
</g>
<!-- EvaluacionInscripcionService&#45;&gt;ConfiguracionFechasModule -->
<g id="edge6" class="edge">
<title>EvaluacionInscripcionService&#45;&gt;ConfiguracionFechasModule</title>
<path fill="none" stroke="#000000" d="M643.614,-109.9985C643.614,-109.9985 643.614,-140.7642 643.614,-140.7642"/>
<polygon fill="#000000" stroke="#000000" points="640.1141,-140.7642 643.614,-150.7642 647.1141,-140.7642 640.1141,-140.7642"/>
</g>
<!-- EventoService -->
<g id="node8" class="node">
<title>EventoService</title>
<ellipse fill="#fdb462" stroke="#000000" cx="311" cy="-104" rx="67.1946" ry="18"/>
<text text-anchor="middle" x="311" y="-99.8" font-family="Times,serif" font-size="14.00" fill="#000000">EventoService</text>
</g>
<!-- EventoService&#45;&gt;ConfiguracionFechasModule -->
<g id="edge7" class="edge">
<title>EventoService&#45;&gt;ConfiguracionFechasModule</title>
<path fill="none" stroke="#000000" d="M311,-122.0225C311,-139.3734 311,-163 311,-163 311,-163 627.2464,-163 627.2464,-163"/>
<polygon fill="#000000" stroke="#000000" points="627.2464,-166.5001 637.2464,-163 627.2463,-159.5001 627.2464,-166.5001"/>
</g>
<!-- ProgramaOikosService -->
<g id="node9" class="node">
<title>ProgramaOikosService</title>
<ellipse fill="#fdb462" stroke="#000000" cx="125" cy="-104" rx="100.6998" ry="18"/>
<text text-anchor="middle" x="125" y="-99.8" font-family="Times,serif" font-size="14.00" fill="#000000">ProgramaOikosService</text>
</g>
<!-- ProgramaOikosService&#45;&gt;ConfiguracionFechasModule -->
<g id="edge8" class="edge">
<title>ProgramaOikosService&#45;&gt;ConfiguracionFechasModule</title>
<path fill="none" stroke="#000000" d="M125,-122.2843C125,-143.3211 125,-175 125,-175 125,-175 627.1998,-175 627.1998,-175"/>
<polygon fill="#000000" stroke="#000000" points="627.1998,-178.5001 637.1998,-175 627.1997,-171.5001 627.1998,-178.5001"/>
</g>
</g>
</svg>
