<?xml version="1.0" encoding="UTF-8" standalone="no"?>
<!DOCTYPE svg PUBLIC "-//W3C//DTD SVG 1.1//EN"
 "http://www.w3.org/Graphics/SVG/1.1/DTD/svg11.dtd">
<!-- Generated by graphviz version 2.40.1 (20161225.0304)
 -->
<!-- Title: dependencies Pages: 1 -->
<svg width="718pt" height="284pt"
 viewBox="0.00 0.00 718.00 284.00" xmlns="http://www.w3.org/2000/svg" xmlns:xlink="http://www.w3.org/1999/xlink">
<g id="graph0" class="graph" transform="scale(1 1) rotate(0) translate(4 280)">
<title>dependencies</title>
<polygon fill="#ffffff" stroke="transparent" points="-4,4 -4,-280 714,-280 714,4 -4,4"/>
<text text-anchor="start" x="334.0091" y="-42.4" font-family="sans-serif" font-weight="bold" font-size="14.00" fill="#000000">Legend</text>
<polygon fill="#ffffb3" stroke="transparent" points="121,-10 121,-30 141,-30 141,-10 121,-10"/>
<text text-anchor="start" x="144.629" y="-15.4" font-family="sans-serif" font-size="14.00" fill="#000000"> &#160;Declarations</text>
<polygon fill="#8dd3c7" stroke="transparent" points="234,-10 234,-30 254,-30 254,-10 234,-10"/>
<text text-anchor="start" x="257.7251" y="-15.4" font-family="sans-serif" font-size="14.00" fill="#000000"> &#160;Module</text>
<polygon fill="#80b1d3" stroke="transparent" points="320,-10 320,-30 340,-30 340,-10 320,-10"/>
<text text-anchor="start" x="343.7812" y="-15.4" font-family="sans-serif" font-size="14.00" fill="#000000"> &#160;Bootstrap</text>
<polygon fill="#fdb462" stroke="transparent" points="417,-10 417,-30 437,-30 437,-10 417,-10"/>
<text text-anchor="start" x="440.6732" y="-15.4" font-family="sans-serif" font-size="14.00" fill="#000000"> &#160;Providers</text>
<polygon fill="#fb8072" stroke="transparent" points="513,-10 513,-30 533,-30 533,-10 513,-10"/>
<text text-anchor="start" x="536.7258" y="-15.4" font-family="sans-serif" font-size="14.00" fill="#000000"> &#160;Exports</text>
<g id="clust1" class="cluster">
<title>cluster_TitulacionModule</title>
<polygon fill="none" stroke="#000000" stroke-dasharray="1,5" points="8,-70 8,-268 702,-268 702,-70 8,-70"/>
</g>
<g id="clust3" class="cluster">
<title>cluster_TitulacionModule_imports</title>
<polygon fill="none" stroke="#000000" points="284,-78 284,-130 694,-130 694,-78 284,-78"/>
</g>
<g id="clust4" class="cluster">
<title>cluster_TitulacionModule_exports</title>
<polygon fill="none" stroke="#000000" points="322,-208 322,-260 508,-260 508,-208 322,-208"/>
</g>
<g id="clust6" class="cluster">
<title>cluster_TitulacionModule_providers</title>
<polygon fill="none" stroke="#000000" points="16,-78 16,-130 276,-130 276,-78 16,-78"/>
</g>
<!-- ThemeModule -->
<g id="node1" class="node">
<title>ThemeModule</title>
<polygon fill="#8dd3c7" stroke="#000000" points="686.4231,-122 683.4231,-126 662.4231,-126 659.4231,-122 587.5769,-122 587.5769,-86 686.4231,-86 686.4231,-122"/>
<text text-anchor="middle" x="637" y="-99.8" font-family="Times,serif" font-size="14.00" fill="#000000">ThemeModule</text>
</g>
<!-- TitulacionModule -->
<g id="node4" class="node">
<title>TitulacionModule</title>
<polygon fill="#8dd3c7" stroke="#000000" points="473.594,-187 470.594,-191 449.594,-191 446.594,-187 356.406,-187 356.406,-151 473.594,-151 473.594,-187"/>
<text text-anchor="middle" x="415" y="-164.8" font-family="Times,serif" font-size="14.00" fill="#000000">TitulacionModule</text>
</g>
<!-- ThemeModule&#45;&gt;TitulacionModule -->
<g id="edge1" class="edge">
<title>ThemeModule&#45;&gt;TitulacionModule</title>
<path fill="none" stroke="#000000" d="M637,-122.1061C637,-141.3391 637,-169 637,-169 637,-169 483.6183,-169 483.6183,-169"/>
<polygon fill="#000000" stroke="#000000" points="483.6183,-165.5001 473.6183,-169 483.6182,-172.5001 483.6183,-165.5001"/>
</g>
<!-- TitulacionRoutingModule -->
<g id="node2" class="node">
<title>TitulacionRoutingModule</title>
<polygon fill="#8dd3c7" stroke="#000000" points="570.2119,-122 567.2119,-126 546.2119,-126 543.2119,-122 407.7881,-122 407.7881,-86 570.2119,-86 570.2119,-122"/>
<text text-anchor="middle" x="489" y="-99.8" font-family="Times,serif" font-size="14.00" fill="#000000">TitulacionRoutingModule</text>
</g>
<!-- TitulacionRoutingModule&#45;&gt;TitulacionModule -->
<g id="edge2" class="edge">
<title>TitulacionRoutingModule&#45;&gt;TitulacionModule</title>
<path fill="none" stroke="#000000" d="M440.7206,-122.1061C440.7206,-122.1061 440.7206,-140.991 440.7206,-140.991"/>
<polygon fill="#000000" stroke="#000000" points="437.2206,-140.9909 440.7206,-150.991 444.2206,-140.991 437.2206,-140.9909"/>
</g>
<!-- SharedModule -->
<g id="node3" class="node">
<title>SharedModule</title>
<polygon fill="#8dd3c7" stroke="#000000" points="390.4231,-122 387.4231,-126 366.4231,-126 363.4231,-122 291.5769,-122 291.5769,-86 390.4231,-86 390.4231,-122"/>
<text text-anchor="middle" x="341" y="-99.8" font-family="Times,serif" font-size="14.00" fill="#000000">SharedModule</text>
</g>
<!-- SharedModule&#45;&gt;TitulacionModule -->
<g id="edge3" class="edge">
<title>SharedModule&#45;&gt;TitulacionModule</title>
<path fill="none" stroke="#000000" d="M373.3321,-122.1061C373.3321,-122.1061 373.3321,-140.991 373.3321,-140.991"/>
<polygon fill="#000000" stroke="#000000" points="369.8321,-140.9909 373.3321,-150.991 376.8321,-140.991 369.8321,-140.9909"/>
</g>
<!-- CrudTitulacionComponent  -->
<g id="node5" class="node">
<title>CrudTitulacionComponent </title>
<polygon fill="#fb8072" stroke="#000000" points="500.3742,-252 329.6258,-252 329.6258,-216 500.3742,-216 500.3742,-252"/>
<text text-anchor="middle" x="415" y="-229.8" font-family="Times,serif" font-size="14.00" fill="#000000">CrudTitulacionComponent </text>
</g>
<!-- TitulacionModule&#45;&gt;CrudTitulacionComponent  -->
<g id="edge4" class="edge">
<title>TitulacionModule&#45;&gt;CrudTitulacionComponent </title>
<path fill="none" stroke="#000000" stroke-dasharray="5,2" d="M415,-187.1061C415,-187.1061 415,-205.991 415,-205.991"/>
<polygon fill="#000000" stroke="#000000" points="411.5001,-205.9909 415,-215.991 418.5001,-205.991 411.5001,-205.9909"/>
</g>
<!-- ProgramaAcademicoService -->
<g id="node6" class="node">
<title>ProgramaAcademicoService</title>
<ellipse fill="#fdb462" stroke="#000000" cx="146" cy="-104" rx="121.5065" ry="18"/>
<text text-anchor="middle" x="146" y="-99.8" font-family="Times,serif" font-size="14.00" fill="#000000">ProgramaAcademicoService</text>
</g>
<!-- ProgramaAcademicoService&#45;&gt;TitulacionModule -->
<g id="edge5" class="edge">
<title>ProgramaAcademicoService&#45;&gt;TitulacionModule</title>
<path fill="none" stroke="#000000" d="M146,-122.1061C146,-141.3391 146,-169 146,-169 146,-169 346.2992,-169 346.2992,-169"/>
<polygon fill="#000000" stroke="#000000" points="346.2992,-172.5001 356.2992,-169 346.2992,-165.5001 346.2992,-172.5001"/>
</g>
</g>
</svg>
