<?xml version="1.0" encoding="UTF-8" standalone="no"?>
<!DOCTYPE svg PUBLIC "-//W3C//DTD SVG 1.1//EN"
 "http://www.w3.org/Graphics/SVG/1.1/DTD/svg11.dtd">
<!-- Generated by graphviz version 2.40.1 (20161225.0304)
 -->
<!-- Title: dependencies Pages: 1 -->
<svg width="1409pt" height="284pt"
 viewBox="0.00 0.00 1409.00 284.00" xmlns="http://www.w3.org/2000/svg" xmlns:xlink="http://www.w3.org/1999/xlink">
<g id="graph0" class="graph" transform="scale(1 1) rotate(0) translate(4 280)">
<title>dependencies</title>
<polygon fill="#ffffff" stroke="transparent" points="-4,4 -4,-280 1405,-280 1405,4 -4,4"/>
<text text-anchor="start" x="679.5091" y="-42.4" font-family="sans-serif" font-weight="bold" font-size="14.00" fill="#000000">Legend</text>
<polygon fill="#ffffb3" stroke="transparent" points="466.5,-10 466.5,-30 486.5,-30 486.5,-10 466.5,-10"/>
<text text-anchor="start" x="490.129" y="-15.4" font-family="sans-serif" font-size="14.00" fill="#000000"> &#160;Declarations</text>
<polygon fill="#8dd3c7" stroke="transparent" points="579.5,-10 579.5,-30 599.5,-30 599.5,-10 579.5,-10"/>
<text text-anchor="start" x="603.2251" y="-15.4" font-family="sans-serif" font-size="14.00" fill="#000000"> &#160;Module</text>
<polygon fill="#80b1d3" stroke="transparent" points="665.5,-10 665.5,-30 685.5,-30 685.5,-10 665.5,-10"/>
<text text-anchor="start" x="689.2812" y="-15.4" font-family="sans-serif" font-size="14.00" fill="#000000"> &#160;Bootstrap</text>
<polygon fill="#fdb462" stroke="transparent" points="762.5,-10 762.5,-30 782.5,-30 782.5,-10 762.5,-10"/>
<text text-anchor="start" x="786.1732" y="-15.4" font-family="sans-serif" font-size="14.00" fill="#000000"> &#160;Providers</text>
<polygon fill="#fb8072" stroke="transparent" points="858.5,-10 858.5,-30 878.5,-30 878.5,-10 858.5,-10"/>
<text text-anchor="start" x="882.2258" y="-15.4" font-family="sans-serif" font-size="14.00" fill="#000000"> &#160;Exports</text>
<g id="clust1" class="cluster">
<title>cluster_SoporteDescuentoModule</title>
<polygon fill="none" stroke="#000000" stroke-dasharray="1,5" points="8,-70 8,-268 1393,-268 1393,-70 8,-70"/>
</g>
<g id="clust3" class="cluster">
<title>cluster_SoporteDescuentoModule_imports</title>
<polygon fill="none" stroke="#000000" points="929,-78 929,-130 1385,-130 1385,-78 929,-78"/>
</g>
<g id="clust4" class="cluster">
<title>cluster_SoporteDescuentoModule_exports</title>
<polygon fill="none" stroke="#000000" points="672,-208 672,-260 904,-260 904,-208 672,-208"/>
</g>
<g id="clust6" class="cluster">
<title>cluster_SoporteDescuentoModule_providers</title>
<polygon fill="none" stroke="#000000" points="16,-78 16,-130 921,-130 921,-78 16,-78"/>
</g>
<!-- ThemeModule -->
<g id="node1" class="node">
<title>ThemeModule</title>
<polygon fill="#8dd3c7" stroke="#000000" points="1377.4231,-122 1374.4231,-126 1353.4231,-126 1350.4231,-122 1278.5769,-122 1278.5769,-86 1377.4231,-86 1377.4231,-122"/>
<text text-anchor="middle" x="1328" y="-99.8" font-family="Times,serif" font-size="14.00" fill="#000000">ThemeModule</text>
</g>
<!-- SoporteDescuentoModule -->
<g id="node4" class="node">
<title>SoporteDescuentoModule</title>
<polygon fill="#8dd3c7" stroke="#000000" points="869.1839,-187 866.1839,-191 845.1839,-191 842.1839,-187 706.8161,-187 706.8161,-151 869.1839,-151 869.1839,-187"/>
<text text-anchor="middle" x="788" y="-164.8" font-family="Times,serif" font-size="14.00" fill="#000000">SoporteDescuentoModule</text>
</g>
<!-- ThemeModule&#45;&gt;SoporteDescuentoModule -->
<g id="edge1" class="edge">
<title>ThemeModule&#45;&gt;SoporteDescuentoModule</title>
<path fill="none" stroke="#000000" d="M1328,-122.2921C1328,-144.2057 1328,-178 1328,-178 1328,-178 879.1356,-178 879.1356,-178"/>
<polygon fill="#000000" stroke="#000000" points="879.1356,-174.5001 869.1356,-178 879.1356,-181.5001 879.1356,-174.5001"/>
</g>
<!-- SoporteDescuentoRoutingModule -->
<g id="node2" class="node">
<title>SoporteDescuentoRoutingModule</title>
<polygon fill="#8dd3c7" stroke="#000000" points="1260.8018,-122 1257.8018,-126 1236.8018,-126 1233.8018,-122 1053.1982,-122 1053.1982,-86 1260.8018,-86 1260.8018,-122"/>
<text text-anchor="middle" x="1157" y="-99.8" font-family="Times,serif" font-size="14.00" fill="#000000">SoporteDescuentoRoutingModule</text>
</g>
<!-- SoporteDescuentoRoutingModule&#45;&gt;SoporteDescuentoModule -->
<g id="edge2" class="edge">
<title>SoporteDescuentoRoutingModule&#45;&gt;SoporteDescuentoModule</title>
<path fill="none" stroke="#000000" d="M1157,-122.1061C1157,-141.3391 1157,-169 1157,-169 1157,-169 879.4354,-169 879.4354,-169"/>
<polygon fill="#000000" stroke="#000000" points="879.4355,-165.5001 869.4354,-169 879.4354,-172.5001 879.4355,-165.5001"/>
</g>
<!-- SharedModule -->
<g id="node3" class="node">
<title>SharedModule</title>
<polygon fill="#8dd3c7" stroke="#000000" points="1035.4231,-122 1032.4231,-126 1011.4231,-126 1008.4231,-122 936.5769,-122 936.5769,-86 1035.4231,-86 1035.4231,-122"/>
<text text-anchor="middle" x="986" y="-99.8" font-family="Times,serif" font-size="14.00" fill="#000000">SharedModule</text>
</g>
<!-- SharedModule&#45;&gt;SoporteDescuentoModule -->
<g id="edge3" class="edge">
<title>SharedModule&#45;&gt;SoporteDescuentoModule</title>
<path fill="none" stroke="#000000" d="M986,-122.027C986,-138.3976 986,-160 986,-160 986,-160 879.1055,-160 879.1055,-160"/>
<polygon fill="#000000" stroke="#000000" points="879.1055,-156.5001 869.1055,-160 879.1054,-163.5001 879.1055,-156.5001"/>
</g>
<!-- CrudSoporteDescuentoComponent  -->
<g id="node5" class="node">
<title>CrudSoporteDescuentoComponent </title>
<polygon fill="#fb8072" stroke="#000000" points="895.9641,-252 680.0359,-252 680.0359,-216 895.9641,-216 895.9641,-252"/>
<text text-anchor="middle" x="788" y="-229.8" font-family="Times,serif" font-size="14.00" fill="#000000">CrudSoporteDescuentoComponent </text>
</g>
<!-- SoporteDescuentoModule&#45;&gt;CrudSoporteDescuentoComponent  -->
<g id="edge4" class="edge">
<title>SoporteDescuentoModule&#45;&gt;CrudSoporteDescuentoComponent </title>
<path fill="none" stroke="#000000" stroke-dasharray="5,2" d="M788,-187.1061C788,-187.1061 788,-205.991 788,-205.991"/>
<polygon fill="#000000" stroke="#000000" points="784.5001,-205.9909 788,-215.991 791.5001,-205.991 784.5001,-205.9909"/>
</g>
<!-- DescuentoAcademicoService -->
<g id="node6" class="node">
<title>DescuentoAcademicoService</title>
<ellipse fill="#fdb462" stroke="#000000" cx="788" cy="-104" rx="124.9384" ry="18"/>
<text text-anchor="middle" x="788" y="-99.8" font-family="Times,serif" font-size="14.00" fill="#000000">DescuentoAcademicoService</text>
</g>
<!-- DescuentoAcademicoService&#45;&gt;SoporteDescuentoModule -->
<g id="edge5" class="edge">
<title>DescuentoAcademicoService&#45;&gt;SoporteDescuentoModule</title>
<path fill="none" stroke="#000000" d="M788,-122.1061C788,-122.1061 788,-140.991 788,-140.991"/>
<polygon fill="#000000" stroke="#000000" points="784.5001,-140.9909 788,-150.991 791.5001,-140.991 784.5001,-140.9909"/>
</g>
<!-- ProgramaAcademicoService -->
<g id="node7" class="node">
<title>ProgramaAcademicoService</title>
<ellipse fill="#fdb462" stroke="#000000" cx="524" cy="-104" rx="121.5065" ry="18"/>
<text text-anchor="middle" x="524" y="-99.8" font-family="Times,serif" font-size="14.00" fill="#000000">ProgramaAcademicoService</text>
</g>
<!-- ProgramaAcademicoService&#45;&gt;SoporteDescuentoModule -->
<g id="edge6" class="edge">
<title>ProgramaAcademicoService&#45;&gt;SoporteDescuentoModule</title>
<path fill="none" stroke="#000000" d="M524,-122.027C524,-138.3976 524,-160 524,-160 524,-160 696.6371,-160 696.6371,-160"/>
<polygon fill="#000000" stroke="#000000" points="696.6372,-163.5001 706.6371,-160 696.6371,-156.5001 696.6372,-163.5001"/>
</g>
<!-- ProgramaOikosService -->
<g id="node8" class="node">
<title>ProgramaOikosService</title>
<ellipse fill="#fdb462" stroke="#000000" cx="284" cy="-104" rx="100.6998" ry="18"/>
<text text-anchor="middle" x="284" y="-99.8" font-family="Times,serif" font-size="14.00" fill="#000000">ProgramaOikosService</text>
</g>
<!-- ProgramaOikosService&#45;&gt;SoporteDescuentoModule -->
<g id="edge7" class="edge">
<title>ProgramaOikosService&#45;&gt;SoporteDescuentoModule</title>
<path fill="none" stroke="#000000" d="M284,-122.1061C284,-141.3391 284,-169 284,-169 284,-169 696.7438,-169 696.7438,-169"/>
<polygon fill="#000000" stroke="#000000" points="696.7438,-172.5001 706.7438,-169 696.7438,-165.5001 696.7438,-172.5001"/>
</g>
<!-- PersonaService -->
<g id="node9" class="node">
<title>PersonaService</title>
<ellipse fill="#fdb462" stroke="#000000" cx="95" cy="-104" rx="70.622" ry="18"/>
<text text-anchor="middle" x="95" y="-99.8" font-family="Times,serif" font-size="14.00" fill="#000000">PersonaService</text>
</g>
<!-- PersonaService&#45;&gt;SoporteDescuentoModule -->
<g id="edge8" class="edge">
<title>PersonaService&#45;&gt;SoporteDescuentoModule</title>
<path fill="none" stroke="#000000" d="M95,-122.2921C95,-144.2057 95,-178 95,-178 95,-178 696.8073,-178 696.8073,-178"/>
<polygon fill="#000000" stroke="#000000" points="696.8074,-181.5001 706.8073,-178 696.8073,-174.5001 696.8074,-181.5001"/>
</g>
</g>
</svg>
