<?xml version="1.0" encoding="UTF-8" standalone="no"?>
<!DOCTYPE svg PUBLIC "-//W3C//DTD SVG 1.1//EN"
 "http://www.w3.org/Graphics/SVG/1.1/DTD/svg11.dtd">
<!-- Generated by graphviz version 2.40.1 (20161225.0304)
 -->
<!-- Title: dependencies Pages: 1 -->
<svg width="1202pt" height="284pt"
 viewBox="0.00 0.00 1202.00 284.00" xmlns="http://www.w3.org/2000/svg" xmlns:xlink="http://www.w3.org/1999/xlink">
<g id="graph0" class="graph" transform="scale(1 1) rotate(0) translate(4 280)">
<title>dependencies</title>
<polygon fill="#ffffff" stroke="transparent" points="-4,4 -4,-280 1198,-280 1198,4 -4,4"/>
<text text-anchor="start" x="576.0091" y="-42.4" font-family="sans-serif" font-weight="bold" font-size="14.00" fill="#000000">Legend</text>
<polygon fill="#ffffb3" stroke="transparent" points="363,-10 363,-30 383,-30 383,-10 363,-10"/>
<text text-anchor="start" x="386.629" y="-15.4" font-family="sans-serif" font-size="14.00" fill="#000000"> &#160;Declarations</text>
<polygon fill="#8dd3c7" stroke="transparent" points="476,-10 476,-30 496,-30 496,-10 476,-10"/>
<text text-anchor="start" x="499.7251" y="-15.4" font-family="sans-serif" font-size="14.00" fill="#000000"> &#160;Module</text>
<polygon fill="#80b1d3" stroke="transparent" points="562,-10 562,-30 582,-30 582,-10 562,-10"/>
<text text-anchor="start" x="585.7812" y="-15.4" font-family="sans-serif" font-size="14.00" fill="#000000"> &#160;Bootstrap</text>
<polygon fill="#fdb462" stroke="transparent" points="659,-10 659,-30 679,-30 679,-10 659,-10"/>
<text text-anchor="start" x="682.6732" y="-15.4" font-family="sans-serif" font-size="14.00" fill="#000000"> &#160;Providers</text>
<polygon fill="#fb8072" stroke="transparent" points="755,-10 755,-30 775,-30 775,-10 755,-10"/>
<text text-anchor="start" x="778.7258" y="-15.4" font-family="sans-serif" font-size="14.00" fill="#000000"> &#160;Exports</text>
<g id="clust1" class="cluster">
<title>cluster_InscripcionModule</title>
<polygon fill="none" stroke="#000000" stroke-dasharray="1,5" points="8,-70 8,-268 1186,-268 1186,-70 8,-70"/>
</g>
<g id="clust3" class="cluster">
<title>cluster_InscripcionModule_imports</title>
<polygon fill="none" stroke="#000000" points="762,-78 762,-130 1178,-130 1178,-78 762,-78"/>
</g>
<g id="clust4" class="cluster">
<title>cluster_InscripcionModule_exports</title>
<polygon fill="none" stroke="#000000" points="567,-208 567,-260 759,-260 759,-208 567,-208"/>
</g>
<g id="clust6" class="cluster">
<title>cluster_InscripcionModule_providers</title>
<polygon fill="none" stroke="#000000" points="16,-78 16,-130 754,-130 754,-78 16,-78"/>
</g>
<!-- ThemeModule -->
<g id="node1" class="node">
<title>ThemeModule</title>
<polygon fill="#8dd3c7" stroke="#000000" points="1170.4231,-122 1167.4231,-126 1146.4231,-126 1143.4231,-122 1071.5769,-122 1071.5769,-86 1170.4231,-86 1170.4231,-122"/>
<text text-anchor="middle" x="1121" y="-99.8" font-family="Times,serif" font-size="14.00" fill="#000000">ThemeModule</text>
</g>
<!-- InscripcionModule -->
<g id="node4" class="node">
<title>InscripcionModule</title>
<polygon fill="#8dd3c7" stroke="#000000" points="724.0269,-187 721.0269,-191 700.0269,-191 697.0269,-187 601.9731,-187 601.9731,-151 724.0269,-151 724.0269,-187"/>
<text text-anchor="middle" x="663" y="-164.8" font-family="Times,serif" font-size="14.00" fill="#000000">InscripcionModule</text>
</g>
<!-- ThemeModule&#45;&gt;InscripcionModule -->
<g id="edge1" class="edge">
<title>ThemeModule&#45;&gt;InscripcionModule</title>
<path fill="none" stroke="#000000" d="M1121,-122.2921C1121,-144.2057 1121,-178 1121,-178 1121,-178 734.2927,-178 734.2927,-178"/>
<polygon fill="#000000" stroke="#000000" points="734.2927,-174.5001 724.2927,-178 734.2926,-181.5001 734.2927,-174.5001"/>
</g>
<!-- InscripcionRoutingModule -->
<g id="node2" class="node">
<title>InscripcionRoutingModule</title>
<polygon fill="#8dd3c7" stroke="#000000" points="1053.6442,-122 1050.6442,-126 1029.6442,-126 1026.6442,-122 886.3558,-122 886.3558,-86 1053.6442,-86 1053.6442,-122"/>
<text text-anchor="middle" x="970" y="-99.8" font-family="Times,serif" font-size="14.00" fill="#000000">InscripcionRoutingModule</text>
</g>
<!-- InscripcionRoutingModule&#45;&gt;InscripcionModule -->
<g id="edge2" class="edge">
<title>InscripcionRoutingModule&#45;&gt;InscripcionModule</title>
<path fill="none" stroke="#000000" d="M970,-122.1061C970,-141.3391 970,-169 970,-169 970,-169 734.3882,-169 734.3882,-169"/>
<polygon fill="#000000" stroke="#000000" points="734.3882,-165.5001 724.3882,-169 734.3881,-172.5001 734.3882,-165.5001"/>
</g>
<!-- SharedModule -->
<g id="node3" class="node">
<title>SharedModule</title>
<polygon fill="#8dd3c7" stroke="#000000" points="868.4231,-122 865.4231,-126 844.4231,-126 841.4231,-122 769.5769,-122 769.5769,-86 868.4231,-86 868.4231,-122"/>
<text text-anchor="middle" x="819" y="-99.8" font-family="Times,serif" font-size="14.00" fill="#000000">SharedModule</text>
</g>
<!-- SharedModule&#45;&gt;InscripcionModule -->
<g id="edge3" class="edge">
<title>SharedModule&#45;&gt;InscripcionModule</title>
<path fill="none" stroke="#000000" d="M819,-122.027C819,-138.3976 819,-160 819,-160 819,-160 734.2076,-160 734.2076,-160"/>
<polygon fill="#000000" stroke="#000000" points="734.2076,-156.5001 724.2076,-160 734.2076,-163.5001 734.2076,-156.5001"/>
</g>
<!-- CrudInscripcionComponent  -->
<g id="node5" class="node">
<title>CrudInscripcionComponent </title>
<polygon fill="#fb8072" stroke="#000000" points="750.8059,-252 575.1941,-252 575.1941,-216 750.8059,-216 750.8059,-252"/>
<text text-anchor="middle" x="663" y="-229.8" font-family="Times,serif" font-size="14.00" fill="#000000">CrudInscripcionComponent </text>
</g>
<!-- InscripcionModule&#45;&gt;CrudInscripcionComponent  -->
<g id="edge4" class="edge">
<title>InscripcionModule&#45;&gt;CrudInscripcionComponent </title>
<path fill="none" stroke="#000000" stroke-dasharray="5,2" d="M663,-187.1061C663,-187.1061 663,-205.991 663,-205.991"/>
<polygon fill="#000000" stroke="#000000" points="659.5001,-205.9909 663,-215.991 666.5001,-205.991 659.5001,-205.9909"/>
</g>
<!-- InscripcionService -->
<g id="node6" class="node">
<title>InscripcionService</title>
<ellipse fill="#fdb462" stroke="#000000" cx="663" cy="-104" rx="83.3635" ry="18"/>
<text text-anchor="middle" x="663" y="-99.8" font-family="Times,serif" font-size="14.00" fill="#000000">InscripcionService</text>
</g>
<!-- InscripcionService&#45;&gt;InscripcionModule -->
<g id="edge5" class="edge">
<title>InscripcionService&#45;&gt;InscripcionModule</title>
<path fill="none" stroke="#000000" d="M663,-122.1061C663,-122.1061 663,-140.991 663,-140.991"/>
<polygon fill="#000000" stroke="#000000" points="659.5001,-140.9909 663,-150.991 666.5001,-140.991 659.5001,-140.9909"/>
</g>
<!-- PersonaService -->
<g id="node7" class="node">
<title>PersonaService</title>
<ellipse fill="#fdb462" stroke="#000000" cx="491" cy="-104" rx="70.622" ry="18"/>
<text text-anchor="middle" x="491" y="-99.8" font-family="Times,serif" font-size="14.00" fill="#000000">PersonaService</text>
</g>
<!-- PersonaService&#45;&gt;InscripcionModule -->
<g id="edge6" class="edge">
<title>PersonaService&#45;&gt;InscripcionModule</title>
<path fill="none" stroke="#000000" d="M491,-122.027C491,-138.3976 491,-160 491,-160 491,-160 591.8749,-160 591.8749,-160"/>
<polygon fill="#000000" stroke="#000000" points="591.875,-163.5001 601.8749,-160 591.8749,-156.5001 591.875,-163.5001"/>
</g>
<!-- CoreService -->
<g id="node8" class="node">
<title>CoreService</title>
<ellipse fill="#fdb462" stroke="#000000" cx="344" cy="-104" rx="58.5251" ry="18"/>
<text text-anchor="middle" x="344" y="-99.8" font-family="Times,serif" font-size="14.00" fill="#000000">CoreService</text>
</g>
<!-- CoreService&#45;&gt;InscripcionModule -->
<g id="edge7" class="edge">
<title>CoreService&#45;&gt;InscripcionModule</title>
<path fill="none" stroke="#000000" d="M344,-122.1061C344,-141.3391 344,-169 344,-169 344,-169 591.871,-169 591.871,-169"/>
<polygon fill="#000000" stroke="#000000" points="591.8711,-172.5001 601.871,-169 591.871,-165.5001 591.8711,-172.5001"/>
</g>
<!-- ProgramaAcademicoService -->
<g id="node9" class="node">
<title>ProgramaAcademicoService</title>
<ellipse fill="#fdb462" stroke="#000000" cx="146" cy="-104" rx="121.5065" ry="18"/>
<text text-anchor="middle" x="146" y="-99.8" font-family="Times,serif" font-size="14.00" fill="#000000">ProgramaAcademicoService</text>
</g>
<!-- ProgramaAcademicoService&#45;&gt;InscripcionModule -->
<g id="edge8" class="edge">
<title>ProgramaAcademicoService&#45;&gt;InscripcionModule</title>
<path fill="none" stroke="#000000" d="M146,-122.2921C146,-144.2057 146,-178 146,-178 146,-178 591.9184,-178 591.9184,-178"/>
<polygon fill="#000000" stroke="#000000" points="591.9184,-181.5001 601.9184,-178 591.9183,-174.5001 591.9184,-181.5001"/>
</g>
</g>
</svg>
