<?xml version="1.0" encoding="UTF-8" standalone="no"?>
<!DOCTYPE svg PUBLIC "-//W3C//DTD SVG 1.1//EN"
 "http://www.w3.org/Graphics/SVG/1.1/DTD/svg11.dtd">
<!-- Generated by graphviz version 2.40.1 (20161225.0304)
 -->
<!-- Title: dependencies Pages: 1 -->
<svg width="1284pt" height="284pt"
 viewBox="0.00 0.00 1284.00 284.00" xmlns="http://www.w3.org/2000/svg" xmlns:xlink="http://www.w3.org/1999/xlink">
<g id="graph0" class="graph" transform="scale(1 1) rotate(0) translate(4 280)">
<title>dependencies</title>
<polygon fill="#ffffff" stroke="transparent" points="-4,4 -4,-280 1280,-280 1280,4 -4,4"/>
<text text-anchor="start" x="617.0091" y="-42.4" font-family="sans-serif" font-weight="bold" font-size="14.00" fill="#000000">Legend</text>
<polygon fill="#ffffb3" stroke="transparent" points="404,-10 404,-30 424,-30 424,-10 404,-10"/>
<text text-anchor="start" x="427.629" y="-15.4" font-family="sans-serif" font-size="14.00" fill="#000000"> &#160;Declarations</text>
<polygon fill="#8dd3c7" stroke="transparent" points="517,-10 517,-30 537,-30 537,-10 517,-10"/>
<text text-anchor="start" x="540.7251" y="-15.4" font-family="sans-serif" font-size="14.00" fill="#000000"> &#160;Module</text>
<polygon fill="#80b1d3" stroke="transparent" points="603,-10 603,-30 623,-30 623,-10 603,-10"/>
<text text-anchor="start" x="626.7812" y="-15.4" font-family="sans-serif" font-size="14.00" fill="#000000"> &#160;Bootstrap</text>
<polygon fill="#fdb462" stroke="transparent" points="700,-10 700,-30 720,-30 720,-10 700,-10"/>
<text text-anchor="start" x="723.6732" y="-15.4" font-family="sans-serif" font-size="14.00" fill="#000000"> &#160;Providers</text>
<polygon fill="#fb8072" stroke="transparent" points="796,-10 796,-30 816,-30 816,-10 796,-10"/>
<text text-anchor="start" x="819.7258" y="-15.4" font-family="sans-serif" font-size="14.00" fill="#000000"> &#160;Exports</text>
<g id="clust1" class="cluster">
<title>cluster_DescuentosDependenciaModule</title>
<polygon fill="none" stroke="#000000" stroke-dasharray="1,5" points="8,-70 8,-268 1268,-268 1268,-70 8,-70"/>
</g>
<g id="clust3" class="cluster">
<title>cluster_DescuentosDependenciaModule_imports</title>
<polygon fill="none" stroke="#000000" points="770,-78 770,-130 1260,-130 1260,-78 770,-78"/>
</g>
<g id="clust4" class="cluster">
<title>cluster_DescuentosDependenciaModule_exports</title>
<polygon fill="none" stroke="#000000" points="595,-208 595,-260 861,-260 861,-208 595,-208"/>
</g>
<g id="clust6" class="cluster">
<title>cluster_DescuentosDependenciaModule_providers</title>
<polygon fill="none" stroke="#000000" points="16,-78 16,-130 762,-130 762,-78 16,-78"/>
</g>
<!-- ThemeModule -->
<g id="node1" class="node">
<title>ThemeModule</title>
<polygon fill="#8dd3c7" stroke="#000000" points="1252.4231,-122 1249.4231,-126 1228.4231,-126 1225.4231,-122 1153.5769,-122 1153.5769,-86 1252.4231,-86 1252.4231,-122"/>
<text text-anchor="middle" x="1203" y="-99.8" font-family="Times,serif" font-size="14.00" fill="#000000">ThemeModule</text>
</g>
<!-- DescuentosDependenciaModule -->
<g id="node4" class="node">
<title>DescuentosDependenciaModule</title>
<polygon fill="#8dd3c7" stroke="#000000" points="826.6503,-187 823.6503,-191 802.6503,-191 799.6503,-187 629.3497,-187 629.3497,-151 826.6503,-151 826.6503,-187"/>
<text text-anchor="middle" x="728" y="-164.8" font-family="Times,serif" font-size="14.00" fill="#000000">DescuentosDependenciaModule</text>
</g>
<!-- ThemeModule&#45;&gt;DescuentosDependenciaModule -->
<g id="edge1" class="edge">
<title>ThemeModule&#45;&gt;DescuentosDependenciaModule</title>
<path fill="none" stroke="#000000" d="M1203,-122.2843C1203,-143.3211 1203,-175 1203,-175 1203,-175 836.7087,-175 836.7087,-175"/>
<polygon fill="#000000" stroke="#000000" points="836.7087,-171.5001 826.7087,-175 836.7087,-178.5001 836.7087,-171.5001"/>
</g>
<!-- DescuentosDependenciaRoutingModule -->
<g id="node2" class="node">
<title>DescuentosDependenciaRoutingModule</title>
<polygon fill="#8dd3c7" stroke="#000000" points="1136.2681,-122 1133.2681,-126 1112.2681,-126 1109.2681,-122 893.7319,-122 893.7319,-86 1136.2681,-86 1136.2681,-122"/>
<text text-anchor="middle" x="1015" y="-99.8" font-family="Times,serif" font-size="14.00" fill="#000000">DescuentosDependenciaRoutingModule</text>
</g>
<!-- DescuentosDependenciaRoutingModule&#45;&gt;DescuentosDependenciaModule -->
<g id="edge2" class="edge">
<title>DescuentosDependenciaRoutingModule&#45;&gt;DescuentosDependenciaModule</title>
<path fill="none" stroke="#000000" d="M1015,-122.0225C1015,-139.3734 1015,-163 1015,-163 1015,-163 836.7691,-163 836.7691,-163"/>
<polygon fill="#000000" stroke="#000000" points="836.7692,-159.5001 826.7691,-163 836.7691,-166.5001 836.7692,-159.5001"/>
</g>
<!-- SharedModule -->
<g id="node3" class="node">
<title>SharedModule</title>
<polygon fill="#8dd3c7" stroke="#000000" points="876.4231,-122 873.4231,-126 852.4231,-126 849.4231,-122 777.5769,-122 777.5769,-86 876.4231,-86 876.4231,-122"/>
<text text-anchor="middle" x="827" y="-99.8" font-family="Times,serif" font-size="14.00" fill="#000000">SharedModule</text>
</g>
<!-- SharedModule&#45;&gt;DescuentosDependenciaModule -->
<g id="edge3" class="edge">
<title>SharedModule&#45;&gt;DescuentosDependenciaModule</title>
<path fill="none" stroke="#000000" d="M802.182,-122.1061C802.182,-122.1061 802.182,-140.991 802.182,-140.991"/>
<polygon fill="#000000" stroke="#000000" points="798.6821,-140.9909 802.182,-150.991 805.6821,-140.991 798.6821,-140.9909"/>
</g>
<!-- CrudDescuentosDependenciaComponent  -->
<g id="node5" class="node">
<title>CrudDescuentosDependenciaComponent </title>
<polygon fill="#fb8072" stroke="#000000" points="853.4304,-252 602.5696,-252 602.5696,-216 853.4304,-216 853.4304,-252"/>
<text text-anchor="middle" x="728" y="-229.8" font-family="Times,serif" font-size="14.00" fill="#000000">CrudDescuentosDependenciaComponent </text>
</g>
<!-- DescuentosDependenciaModule&#45;&gt;CrudDescuentosDependenciaComponent  -->
<g id="edge4" class="edge">
<title>DescuentosDependenciaModule&#45;&gt;CrudDescuentosDependenciaComponent </title>
<path fill="none" stroke="#000000" stroke-dasharray="5,2" d="M728,-187.1061C728,-187.1061 728,-205.991 728,-205.991"/>
<polygon fill="#000000" stroke="#000000" points="724.5001,-205.9909 728,-215.991 731.5001,-205.991 724.5001,-205.9909"/>
</g>
<!-- DescuentoAcademicoService -->
<g id="node6" class="node">
<title>DescuentoAcademicoService</title>
<ellipse fill="#fdb462" stroke="#000000" cx="629" cy="-104" rx="124.9384" ry="18"/>
<text text-anchor="middle" x="629" y="-99.8" font-family="Times,serif" font-size="14.00" fill="#000000">DescuentoAcademicoService</text>
</g>
<!-- DescuentoAcademicoService&#45;&gt;DescuentosDependenciaModule -->
<g id="edge5" class="edge">
<title>DescuentoAcademicoService&#45;&gt;DescuentosDependenciaModule</title>
<path fill="none" stroke="#000000" d="M691.572,-119.7347C691.572,-119.7347 691.572,-140.6451 691.572,-140.6451"/>
<polygon fill="#000000" stroke="#000000" points="688.0721,-140.645 691.572,-150.6451 695.0721,-140.6451 688.0721,-140.645"/>
</g>
<!-- ProgramaAcademicoService -->
<g id="node7" class="node">
<title>ProgramaAcademicoService</title>
<ellipse fill="#fdb462" stroke="#000000" cx="365" cy="-104" rx="121.5065" ry="18"/>
<text text-anchor="middle" x="365" y="-99.8" font-family="Times,serif" font-size="14.00" fill="#000000">ProgramaAcademicoService</text>
</g>
<!-- ProgramaAcademicoService&#45;&gt;DescuentosDependenciaModule -->
<g id="edge6" class="edge">
<title>ProgramaAcademicoService&#45;&gt;DescuentosDependenciaModule</title>
<path fill="none" stroke="#000000" d="M365,-122.0225C365,-139.3734 365,-163 365,-163 365,-163 619.2881,-163 619.2881,-163"/>
<polygon fill="#000000" stroke="#000000" points="619.2882,-166.5001 629.2881,-163 619.2881,-159.5001 619.2882,-166.5001"/>
</g>
<!-- ProgramaOikosService -->
<g id="node8" class="node">
<title>ProgramaOikosService</title>
<ellipse fill="#fdb462" stroke="#000000" cx="125" cy="-104" rx="100.6998" ry="18"/>
<text text-anchor="middle" x="125" y="-99.8" font-family="Times,serif" font-size="14.00" fill="#000000">ProgramaOikosService</text>
</g>
<!-- ProgramaOikosService&#45;&gt;DescuentosDependenciaModule -->
<g id="edge7" class="edge">
<title>ProgramaOikosService&#45;&gt;DescuentosDependenciaModule</title>
<path fill="none" stroke="#000000" d="M125,-122.2843C125,-143.3211 125,-175 125,-175 125,-175 619.102,-175 619.102,-175"/>
<polygon fill="#000000" stroke="#000000" points="619.1021,-178.5001 629.102,-175 619.102,-171.5001 619.1021,-178.5001"/>
</g>
</g>
</svg>
