<?xml version="1.0" encoding="UTF-8" standalone="no"?>
<!DOCTYPE svg PUBLIC "-//W3C//DTD SVG 1.1//EN"
 "http://www.w3.org/Graphics/SVG/1.1/DTD/svg11.dtd">
<!-- Generated by graphviz version 2.40.1 (20161225.0304)
 -->
<!-- Title: dependencies Pages: 1 -->
<svg width="1023pt" height="284pt"
 viewBox="0.00 0.00 1023.00 284.00" xmlns="http://www.w3.org/2000/svg" xmlns:xlink="http://www.w3.org/1999/xlink">
<g id="graph0" class="graph" transform="scale(1 1) rotate(0) translate(4 280)">
<title>dependencies</title>
<polygon fill="#ffffff" stroke="transparent" points="-4,4 -4,-280 1019,-280 1019,4 -4,4"/>
<text text-anchor="start" x="486.5091" y="-42.4" font-family="sans-serif" font-weight="bold" font-size="14.00" fill="#000000">Legend</text>
<polygon fill="#ffffb3" stroke="transparent" points="273.5,-10 273.5,-30 293.5,-30 293.5,-10 273.5,-10"/>
<text text-anchor="start" x="297.129" y="-15.4" font-family="sans-serif" font-size="14.00" fill="#000000"> &#160;Declarations</text>
<polygon fill="#8dd3c7" stroke="transparent" points="386.5,-10 386.5,-30 406.5,-30 406.5,-10 386.5,-10"/>
<text text-anchor="start" x="410.2251" y="-15.4" font-family="sans-serif" font-size="14.00" fill="#000000"> &#160;Module</text>
<polygon fill="#80b1d3" stroke="transparent" points="472.5,-10 472.5,-30 492.5,-30 492.5,-10 472.5,-10"/>
<text text-anchor="start" x="496.2812" y="-15.4" font-family="sans-serif" font-size="14.00" fill="#000000"> &#160;Bootstrap</text>
<polygon fill="#fdb462" stroke="transparent" points="569.5,-10 569.5,-30 589.5,-30 589.5,-10 569.5,-10"/>
<text text-anchor="start" x="593.1732" y="-15.4" font-family="sans-serif" font-size="14.00" fill="#000000"> &#160;Providers</text>
<polygon fill="#fb8072" stroke="transparent" points="665.5,-10 665.5,-30 685.5,-30 685.5,-10 665.5,-10"/>
<text text-anchor="start" x="689.2258" y="-15.4" font-family="sans-serif" font-size="14.00" fill="#000000"> &#160;Exports</text>
<g id="clust1" class="cluster">
<title>cluster_DescuentosDependenciaModule</title>
<polygon fill="none" stroke="#000000" stroke-dasharray="1,5" points="8,-70 8,-268 1007,-268 1007,-70 8,-70"/>
</g>
<g id="clust3" class="cluster">
<title>cluster_DescuentosDependenciaModule_imports</title>
<polygon fill="none" stroke="#000000" points="509,-78 509,-130 999,-130 999,-78 509,-78"/>
</g>
<g id="clust4" class="cluster">
<title>cluster_DescuentosDependenciaModule_exports</title>
<polygon fill="none" stroke="#000000" points="433,-208 433,-260 699,-260 699,-208 433,-208"/>
</g>
<g id="clust6" class="cluster">
<title>cluster_DescuentosDependenciaModule_providers</title>
<polygon fill="none" stroke="#000000" points="16,-78 16,-130 501,-130 501,-78 16,-78"/>
</g>
<!-- ThemeModule -->
<g id="node1" class="node">
<title>ThemeModule</title>
<polygon fill="#8dd3c7" stroke="#000000" points="991.4231,-122 988.4231,-126 967.4231,-126 964.4231,-122 892.5769,-122 892.5769,-86 991.4231,-86 991.4231,-122"/>
<text text-anchor="middle" x="942" y="-99.8" font-family="Times,serif" font-size="14.00" fill="#000000">ThemeModule</text>
</g>
<!-- DescuentosDependenciaModule -->
<g id="node4" class="node">
<title>DescuentosDependenciaModule</title>
<polygon fill="#8dd3c7" stroke="#000000" points="664.6503,-187 661.6503,-191 640.6503,-191 637.6503,-187 467.3497,-187 467.3497,-151 664.6503,-151 664.6503,-187"/>
<text text-anchor="middle" x="566" y="-164.8" font-family="Times,serif" font-size="14.00" fill="#000000">DescuentosDependenciaModule</text>
</g>
<!-- ThemeModule&#45;&gt;DescuentosDependenciaModule -->
<g id="edge1" class="edge">
<title>ThemeModule&#45;&gt;DescuentosDependenciaModule</title>
<path fill="none" stroke="#000000" d="M942,-122.1061C942,-141.3391 942,-169 942,-169 942,-169 674.7896,-169 674.7896,-169"/>
<polygon fill="#000000" stroke="#000000" points="674.7896,-165.5001 664.7896,-169 674.7895,-172.5001 674.7896,-165.5001"/>
</g>
<!-- DescuentosDependenciaRoutingModule -->
<g id="node2" class="node">
<title>DescuentosDependenciaRoutingModule</title>
<polygon fill="#8dd3c7" stroke="#000000" points="875.2681,-122 872.2681,-126 851.2681,-126 848.2681,-122 632.7319,-122 632.7319,-86 875.2681,-86 875.2681,-122"/>
<text text-anchor="middle" x="754" y="-99.8" font-family="Times,serif" font-size="14.00" fill="#000000">DescuentosDependenciaRoutingModule</text>
</g>
<!-- DescuentosDependenciaRoutingModule&#45;&gt;DescuentosDependenciaModule -->
<g id="edge2" class="edge">
<title>DescuentosDependenciaRoutingModule&#45;&gt;DescuentosDependenciaModule</title>
<path fill="none" stroke="#000000" d="M648.7206,-122.1061C648.7206,-122.1061 648.7206,-140.991 648.7206,-140.991"/>
<polygon fill="#000000" stroke="#000000" points="645.2206,-140.9909 648.7206,-150.991 652.2206,-140.991 645.2206,-140.9909"/>
</g>
<!-- SharedModule -->
<g id="node3" class="node">
<title>SharedModule</title>
<polygon fill="#8dd3c7" stroke="#000000" points="615.4231,-122 612.4231,-126 591.4231,-126 588.4231,-122 516.5769,-122 516.5769,-86 615.4231,-86 615.4231,-122"/>
<text text-anchor="middle" x="566" y="-99.8" font-family="Times,serif" font-size="14.00" fill="#000000">SharedModule</text>
</g>
<!-- SharedModule&#45;&gt;DescuentosDependenciaModule -->
<g id="edge3" class="edge">
<title>SharedModule&#45;&gt;DescuentosDependenciaModule</title>
<path fill="none" stroke="#000000" d="M566,-122.1061C566,-122.1061 566,-140.991 566,-140.991"/>
<polygon fill="#000000" stroke="#000000" points="562.5001,-140.9909 566,-150.991 569.5001,-140.991 562.5001,-140.9909"/>
</g>
<!-- CrudDescuentosDependenciaComponent  -->
<g id="node5" class="node">
<title>CrudDescuentosDependenciaComponent </title>
<polygon fill="#fb8072" stroke="#000000" points="691.4304,-252 440.5696,-252 440.5696,-216 691.4304,-216 691.4304,-252"/>
<text text-anchor="middle" x="566" y="-229.8" font-family="Times,serif" font-size="14.00" fill="#000000">CrudDescuentosDependenciaComponent </text>
</g>
<!-- DescuentosDependenciaModule&#45;&gt;CrudDescuentosDependenciaComponent  -->
<g id="edge4" class="edge">
<title>DescuentosDependenciaModule&#45;&gt;CrudDescuentosDependenciaComponent </title>
<path fill="none" stroke="#000000" stroke-dasharray="5,2" d="M566,-187.1061C566,-187.1061 566,-205.991 566,-205.991"/>
<polygon fill="#000000" stroke="#000000" points="562.5001,-205.9909 566,-215.991 569.5001,-205.991 562.5001,-205.9909"/>
</g>
<!-- DescuentoAcademicoService -->
<g id="node6" class="node">
<title>DescuentoAcademicoService</title>
<ellipse fill="#fdb462" stroke="#000000" cx="368" cy="-104" rx="124.9384" ry="18"/>
<text text-anchor="middle" x="368" y="-99.8" font-family="Times,serif" font-size="14.00" fill="#000000">DescuentoAcademicoService</text>
</g>
<!-- DescuentoAcademicoService&#45;&gt;DescuentosDependenciaModule -->
<g id="edge5" class="edge">
<title>DescuentoAcademicoService&#45;&gt;DescuentosDependenciaModule</title>
<path fill="none" stroke="#000000" d="M480.072,-111.9703C480.072,-111.9703 480.072,-140.8723 480.072,-140.8723"/>
<polygon fill="#000000" stroke="#000000" points="476.5721,-140.8722 480.072,-150.8723 483.5721,-140.8723 476.5721,-140.8722"/>
</g>
<!-- ProgramaOikosService -->
<g id="node7" class="node">
<title>ProgramaOikosService</title>
<ellipse fill="#fdb462" stroke="#000000" cx="125" cy="-104" rx="100.6998" ry="18"/>
<text text-anchor="middle" x="125" y="-99.8" font-family="Times,serif" font-size="14.00" fill="#000000">ProgramaOikosService</text>
</g>
<!-- ProgramaOikosService&#45;&gt;DescuentosDependenciaModule -->
<g id="edge6" class="edge">
<title>ProgramaOikosService&#45;&gt;DescuentosDependenciaModule</title>
<path fill="none" stroke="#000000" d="M125,-122.1061C125,-141.3391 125,-169 125,-169 125,-169 457.3056,-169 457.3056,-169"/>
<polygon fill="#000000" stroke="#000000" points="457.3056,-172.5001 467.3056,-169 457.3055,-165.5001 457.3056,-172.5001"/>
</g>
</g>
</svg>
