<?xml version="1.0" encoding="UTF-8" standalone="no"?>
<!DOCTYPE svg PUBLIC "-//W3C//DTD SVG 1.1//EN"
 "http://www.w3.org/Graphics/SVG/1.1/DTD/svg11.dtd">
<!-- Generated by graphviz version 2.40.1 (20161225.0304)
 -->
<!-- Title: dependencies Pages: 1 -->
<svg width="2308pt" height="284pt"
 viewBox="0.00 0.00 2308.00 284.00" xmlns="http://www.w3.org/2000/svg" xmlns:xlink="http://www.w3.org/1999/xlink">
<g id="graph0" class="graph" transform="scale(1 1) rotate(0) translate(4 280)">
<title>dependencies</title>
<polygon fill="#ffffff" stroke="transparent" points="-4,4 -4,-280 2304,-280 2304,4 -4,4"/>
<text text-anchor="start" x="1129.0091" y="-42.4" font-family="sans-serif" font-weight="bold" font-size="14.00" fill="#000000">Legend</text>
<polygon fill="#ffffb3" stroke="transparent" points="916,-10 916,-30 936,-30 936,-10 916,-10"/>
<text text-anchor="start" x="939.629" y="-15.4" font-family="sans-serif" font-size="14.00" fill="#000000"> &#160;Declarations</text>
<polygon fill="#8dd3c7" stroke="transparent" points="1029,-10 1029,-30 1049,-30 1049,-10 1029,-10"/>
<text text-anchor="start" x="1052.7251" y="-15.4" font-family="sans-serif" font-size="14.00" fill="#000000"> &#160;Module</text>
<polygon fill="#80b1d3" stroke="transparent" points="1115,-10 1115,-30 1135,-30 1135,-10 1115,-10"/>
<text text-anchor="start" x="1138.7812" y="-15.4" font-family="sans-serif" font-size="14.00" fill="#000000"> &#160;Bootstrap</text>
<polygon fill="#fdb462" stroke="transparent" points="1212,-10 1212,-30 1232,-30 1232,-10 1212,-10"/>
<text text-anchor="start" x="1235.6732" y="-15.4" font-family="sans-serif" font-size="14.00" fill="#000000"> &#160;Providers</text>
<polygon fill="#fb8072" stroke="transparent" points="1308,-10 1308,-30 1328,-30 1328,-10 1308,-10"/>
<text text-anchor="start" x="1331.7258" y="-15.4" font-family="sans-serif" font-size="14.00" fill="#000000"> &#160;Exports</text>
<g id="clust1" class="cluster">
<title>cluster_VistaInformacionModule</title>
<polygon fill="none" stroke="#000000" stroke-dasharray="1,5" points="8,-70 8,-268 2292,-268 2292,-70 8,-70"/>
</g>
<g id="clust3" class="cluster">
<title>cluster_VistaInformacionModule_imports</title>
<polygon fill="none" stroke="#000000" points="1794,-78 1794,-130 2246,-130 2246,-78 1794,-78"/>
</g>
<g id="clust4" class="cluster">
<title>cluster_VistaInformacionModule_exports</title>
<polygon fill="none" stroke="#000000" points="16,-208 16,-260 2284,-260 2284,-208 16,-208"/>
</g>
<g id="clust6" class="cluster">
<title>cluster_VistaInformacionModule_providers</title>
<polygon fill="none" stroke="#000000" points="44,-78 44,-130 1786,-130 1786,-78 44,-78"/>
</g>
<!-- ThemeModule -->
<g id="node1" class="node">
<title>ThemeModule</title>
<polygon fill="#8dd3c7" stroke="#000000" points="2238.4231,-122 2235.4231,-126 2214.4231,-126 2211.4231,-122 2139.5769,-122 2139.5769,-86 2238.4231,-86 2238.4231,-122"/>
<text text-anchor="middle" x="2189" y="-99.8" font-family="Times,serif" font-size="14.00" fill="#000000">ThemeModule</text>
</g>
<!-- VistaInformacionModule -->
<g id="node4" class="node">
<title>VistaInformacionModule</title>
<polygon fill="#8dd3c7" stroke="#000000" points="1302.2893,-187 1299.2893,-191 1278.2893,-191 1275.2893,-187 1143.7107,-187 1143.7107,-151 1302.2893,-151 1302.2893,-187"/>
<text text-anchor="middle" x="1223" y="-164.8" font-family="Times,serif" font-size="14.00" fill="#000000">VistaInformacionModule</text>
</g>
<!-- ThemeModule&#45;&gt;VistaInformacionModule -->
<g id="edge1" class="edge">
<title>ThemeModule&#45;&gt;VistaInformacionModule</title>
<path fill="none" stroke="#000000" d="M2189,-122.308C2189,-142.1455 2189,-171 2189,-171 2189,-171 1312.4623,-171 1312.4623,-171"/>
<polygon fill="#000000" stroke="#000000" points="1312.4623,-167.5001 1302.4623,-171 1312.4623,-174.5001 1312.4623,-167.5001"/>
</g>
<!-- VistaInformacionRoutingModule -->
<g id="node2" class="node">
<title>VistaInformacionRoutingModule</title>
<polygon fill="#8dd3c7" stroke="#000000" points="2121.9072,-122 2118.9072,-126 2097.9072,-126 2094.9072,-122 1918.0928,-122 1918.0928,-86 2121.9072,-86 2121.9072,-122"/>
<text text-anchor="middle" x="2020" y="-99.8" font-family="Times,serif" font-size="14.00" fill="#000000">VistaInformacionRoutingModule</text>
</g>
<!-- VistaInformacionRoutingModule&#45;&gt;VistaInformacionModule -->
<g id="edge2" class="edge">
<title>VistaInformacionRoutingModule&#45;&gt;VistaInformacionModule</title>
<path fill="none" stroke="#000000" d="M1997.0044,-122.1686C1997.0044,-141.0898 1997.0044,-168 1997.0044,-168 1997.0044,-168 1312.1946,-168 1312.1946,-168"/>
<polygon fill="#000000" stroke="#000000" points="1312.1947,-164.5001 1302.1946,-168 1312.1946,-171.5001 1312.1947,-164.5001"/>
</g>
<!-- SharedModule -->
<g id="node3" class="node">
<title>SharedModule</title>
<polygon fill="#8dd3c7" stroke="#000000" points="1900.4231,-122 1897.4231,-126 1876.4231,-126 1873.4231,-122 1801.5769,-122 1801.5769,-86 1900.4231,-86 1900.4231,-122"/>
<text text-anchor="middle" x="1851" y="-99.8" font-family="Times,serif" font-size="14.00" fill="#000000">SharedModule</text>
</g>
<!-- SharedModule&#45;&gt;VistaInformacionModule -->
<g id="edge3" class="edge">
<title>SharedModule&#45;&gt;VistaInformacionModule</title>
<path fill="none" stroke="#000000" d="M1822.117,-122.302C1822.117,-140.2699 1822.117,-165 1822.117,-165 1822.117,-165 1312.2489,-165 1312.2489,-165"/>
<polygon fill="#000000" stroke="#000000" points="1312.2489,-161.5001 1302.2489,-165 1312.2489,-168.5001 1312.2489,-161.5001"/>
</g>
<!-- ViewInfoPersonaComponent  -->
<g id="node5" class="node">
<title>ViewInfoPersonaComponent </title>
<polygon fill="#fb8072" stroke="#000000" points="2276.2891,-252 2093.7109,-252 2093.7109,-216 2276.2891,-216 2276.2891,-252"/>
<text text-anchor="middle" x="2185" y="-229.8" font-family="Times,serif" font-size="14.00" fill="#000000">ViewInfoPersonaComponent </text>
</g>
<!-- VistaInformacionModule&#45;&gt;ViewInfoPersonaComponent  -->
<g id="edge4" class="edge">
<title>VistaInformacionModule&#45;&gt;ViewInfoPersonaComponent </title>
<path fill="none" stroke="#000000" stroke-dasharray="5,2" d="M1302.2857,-174C1519.4251,-174 2107.6545,-174 2107.6545,-174 2107.6545,-174 2107.6545,-205.998 2107.6545,-205.998"/>
<polygon fill="#000000" stroke="#000000" points="2104.1545,-205.998 2107.6545,-215.998 2111.1545,-205.9981 2104.1545,-205.998"/>
</g>
<!-- ViewInfoCaracteristicaComponent  -->
<g id="node6" class="node">
<title>ViewInfoCaracteristicaComponent </title>
<polygon fill="#fb8072" stroke="#000000" points="2075.9248,-252 1860.0752,-252 1860.0752,-216 2075.9248,-216 2075.9248,-252"/>
<text text-anchor="middle" x="1968" y="-229.8" font-family="Times,serif" font-size="14.00" fill="#000000">ViewInfoCaracteristicaComponent </text>
</g>
<!-- VistaInformacionModule&#45;&gt;ViewInfoCaracteristicaComponent  -->
<g id="edge5" class="edge">
<title>VistaInformacionModule&#45;&gt;ViewInfoCaracteristicaComponent </title>
<path fill="none" stroke="#000000" stroke-dasharray="5,2" d="M1302.2796,-178C1477.0879,-178 1880.2495,-178 1880.2495,-178 1880.2495,-178 1880.2495,-205.973 1880.2495,-205.973"/>
<polygon fill="#000000" stroke="#000000" points="1876.7495,-205.973 1880.2495,-215.973 1883.7495,-205.973 1876.7495,-205.973"/>
</g>
<!-- ViewInformacionContactoComponent  -->
<g id="node7" class="node">
<title>ViewInformacionContactoComponent </title>
<polygon fill="#fb8072" stroke="#000000" points="1842.39,-252 1607.61,-252 1607.61,-216 1842.39,-216 1842.39,-252"/>
<text text-anchor="middle" x="1725" y="-229.8" font-family="Times,serif" font-size="14.00" fill="#000000">ViewInformacionContactoComponent </text>
</g>
<!-- VistaInformacionModule&#45;&gt;ViewInformacionContactoComponent  -->
<g id="edge6" class="edge">
<title>VistaInformacionModule&#45;&gt;ViewInformacionContactoComponent </title>
<path fill="none" stroke="#000000" stroke-dasharray="5,2" d="M1302.5497,-181C1419.8929,-181 1625.6452,-181 1625.6452,-181 1625.6452,-181 1625.6452,-205.7604 1625.6452,-205.7604"/>
<polygon fill="#000000" stroke="#000000" points="1622.1453,-205.7604 1625.6452,-215.7604 1629.1453,-205.7604 1622.1453,-205.7604"/>
</g>
<!-- ViewFormacionAcademicaComponent  -->
<g id="node8" class="node">
<title>ViewFormacionAcademicaComponent </title>
<polygon fill="#fb8072" stroke="#000000" points="1589.2653,-252 1350.7347,-252 1350.7347,-216 1589.2653,-216 1589.2653,-252"/>
<text text-anchor="middle" x="1470" y="-229.8" font-family="Times,serif" font-size="14.00" fill="#000000">ViewFormacionAcademicaComponent </text>
</g>
<!-- VistaInformacionModule&#45;&gt;ViewFormacionAcademicaComponent  -->
<g id="edge7" class="edge">
<title>VistaInformacionModule&#45;&gt;ViewFormacionAcademicaComponent </title>
<path fill="none" stroke="#000000" stroke-dasharray="5,2" d="M1302.354,-184C1357.9412,-184 1422.3319,-184 1422.3319,-184 1422.3319,-184 1422.3319,-205.9489 1422.3319,-205.9489"/>
<polygon fill="#000000" stroke="#000000" points="1418.832,-205.9488 1422.3319,-215.9489 1425.832,-205.9489 1418.832,-205.9488"/>
</g>
<!-- ViewIdiomasComponent  -->
<g id="node9" class="node">
<title>ViewIdiomasComponent </title>
<polygon fill="#fb8072" stroke="#000000" points="1332.252,-252 1171.748,-252 1171.748,-216 1332.252,-216 1332.252,-252"/>
<text text-anchor="middle" x="1252" y="-229.8" font-family="Times,serif" font-size="14.00" fill="#000000">ViewIdiomasComponent </text>
</g>
<!-- VistaInformacionModule&#45;&gt;ViewIdiomasComponent  -->
<g id="edge8" class="edge">
<title>VistaInformacionModule&#45;&gt;ViewIdiomasComponent </title>
<path fill="none" stroke="#000000" stroke-dasharray="5,2" d="M1237.0093,-187.1061C1237.0093,-187.1061 1237.0093,-205.991 1237.0093,-205.991"/>
<polygon fill="#000000" stroke="#000000" points="1233.5094,-205.9909 1237.0093,-215.991 1240.5094,-205.991 1233.5094,-205.9909"/>
</g>
<!-- ViewExperienciaLaboralComponent  -->
<g id="node10" class="node">
<title>ViewExperienciaLaboralComponent </title>
<polygon fill="#fb8072" stroke="#000000" points="1153.5371,-252 928.4629,-252 928.4629,-216 1153.5371,-216 1153.5371,-252"/>
<text text-anchor="middle" x="1041" y="-229.8" font-family="Times,serif" font-size="14.00" fill="#000000">ViewExperienciaLaboralComponent </text>
</g>
<!-- VistaInformacionModule&#45;&gt;ViewExperienciaLaboralComponent  -->
<g id="edge9" class="edge">
<title>VistaInformacionModule&#45;&gt;ViewExperienciaLaboralComponent </title>
<path fill="none" stroke="#000000" stroke-dasharray="5,2" d="M1148.8119,-187.1061C1148.8119,-187.1061 1148.8119,-205.991 1148.8119,-205.991"/>
<polygon fill="#000000" stroke="#000000" points="1145.312,-205.9909 1148.8119,-215.991 1152.312,-205.991 1145.312,-205.9909"/>
</g>
<!-- ViewDocumentoProgramaComponent  -->
<g id="node11" class="node">
<title>ViewDocumentoProgramaComponent </title>
<polygon fill="#fb8072" stroke="#000000" points="910.3914,-252 675.6086,-252 675.6086,-216 910.3914,-216 910.3914,-252"/>
<text text-anchor="middle" x="793" y="-229.8" font-family="Times,serif" font-size="14.00" fill="#000000">ViewDocumentoProgramaComponent </text>
</g>
<!-- VistaInformacionModule&#45;&gt;ViewDocumentoProgramaComponent  -->
<g id="edge10" class="edge">
<title>VistaInformacionModule&#45;&gt;ViewDocumentoProgramaComponent </title>
<path fill="none" stroke="#000000" stroke-dasharray="5,2" d="M1143.4131,-184C1036.6587,-184 860.3418,-184 860.3418,-184 860.3418,-184 860.3418,-205.9489 860.3418,-205.9489"/>
<polygon fill="#000000" stroke="#000000" points="856.8419,-205.9488 860.3418,-215.9489 863.8419,-205.9489 856.8419,-205.9488"/>
</g>
<!-- ViewDescuentoAcademicoComponent  -->
<g id="node12" class="node">
<title>ViewDescuentoAcademicoComponent </title>
<polygon fill="#fb8072" stroke="#000000" points="657.9826,-252 420.0174,-252 420.0174,-216 657.9826,-216 657.9826,-252"/>
<text text-anchor="middle" x="539" y="-229.8" font-family="Times,serif" font-size="14.00" fill="#000000">ViewDescuentoAcademicoComponent </text>
</g>
<!-- VistaInformacionModule&#45;&gt;ViewDescuentoAcademicoComponent  -->
<g id="edge11" class="edge">
<title>VistaInformacionModule&#45;&gt;ViewDescuentoAcademicoComponent </title>
<path fill="none" stroke="#000000" stroke-dasharray="5,2" d="M1143.7738,-181C986.2776,-181 648.8798,-181 648.8798,-181 648.8798,-181 648.8798,-205.7604 648.8798,-205.7604"/>
<polygon fill="#000000" stroke="#000000" points="645.3799,-205.7604 648.8798,-215.7604 652.3799,-205.7604 645.3799,-205.7604"/>
</g>
<!-- ViewPropuestaGradoComponent  -->
<g id="node13" class="node">
<title>ViewPropuestaGradoComponent </title>
<polygon fill="#fb8072" stroke="#000000" points="401.8405,-252 196.1595,-252 196.1595,-216 401.8405,-216 401.8405,-252"/>
<text text-anchor="middle" x="299" y="-229.8" font-family="Times,serif" font-size="14.00" fill="#000000">ViewPropuestaGradoComponent </text>
</g>
<!-- VistaInformacionModule&#45;&gt;ViewPropuestaGradoComponent  -->
<g id="edge12" class="edge">
<title>VistaInformacionModule&#45;&gt;ViewPropuestaGradoComponent </title>
<path fill="none" stroke="#000000" stroke-dasharray="5,2" d="M1143.7686,-178C920.6202,-178 303.0417,-178 303.0417,-178 303.0417,-178 303.0417,-205.973 303.0417,-205.973"/>
<polygon fill="#000000" stroke="#000000" points="299.5418,-205.973 303.0417,-215.973 306.5418,-205.973 299.5418,-205.973"/>
</g>
<!-- ViewReciboComponent  -->
<g id="node14" class="node">
<title>ViewReciboComponent </title>
<polygon fill="#fb8072" stroke="#000000" points="178.3073,-252 23.6927,-252 23.6927,-216 178.3073,-216 178.3073,-252"/>
<text text-anchor="middle" x="101" y="-229.8" font-family="Times,serif" font-size="14.00" fill="#000000">ViewReciboComponent </text>
</g>
<!-- VistaInformacionModule&#45;&gt;ViewReciboComponent  -->
<g id="edge13" class="edge">
<title>VistaInformacionModule&#45;&gt;ViewReciboComponent </title>
<path fill="none" stroke="#000000" stroke-dasharray="5,2" d="M1143.7621,-174C890.1744,-174 115.0287,-174 115.0287,-174 115.0287,-174 115.0287,-205.998 115.0287,-205.998"/>
<polygon fill="#000000" stroke="#000000" points="111.5288,-205.998 115.0287,-215.998 118.5288,-205.9981 111.5288,-205.998"/>
</g>
<!-- UserService -->
<g id="node15" class="node">
<title>UserService</title>
<ellipse fill="#fdb462" stroke="#000000" cx="1720" cy="-104" rx="58.4415" ry="18"/>
<text text-anchor="middle" x="1720" y="-99.8" font-family="Times,serif" font-size="14.00" fill="#000000">UserService</text>
</g>
<!-- UserService&#45;&gt;VistaInformacionModule -->
<g id="edge14" class="edge">
<title>UserService&#45;&gt;VistaInformacionModule</title>
<path fill="none" stroke="#000000" d="M1720,-122.0352C1720,-138.7344 1720,-161 1720,-161 1720,-161 1312.3007,-161 1312.3007,-161"/>
<polygon fill="#000000" stroke="#000000" points="1312.3007,-157.5001 1302.3007,-161 1312.3007,-164.5001 1312.3007,-157.5001"/>
</g>
<!-- NuxeoService -->
<g id="node16" class="node">
<title>NuxeoService</title>
<ellipse fill="#fdb462" stroke="#000000" cx="1578" cy="-104" rx="65.9716" ry="18"/>
<text text-anchor="middle" x="1578" y="-99.8" font-family="Times,serif" font-size="14.00" fill="#000000">NuxeoService</text>
</g>
<!-- NuxeoService&#45;&gt;VistaInformacionModule -->
<g id="edge15" class="edge">
<title>NuxeoService&#45;&gt;VistaInformacionModule</title>
<path fill="none" stroke="#000000" d="M1550.8236,-120.4952C1550.8236,-136.3756 1550.8236,-158 1550.8236,-158 1550.8236,-158 1312.357,-158 1312.357,-158"/>
<polygon fill="#000000" stroke="#000000" points="1312.357,-154.5001 1302.357,-158 1312.3569,-161.5001 1312.357,-154.5001"/>
</g>
<!-- DocumentoService -->
<g id="node17" class="node">
<title>DocumentoService</title>
<ellipse fill="#fdb462" stroke="#000000" cx="1409" cy="-104" rx="85.0928" ry="18"/>
<text text-anchor="middle" x="1409" y="-99.8" font-family="Times,serif" font-size="14.00" fill="#000000">DocumentoService</text>
</g>
<!-- DocumentoService&#45;&gt;VistaInformacionModule -->
<g id="edge16" class="edge">
<title>DocumentoService&#45;&gt;VistaInformacionModule</title>
<path fill="none" stroke="#000000" d="M1328.0398,-109.8503C1328.0398,-123.2464 1328.0398,-155 1328.0398,-155 1328.0398,-155 1312.3441,-155 1312.3441,-155"/>
<polygon fill="#000000" stroke="#000000" points="1312.3442,-151.5001 1302.3441,-155 1312.3441,-158.5001 1312.3442,-151.5001"/>
</g>
<!-- InscripcionService -->
<g id="node18" class="node">
<title>InscripcionService</title>
<ellipse fill="#fdb462" stroke="#000000" cx="1223" cy="-104" rx="83.3635" ry="18"/>
<text text-anchor="middle" x="1223" y="-99.8" font-family="Times,serif" font-size="14.00" fill="#000000">InscripcionService</text>
</g>
<!-- InscripcionService&#45;&gt;VistaInformacionModule -->
<g id="edge17" class="edge">
<title>InscripcionService&#45;&gt;VistaInformacionModule</title>
<path fill="none" stroke="#000000" d="M1223,-122.1061C1223,-122.1061 1223,-140.991 1223,-140.991"/>
<polygon fill="#000000" stroke="#000000" points="1219.5001,-140.9909 1223,-150.991 1226.5001,-140.991 1219.5001,-140.9909"/>
</g>
<!-- CampusMidService -->
<g id="node19" class="node">
<title>CampusMidService</title>
<ellipse fill="#fdb462" stroke="#000000" cx="1034" cy="-104" rx="87.98" ry="18"/>
<text text-anchor="middle" x="1034" y="-99.8" font-family="Times,serif" font-size="14.00" fill="#000000">CampusMidService</text>
</g>
<!-- CampusMidService&#45;&gt;VistaInformacionModule -->
<g id="edge18" class="edge">
<title>CampusMidService&#45;&gt;VistaInformacionModule</title>
<path fill="none" stroke="#000000" d="M1034,-122.1243C1034,-136.7832 1034,-155 1034,-155 1034,-155 1133.6685,-155 1133.6685,-155"/>
<polygon fill="#000000" stroke="#000000" points="1133.6685,-158.5001 1143.6685,-155 1133.6684,-151.5001 1133.6685,-158.5001"/>
</g>
<!-- CoreService -->
<g id="node20" class="node">
<title>CoreService</title>
<ellipse fill="#fdb462" stroke="#000000" cx="869" cy="-104" rx="58.5251" ry="18"/>
<text text-anchor="middle" x="869" y="-99.8" font-family="Times,serif" font-size="14.00" fill="#000000">CoreService</text>
</g>
<!-- CoreService&#45;&gt;VistaInformacionModule -->
<g id="edge19" class="edge">
<title>CoreService&#45;&gt;VistaInformacionModule</title>
<path fill="none" stroke="#000000" d="M919.1039,-113.4061C919.1039,-128.8774 919.1039,-158 919.1039,-158 919.1039,-158 1133.5518,-158 1133.5518,-158"/>
<polygon fill="#000000" stroke="#000000" points="1133.5519,-161.5001 1143.5518,-158 1133.5518,-154.5001 1133.5519,-161.5001"/>
</g>
<!-- IdiomaService -->
<g id="node21" class="node">
<title>IdiomaService</title>
<ellipse fill="#fdb462" stroke="#000000" cx="725" cy="-104" rx="67.1927" ry="18"/>
<text text-anchor="middle" x="725" y="-99.8" font-family="Times,serif" font-size="14.00" fill="#000000">IdiomaService</text>
</g>
<!-- IdiomaService&#45;&gt;VistaInformacionModule -->
<g id="edge20" class="edge">
<title>IdiomaService&#45;&gt;VistaInformacionModule</title>
<path fill="none" stroke="#000000" d="M733.9502,-122.0352C733.9502,-138.7344 733.9502,-161 733.9502,-161 733.9502,-161 1133.6099,-161 1133.6099,-161"/>
<polygon fill="#000000" stroke="#000000" points="1133.6099,-164.5001 1143.6099,-161 1133.6099,-157.5001 1133.6099,-164.5001"/>
</g>
<!-- ExperienciaService -->
<g id="node22" class="node">
<title>ExperienciaService</title>
<ellipse fill="#fdb462" stroke="#000000" cx="554" cy="-104" rx="86.2116" ry="18"/>
<text text-anchor="middle" x="554" y="-99.8" font-family="Times,serif" font-size="14.00" fill="#000000">ExperienciaService</text>
</g>
<!-- ExperienciaService&#45;&gt;VistaInformacionModule -->
<g id="edge21" class="edge">
<title>ExperienciaService&#45;&gt;VistaInformacionModule</title>
<path fill="none" stroke="#000000" d="M554,-122.302C554,-140.2699 554,-165 554,-165 554,-165 1133.6298,-165 1133.6298,-165"/>
<polygon fill="#000000" stroke="#000000" points="1133.6298,-168.5001 1143.6298,-165 1133.6298,-161.5001 1133.6298,-168.5001"/>
</g>
<!-- DocumentoProgramaService -->
<g id="node23" class="node">
<title>DocumentoProgramaService</title>
<ellipse fill="#fdb462" stroke="#000000" cx="327" cy="-104" rx="122.6736" ry="18"/>
<text text-anchor="middle" x="327" y="-99.8" font-family="Times,serif" font-size="14.00" fill="#000000">DocumentoProgramaService</text>
</g>
<!-- DocumentoProgramaService&#45;&gt;VistaInformacionModule -->
<g id="edge22" class="edge">
<title>DocumentoProgramaService&#45;&gt;VistaInformacionModule</title>
<path fill="none" stroke="#000000" d="M434.7977,-112.6313C434.7977,-130.1006 434.7977,-168 434.7977,-168 434.7977,-168 1133.8153,-168 1133.8153,-168"/>
<polygon fill="#000000" stroke="#000000" points="1133.8154,-171.5001 1143.8153,-168 1133.8153,-164.5001 1133.8154,-171.5001"/>
</g>
<!-- ReciboService -->
<g id="node24" class="node">
<title>ReciboService</title>
<ellipse fill="#fdb462" stroke="#000000" cx="119" cy="-104" rx="67.1927" ry="18"/>
<text text-anchor="middle" x="119" y="-99.8" font-family="Times,serif" font-size="14.00" fill="#000000">ReciboService</text>
</g>
<!-- ReciboService&#45;&gt;VistaInformacionModule -->
<g id="edge23" class="edge">
<title>ReciboService&#45;&gt;VistaInformacionModule</title>
<path fill="none" stroke="#000000" d="M182.3749,-110.1831C182.3749,-126.7695 182.3749,-171 182.3749,-171 182.3749,-171 1133.5013,-171 1133.5013,-171"/>
<polygon fill="#000000" stroke="#000000" points="1133.5014,-174.5001 1143.5013,-171 1133.5013,-167.5001 1133.5014,-174.5001"/>
</g>
</g>
</svg>
