<?xml version="1.0" encoding="UTF-8" standalone="no"?>
<!DOCTYPE svg PUBLIC "-//W3C//DTD SVG 1.1//EN"
 "http://www.w3.org/Graphics/SVG/1.1/DTD/svg11.dtd">
<!-- Generated by graphviz version 2.40.1 (20161225.0304)
 -->
<!-- Title: dependencies Pages: 1 -->
<svg width="750pt" height="284pt"
 viewBox="0.00 0.00 750.00 284.00" xmlns="http://www.w3.org/2000/svg" xmlns:xlink="http://www.w3.org/1999/xlink">
<g id="graph0" class="graph" transform="scale(1 1) rotate(0) translate(4 280)">
<title>dependencies</title>
<polygon fill="#ffffff" stroke="transparent" points="-4,4 -4,-280 746,-280 746,4 -4,4"/>
<text text-anchor="start" x="350.0091" y="-42.4" font-family="sans-serif" font-weight="bold" font-size="14.00" fill="#000000">Legend</text>
<polygon fill="#ffffb3" stroke="transparent" points="137,-10 137,-30 157,-30 157,-10 137,-10"/>
<text text-anchor="start" x="160.629" y="-15.4" font-family="sans-serif" font-size="14.00" fill="#000000"> &#160;Declarations</text>
<polygon fill="#8dd3c7" stroke="transparent" points="250,-10 250,-30 270,-30 270,-10 250,-10"/>
<text text-anchor="start" x="273.7251" y="-15.4" font-family="sans-serif" font-size="14.00" fill="#000000"> &#160;Module</text>
<polygon fill="#80b1d3" stroke="transparent" points="336,-10 336,-30 356,-30 356,-10 336,-10"/>
<text text-anchor="start" x="359.7812" y="-15.4" font-family="sans-serif" font-size="14.00" fill="#000000"> &#160;Bootstrap</text>
<polygon fill="#fdb462" stroke="transparent" points="433,-10 433,-30 453,-30 453,-10 433,-10"/>
<text text-anchor="start" x="456.6732" y="-15.4" font-family="sans-serif" font-size="14.00" fill="#000000"> &#160;Providers</text>
<polygon fill="#fb8072" stroke="transparent" points="529,-10 529,-30 549,-30 549,-10 529,-10"/>
<text text-anchor="start" x="552.7258" y="-15.4" font-family="sans-serif" font-size="14.00" fill="#000000"> &#160;Exports</text>
<g id="clust1" class="cluster">
<title>cluster_TipoMetadatoModule</title>
<polygon fill="none" stroke="#000000" stroke-dasharray="1,5" points="8,-70 8,-268 734,-268 734,-70 8,-70"/>
</g>
<g id="clust3" class="cluster">
<title>cluster_TipoMetadatoModule_imports</title>
<polygon fill="none" stroke="#000000" points="294,-78 294,-130 726,-130 726,-78 294,-78"/>
</g>
<g id="clust4" class="cluster">
<title>cluster_TipoMetadatoModule_exports</title>
<polygon fill="none" stroke="#000000" points="326,-208 326,-260 534,-260 534,-208 326,-208"/>
</g>
<g id="clust6" class="cluster">
<title>cluster_TipoMetadatoModule_providers</title>
<polygon fill="none" stroke="#000000" points="16,-78 16,-130 286,-130 286,-78 16,-78"/>
</g>
<!-- ThemeModule -->
<g id="node1" class="node">
<title>ThemeModule</title>
<polygon fill="#8dd3c7" stroke="#000000" points="718.4231,-122 715.4231,-126 694.4231,-126 691.4231,-122 619.5769,-122 619.5769,-86 718.4231,-86 718.4231,-122"/>
<text text-anchor="middle" x="669" y="-99.8" font-family="Times,serif" font-size="14.00" fill="#000000">ThemeModule</text>
</g>
<!-- TipoMetadatoModule -->
<g id="node4" class="node">
<title>TipoMetadatoModule</title>
<polygon fill="#8dd3c7" stroke="#000000" points="499.3627,-187 496.3627,-191 475.3627,-191 472.3627,-187 360.6373,-187 360.6373,-151 499.3627,-151 499.3627,-187"/>
<text text-anchor="middle" x="430" y="-164.8" font-family="Times,serif" font-size="14.00" fill="#000000">TipoMetadatoModule</text>
</g>
<!-- ThemeModule&#45;&gt;TipoMetadatoModule -->
<g id="edge1" class="edge">
<title>ThemeModule&#45;&gt;TipoMetadatoModule</title>
<path fill="none" stroke="#000000" d="M669,-122.1061C669,-141.3391 669,-169 669,-169 669,-169 509.4497,-169 509.4497,-169"/>
<polygon fill="#000000" stroke="#000000" points="509.4498,-165.5001 499.4497,-169 509.4497,-172.5001 509.4498,-165.5001"/>
</g>
<!-- TipoMetadatoRoutingModule -->
<g id="node2" class="node">
<title>TipoMetadatoRoutingModule</title>
<polygon fill="#8dd3c7" stroke="#000000" points="601.9804,-122 598.9804,-126 577.9804,-126 574.9804,-122 418.0196,-122 418.0196,-86 601.9804,-86 601.9804,-122"/>
<text text-anchor="middle" x="510" y="-99.8" font-family="Times,serif" font-size="14.00" fill="#000000">TipoMetadatoRoutingModule</text>
</g>
<!-- TipoMetadatoRoutingModule&#45;&gt;TipoMetadatoModule -->
<g id="edge2" class="edge">
<title>TipoMetadatoRoutingModule&#45;&gt;TipoMetadatoModule</title>
<path fill="none" stroke="#000000" d="M458.7206,-122.1061C458.7206,-122.1061 458.7206,-140.991 458.7206,-140.991"/>
<polygon fill="#000000" stroke="#000000" points="455.2206,-140.9909 458.7206,-150.991 462.2206,-140.991 455.2206,-140.9909"/>
</g>
<!-- SharedModule -->
<g id="node3" class="node">
<title>SharedModule</title>
<polygon fill="#8dd3c7" stroke="#000000" points="400.4231,-122 397.4231,-126 376.4231,-126 373.4231,-122 301.5769,-122 301.5769,-86 400.4231,-86 400.4231,-122"/>
<text text-anchor="middle" x="351" y="-99.8" font-family="Times,serif" font-size="14.00" fill="#000000">SharedModule</text>
</g>
<!-- SharedModule&#45;&gt;TipoMetadatoModule -->
<g id="edge3" class="edge">
<title>SharedModule&#45;&gt;TipoMetadatoModule</title>
<path fill="none" stroke="#000000" d="M380.3899,-122.1061C380.3899,-122.1061 380.3899,-140.991 380.3899,-140.991"/>
<polygon fill="#000000" stroke="#000000" points="376.89,-140.9909 380.3899,-150.991 383.89,-140.991 376.89,-140.9909"/>
</g>
<!-- CrudTipoMetadatoComponent  -->
<g id="node5" class="node">
<title>CrudTipoMetadatoComponent </title>
<polygon fill="#fb8072" stroke="#000000" points="526.1425,-252 333.8575,-252 333.8575,-216 526.1425,-216 526.1425,-252"/>
<text text-anchor="middle" x="430" y="-229.8" font-family="Times,serif" font-size="14.00" fill="#000000">CrudTipoMetadatoComponent </text>
</g>
<!-- TipoMetadatoModule&#45;&gt;CrudTipoMetadatoComponent  -->
<g id="edge4" class="edge">
<title>TipoMetadatoModule&#45;&gt;CrudTipoMetadatoComponent </title>
<path fill="none" stroke="#000000" stroke-dasharray="5,2" d="M430,-187.1061C430,-187.1061 430,-205.991 430,-205.991"/>
<polygon fill="#000000" stroke="#000000" points="426.5001,-205.9909 430,-215.991 433.5001,-205.991 426.5001,-205.9909"/>
</g>
<!-- ProduccionAcademicaService -->
<g id="node6" class="node">
<title>ProduccionAcademicaService</title>
<ellipse fill="#fdb462" stroke="#000000" cx="151" cy="-104" rx="127.3074" ry="18"/>
<text text-anchor="middle" x="151" y="-99.8" font-family="Times,serif" font-size="14.00" fill="#000000">ProduccionAcademicaService</text>
</g>
<!-- ProduccionAcademicaService&#45;&gt;TipoMetadatoModule -->
<g id="edge5" class="edge">
<title>ProduccionAcademicaService&#45;&gt;TipoMetadatoModule</title>
<path fill="none" stroke="#000000" d="M151,-122.1061C151,-141.3391 151,-169 151,-169 151,-169 350.3162,-169 350.3162,-169"/>
<polygon fill="#000000" stroke="#000000" points="350.3163,-172.5001 360.3162,-169 350.3162,-165.5001 350.3163,-172.5001"/>
</g>
</g>
</svg>
