<?xml version="1.0" encoding="UTF-8" standalone="no"?>
<!DOCTYPE svg PUBLIC "-//W3C//DTD SVG 1.1//EN"
 "http://www.w3.org/Graphics/SVG/1.1/DTD/svg11.dtd">
<!-- Generated by graphviz version 2.40.1 (20161225.0304)
 -->
<!-- Title: dependencies Pages: 1 -->
<svg width="638pt" height="284pt"
 viewBox="0.00 0.00 638.00 284.00" xmlns="http://www.w3.org/2000/svg" xmlns:xlink="http://www.w3.org/1999/xlink">
<g id="graph0" class="graph" transform="scale(1 1) rotate(0) translate(4 280)">
<title>dependencies</title>
<polygon fill="#ffffff" stroke="transparent" points="-4,4 -4,-280 634,-280 634,4 -4,4"/>
<text text-anchor="start" x="294.0091" y="-42.4" font-family="sans-serif" font-weight="bold" font-size="14.00" fill="#000000">Legend</text>
<polygon fill="#ffffb3" stroke="transparent" points="81,-10 81,-30 101,-30 101,-10 81,-10"/>
<text text-anchor="start" x="104.629" y="-15.4" font-family="sans-serif" font-size="14.00" fill="#000000"> &#160;Declarations</text>
<polygon fill="#8dd3c7" stroke="transparent" points="194,-10 194,-30 214,-30 214,-10 194,-10"/>
<text text-anchor="start" x="217.7251" y="-15.4" font-family="sans-serif" font-size="14.00" fill="#000000"> &#160;Module</text>
<polygon fill="#80b1d3" stroke="transparent" points="280,-10 280,-30 300,-30 300,-10 280,-10"/>
<text text-anchor="start" x="303.7812" y="-15.4" font-family="sans-serif" font-size="14.00" fill="#000000"> &#160;Bootstrap</text>
<polygon fill="#fdb462" stroke="transparent" points="377,-10 377,-30 397,-30 397,-10 377,-10"/>
<text text-anchor="start" x="400.6732" y="-15.4" font-family="sans-serif" font-size="14.00" fill="#000000"> &#160;Providers</text>
<polygon fill="#fb8072" stroke="transparent" points="473,-10 473,-30 493,-30 493,-10 473,-10"/>
<text text-anchor="start" x="496.7258" y="-15.4" font-family="sans-serif" font-size="14.00" fill="#000000"> &#160;Exports</text>
<g id="clust1" class="cluster">
<title>cluster_AtributoUbicacionModule</title>
<polygon fill="none" stroke="#000000" stroke-dasharray="1,5" points="8,-70 8,-268 622,-268 622,-70 8,-70"/>
</g>
<g id="clust3" class="cluster">
<title>cluster_AtributoUbicacionModule_imports</title>
<polygon fill="none" stroke="#000000" points="156,-78 156,-130 614,-130 614,-78 156,-78"/>
</g>
<g id="clust4" class="cluster">
<title>cluster_AtributoUbicacionModule_exports</title>
<polygon fill="none" stroke="#000000" points="182,-208 182,-260 416,-260 416,-208 182,-208"/>
</g>
<g id="clust6" class="cluster">
<title>cluster_AtributoUbicacionModule_providers</title>
<polygon fill="none" stroke="#000000" points="16,-78 16,-130 148,-130 148,-78 16,-78"/>
</g>
<!-- ThemeModule -->
<g id="node1" class="node">
<title>ThemeModule</title>
<polygon fill="#8dd3c7" stroke="#000000" points="606.4231,-122 603.4231,-126 582.4231,-126 579.4231,-122 507.5769,-122 507.5769,-86 606.4231,-86 606.4231,-122"/>
<text text-anchor="middle" x="557" y="-99.8" font-family="Times,serif" font-size="14.00" fill="#000000">ThemeModule</text>
</g>
<!-- AtributoUbicacionModule -->
<g id="node4" class="node">
<title>AtributoUbicacionModule</title>
<polygon fill="#8dd3c7" stroke="#000000" points="381.0211,-187 378.0211,-191 357.0211,-191 354.0211,-187 216.9789,-187 216.9789,-151 381.0211,-151 381.0211,-187"/>
<text text-anchor="middle" x="299" y="-164.8" font-family="Times,serif" font-size="14.00" fill="#000000">AtributoUbicacionModule</text>
</g>
<!-- ThemeModule&#45;&gt;AtributoUbicacionModule -->
<g id="edge1" class="edge">
<title>ThemeModule&#45;&gt;AtributoUbicacionModule</title>
<path fill="none" stroke="#000000" d="M557,-122.1061C557,-141.3391 557,-169 557,-169 557,-169 391.3422,-169 391.3422,-169"/>
<polygon fill="#000000" stroke="#000000" points="391.3422,-165.5001 381.3422,-169 391.3421,-172.5001 391.3422,-165.5001"/>
</g>
<!-- AtributoUbicacionRoutingModule -->
<g id="node2" class="node">
<title>AtributoUbicacionRoutingModule</title>
<polygon fill="#8dd3c7" stroke="#000000" points="489.6385,-122 486.6385,-126 465.6385,-126 462.6385,-122 280.3615,-122 280.3615,-86 489.6385,-86 489.6385,-122"/>
<text text-anchor="middle" x="385" y="-99.8" font-family="Times,serif" font-size="14.00" fill="#000000">AtributoUbicacionRoutingModule</text>
</g>
<!-- AtributoUbicacionRoutingModule&#45;&gt;AtributoUbicacionModule -->
<g id="edge2" class="edge">
<title>AtributoUbicacionRoutingModule&#45;&gt;AtributoUbicacionModule</title>
<path fill="none" stroke="#000000" d="M330.7206,-122.1061C330.7206,-122.1061 330.7206,-140.991 330.7206,-140.991"/>
<polygon fill="#000000" stroke="#000000" points="327.2206,-140.9909 330.7206,-150.991 334.2206,-140.991 327.2206,-140.9909"/>
</g>
<!-- SharedModule -->
<g id="node3" class="node">
<title>SharedModule</title>
<polygon fill="#8dd3c7" stroke="#000000" points="262.4231,-122 259.4231,-126 238.4231,-126 235.4231,-122 163.5769,-122 163.5769,-86 262.4231,-86 262.4231,-122"/>
<text text-anchor="middle" x="213" y="-99.8" font-family="Times,serif" font-size="14.00" fill="#000000">SharedModule</text>
</g>
<!-- SharedModule&#45;&gt;AtributoUbicacionModule -->
<g id="edge3" class="edge">
<title>SharedModule&#45;&gt;AtributoUbicacionModule</title>
<path fill="none" stroke="#000000" d="M239.4755,-122.1061C239.4755,-122.1061 239.4755,-140.991 239.4755,-140.991"/>
<polygon fill="#000000" stroke="#000000" points="235.9755,-140.9909 239.4755,-150.991 242.9755,-140.991 235.9755,-140.9909"/>
</g>
<!-- CrudAtributoUbicacionComponent  -->
<g id="node5" class="node">
<title>CrudAtributoUbicacionComponent </title>
<polygon fill="#fb8072" stroke="#000000" points="407.8003,-252 190.1997,-252 190.1997,-216 407.8003,-216 407.8003,-252"/>
<text text-anchor="middle" x="299" y="-229.8" font-family="Times,serif" font-size="14.00" fill="#000000">CrudAtributoUbicacionComponent </text>
</g>
<!-- AtributoUbicacionModule&#45;&gt;CrudAtributoUbicacionComponent  -->
<g id="edge4" class="edge">
<title>AtributoUbicacionModule&#45;&gt;CrudAtributoUbicacionComponent </title>
<path fill="none" stroke="#000000" stroke-dasharray="5,2" d="M299,-187.1061C299,-187.1061 299,-205.991 299,-205.991"/>
<polygon fill="#000000" stroke="#000000" points="295.5001,-205.9909 299,-215.991 302.5001,-205.991 295.5001,-205.9909"/>
</g>
<!-- EnteService -->
<g id="node6" class="node">
<title>EnteService</title>
<ellipse fill="#fdb462" stroke="#000000" cx="82" cy="-104" rx="57.881" ry="18"/>
<text text-anchor="middle" x="82" y="-99.8" font-family="Times,serif" font-size="14.00" fill="#000000">EnteService</text>
</g>
<!-- EnteService&#45;&gt;AtributoUbicacionModule -->
<g id="edge5" class="edge">
<title>EnteService&#45;&gt;AtributoUbicacionModule</title>
<path fill="none" stroke="#000000" d="M82,-122.1061C82,-141.3391 82,-169 82,-169 82,-169 206.9616,-169 206.9616,-169"/>
<polygon fill="#000000" stroke="#000000" points="206.9616,-172.5001 216.9616,-169 206.9616,-165.5001 206.9616,-172.5001"/>
</g>
</g>
</svg>
