<?xml version="1.0" encoding="UTF-8" standalone="no"?>
<!DOCTYPE svg PUBLIC "-//W3C//DTD SVG 1.1//EN"
 "http://www.w3.org/Graphics/SVG/1.1/DTD/svg11.dtd">
<!-- Generated by graphviz version 2.40.1 (20161225.0304)
 -->
<!-- Title: dependencies Pages: 1 -->
<svg width="1181pt" height="284pt"
 viewBox="0.00 0.00 1181.00 284.00" xmlns="http://www.w3.org/2000/svg" xmlns:xlink="http://www.w3.org/1999/xlink">
<g id="graph0" class="graph" transform="scale(1 1) rotate(0) translate(4 280)">
<title>dependencies</title>
<polygon fill="#ffffff" stroke="transparent" points="-4,4 -4,-280 1177,-280 1177,4 -4,4"/>
<text text-anchor="start" x="565.5091" y="-42.4" font-family="sans-serif" font-weight="bold" font-size="14.00" fill="#000000">Legend</text>
<polygon fill="#ffffb3" stroke="transparent" points="352.5,-10 352.5,-30 372.5,-30 372.5,-10 352.5,-10"/>
<text text-anchor="start" x="376.129" y="-15.4" font-family="sans-serif" font-size="14.00" fill="#000000"> &#160;Declarations</text>
<polygon fill="#8dd3c7" stroke="transparent" points="465.5,-10 465.5,-30 485.5,-30 485.5,-10 465.5,-10"/>
<text text-anchor="start" x="489.2251" y="-15.4" font-family="sans-serif" font-size="14.00" fill="#000000"> &#160;Module</text>
<polygon fill="#80b1d3" stroke="transparent" points="551.5,-10 551.5,-30 571.5,-30 571.5,-10 551.5,-10"/>
<text text-anchor="start" x="575.2812" y="-15.4" font-family="sans-serif" font-size="14.00" fill="#000000"> &#160;Bootstrap</text>
<polygon fill="#fdb462" stroke="transparent" points="648.5,-10 648.5,-30 668.5,-30 668.5,-10 648.5,-10"/>
<text text-anchor="start" x="672.1732" y="-15.4" font-family="sans-serif" font-size="14.00" fill="#000000"> &#160;Providers</text>
<polygon fill="#fb8072" stroke="transparent" points="744.5,-10 744.5,-30 764.5,-30 764.5,-10 744.5,-10"/>
<text text-anchor="start" x="768.2258" y="-15.4" font-family="sans-serif" font-size="14.00" fill="#000000"> &#160;Exports</text>
<g id="clust1" class="cluster">
<title>cluster_OrganizacionModule</title>
<polygon fill="none" stroke="#000000" stroke-dasharray="1,5" points="8,-70 8,-268 1165,-268 1165,-70 8,-70"/>
</g>
<g id="clust3" class="cluster">
<title>cluster_OrganizacionModule_imports</title>
<polygon fill="none" stroke="#000000" points="729,-78 729,-130 1157,-130 1157,-78 729,-78"/>
</g>
<g id="clust4" class="cluster">
<title>cluster_OrganizacionModule_exports</title>
<polygon fill="none" stroke="#000000" points="531,-208 531,-260 735,-260 735,-208 531,-208"/>
</g>
<g id="clust6" class="cluster">
<title>cluster_OrganizacionModule_providers</title>
<polygon fill="none" stroke="#000000" points="16,-78 16,-130 721,-130 721,-78 16,-78"/>
</g>
<!-- ThemeModule -->
<g id="node1" class="node">
<title>ThemeModule</title>
<polygon fill="#8dd3c7" stroke="#000000" points="1149.4231,-122 1146.4231,-126 1125.4231,-126 1122.4231,-122 1050.5769,-122 1050.5769,-86 1149.4231,-86 1149.4231,-122"/>
<text text-anchor="middle" x="1100" y="-99.8" font-family="Times,serif" font-size="14.00" fill="#000000">ThemeModule</text>
</g>
<!-- OrganizacionModule -->
<g id="node4" class="node">
<title>OrganizacionModule</title>
<polygon fill="#8dd3c7" stroke="#000000" points="700.4566,-187 697.4566,-191 676.4566,-191 673.4566,-187 565.5434,-187 565.5434,-151 700.4566,-151 700.4566,-187"/>
<text text-anchor="middle" x="633" y="-164.8" font-family="Times,serif" font-size="14.00" fill="#000000">OrganizacionModule</text>
</g>
<!-- ThemeModule&#45;&gt;OrganizacionModule -->
<g id="edge1" class="edge">
<title>ThemeModule&#45;&gt;OrganizacionModule</title>
<path fill="none" stroke="#000000" d="M1100,-122.2921C1100,-144.2057 1100,-178 1100,-178 1100,-178 710.9058,-178 710.9058,-178"/>
<polygon fill="#000000" stroke="#000000" points="710.9058,-174.5001 700.9058,-178 710.9058,-181.5001 710.9058,-174.5001"/>
</g>
<!-- OrganizacionRoutingModule -->
<g id="node2" class="node">
<title>OrganizacionRoutingModule</title>
<polygon fill="#8dd3c7" stroke="#000000" points="1033.0744,-122 1030.0744,-126 1009.0744,-126 1006.0744,-122 852.9256,-122 852.9256,-86 1033.0744,-86 1033.0744,-122"/>
<text text-anchor="middle" x="943" y="-99.8" font-family="Times,serif" font-size="14.00" fill="#000000">OrganizacionRoutingModule</text>
</g>
<!-- OrganizacionRoutingModule&#45;&gt;OrganizacionModule -->
<g id="edge2" class="edge">
<title>OrganizacionRoutingModule&#45;&gt;OrganizacionModule</title>
<path fill="none" stroke="#000000" d="M943,-122.1061C943,-141.3391 943,-169 943,-169 943,-169 710.6477,-169 710.6477,-169"/>
<polygon fill="#000000" stroke="#000000" points="710.6478,-165.5001 700.6477,-169 710.6477,-172.5001 710.6478,-165.5001"/>
</g>
<!-- SharedModule -->
<g id="node3" class="node">
<title>SharedModule</title>
<polygon fill="#8dd3c7" stroke="#000000" points="835.4231,-122 832.4231,-126 811.4231,-126 808.4231,-122 736.5769,-122 736.5769,-86 835.4231,-86 835.4231,-122"/>
<text text-anchor="middle" x="786" y="-99.8" font-family="Times,serif" font-size="14.00" fill="#000000">SharedModule</text>
</g>
<!-- SharedModule&#45;&gt;OrganizacionModule -->
<g id="edge3" class="edge">
<title>SharedModule&#45;&gt;OrganizacionModule</title>
<path fill="none" stroke="#000000" d="M786,-122.027C786,-138.3976 786,-160 786,-160 786,-160 710.5534,-160 710.5534,-160"/>
<polygon fill="#000000" stroke="#000000" points="710.5534,-156.5001 700.5534,-160 710.5534,-163.5001 710.5534,-156.5001"/>
</g>
<!-- CrudOrganizacionComponent  -->
<g id="node5" class="node">
<title>CrudOrganizacionComponent </title>
<polygon fill="#fb8072" stroke="#000000" points="727.2365,-252 538.7635,-252 538.7635,-216 727.2365,-216 727.2365,-252"/>
<text text-anchor="middle" x="633" y="-229.8" font-family="Times,serif" font-size="14.00" fill="#000000">CrudOrganizacionComponent </text>
</g>
<!-- OrganizacionModule&#45;&gt;CrudOrganizacionComponent  -->
<g id="edge4" class="edge">
<title>OrganizacionModule&#45;&gt;CrudOrganizacionComponent </title>
<path fill="none" stroke="#000000" stroke-dasharray="5,2" d="M633,-187.1061C633,-187.1061 633,-205.991 633,-205.991"/>
<polygon fill="#000000" stroke="#000000" points="629.5001,-205.9909 633,-215.991 636.5001,-205.991 629.5001,-205.9909"/>
</g>
<!-- UbicacionService -->
<g id="node6" class="node">
<title>UbicacionService</title>
<ellipse fill="#fdb462" stroke="#000000" cx="633" cy="-104" rx="79.8527" ry="18"/>
<text text-anchor="middle" x="633" y="-99.8" font-family="Times,serif" font-size="14.00" fill="#000000">UbicacionService</text>
</g>
<!-- UbicacionService&#45;&gt;OrganizacionModule -->
<g id="edge5" class="edge">
<title>UbicacionService&#45;&gt;OrganizacionModule</title>
<path fill="none" stroke="#000000" d="M633,-122.1061C633,-122.1061 633,-140.991 633,-140.991"/>
<polygon fill="#000000" stroke="#000000" points="629.5001,-140.9909 633,-150.991 636.5001,-140.991 629.5001,-140.9909"/>
</g>
<!-- OrganizacionService -->
<g id="node7" class="node">
<title>OrganizacionService</title>
<ellipse fill="#fdb462" stroke="#000000" cx="443" cy="-104" rx="92.0123" ry="18"/>
<text text-anchor="middle" x="443" y="-99.8" font-family="Times,serif" font-size="14.00" fill="#000000">OrganizacionService</text>
</g>
<!-- OrganizacionService&#45;&gt;OrganizacionModule -->
<g id="edge6" class="edge">
<title>OrganizacionService&#45;&gt;OrganizacionModule</title>
<path fill="none" stroke="#000000" d="M443,-122.027C443,-138.3976 443,-160 443,-160 443,-160 555.4781,-160 555.4781,-160"/>
<polygon fill="#000000" stroke="#000000" points="555.4782,-163.5001 565.4781,-160 555.4781,-156.5001 555.4782,-163.5001"/>
</g>
<!-- EnteService -->
<g id="node8" class="node">
<title>EnteService</title>
<ellipse fill="#fdb462" stroke="#000000" cx="275" cy="-104" rx="57.881" ry="18"/>
<text text-anchor="middle" x="275" y="-99.8" font-family="Times,serif" font-size="14.00" fill="#000000">EnteService</text>
</g>
<!-- EnteService&#45;&gt;OrganizacionModule -->
<g id="edge7" class="edge">
<title>EnteService&#45;&gt;OrganizacionModule</title>
<path fill="none" stroke="#000000" d="M275,-122.1061C275,-141.3391 275,-169 275,-169 275,-169 555.2421,-169 555.2421,-169"/>
<polygon fill="#000000" stroke="#000000" points="555.2421,-172.5001 565.2421,-169 555.242,-165.5001 555.2421,-172.5001"/>
</g>
<!-- CampusMidService -->
<g id="node9" class="node">
<title>CampusMidService</title>
<ellipse fill="#fdb462" stroke="#000000" cx="112" cy="-104" rx="87.98" ry="18"/>
<text text-anchor="middle" x="112" y="-99.8" font-family="Times,serif" font-size="14.00" fill="#000000">CampusMidService</text>
</g>
<!-- CampusMidService&#45;&gt;OrganizacionModule -->
<g id="edge8" class="edge">
<title>CampusMidService&#45;&gt;OrganizacionModule</title>
<path fill="none" stroke="#000000" d="M112,-122.2921C112,-144.2057 112,-178 112,-178 112,-178 555.4225,-178 555.4225,-178"/>
<polygon fill="#000000" stroke="#000000" points="555.4225,-181.5001 565.4225,-178 555.4224,-174.5001 555.4225,-181.5001"/>
</g>
</g>
</svg>
