<?xml version="1.0" encoding="UTF-8" standalone="no"?>
<!DOCTYPE svg PUBLIC "-//W3C//DTD SVG 1.1//EN"
 "http://www.w3.org/Graphics/SVG/1.1/DTD/svg11.dtd">
<!-- Generated by graphviz version 2.40.1 (20161225.0304)
 -->
<!-- Title: dependencies Pages: 1 -->
<svg width="678pt" height="284pt"
 viewBox="0.00 0.00 678.00 284.00" xmlns="http://www.w3.org/2000/svg" xmlns:xlink="http://www.w3.org/1999/xlink">
<g id="graph0" class="graph" transform="scale(1 1) rotate(0) translate(4 280)">
<title>dependencies</title>
<polygon fill="#ffffff" stroke="transparent" points="-4,4 -4,-280 674,-280 674,4 -4,4"/>
<text text-anchor="start" x="314.0091" y="-42.4" font-family="sans-serif" font-weight="bold" font-size="14.00" fill="#000000">Legend</text>
<polygon fill="#ffffb3" stroke="transparent" points="101,-10 101,-30 121,-30 121,-10 101,-10"/>
<text text-anchor="start" x="124.629" y="-15.4" font-family="sans-serif" font-size="14.00" fill="#000000"> &#160;Declarations</text>
<polygon fill="#8dd3c7" stroke="transparent" points="214,-10 214,-30 234,-30 234,-10 214,-10"/>
<text text-anchor="start" x="237.7251" y="-15.4" font-family="sans-serif" font-size="14.00" fill="#000000"> &#160;Module</text>
<polygon fill="#80b1d3" stroke="transparent" points="300,-10 300,-30 320,-30 320,-10 300,-10"/>
<text text-anchor="start" x="323.7812" y="-15.4" font-family="sans-serif" font-size="14.00" fill="#000000"> &#160;Bootstrap</text>
<polygon fill="#fdb462" stroke="transparent" points="397,-10 397,-30 417,-30 417,-10 397,-10"/>
<text text-anchor="start" x="420.6732" y="-15.4" font-family="sans-serif" font-size="14.00" fill="#000000"> &#160;Providers</text>
<polygon fill="#fb8072" stroke="transparent" points="493,-10 493,-30 513,-30 513,-10 493,-10"/>
<text text-anchor="start" x="516.7258" y="-15.4" font-family="sans-serif" font-size="14.00" fill="#000000"> &#160;Exports</text>
<g id="clust1" class="cluster">
<title>cluster_TipoDocumentoModule</title>
<polygon fill="none" stroke="#000000" stroke-dasharray="1,5" points="8,-70 8,-268 662,-268 662,-70 8,-70"/>
</g>
<g id="clust3" class="cluster">
<title>cluster_TipoDocumentoModule_imports</title>
<polygon fill="none" stroke="#000000" points="210,-78 210,-130 654,-130 654,-78 210,-78"/>
</g>
<g id="clust4" class="cluster">
<title>cluster_TipoDocumentoModule_exports</title>
<polygon fill="none" stroke="#000000" points="239,-208 239,-260 459,-260 459,-208 239,-208"/>
</g>
<g id="clust6" class="cluster">
<title>cluster_TipoDocumentoModule_providers</title>
<polygon fill="none" stroke="#000000" points="16,-78 16,-130 202,-130 202,-78 16,-78"/>
</g>
<!-- ThemeModule -->
<g id="node1" class="node">
<title>ThemeModule</title>
<polygon fill="#8dd3c7" stroke="#000000" points="646.4231,-122 643.4231,-126 622.4231,-126 619.4231,-122 547.5769,-122 547.5769,-86 646.4231,-86 646.4231,-122"/>
<text text-anchor="middle" x="597" y="-99.8" font-family="Times,serif" font-size="14.00" fill="#000000">ThemeModule</text>
</g>
<!-- TipoDocumentoModule -->
<g id="node4" class="node">
<title>TipoDocumentoModule</title>
<polygon fill="#8dd3c7" stroke="#000000" points="424.8103,-187 421.8103,-191 400.8103,-191 397.8103,-187 273.1897,-187 273.1897,-151 424.8103,-151 424.8103,-187"/>
<text text-anchor="middle" x="349" y="-164.8" font-family="Times,serif" font-size="14.00" fill="#000000">TipoDocumentoModule</text>
</g>
<!-- ThemeModule&#45;&gt;TipoDocumentoModule -->
<g id="edge1" class="edge">
<title>ThemeModule&#45;&gt;TipoDocumentoModule</title>
<path fill="none" stroke="#000000" d="M597,-122.1061C597,-141.3391 597,-169 597,-169 597,-169 434.7557,-169 434.7557,-169"/>
<polygon fill="#000000" stroke="#000000" points="434.7558,-165.5001 424.7557,-169 434.7557,-172.5001 434.7558,-165.5001"/>
</g>
<!-- TipoDocumentoRoutingModule -->
<g id="node2" class="node">
<title>TipoDocumentoRoutingModule</title>
<polygon fill="#8dd3c7" stroke="#000000" points="530.4283,-122 527.4283,-126 506.4283,-126 503.4283,-122 333.5717,-122 333.5717,-86 530.4283,-86 530.4283,-122"/>
<text text-anchor="middle" x="432" y="-99.8" font-family="Times,serif" font-size="14.00" fill="#000000">TipoDocumentoRoutingModule</text>
</g>
<!-- TipoDocumentoRoutingModule&#45;&gt;TipoDocumentoModule -->
<g id="edge2" class="edge">
<title>TipoDocumentoRoutingModule&#45;&gt;TipoDocumentoModule</title>
<path fill="none" stroke="#000000" d="M379.2206,-122.1061C379.2206,-122.1061 379.2206,-140.991 379.2206,-140.991"/>
<polygon fill="#000000" stroke="#000000" points="375.7206,-140.9909 379.2206,-150.991 382.7206,-140.991 375.7206,-140.9909"/>
</g>
<!-- SharedModule -->
<g id="node3" class="node">
<title>SharedModule</title>
<polygon fill="#8dd3c7" stroke="#000000" points="316.4231,-122 313.4231,-126 292.4231,-126 289.4231,-122 217.5769,-122 217.5769,-86 316.4231,-86 316.4231,-122"/>
<text text-anchor="middle" x="267" y="-99.8" font-family="Times,serif" font-size="14.00" fill="#000000">SharedModule</text>
</g>
<!-- SharedModule&#45;&gt;TipoDocumentoModule -->
<g id="edge3" class="edge">
<title>SharedModule&#45;&gt;TipoDocumentoModule</title>
<path fill="none" stroke="#000000" d="M294.7781,-122.1061C294.7781,-122.1061 294.7781,-140.991 294.7781,-140.991"/>
<polygon fill="#000000" stroke="#000000" points="291.2781,-140.9909 294.7781,-150.991 298.2781,-140.991 291.2781,-140.9909"/>
</g>
<!-- CrudTipoDocumentoComponent  -->
<g id="node5" class="node">
<title>CrudTipoDocumentoComponent </title>
<polygon fill="#fb8072" stroke="#000000" points="451.0902,-252 246.9098,-252 246.9098,-216 451.0902,-216 451.0902,-252"/>
<text text-anchor="middle" x="349" y="-229.8" font-family="Times,serif" font-size="14.00" fill="#000000">CrudTipoDocumentoComponent </text>
</g>
<!-- TipoDocumentoModule&#45;&gt;CrudTipoDocumentoComponent  -->
<g id="edge4" class="edge">
<title>TipoDocumentoModule&#45;&gt;CrudTipoDocumentoComponent </title>
<path fill="none" stroke="#000000" stroke-dasharray="5,2" d="M349,-187.1061C349,-187.1061 349,-205.991 349,-205.991"/>
<polygon fill="#000000" stroke="#000000" points="345.5001,-205.9909 349,-215.991 352.5001,-205.991 345.5001,-205.9909"/>
</g>
<!-- DocumentoService -->
<g id="node6" class="node">
<title>DocumentoService</title>
<ellipse fill="#fdb462" stroke="#000000" cx="109" cy="-104" rx="85.0928" ry="18"/>
<text text-anchor="middle" x="109" y="-99.8" font-family="Times,serif" font-size="14.00" fill="#000000">DocumentoService</text>
</g>
<!-- DocumentoService&#45;&gt;TipoDocumentoModule -->
<g id="edge5" class="edge">
<title>DocumentoService&#45;&gt;TipoDocumentoModule</title>
<path fill="none" stroke="#000000" d="M109,-122.1061C109,-141.3391 109,-169 109,-169 109,-169 263.0625,-169 263.0625,-169"/>
<polygon fill="#000000" stroke="#000000" points="263.0625,-172.5001 273.0625,-169 263.0625,-165.5001 263.0625,-172.5001"/>
</g>
</g>
</svg>
