<?xml version="1.0" encoding="UTF-8" standalone="no"?>
<!DOCTYPE svg PUBLIC "-//W3C//DTD SVG 1.1//EN"
 "http://www.w3.org/Graphics/SVG/1.1/DTD/svg11.dtd">
<!-- Generated by graphviz version 2.40.1 (20161225.0304)
 -->
<!-- Title: dependencies Pages: 1 -->
<svg width="692pt" height="284pt"
 viewBox="0.00 0.00 692.00 284.00" xmlns="http://www.w3.org/2000/svg" xmlns:xlink="http://www.w3.org/1999/xlink">
<g id="graph0" class="graph" transform="scale(1 1) rotate(0) translate(4 280)">
<title>dependencies</title>
<polygon fill="#ffffff" stroke="transparent" points="-4,4 -4,-280 688,-280 688,4 -4,4"/>
<text text-anchor="start" x="321.0091" y="-42.4" font-family="sans-serif" font-weight="bold" font-size="14.00" fill="#000000">Legend</text>
<polygon fill="#ffffb3" stroke="transparent" points="108,-10 108,-30 128,-30 128,-10 108,-10"/>
<text text-anchor="start" x="131.629" y="-15.4" font-family="sans-serif" font-size="14.00" fill="#000000"> &#160;Declarations</text>
<polygon fill="#8dd3c7" stroke="transparent" points="221,-10 221,-30 241,-30 241,-10 221,-10"/>
<text text-anchor="start" x="244.7251" y="-15.4" font-family="sans-serif" font-size="14.00" fill="#000000"> &#160;Module</text>
<polygon fill="#80b1d3" stroke="transparent" points="307,-10 307,-30 327,-30 327,-10 307,-10"/>
<text text-anchor="start" x="330.7812" y="-15.4" font-family="sans-serif" font-size="14.00" fill="#000000"> &#160;Bootstrap</text>
<polygon fill="#fdb462" stroke="transparent" points="404,-10 404,-30 424,-30 424,-10 404,-10"/>
<text text-anchor="start" x="427.6732" y="-15.4" font-family="sans-serif" font-size="14.00" fill="#000000"> &#160;Providers</text>
<polygon fill="#fb8072" stroke="transparent" points="500,-10 500,-30 520,-30 520,-10 500,-10"/>
<text text-anchor="start" x="523.7258" y="-15.4" font-family="sans-serif" font-size="14.00" fill="#000000"> &#160;Exports</text>
<g id="clust1" class="cluster">
<title>cluster_TipoRelacionUbicacionEnteModule</title>
<polygon fill="none" stroke="#000000" stroke-dasharray="1,5" points="8,-70 8,-268 676,-268 676,-70 8,-70"/>
</g>
<g id="clust3" class="cluster">
<title>cluster_TipoRelacionUbicacionEnteModule_imports</title>
<polygon fill="none" stroke="#000000" points="156,-78 156,-130 668,-130 668,-78 156,-78"/>
</g>
<g id="clust4" class="cluster">
<title>cluster_TipoRelacionUbicacionEnteModule_exports</title>
<polygon fill="none" stroke="#000000" points="168,-208 168,-260 456,-260 456,-208 168,-208"/>
</g>
<g id="clust6" class="cluster">
<title>cluster_TipoRelacionUbicacionEnteModule_providers</title>
<polygon fill="none" stroke="#000000" points="16,-78 16,-130 148,-130 148,-78 16,-78"/>
</g>
<!-- ThemeModule -->
<g id="node1" class="node">
<title>ThemeModule</title>
<polygon fill="#8dd3c7" stroke="#000000" points="660.4231,-122 657.4231,-126 636.4231,-126 633.4231,-122 561.5769,-122 561.5769,-86 660.4231,-86 660.4231,-122"/>
<text text-anchor="middle" x="611" y="-99.8" font-family="Times,serif" font-size="14.00" fill="#000000">ThemeModule</text>
</g>
<!-- TipoRelacionUbicacionEnteModule -->
<g id="node4" class="node">
<title>TipoRelacionUbicacionEnteModule</title>
<polygon fill="#8dd3c7" stroke="#000000" points="421.444,-187 418.444,-191 397.444,-191 394.444,-187 202.556,-187 202.556,-151 421.444,-151 421.444,-187"/>
<text text-anchor="middle" x="312" y="-164.8" font-family="Times,serif" font-size="14.00" fill="#000000">TipoRelacionUbicacionEnteModule</text>
</g>
<!-- ThemeModule&#45;&gt;TipoRelacionUbicacionEnteModule -->
<g id="edge1" class="edge">
<title>ThemeModule&#45;&gt;TipoRelacionUbicacionEnteModule</title>
<path fill="none" stroke="#000000" d="M611,-122.1061C611,-141.3391 611,-169 611,-169 611,-169 431.6388,-169 431.6388,-169"/>
<polygon fill="#000000" stroke="#000000" points="431.6388,-165.5001 421.6388,-169 431.6387,-172.5001 431.6388,-165.5001"/>
</g>
<!-- TipoRelacionUbicacionEnteRoutingModule -->
<g id="node2" class="node">
<title>TipoRelacionUbicacionEnteRoutingModule</title>
<polygon fill="#8dd3c7" stroke="#000000" points="544.0618,-122 541.0618,-126 520.0618,-126 517.0618,-122 279.9382,-122 279.9382,-86 544.0618,-86 544.0618,-122"/>
<text text-anchor="middle" x="412" y="-99.8" font-family="Times,serif" font-size="14.00" fill="#000000">TipoRelacionUbicacionEnteRoutingModule</text>
</g>
<!-- TipoRelacionUbicacionEnteRoutingModule&#45;&gt;TipoRelacionUbicacionEnteModule -->
<g id="edge2" class="edge">
<title>TipoRelacionUbicacionEnteRoutingModule&#45;&gt;TipoRelacionUbicacionEnteModule</title>
<path fill="none" stroke="#000000" d="M350.7206,-122.1061C350.7206,-122.1061 350.7206,-140.991 350.7206,-140.991"/>
<polygon fill="#000000" stroke="#000000" points="347.2206,-140.9909 350.7206,-150.991 354.2206,-140.991 347.2206,-140.9909"/>
</g>
<!-- SharedModule -->
<g id="node3" class="node">
<title>SharedModule</title>
<polygon fill="#8dd3c7" stroke="#000000" points="262.4231,-122 259.4231,-126 238.4231,-126 235.4231,-122 163.5769,-122 163.5769,-86 262.4231,-86 262.4231,-122"/>
<text text-anchor="middle" x="213" y="-99.8" font-family="Times,serif" font-size="14.00" fill="#000000">SharedModule</text>
</g>
<!-- SharedModule&#45;&gt;TipoRelacionUbicacionEnteModule -->
<g id="edge3" class="edge">
<title>SharedModule&#45;&gt;TipoRelacionUbicacionEnteModule</title>
<path fill="none" stroke="#000000" d="M232.3696,-122.1061C232.3696,-122.1061 232.3696,-140.991 232.3696,-140.991"/>
<polygon fill="#000000" stroke="#000000" points="228.8696,-140.9909 232.3696,-150.991 235.8696,-140.991 228.8696,-140.9909"/>
</g>
<!-- CrudTipoRelacionUbicacionEnteComponent  -->
<g id="node5" class="node">
<title>CrudTipoRelacionUbicacionEnteComponent </title>
<polygon fill="#fb8072" stroke="#000000" points="448.2239,-252 175.7761,-252 175.7761,-216 448.2239,-216 448.2239,-252"/>
<text text-anchor="middle" x="312" y="-229.8" font-family="Times,serif" font-size="14.00" fill="#000000">CrudTipoRelacionUbicacionEnteComponent </text>
</g>
<!-- TipoRelacionUbicacionEnteModule&#45;&gt;CrudTipoRelacionUbicacionEnteComponent  -->
<g id="edge4" class="edge">
<title>TipoRelacionUbicacionEnteModule&#45;&gt;CrudTipoRelacionUbicacionEnteComponent </title>
<path fill="none" stroke="#000000" stroke-dasharray="5,2" d="M312,-187.1061C312,-187.1061 312,-205.991 312,-205.991"/>
<polygon fill="#000000" stroke="#000000" points="308.5001,-205.9909 312,-215.991 315.5001,-205.991 308.5001,-205.9909"/>
</g>
<!-- EnteService -->
<g id="node6" class="node">
<title>EnteService</title>
<ellipse fill="#fdb462" stroke="#000000" cx="82" cy="-104" rx="57.881" ry="18"/>
<text text-anchor="middle" x="82" y="-99.8" font-family="Times,serif" font-size="14.00" fill="#000000">EnteService</text>
</g>
<!-- EnteService&#45;&gt;TipoRelacionUbicacionEnteModule -->
<g id="edge5" class="edge">
<title>EnteService&#45;&gt;TipoRelacionUbicacionEnteModule</title>
<path fill="none" stroke="#000000" d="M82,-122.1061C82,-141.3391 82,-169 82,-169 82,-169 192.3889,-169 192.3889,-169"/>
<polygon fill="#000000" stroke="#000000" points="192.3889,-172.5001 202.3889,-169 192.3888,-165.5001 192.3889,-172.5001"/>
</g>
</g>
</svg>
